<svg xmlns="http://www.w3.org/2000/svg" xmlns:xlink="http://www.w3.org/1999/xlink" width="271.925" height="249.43" viewBox="0 0 271.925 249.43">
  <defs>
    <clipPath id="clip-path">
      <rect id="Rectangle_408024" data-name="Rectangle 408024" width="271.772" height="249.43" fill="none"/>
    </clipPath>
  </defs>
  <g id="Group_1114006" data-name="Group 1114006" transform="translate(-285.166 -3617.5)">
    <rect id="Rectangle_401121" data-name="Rectangle 401121" width="271.772" height="140.032" rx="30" transform="translate(285.319 3726.899)" fill="#c0afff"/>
    <g id="Group_1114989" data-name="Group 1114989" transform="translate(285.166 3617.5)">
      <g id="Group_1114988" data-name="Group 1114988" transform="translate(0)" clip-path="url(#clip-path)">
        <path id="Path_921160" data-name="Path 921160" d="M282.036,266.939H47.774a44.764,44.764,0,0,1-9.043-23.718c-1.143-15.355,5.976-31.119,17.578-38.937,8.891-5.994,21.319-9.839,23.414-23.173.979-6.236.047-12.632-.072-18.965s.8-13.176,4.674-17.709c6.7-7.841,17.948-4.9,27.513-5.646,24.506-1.908,41.257-30.272,64.838-38.158,14.338-4.8,30.627-1.135,42.315,9.52,7.986,7.28,13.684,17.694,16.2,29,2.208,9.9-2.406,21.773,5.857,28.789,4.647,3.943,10.6,5.056,16.215,6.645s11.529,4.124,14.65,9.7c4.383,7.84,1.547,18.163-1.739,26.677s-6.988,18.11-3.96,26.745c2.353,6.728,8.2,10.906,11.912,16.778a26.959,26.959,0,0,1,3.907,12.449" transform="translate(-20.17 -18.579)" fill="#e9d6fa"/>
        <rect id="Rectangle_408016" data-name="Rectangle 408016" width="8.383" height="31.286" transform="translate(51.836 83.029)" fill="#008cff"/>
        <rect id="Rectangle_408017" data-name="Rectangle 408017" width="8.383" height="49.022" transform="translate(77.846 65.294)" fill="#008cff"/>
        <rect id="Rectangle_408018" data-name="Rectangle 408018" width="8.383" height="29.326" transform="translate(64.746 84.99)" fill="#008cff"/>
        <rect id="Rectangle_408019" data-name="Rectangle 408019" width="8.383" height="39.542" transform="translate(91.516 74.774)" fill="#008cff"/>
        <rect id="Rectangle_408020" data-name="Rectangle 408020" width="8.383" height="39.542" transform="translate(105.186 74.774)" fill="#008cff"/>
        <rect id="Rectangle_408021" data-name="Rectangle 408021" width="8.383" height="49.54" transform="translate(119.236 64.776)" fill="#008cff"/>
        <path id="Path_921161" data-name="Path 921161" d="M92.016,94.167a1.6,1.6,0,1,1-1.584-1.814,1.71,1.71,0,0,1,1.584,1.814" transform="translate(-34.797 -17.409)" fill="#10284f"/>
        <path id="Path_921162" data-name="Path 921162" d="M110.819,101.22a1.6,1.6,0,1,1-1.584-1.815,1.711,1.711,0,0,1,1.584,1.815" transform="translate(-40.272 -18.739)" fill="#10284f"/>
        <path id="Path_921163" data-name="Path 921163" d="M129.526,76.233a1.6,1.6,0,1,1-1.585-1.814,1.711,1.711,0,0,1,1.585,1.814" transform="translate(-45.718 -14.029)" fill="#10284f"/>
        <path id="Path_921164" data-name="Path 921164" d="M167.726,88.269a1.6,1.6,0,1,1-1.584-1.814,1.711,1.711,0,0,1,1.584,1.814" transform="translate(-56.841 -16.297)" fill="#10284f"/>
        <path id="Path_921165" data-name="Path 921165" d="M188.174,74.6a1.6,1.6,0,1,1-1.585-1.814,1.711,1.711,0,0,1,1.585,1.814" transform="translate(-62.794 -13.721)" fill="#10284f"/>
        <path id="Path_921166" data-name="Path 921166" d="M148.757,87.615a1.6,1.6,0,1,1-1.584-1.814,1.71,1.71,0,0,1,1.584,1.814" transform="translate(-51.318 -16.174)" fill="#10284f"/>
        <path id="Path_921167" data-name="Path 921167" d="M77.965,98.641l9.113-7.421,13.328,5.723,13.26-20.277L127.3,85.9l13.446.531,14.68-11.408" transform="translate(-31.629 -14.143)" fill="none" stroke="#10284f" stroke-linecap="round" stroke-miterlimit="10" stroke-width="0.613"/>
        <path id="Path_921168" data-name="Path 921168" d="M271.623,62.612c-3.243,13.927-15.964,21.654-28.141,18.127-12.1-3.5-19.5-17.877-16.281-31.686,3.165-13.591,15.066-21.849,26.949-18.97a1.336,1.336,0,0,1,.881,1.625L249.8,54.362A1.306,1.306,0,0,0,250.8,56l20.314,2.351a1.294,1.294,0,0,1,1.019,1.516q-.187,1.372-.505,2.743" transform="translate(-74.861 -5.563)" fill="#9d0388"/>
        <path id="Path_921169" data-name="Path 921169" d="M280.464,33.266,265.3,48.665c-.462.468-1.172-.033-1.015-.715l5.184-22.457a.62.62,0,0,1,.775-.506,22.633,22.633,0,0,1,10.268,7.264.786.786,0,0,1-.048,1.016" transform="translate(-85.871 -4.705)" fill="#6bfcf2"/>
        <path id="Path_921170" data-name="Path 921170" d="M286.657,58.414,266.623,56.1a1.011,1.011,0,0,1-.478-1.7L281.22,39.089a.775.775,0,0,1,1.214.1,28.915,28.915,0,0,1,5.159,18.306.9.9,0,0,1-.936.921" transform="translate(-86.335 -7.322)" fill="#7d0ede"/>
        <path id="Path_921171" data-name="Path 921171" d="M221.55,138.913l-3.922.474,2.667,3.324,1.525,1.9-3.089,3.765-1.752-1.621-3.066-2.839-.167,4.511-.1,2.576-4.51.163L208.9,148.6l-.414-4.491-2.9,3.054-1.659,1.745-3.29-3.536,1.418-2.006,2.48-3.509-3.94-.191-2.25-.109L198.2,134.4l2.24-.27,3.922-.475-2.667-3.324-1.525-1.9,3.089-3.766,1.752,1.622,3.066,2.839.166-4.512.1-2.576,4.51-.162.236,2.564.415,4.491,2.9-3.054,1.659-1.746,3.29,3.536-1.417,2.005-2.48,3.51,3.94.191,2.25.109.143,5.164Z" transform="translate(-66.637 -22.974)" fill="#6371ba"/>
        <path id="Path_921172" data-name="Path 921172" d="M222.386,139.454l-3.922.474,2.667,3.324a11.858,11.858,0,0,1-3.316,4.044l-3.066-2.839-.167,4.511a9.522,9.522,0,0,1-4.842.175l-.414-4.491-2.9,3.054a11.566,11.566,0,0,1-3.531-3.8l2.48-3.509-3.94-.191a14.16,14.16,0,0,1-.152-5.543l3.922-.475-2.667-3.324a11.855,11.855,0,0,1,3.316-4.043l3.066,2.839.166-4.512a9.534,9.534,0,0,1,4.842-.174l.415,4.491,2.9-3.054a11.57,11.57,0,0,1,3.531,3.8l-2.48,3.51,3.94.191a14.159,14.159,0,0,1,.152,5.543" transform="translate(-67.473 -23.516)" fill="#5363a3"/>
        <path id="Path_921173" data-name="Path 921173" d="M221.814,137.068c.164,5.971-3.931,10.964-9.147,11.152s-9.577-4.5-9.741-10.471,3.931-10.964,9.146-11.152,9.577,4.5,9.742,10.472" transform="translate(-68.011 -23.863)" fill="#6371ba"/>
        <path id="Path_921174" data-name="Path 921174" d="M220.309,137.84c.12,4.355-2.867,8-6.672,8.134s-6.986-3.283-7.105-7.638,2.867-8,6.672-8.134,6.986,3.283,7.105,7.638" transform="translate(-69.061 -24.543)" fill="#5363a3"/>
        <path id="Path_921175" data-name="Path 921175" d="M218.21,138.916a3.63,3.63,0,0,1-3.222,3.927,3.555,3.555,0,0,1-3.43-3.687,3.63,3.63,0,0,1,3.222-3.927,3.556,3.556,0,0,1,3.43,3.687" transform="translate(-70.525 -25.491)" fill="#6371ba"/>
        <path id="Path_921176" data-name="Path 921176" d="M248.21,122.128l-3.391.286,2.22,2.947,1.269,1.684-2.751,3.149-1.471-1.452-2.574-2.542-.251,3.883-.142,2.216h-3.891l-.143-2.216-.25-3.883-2.575,2.542-1.471,1.452-2.751-3.149,1.268-1.684,2.221-2.947-3.392-.286-1.936-.164V117.51l1.936-.164,3.392-.286-2.221-2.947-1.268-1.684,2.751-3.149,1.471,1.453,2.575,2.542.25-3.882.143-2.217h3.891l.142,2.217.251,3.882,2.574-2.542,1.472-1.453,2.751,3.149-1.269,1.684-2.22,2.947,3.391.286,1.937.164v4.454Z" transform="translate(-75.371 -20.203)" fill="#6371ba"/>
        <path id="Path_921177" data-name="Path 921177" d="M248.908,122.58l-3.391.286,2.22,2.947a10.1,10.1,0,0,1-2.953,3.381l-2.574-2.542-.251,3.883a8.2,8.2,0,0,1-4.176,0l-.25-3.883-2.574,2.542A10.105,10.105,0,0,1,232,125.814l2.221-2.947-3.392-.286a12.229,12.229,0,0,1,0-4.782l3.392-.286L232,114.564a10.1,10.1,0,0,1,2.954-3.381l2.574,2.542.25-3.882a8.2,8.2,0,0,1,4.176,0l.251,3.882,2.574-2.542a10.1,10.1,0,0,1,2.954,3.381l-2.22,2.947,3.391.286a12.227,12.227,0,0,1,0,4.782" transform="translate(-76.069 -20.655)" fill="#5363a3"/>
        <path id="Path_921178" data-name="Path 921178" d="M248.481,120.49c0,5.151-3.647,9.326-8.146,9.326s-8.147-4.175-8.147-9.326,3.648-9.326,8.147-9.326,8.146,4.175,8.146,9.326" transform="translate(-76.532 -20.955)" fill="#6371ba"/>
        <path id="Path_921179" data-name="Path 921179" d="M247.182,121.076c0,3.757-2.66,6.8-5.942,6.8s-5.942-3.046-5.942-6.8,2.66-6.8,5.942-6.8,5.942,3.046,5.942,6.8" transform="translate(-77.438 -21.541)" fill="#5363a3"/>
        <path id="Path_921180" data-name="Path 921180" d="M245.37,121.893a2.895,2.895,0,1,1-2.869-3.284,3.1,3.1,0,0,1,2.869,3.284" transform="translate(-78.7 -22.359)" fill="#6371ba"/>
        <path id="Path_921181" data-name="Path 921181" d="M223.95,108.385l-2.567.217,1.681,2.231.96,1.275-2.082,2.383-1.114-1.1-1.949-1.924-.189,2.938-.108,1.678h-2.944l-.108-1.677-.19-2.939-1.949,1.924-1.113,1.1-2.083-2.383.96-1.275,1.681-2.231-2.567-.217-1.465-.124V104.89l1.465-.124,2.567-.217-1.681-2.23-.96-1.275,2.083-2.384,1.114,1.1,1.948,1.924.19-2.939.108-1.677h2.944l.108,1.678.189,2.938,1.949-1.924,1.114-1.1,2.082,2.384-.96,1.275-1.681,2.23,2.567.217,1.466.124v3.371Z" transform="translate(-69.723 -18.298)" fill="#6371ba"/>
        <path id="Path_921182" data-name="Path 921182" d="M224.478,108.728l-2.567.217,1.681,2.231a7.637,7.637,0,0,1-2.236,2.559l-1.949-1.924-.189,2.938a6.2,6.2,0,0,1-3.161,0l-.19-2.939-1.949,1.924a7.635,7.635,0,0,1-2.235-2.559l1.681-2.231-2.567-.217a9.255,9.255,0,0,1,0-3.619l2.567-.217-1.681-2.23a7.637,7.637,0,0,1,2.236-2.559l1.948,1.924.19-2.939a6.2,6.2,0,0,1,3.161,0l.189,2.938,1.949-1.924a7.645,7.645,0,0,1,2.236,2.559l-1.681,2.23,2.567.217a9.255,9.255,0,0,1,0,3.619" transform="translate(-70.252 -18.64)" fill="#5363a3"/>
        <path id="Path_921183" data-name="Path 921183" d="M224.155,107.144c0,3.9-2.761,7.059-6.166,7.059s-6.165-3.161-6.165-7.059,2.76-7.059,6.165-7.059,6.166,3.161,6.166,7.059" transform="translate(-70.603 -18.867)" fill="#6371ba"/>
        <path id="Path_921184" data-name="Path 921184" d="M223.171,107.588c0,2.843-2.014,5.149-4.5,5.149s-4.5-2.305-4.5-5.149,2.013-5.149,4.5-5.149,4.5,2.305,4.5,5.149" transform="translate(-71.288 -19.311)" fill="#5363a3"/>
        <path id="Path_921185" data-name="Path 921185" d="M221.8,108.207a2.191,2.191,0,1,1-2.171-2.486,2.344,2.344,0,0,1,2.171,2.486" transform="translate(-72.243 -19.929)" fill="#6371ba"/>
        <path id="Path_921186" data-name="Path 921186" d="M300.742,12.963l1.3,8.454L276.194,0Z" transform="translate(-89.345 0)" fill="#ef9d30"/>
        <path id="Path_921187" data-name="Path 921187" d="M298.785,16.1l3.258,5.313L276.193,0Z" transform="translate(-89.345 0)" fill="#ddae19"/>
        <path id="Path_921188" data-name="Path 921188" d="M276.194,0l22.592,16.1-5.311,11.28Z" transform="translate(-89.345 0)" fill="#f1c830"/>
        <path id="Path_921189" data-name="Path 921189" d="M276.194,0l24.548,12.963,6.734-6.853Z" transform="translate(-89.345 0)" fill="#f1c830"/>
        <path id="Path_921190" data-name="Path 921190" d="M254.494,28.512c14.168,8.743,22.691,28.135,20.382,46.37-1.96,15.474-10.261,33.177-24.8,37.514-3.517,1.049-5.875-4.087-3.067-6.728,2.916-2.743,6.532-4.014,11.989-4.149,6.981-.174,11.256,8.814,12.127,16.746s-1.469,15.915-4.784,22.951c-11.575,24.57-36.159,40.287-60.5,38.681-13.447-.888-26.243-6.535-39.175-10.848s-26.855-7.307-39.756-2.878c-11.03,3.786-20.52,13.092-25.484,24.986a54.482,54.482,0,0,0-.968,38.4" transform="translate(-37.296 -5.375)" fill="none" stroke="#10284f" stroke-linecap="round" stroke-miterlimit="10" stroke-width="1.865" stroke-dasharray="4.663 4.663"/>
        <path id="Path_921191" data-name="Path 921191" d="M260.118,57.2l7,3.351L198.6,147.292l-20.822-26.666-36.767,37.066-18.144-25.286L2.3,258.684l14.289-.222L122.867,148.552l18.922,25.59,35.77-36.558L198.6,162.1l71.368-97.887,4.406,8.225,1.814-19.8Z" transform="translate(-2.3 -9.922)" fill="#7d0ede"/>
        <path id="Path_921192" data-name="Path 921192" d="M269.066,282.637l-.8-101.4-59.11,1.114.79,100.291Z" transform="translate(-69.827 -34.164)" fill="#d36948"/>
        <path id="Path_921193" data-name="Path 921193" d="M279.578,282.637l-.8-101.4-33.517.631.794,100.774Z" transform="translate(-80.339 -34.164)" fill="#e58563"/>
        <path id="Path_921194" data-name="Path 921194" d="M244.947,202.8v82.125c0,.531.717.455.717-.071V202.728c0-.53-.717-.455-.717.072" transform="translate(-80.247 -38.147)" fill="#363e66"/>
        <path id="Path_921195" data-name="Path 921195" d="M277.27,184.684l-31.952.6-.007-.509,31.912-.6c.286,0,.334.5.047.509" transform="translate(-80.353 -34.718)" fill="#d36948"/>
        <path id="Path_921196" data-name="Path 921196" d="M235.662,184.917l.007.509-23.258.439c-.286.006-.335-.5-.047-.508Z" transform="translate(-70.704 -34.858)" fill="#bf4d2e"/>
        <path id="Path_921197" data-name="Path 921197" d="M213,303.994l23.572-.445.007.51-23.533.444c-.285,0-.334-.5-.045-.509" transform="translate(-70.888 -57.221)" fill="#bf4d2e"/>
        <path id="Path_921198" data-name="Path 921198" d="M278.339,303.315l-32,.6-.008-.51,31.962-.6c.286-.006.334.5.047.508" transform="translate(-80.65 -57.081)" fill="#d36948"/>
        <path id="Path_921199" data-name="Path 921199" d="M229.791,182.2l.13,9.051-4.715-1.375-4.673,1.552-.13-9.051Z" transform="translate(-73.101 -34.346)" fill="#f1c830"/>
        <path id="Path_924006" data-name="Path 924006" d="M0,0,12.292-.029l-.021,9.988L-.021,9.988Z" transform="translate(183.918 233.108) rotate(-0.945)" fill="#ef9c81"/>
        <path id="Path_921200" data-name="Path 921200" d="M214.167,297.025l-.8-39.465-59.109,1.114.774,38.351Z" transform="translate(-53.843 -48.552)" fill="#d36948"/>
        <path id="Path_921201" data-name="Path 921201" d="M224.68,297.025l-.8-39.465-33.517.632.784,38.833Z" transform="translate(-64.355 -48.552)" fill="#e58563"/>
        <path id="Path_921202" data-name="Path 921202" d="M222.373,261.012l-31.952.6-.007-.51,31.912-.6c.286-.006.334.5.047.508" transform="translate(-64.369 -49.107)" fill="#d36948"/>
        <path id="Path_921203" data-name="Path 921203" d="M180.765,261.246l.007.509-23.258.439c-.286,0-.335-.5-.046-.509Z" transform="translate(-54.72 -49.247)" fill="#bf4d2e"/>
        <path id="Path_921204" data-name="Path 921204" d="M158.1,303.994l23.572-.445.007.51-23.533.444c-.285,0-.334-.5-.045-.509" transform="translate(-54.905 -57.221)" fill="#bf4d2e"/>
        <path id="Path_921205" data-name="Path 921205" d="M223.442,303.315l-32,.6-.008-.51,31.962-.6c.286-.006.334.5.047.508" transform="translate(-64.666 -57.081)" fill="#d36948"/>
        <path id="Path_924007" data-name="Path 924007" d="M0,0,12.292-.029l-.021,9.988L-.021,9.988Z" transform="translate(145.005 233.108) rotate(-0.945)" fill="#ef9c81"/>
        <path id="Path_921206" data-name="Path 921206" d="M150.759,293.319l-.8-55.418-59.11,1.114.782,54.3Z" transform="translate(-35.381 -44.846)" fill="#d36948"/>
        <path id="Path_921207" data-name="Path 921207" d="M161.272,293.319l-.8-55.418-33.517.631.788,54.787Z" transform="translate(-45.893 -44.846)" fill="#e58563"/>
        <path id="Path_921208" data-name="Path 921208" d="M158.965,241.353l-31.952.6-.007-.51,31.912-.6c.286-.006.334.5.047.508" transform="translate(-45.907 -45.401)" fill="#d36948"/>
        <path id="Path_921209" data-name="Path 921209" d="M117.356,241.586l.007.509-23.258.439c-.286,0-.335-.5-.046-.509Z" transform="translate(-36.258 -45.541)" fill="#bf4d2e"/>
        <path id="Path_921210" data-name="Path 921210" d="M94.692,303.994l23.572-.445.007.51-23.533.444c-.285,0-.334-.5-.045-.509" transform="translate(-36.443 -57.221)" fill="#bf4d2e"/>
        <path id="Path_921211" data-name="Path 921211" d="M160.034,303.315l-32,.6-.008-.51,31.962-.6c.286-.006.334.5.047.508" transform="translate(-46.204 -57.081)" fill="#d36948"/>
        <path id="Path_921212" data-name="Path 921212" d="M111.486,238.871l.13,9.051-4.714-1.375-4.673,1.552-.13-9.051Z" transform="translate(-38.655 -45.029)" fill="#f1c830"/>
        <path id="Path_921213" data-name="Path 921213" d="M66.234,303.154H91.761s-10.083-10.893-13.912-12.217-9.062,3.532-11.614,12.217" transform="translate(-28.213 -54.803)" fill="#10284f"/>
        <path id="Path_921214" data-name="Path 921214" d="M71.539,182.334s1.639,49.038,3.3,72.6a45.506,45.506,0,0,0,4.96,17.781h0s-9.284.076-12.556,2.141a18.116,18.116,0,0,0-5.233,5.741s-9.438-96.618-10.269-109.225C65.8,168.9,71.539,182.334,71.539,182.334" transform="translate(-23.995 -32.248)" fill="#3a2292"/>
        <path id="Path_921215" data-name="Path 921215" d="M91.811,301.3a7.475,7.475,0,0,0-.094,2.122h29.472a11.474,11.474,0,0,0-4.95-5.232c-3.732-2.092-7.083-3.4-9.291-6.713-6.854.261-15.137,9.822-15.137,9.822" transform="translate(-35.618 -54.945)" fill="#10284f"/>
        <path id="Path_921216" data-name="Path 921216" d="M104.018,218.2c.822,9.119-7.646,50.558-7.646,50.558l-4.246,3.824a17.89,17.89,0,0,1-11.984,4.75s4.681-36.623,5.932-54.667c-1.874-15.542-11.861-40.017-11.861-40.017s-10.456.715-16.386-1.251c-3.268-1.081-4.83-4.607-5.574-7.555a22.955,22.955,0,0,1-.668-4.412s22.939-11.97,41.541.782c.663,1.832,1.31,3.718,1.936,5.643a230.549,230.549,0,0,1,8.956,42.344" transform="translate(-23.948 -30.978)" fill="#3a2292"/>
        <path id="Path_921217" data-name="Path 921217" d="M95.062,175.853l-42.809-2.013a22.959,22.959,0,0,1-.668-4.413s22.939-11.97,41.541.783c.663,1.832,1.31,3.718,1.936,5.643" transform="translate(-23.948 -30.978)" fill="#170551"/>
        <path id="Path_921218" data-name="Path 921218" d="M41.532,136l4.489,6.1s-.5,5.6-4.093,13.825a19.031,19.031,0,0,1-3.171-2.708c-5.456-5.225-15.863-16.332-17.487-18.543-2.1-2.855-4.191-4.57-2.795-10.854,1.978-8.893,19.443-32.684,21.912-34.108,8.24-4.744,6.231,20.514,4.335,22.912S34.843,126.9,34.843,126.9Z" transform="translate(-14.176 -16.8)" fill="#3a2292"/>
        <path id="Path_921219" data-name="Path 921219" d="M54.537,152.988s-.5,5.6-4.093,13.825a19.061,19.061,0,0,1-3.171-2.708c.542-5.243,2.257-14.48,2.774-17.218Z" transform="translate(-22.693 -27.689)" fill="#3a2292"/>
        <path id="Path_921220" data-name="Path 921220" d="M122.207,110.325c-.043-.191,0-4.675,0-4.675l4.416-13.023a5.3,5.3,0,0,1,1.167,2.719c.375,1.956-.292,10.256-.084,11.783s.583,3.959.583,3.959Z" transform="translate(-44.505 -17.461)" fill="#ffab82"/>
        <path id="Path_921221" data-name="Path 921221" d="M102.963,74.56h18.611a1.045,1.045,0,0,1,.908,1.323l-5.778,27.2a.969.969,0,0,1-.908.817H96.623a1.048,1.048,0,0,1-.9-1.345l6.341-27.2a.965.965,0,0,1,.9-.794" transform="translate(-36.789 -14.055)" fill="#23396a"/>
        <path id="Path_921222" data-name="Path 921222" d="M104.805,76.036l15.974-.025c.521,0,1.1-.2.868,1.127s-4.865,23.8-4.98,24.531a1.485,1.485,0,0,1-1.564,1.26H99.467c-.869,0-1.247-.783-1.247-1.844s4.85-22.438,5.069-23.218c.366-1.3.59-1.9,1.516-1.832" transform="translate(-37.526 -14.327)" fill="#e8f0ff"/>
        <path id="Path_921223" data-name="Path 921223" d="M128.971,117.361l-.463-4.531s-3.453-2.362-8,1.205a24.04,24.04,0,0,1,.252,3.76Z" transform="translate(-44.015 -21.125)" fill="#fff"/>
        <path id="Path_921224" data-name="Path 921224" d="M84.836,59.4a4.858,4.858,0,0,0,2.526-3.76c.189-2.6-2.274-2.675-3.979-4.266s-.568-3.76-4.674-3.833-11.937,3.4-13.074,6.942-1.074,7.809,3.095,15.4c6.821,3.471,8.779,0,8.969-.144s6.568-6.8,6.694-7.014.442-3.326.442-3.326" transform="translate(-27.855 -8.961)" fill="#6b3324"/>
        <path id="Path_921225" data-name="Path 921225" d="M85.2,74.178c-.582.709-2.115.856-3.67.856-.1,0-.2,0-.3,0A1.257,1.257,0,0,0,80.05,76l0,.015a10.1,10.1,0,0,0-.266,1.391,31.456,31.456,0,0,0-.21,3.457,100.823,100.823,0,0,1-11.428-.592,14.114,14.114,0,0,0,.744-3.25c.371-2.4.641-5.177.641-5.177l7.283.046a.959.959,0,0,0,.9-.919l.079-.842a2.473,2.473,0,0,0-.685-2.008,4.365,4.365,0,0,1-.934-1.292c-.561-1.238-1.062-4,.627-4.548S79.31,66.05,79.31,66.05a18.415,18.415,0,0,1,.737-2.627c.648-1.981,3.159-2.081,5.973-3.468.606,3.022-.13,13.379-.823,14.222" transform="translate(-28.769 -11.302)" fill="#ffab82"/>
        <path id="Path_921226" data-name="Path 921226" d="M79.781,81.368a31.251,31.251,0,0,0-.211,3.457,100.8,100.8,0,0,1-11.427-.592,14.15,14.15,0,0,0,.743-3.25,75.091,75.091,0,0,1,10.895.385" transform="translate(-28.769 -15.259)" fill="#ff875f"/>
        <path id="Path_921227" data-name="Path 921227" d="M85.981,77.8l-.279,0a1.271,1.271,0,0,0-1.2.971l0,.015a18.293,18.293,0,0,1-1.062-4.146A13.778,13.778,0,0,0,85.981,77.8" transform="translate(-33.222 -14.071)" fill="#23396a"/>
        <path id="Path_921228" data-name="Path 921228" d="M82.113,67.066c-.092-.312-.193-.62-.3-.923q-.175-.481-.383-.944a2.66,2.66,0,0,0-.445-.762.788.788,0,0,0-1.314.129,1.7,1.7,0,0,0,.133,1.7.166.166,0,0,0,.293-.117c-.016-.426-.3-.947-.01-1.332.317-.425.684.257.814.545.213.472.4.958.576,1.452.081.235.156.471.229.709s.128.523.229.76a.228.228,0,0,0,.438-.122,5.53,5.53,0,0,0-.255-1.092" transform="translate(-32.075 -12.091)" fill="#23396a"/>
        <path id="Path_921229" data-name="Path 921229" d="M81.8,66.415a1.313,1.313,0,0,0-1.163,1.3,1.622,1.622,0,0,0,.23.95,1.348,1.348,0,0,0,.286.324,1.084,1.084,0,0,0,.426.195.184.184,0,0,0,.109-.347,1.094,1.094,0,0,1,.149-2.017c.177-.075.179-.392-.037-.4" transform="translate(-32.405 -12.52)" fill="#23396a"/>
        <path id="Path_921230" data-name="Path 921230" d="M91.755,65.316a9.677,9.677,0,0,0-2.119-.084l-2.1-.006q-1.02,0-2.039,0H84.456a2.425,2.425,0,0,0-1.107.11.234.234,0,0,0,0,.372,2.175,2.175,0,0,0,1.011.11h.992q1.045,0,2.091,0l2.034-.007a11.264,11.264,0,0,0,2.275-.083.225.225,0,0,0,0-.411" transform="translate(-33.169 -12.294)" fill="#23396a"/>
        <path id="Path_921231" data-name="Path 921231" d="M94.715,63.475c-.276-.322-.858-.579-1.171-.175-.1.124-.034.393.145.329,1.033-.368.908,1.3.861,2a3.637,3.637,0,0,1-.329,1.461,1.93,1.93,0,0,1-.386.5.96.96,0,0,1-.215.153,1.32,1.32,0,0,1-.264.145c-.206.041-.14.376.06.359.084-.007.162.024.245.009a.774.774,0,0,0,.2-.076,1.825,1.825,0,0,0,.315-.2,2.026,2.026,0,0,0,.51-.675,5.027,5.027,0,0,0,.388-2.033,2.541,2.541,0,0,0-.354-1.8" transform="translate(-36.073 -11.893)" fill="#23396a"/>
        <path id="Path_921232" data-name="Path 921232" d="M50.305,154.87s2.334-23.416,1.786-29.075-4.805-34.888-2.746-37.246,11.549-2.363,11.549-2.363.531-2.208,1.529-2.816,11.111-.383,12.308-.307S76.8,85.958,76.8,85.958s8.659.243,10.378.915c3.492,1.363,5.138,68,5.138,68Z" transform="translate(-23.133 -15.638)" fill="#3a2292"/>
        <path id="Path_921233" data-name="Path 921233" d="M122.208,130.965c-.6,4.726-4.126,7.974-8.684,5.316s-20.291-24.51-20.032-36.124,6.7-12.375,6.7-12.375c5.063,1.7,13.85,23.794,13.85,23.794a15.758,15.758,0,0,1,2.589-.322,13.24,13.24,0,0,1,5.237.715c.171.985.945,14.273.343,19" transform="translate(-36.148 -16.548)" fill="#3a2292"/>
        <path id="Path_921234" data-name="Path 921234" d="M104.34,127.553c-2.258-3.947-4.554-7.87-6.767-11.851-2.007-3.611-3.867-7.5-4.219-11.841a14.6,14.6,0,0,1,.939-6.76c.184-.442-.416-.767-.6-.325-1.618,3.9-1.216,8.453.1,12.378,1.436,4.276,3.835,8.057,6.012,11.864l3.99,6.974c.234.41.775-.029.542-.439" transform="translate(-35.9 -18.203)" fill="#10284f"/>
        <path id="Path_921235" data-name="Path 921235" d="M94.6,114.829a7.322,7.322,0,0,1-.845-.18,8.717,8.717,0,0,1-5.352-4.5c-.214-.42.327-.861.542-.438a8.242,8.242,0,0,0,4.414,4.03,6.428,6.428,0,0,0,.858.251Z" transform="translate(-34.655 -20.65)" fill="#10284f"/>
        <path id="Path_921236" data-name="Path 921236" d="M127.018,124.953l-4.538-7.925a15.756,15.756,0,0,1,2.589-.322Z" transform="translate(-44.59 -22)" fill="#170551"/>
        <path id="Path_921237" data-name="Path 921237" d="M128.629,132.458a19.374,19.374,0,0,0-.313-4.8,18.4,18.4,0,0,0-1.754-5.06c-.219-.419-.8-.041-.575.381a18.042,18.042,0,0,1,2.008,7.887,12.632,12.632,0,0,1-.366,3.885,1.812,1.812,0,0,1-.8,1.168,1.024,1.024,0,0,1-1.238-.5,2.438,2.438,0,0,1-.073-2.1,7.09,7.09,0,0,1,1.294-1.981c.293-.356-.174-.9-.466-.54-.943,1.148-2.029,2.628-1.6,4.331.335,1.341,1.756,2.142,2.772,1.192.939-.877,1.041-2.582,1.119-3.857" transform="translate(-45.219 -23.075)" fill="#10284f"/>
        <path id="Path_921238" data-name="Path 921238" d="M130.164,125.868a4.716,4.716,0,0,0-2.773-2.33c-.173-.051-.356.114-.386.305a.388.388,0,0,0,.267.443,4.053,4.053,0,0,1,2.351,2.021.308.308,0,0,0,.462.091.426.426,0,0,0,.079-.53" transform="translate(-45.905 -23.286)" fill="#10284f"/>
        <path id="Path_921239" data-name="Path 921239" d="M118.83,94.148c-.754.345.322,1.72,1.449,2.15a3.411,3.411,0,0,1,1.878,1.474c.347.51-.723,7.708,1.887,9.4a1.123,1.123,0,0,0,1.34-.078c1.993-1.6.892-4.725.744-5.515-.161-.86-2.146-6.267-2.737-6.82s-4.025-.86-4.561-.614" transform="translate(-43.453 -17.731)" fill="#ffab82"/>
        <path id="Path_921240" data-name="Path 921240" d="M51.229,119.247c-.548-2.974-1.114-5.945-1.634-8.926a86.337,86.337,0,0,1-1.17-8.9,45.55,45.55,0,0,1-.082-5.121.393.393,0,0,0-.267-.442.341.341,0,0,0-.386.305c-.268,6.1.841,12.1,1.935,18.041q.472,2.556.943,5.113c.087.472.749.411.661-.067" transform="translate(-22.802 -18.068)" fill="#10284f"/>
        <path id="Path_921241" data-name="Path 921241" d="M49.285,116.829a23.329,23.329,0,0,1-4.454-10.282,25.024,25.024,0,0,1-.337-3.282c-.018-.489-.68-.421-.661.067a25.062,25.062,0,0,0,3.113,11.218,21.96,21.96,0,0,0,1.8,2.718.349.349,0,0,0,.542-.439" transform="translate(-21.691 -19.403)" fill="#10284f"/>
        <path id="Path_921242" data-name="Path 921242" d="M47.277,120.709a12.421,12.421,0,0,1-5.221,1.181,10.32,10.32,0,0,1-2.626-.294c-.337-.088-.819-.293-.857-.762-.031-.4.376-.635.641-.778a6.325,6.325,0,0,1,2.922-.759c.427-.006.368-.764-.057-.757a6.769,6.769,0,0,0-3.052.78,2.069,2.069,0,0,0-1,.915,1.437,1.437,0,0,0,.122,1.35,1.9,1.9,0,0,0,1.209.771,10.291,10.291,0,0,0,1.52.238,12.751,12.751,0,0,0,3.178-.1,13.15,13.15,0,0,0,3.453-1.066c.394-.184.165-.9-.232-.712" transform="translate(-19.966 -22.346)" fill="#10284f"/>
        <path id="Path_921243" data-name="Path 921243" d="M39.728,135.082a72.337,72.337,0,0,1-5.585,6.869c-.31.336.2.821.508.489a72.22,72.22,0,0,0,5.585-6.869c.271-.378-.237-.867-.508-.489" transform="translate(-18.842 -25.438)" fill="#10284f"/>
        <path id="Path_921244" data-name="Path 921244" d="M41.31,135.595a.334.334,0,1,0-.661.067,16.3,16.3,0,0,1-.13,5.728c-.095.467-.21.93-.349,1.384a4.812,4.812,0,0,1-.48,1.242c-.171.256-.527.466-.708.112a1.645,1.645,0,0,1-.082-.927,5.339,5.339,0,0,1,1.15-2.669c.292-.359-.218-.846-.509-.489a6.105,6.105,0,0,0-1.262,2.816c-.134.786-.089,1.986.765,2.2,1.039.257,1.482-1.148,1.743-2.013a16.671,16.671,0,0,0,.659-3.429,17.066,17.066,0,0,0-.135-4.02" transform="translate(-20.057 -25.499)" fill="#10284f"/>
        <path id="Path_921245" data-name="Path 921245" d="M72.309,137.207c-1.387-4.742-2.93-9.485-3.3-14.508a22.621,22.621,0,0,1,.765-8.16c.138-.458-.461-.786-.6-.325-1.432,4.753-.951,9.838.119,14.618,1.1,4.9,2.862,9.572,3.926,14.486a32.726,32.726,0,0,1,.826,8.438c-.023.483.629.625.653.138.24-5.052-1-9.947-2.389-14.688" transform="translate(-28.81 -21.488)" fill="#10284f"/>
        <path id="Path_921246" data-name="Path 921246" d="M81.769,85.958l-15.9.228s.531-2.209,1.528-2.817,11.111-.382,12.308-.307,2.064,2.9,2.064,2.9" transform="translate(-28.106 -15.638)" fill="#3a2292"/>
        <path id="Path_921247" data-name="Path 921247" d="M83.358,186.8l-17.727-.932-5.065-.267c-.181-.009-.314.227-.3.412a.357.357,0,0,0,.359.345l17.727.932,5.065.266c.181.01.315-.226.3-.411a.357.357,0,0,0-.359-.346" transform="translate(-26.474 -34.987)" fill="#10284f"/>
        <path id="Path_921248" data-name="Path 921248" d="M113.325,237.258a12.889,12.889,0,0,0-11.2-.935c-.4.157-.174.869.232.712a12.286,12.286,0,0,1,10.684.91c.381.223.663-.465.284-.687" transform="translate(-38.602 -44.386)" fill="#10284f"/>
        <path id="Path_921249" data-name="Path 921249" d="M107.322,239.633A7.315,7.315,0,0,1,102,236.68c-.277-.366-.822.069-.542.439a7.949,7.949,0,0,0,5.742,3.261c.421.028.545-.72.12-.747" transform="translate(-38.447 -44.59)" fill="#10284f"/>
        <path id="Path_921250" data-name="Path 921250" d="M72.416,239.129a8.071,8.071,0,0,0-8.244-1.794,7.871,7.871,0,0,0-2.244,1.244c-.352.277.03.9.383.62a7.37,7.37,0,0,1,7.724-.838,7.535,7.535,0,0,1,1.954,1.35c.329.313.756-.269.427-.582" transform="translate(-26.918 -44.654)" fill="#10284f"/>
        <path id="Path_921251" data-name="Path 921251" d="M188.846,189.33,121.979,200.2l5.079,34.468,65.893-9.928Z" transform="translate(-44.444 -35.69)" fill="#00b55b"/>
        <path id="Path_921252" data-name="Path 921252" d="M124.891,207.153l3.458,22.085a4.664,4.664,0,0,1,4.771,3.737l55.33-8.25c-.262-2.291,1.2-5.354,3.2-5.668l-2.57-22.545c-2.024.33-4.233-1.72-4.5-4.041l-56.633,9.163c.366,2.343-1,5.184-3.054,5.52" transform="translate(-45.292 -36.282)" fill="#008a3c"/>
        <path id="Path_921253" data-name="Path 921253" d="M177.816,213.771c.723,5.941-2.9,11.428-8.089,12.255s-9.982-3.318-10.7-9.259,2.9-11.428,8.088-12.255,9.983,3.318,10.706,9.259" transform="translate(-55.202 -38.532)" fill="#00b55b"/>
        <path id="Path_921254" data-name="Path 921254" d="M167.79,206.242c-4.519.721-7.667,5.491-7.037,10.664s4.8,8.776,9.314,8.057,7.665-5.5,7.037-10.664-4.8-8.775-9.314-8.057m2.131,17.521c-3.947.629-7.582-2.516-8.13-7.023s2.2-8.681,6.144-9.309,7.573,2.517,8.123,7.036-2.2,8.669-6.136,9.3" transform="translate(-55.71 -38.861)" fill="#008a3c"/>
        <path id="Path_921255" data-name="Path 921255" d="M174.954,217.607a3.289,3.289,0,0,1-2.2,3.714l.131,1.08-2.018.321-.132-1.079a3.139,3.139,0,0,1-2.1-.851,3.506,3.506,0,0,1-.985-2.183l2.579-.411a.958.958,0,0,0,.4.725,1.07,1.07,0,0,0,.789.155,1.215,1.215,0,0,0,.695-.342.759.759,0,0,0,.226-.659.778.778,0,0,0-.084-.279.539.539,0,0,0-.2-.2,2.659,2.659,0,0,0-.249-.138,1.45,1.45,0,0,0-.352-.1c-.158-.029-.281-.049-.37-.061l-.434-.054-.467-.057c-.107-.014-.263-.04-.467-.08a3.9,3.9,0,0,1-.485-.118c-.119-.04-.269-.1-.448-.171a1.833,1.833,0,0,1-.436-.243,3.672,3.672,0,0,1-.367-.334,1.885,1.885,0,0,1-.326-.44,3.389,3.389,0,0,1-.23-.564,3.927,3.927,0,0,1-.15-.712,3.278,3.278,0,0,1,.394-2.149,3.2,3.2,0,0,1,1.684-1.33l-.125-1.02,2.019-.321.126,1.035a2.81,2.81,0,0,1,1.91.811,3.387,3.387,0,0,1,.882,2.03l-2.506.407a.821.821,0,0,0-.349-.63.971.971,0,0,0-.7-.126,1.16,1.16,0,0,0-.6.269.573.573,0,0,0-.2.528.593.593,0,0,0,.124.3.813.813,0,0,0,.227.2,1.387,1.387,0,0,0,.376.133c.169.04.31.069.424.086s.288.041.52.071h.006a7.725,7.725,0,0,1,1.769.387,2.692,2.692,0,0,1,1.691,2.287Z" transform="translate(-57.623 -39.531)" fill="#008a3c"/>
        <path id="Path_921256" data-name="Path 921256" d="M203.3,213.469a2.323,2.323,0,0,1-1.552,2.623l.093.762-1.425.227-.093-.762a2.216,2.216,0,0,1-1.484-.6,2.481,2.481,0,0,1-.7-1.541l1.821-.291a.676.676,0,0,0,.283.512.752.752,0,0,0,.557.11.863.863,0,0,0,.491-.241.541.541,0,0,0,.16-.466.591.591,0,0,0-.06-.2.384.384,0,0,0-.142-.143,1.956,1.956,0,0,0-.176-.1,1.021,1.021,0,0,0-.247-.069c-.112-.02-.2-.034-.262-.043l-.307-.037-.33-.041c-.075-.009-.185-.028-.329-.056a2.66,2.66,0,0,1-.343-.084q-.126-.043-.316-.121a1.3,1.3,0,0,1-.308-.171,2.689,2.689,0,0,1-.259-.236,1.336,1.336,0,0,1-.23-.311,2.474,2.474,0,0,1-.162-.4,2.7,2.7,0,0,1-.106-.5,2.315,2.315,0,0,1,.278-1.518,2.256,2.256,0,0,1,1.189-.94l-.087-.72,1.425-.227.089.73a1.987,1.987,0,0,1,1.349.573,2.4,2.4,0,0,1,.623,1.434l-1.769.287a.573.573,0,0,0-.247-.445.688.688,0,0,0-.5-.089.825.825,0,0,0-.426.191.4.4,0,0,0-.142.373.42.42,0,0,0,.088.214.589.589,0,0,0,.16.143.992.992,0,0,0,.265.093q.179.043.3.061c.081.013.2.029.366.05h0a5.439,5.439,0,0,1,1.249.274,1.9,1.9,0,0,1,1.194,1.614Z" transform="translate(-66.537 -39.189)" fill="#00b55b"/>
        <path id="Path_921257" data-name="Path 921257" d="M144.118,223.035a2.325,2.325,0,0,1-1.552,2.623l.093.762-1.425.227-.094-.762a2.215,2.215,0,0,1-1.483-.6,2.477,2.477,0,0,1-.7-1.541l1.821-.291a.676.676,0,0,0,.283.512.751.751,0,0,0,.557.11.863.863,0,0,0,.491-.241.537.537,0,0,0,.159-.466.558.558,0,0,0-.06-.2.382.382,0,0,0-.141-.143,1.958,1.958,0,0,0-.176-.1,1.03,1.03,0,0,0-.248-.069c-.111-.02-.2-.034-.262-.043l-.306-.037-.33-.04c-.076-.01-.186-.028-.33-.057a2.678,2.678,0,0,1-.342-.084c-.084-.028-.19-.069-.317-.121a1.307,1.307,0,0,1-.308-.171,2.688,2.688,0,0,1-.259-.236,1.318,1.318,0,0,1-.23-.311,2.385,2.385,0,0,1-.162-.4,2.732,2.732,0,0,1-.106-.5,2.311,2.311,0,0,1,.279-1.518,2.256,2.256,0,0,1,1.189-.94l-.088-.72,1.425-.227.089.73a1.988,1.988,0,0,1,1.35.573,2.4,2.4,0,0,1,.623,1.434l-1.769.287a.577.577,0,0,0-.247-.445.688.688,0,0,0-.5-.089.826.826,0,0,0-.426.191.4.4,0,0,0-.142.373.422.422,0,0,0,.087.214.591.591,0,0,0,.16.143.991.991,0,0,0,.265.093q.179.043.3.061c.08.013.2.03.366.05h0a5.455,5.455,0,0,1,1.249.274,1.9,1.9,0,0,1,1.193,1.614Z" transform="translate(-49.304 -40.992)" fill="#00b55b"/>
        <path id="Path_921258" data-name="Path 921258" d="M129.158,209.285l3.3,18.095a4.536,4.536,0,0,1,4.427,3.261l50.562-7.787c-.216-1.9,1.192-4.807,2.848-5.068l-2.1-18.526a3.988,3.988,0,0,1-4.086-3.294l-51.79,8.339C132.624,206.245,130.863,209.007,129.158,209.285Z" transform="translate(-46.534 -36.941)" fill="none" stroke="#00b55b" stroke-miterlimit="10" stroke-width="0.55"/>
        <path id="Path_921259" data-name="Path 921259" d="M188.75,189.294l-13.067,2.082-13.067,2.081-13.066,2.083q-6.533,1.041-13.065,2.083t-13.058,2.094l-1.613.265c-.111.018-.082.213.028.2,4.361-.673,8.719-1.373,13.077-2.068l13.065-2.084,13.064-2.086,13.063-2.086,13.063-2.087,1.618-.258c.123-.02.081-.235-.042-.216" transform="translate(-44.375 -35.683)" fill="#363e66"/>
        <path id="Path_921260" data-name="Path 921260" d="M159.334,239.356a13.078,13.078,0,0,0-1.513.192l-1.445.231-2.964.474-5.9.945-5.877.942-5.9.946c-1.966.315-3.933.623-5.9.952-.24.04-.479.081-.718.126-.094.018-.083.183.013.17.985-.13,1.966-.3,2.947-.454l2.964-.472,5.9-.944,5.879-.939,5.9-.945c1.966-.315,3.933-.626,5.9-.953a6.907,6.907,0,0,0,.721-.157c.053-.015.05-.117-.009-.114" transform="translate(-46.503 -45.12)" fill="#363e66"/>
        <path id="Path_921261" data-name="Path 921261" d="M192.324,196.225l-67.531-1.079.369,34.953,66.442,1.838Z" transform="translate(-45.263 -36.786)" fill="#00b55b"/>
        <path id="Path_921262" data-name="Path 921262" d="M125.231,210.9q-.1-3.429-.209-6.859l-.06-1.96c0-.172-.237-.143-.232.029q.1,3.429.209,6.859l.06,1.96c0,.172.237.143.233-.029" transform="translate(-45.245 -38.072)" fill="#363e66"/>
        <path id="Path_921263" data-name="Path 921263" d="M126.459,202.2l.438,22.431c1.969.041,4.166,2.28,4.209,4.535l55.779,1.628c.051-2.309,1.905-5.077,3.923-5.035l.5-22.728c-2.044-.032-3.95-2.447-3.9-4.788l-57.191-.957c.046,2.378-1.684,4.945-3.762,4.914" transform="translate(-45.748 -37.189)" fill="#008a3c"/>
        <path id="Path_921264" data-name="Path 921264" d="M177.789,215.461c-.087,6-4.4,10.779-9.644,10.679s-9.416-5.043-9.328-11.041,4.4-10.779,9.644-10.678,9.416,5.043,9.328,11.04" transform="translate(-55.169 -38.535)" fill="#00b55b"/>
        <path id="Path_921265" data-name="Path 921265" d="M168.949,206.165c-4.561-.087-8.315,4.069-8.391,9.292s3.555,9.52,8.116,9.606,8.315-4.08,8.391-9.292-3.563-9.52-8.116-9.606m-.257,17.687c-3.984-.076-7.152-3.825-7.086-8.375s3.341-8.188,7.326-8.112,7.142,3.825,7.076,8.387-3.341,8.177-7.315,8.1" transform="translate(-55.676 -38.863)" fill="#008a3c"/>
        <path id="Path_921266" data-name="Path 921266" d="M174.661,218.356a3.371,3.371,0,0,1-.735,2.2,3.264,3.264,0,0,1-1.937,1.077l-.016,1.09-2.038-.039.016-1.09a3.288,3.288,0,0,1-1.96-1.212,3.647,3.647,0,0,1-.68-2.331l2.6.049a1,1,0,0,0,.3.787,1.1,1.1,0,0,0,.758.293,1.164,1.164,0,0,0,.732-.215.727.727,0,0,0,.313-.611.8.8,0,0,0-.046-.291.573.573,0,0,0-.169-.235c-.081-.071-.157-.13-.228-.18a1.526,1.526,0,0,0-.333-.158c-.152-.057-.272-.1-.359-.125l-.42-.131q-.3-.089-.455-.138t-.451-.161a4.139,4.139,0,0,1-.463-.2q-.169-.091-.42-.248a1.93,1.93,0,0,1-.4-.316,3.874,3.874,0,0,1-.318-.4,1.986,1.986,0,0,1-.263-.493,3.706,3.706,0,0,1-.151-.6,4.063,4.063,0,0,1-.053-.73,3.2,3.2,0,0,1,.68-2.054,3.029,3.029,0,0,1,1.843-1.017l.016-1.029,2.038.039-.016,1.044a2.957,2.957,0,0,1,1.779,1.139,3.519,3.519,0,0,1,.6,2.162l-2.53-.041a.863.863,0,0,0-.26-.684,1,1,0,0,0-.679-.249,1.121,1.121,0,0,0-.632.16.546.546,0,0,0-.269.486.612.612,0,0,0,.081.322.875.875,0,0,0,.2.24,1.5,1.5,0,0,0,.353.2c.162.069.3.122.408.161s.279.092.5.161h.006a7.99,7.99,0,0,1,1.695.7,2.832,2.832,0,0,1,1.362,2.557Z" transform="translate(-57.642 -39.56)" fill="#008a3c"/>
        <path id="Path_921267" data-name="Path 921267" d="M203.361,218.547a2.374,2.374,0,0,1-.519,1.556,2.3,2.3,0,0,1-1.368.76l-.011.769-1.439-.027.011-.77a2.327,2.327,0,0,1-1.384-.855,2.574,2.574,0,0,1-.479-1.646l1.838.035a.706.706,0,0,0,.211.556.78.78,0,0,0,.536.207.83.83,0,0,0,.517-.152.516.516,0,0,0,.22-.432.555.555,0,0,0-.033-.205.41.41,0,0,0-.12-.167c-.057-.049-.111-.092-.16-.127a1.087,1.087,0,0,0-.236-.112c-.107-.04-.191-.069-.252-.088l-.3-.092-.32-.1c-.074-.024-.179-.061-.318-.114a3.078,3.078,0,0,1-.327-.144c-.079-.043-.179-.1-.3-.175a1.384,1.384,0,0,1-.281-.224,2.9,2.9,0,0,1-.224-.278,1.429,1.429,0,0,1-.186-.348,2.562,2.562,0,0,1-.106-.422,2.838,2.838,0,0,1-.038-.515,2.249,2.249,0,0,1,.48-1.45,2.136,2.136,0,0,1,1.3-.717l.011-.727,1.439.028-.011.738a2.085,2.085,0,0,1,1.256.8,2.486,2.486,0,0,1,.422,1.526l-1.787-.028a.605.605,0,0,0-.184-.483.705.705,0,0,0-.479-.176.793.793,0,0,0-.447.113.387.387,0,0,0-.191.343.439.439,0,0,0,.058.227.611.611,0,0,0,.139.17,1.034,1.034,0,0,0,.249.14c.113.049.209.086.287.113s.2.065.356.114h0a5.633,5.633,0,0,1,1.2.492,2,2,0,0,1,.961,1.806Z" transform="translate(-66.628 -40.066)" fill="#00b55b"/>
        <path id="Path_921268" data-name="Path 921268" d="M143.407,218.861a2.375,2.375,0,0,1-.519,1.557,2.306,2.306,0,0,1-1.368.76l-.011.77-1.439-.028.011-.77a2.323,2.323,0,0,1-1.384-.855,2.574,2.574,0,0,1-.479-1.646l1.838.035a.706.706,0,0,0,.211.556.779.779,0,0,0,.536.207.83.83,0,0,0,.517-.152.515.515,0,0,0,.22-.432.559.559,0,0,0-.033-.205.4.4,0,0,0-.12-.166,1.933,1.933,0,0,0-.16-.127,1.085,1.085,0,0,0-.236-.112c-.107-.04-.191-.069-.252-.088l-.3-.092-.32-.1c-.074-.024-.179-.061-.318-.114a3.086,3.086,0,0,1-.327-.144c-.079-.043-.179-.1-.3-.175a1.356,1.356,0,0,1-.281-.224,2.9,2.9,0,0,1-.224-.278,1.43,1.43,0,0,1-.186-.348,2.561,2.561,0,0,1-.106-.422,2.839,2.839,0,0,1-.038-.515,2.249,2.249,0,0,1,.48-1.449,2.133,2.133,0,0,1,1.3-.718l.011-.727,1.439.028-.011.738a2.085,2.085,0,0,1,1.256.8,2.486,2.486,0,0,1,.422,1.526l-1.787-.028a.606.606,0,0,0-.184-.483.709.709,0,0,0-.479-.176.79.79,0,0,0-.446.113.386.386,0,0,0-.191.343.439.439,0,0,0,.058.227.612.612,0,0,0,.139.17,1.035,1.035,0,0,0,.249.14c.113.049.209.087.287.113s.2.065.356.114h0a5.594,5.594,0,0,1,1.2.491,2,2,0,0,1,.962,1.806Z" transform="translate(-49.172 -40.126)" fill="#00b55b"/>
        <path id="Path_921269" data-name="Path 921269" d="M130.4,204.778l.819,18.461a4.788,4.788,0,0,1,3.934,4l51.006,1.243c.042-1.913,1.825-4.539,3.5-4.5l.428-18.675a4.2,4.2,0,0,1-3.593-3.975l-52.294-.916C134.23,202.386,132.117,204.8,130.4,204.778Z" transform="translate(-46.894 -37.78)" fill="none" stroke="#00b55b" stroke-miterlimit="10" stroke-width="0.55"/>
        <path id="Path_921270" data-name="Path 921270" d="M192.238,196.138l-13.191-.252-13.191-.253-13.191-.252-13.189-.251c-4.394-.083-8.789-.17-13.183-.239l-1.63-.024c-.111,0-.109.2,0,.2,4.4.105,8.8.184,13.2.269l13.189.25,13.189.248,13.188.248,13.188.248,1.632.031c.124,0,.112-.218-.012-.221" transform="translate(-45.201 -36.734)" fill="#363e66"/>
        <path id="Path_921271" data-name="Path 921271" d="M156.828,238.9c-1.983-.083-3.967-.12-5.95-.178s-3.947-.111-5.92-.167l-5.947-.17-5.92-.168c-1.978-.055-3.957-.127-5.936-.152-.249,0-.5,0-.747,0-.078,0-.075.135,0,.139,1.961.1,3.923.146,5.886.2l5.949.174,5.948.172q2.975.086,5.949.174l5.92.169c.25.007.5.011.751.015.116,0,.133-.2.015-.207" transform="translate(-45.717 -44.875)" fill="#363e66"/>
        <path id="Path_921272" data-name="Path 921272" d="M193.315,199.834l-66.97-10.006-3.161,34.767,65.811,10.616Z" transform="translate(-44.794 -35.784)" fill="#00b55b"/>
        <path id="Path_921273" data-name="Path 921273" d="M124.637,216.05q.356-4.1.713-8.2t.713-8.2q.2-2.305.4-4.612c.015-.171-.217-.208-.232-.036q-.356,4.1-.713,8.2t-.713,8.2q-.2,2.305-.4,4.612c-.015.171.217.208.232.036" transform="translate(-45.15 -36.737)" fill="#363e66"/>
        <path id="Path_921274" data-name="Path 921274" d="M127.6,197.141l-1.83,22.339c1.952.3,3.908,2.817,3.724,5.062l55.241,9c.284-2.287,2.405-4.791,4.4-4.482l2.794-22.51c-2.028-.3-3.677-2.954-3.389-5.271l-56.711-8.517c-.195,2.369-2.172,4.69-4.233,4.383" transform="translate(-45.548 -36.336)" fill="#008a3c"/>
        <path id="Path_921275" data-name="Path 921275" d="M177.622,216.723c-.692,5.946-5.464,10.124-10.657,9.331s-8.843-6.255-8.151-12.2,5.464-10.123,10.657-9.331,8.843,6.255,8.151,12.2" transform="translate(-55.144 -38.536)" fill="#00b55b"/>
        <path id="Path_921276" data-name="Path 921276" d="M169.816,206.255c-4.522-.69-8.671,2.942-9.273,8.119s2.57,9.925,7.092,10.616,8.672-2.953,9.273-8.12-2.579-9.927-7.092-10.615m-2.041,17.535c-3.95-.6-6.718-4.746-6.193-9.257s4.146-7.691,8.1-7.088,6.708,4.744,6.182,9.266-4.145,7.68-8.084,7.079" transform="translate(-55.651 -38.865)" fill="#008a3c"/>
        <path id="Path_921277" data-name="Path 921277" d="M174.266,218.852a3.261,3.261,0,0,1-.953,2.093,3.151,3.151,0,0,1-2.033.813l-.125,1.081-2.02-.308.125-1.081a3.438,3.438,0,0,1-1.825-1.463,3.728,3.728,0,0,1-.439-2.405l2.582.394a1.026,1.026,0,0,0,.217.822,1.238,1.238,0,0,0,1.473.274.7.7,0,0,0,.371-.566.808.808,0,0,0-.016-.295.6.6,0,0,0-.145-.256c-.074-.08-.142-.15-.208-.209a1.606,1.606,0,0,0-.315-.2c-.146-.076-.26-.133-.343-.172l-.4-.184c-.192-.086-.337-.152-.437-.2s-.244-.118-.432-.219a4.235,4.235,0,0,1-.439-.264q-.158-.112-.391-.3a2.008,2.008,0,0,1-.364-.367,4.294,4.294,0,0,1-.276-.434,2.11,2.11,0,0,1-.211-.524,3.6,3.6,0,0,1-.089-.614,4.014,4.014,0,0,1,.021-.732,3.086,3.086,0,0,1,.882-1.95,2.922,2.922,0,0,1,1.934-.766l.118-1.02,2.02.308-.121,1.035a3.09,3.09,0,0,1,1.652,1.367,3.585,3.585,0,0,1,.376,2.227l-2.509-.376a.88.88,0,0,0-.189-.713,1.039,1.039,0,0,0-.649-.338,1.109,1.109,0,0,0-.644.075.528.528,0,0,0-.318.447.623.623,0,0,0,.049.33.926.926,0,0,0,.171.265,1.568,1.568,0,0,0,.331.243q.23.135.388.213t.484.228h.006a8.285,8.285,0,0,1,1.614.915,2.927,2.927,0,0,1,1.094,2.72Z" transform="translate(-57.541 -39.548)" fill="#008a3c"/>
        <path id="Path_921278" data-name="Path 921278" d="M202.819,222.3a2.3,2.3,0,0,1-.673,1.478,2.221,2.221,0,0,1-1.435.574l-.089.764L199.2,224.9l.089-.764A2.427,2.427,0,0,1,198,223.1a2.629,2.629,0,0,1-.31-1.7l1.822.278a.724.724,0,0,0,.153.58.876.876,0,0,0,1.04.194.5.5,0,0,0,.262-.4.558.558,0,0,0-.011-.208.426.426,0,0,0-.1-.182c-.052-.057-.1-.105-.147-.147a1.1,1.1,0,0,0-.223-.143c-.1-.054-.184-.094-.242-.121l-.286-.131c-.135-.06-.238-.107-.309-.14s-.172-.084-.3-.155a2.954,2.954,0,0,1-.31-.186c-.074-.053-.167-.124-.276-.213a1.469,1.469,0,0,1-.257-.259,3.116,3.116,0,0,1-.194-.307,1.478,1.478,0,0,1-.149-.37,2.543,2.543,0,0,1-.064-.433,2.852,2.852,0,0,1,.016-.517,2.178,2.178,0,0,1,.622-1.376,2.065,2.065,0,0,1,1.365-.541l.084-.721,1.427.218-.085.73a2.184,2.184,0,0,1,1.166.966,2.536,2.536,0,0,1,.265,1.572l-1.772-.265a.624.624,0,0,0-.133-.5.738.738,0,0,0-.459-.239.777.777,0,0,0-.454.054.372.372,0,0,0-.224.316.445.445,0,0,0,.034.234.664.664,0,0,0,.121.187,1.088,1.088,0,0,0,.233.171c.108.063.2.114.274.15s.189.091.342.161h0a5.833,5.833,0,0,1,1.139.647,2.065,2.065,0,0,1,.773,1.921Z" transform="translate(-66.479 -40.699)" fill="#00b55b"/>
        <path id="Path_921279" data-name="Path 921279" d="M143.231,215.681a2.3,2.3,0,0,1-.673,1.478,2.225,2.225,0,0,1-1.435.574l-.089.764-1.426-.217.089-.764a2.428,2.428,0,0,1-1.289-1.033,2.631,2.631,0,0,1-.31-1.7l1.822.278a.723.723,0,0,0,.153.58.875.875,0,0,0,1.04.194.5.5,0,0,0,.262-.4.559.559,0,0,0-.011-.208.426.426,0,0,0-.1-.182,2.069,2.069,0,0,0-.147-.147,1.1,1.1,0,0,0-.223-.143c-.1-.054-.184-.094-.242-.121l-.286-.131c-.135-.06-.238-.107-.309-.14s-.172-.084-.3-.155a2.956,2.956,0,0,1-.31-.186c-.074-.053-.167-.124-.276-.213a1.469,1.469,0,0,1-.257-.259,3.123,3.123,0,0,1-.194-.307,1.477,1.477,0,0,1-.149-.37,2.556,2.556,0,0,1-.064-.433,2.851,2.851,0,0,1,.016-.517,2.178,2.178,0,0,1,.622-1.376,2.065,2.065,0,0,1,1.365-.541l.084-.721,1.427.217-.085.731a2.184,2.184,0,0,1,1.166.966,2.535,2.535,0,0,1,.265,1.572l-1.772-.265a.624.624,0,0,0-.133-.5.732.732,0,0,0-.459-.239.777.777,0,0,0-.454.054.372.372,0,0,0-.224.316.445.445,0,0,0,.034.234.665.665,0,0,0,.121.187,1.089,1.089,0,0,0,.233.171c.108.063.2.114.274.15s.189.091.342.161h0a5.832,5.832,0,0,1,1.139.647,2.065,2.065,0,0,1,.773,1.921Z" transform="translate(-49.13 -39.452)" fill="#00b55b"/>
        <path id="Path_921280" data-name="Path 921280" d="M131.546,200.159,130.5,218.6a4.988,4.988,0,0,1,3.5,4.5l50.538,7.983c.235-1.894,2.272-4.267,3.928-4.01l2.31-18.492a4.371,4.371,0,0,1-3.168-4.425l-51.85-7.828C135.6,198.291,133.254,200.413,131.546,200.159Z" transform="translate(-46.924 -37.009)" fill="none" stroke="#00b55b" stroke-miterlimit="10" stroke-width="0.55"/>
        <path id="Path_921281" data-name="Path 921281" d="M194.537,199.743l-13.077-2-13.077-2-13.077-2-13.076-1.994c-4.357-.664-8.712-1.332-13.07-1.981l-1.617-.24c-.111-.016-.129.181-.018.2,4.359.687,8.722,1.347,13.083,2.013s8.717,1.329,13.075,1.993l13.075,1.993,13.075,1.99,13.075,1.991,1.619.247c.123.019.133-.2.01-.221" transform="translate(-46.037 -35.729)" fill="#363e66"/>
        <path id="Path_921282" data-name="Path 921282" d="M349.3,275.335c-4.788,1.256-11.116,10.879-11.116,10.879l-9.5-1.026s9.5-9.9,10.221-16.423c1.6-14.488-5.183-43.307-7.317-56.51a26.376,26.376,0,0,1-.572-6.3c.9-5.338,16.675-.822,16.675-.822a28.533,28.533,0,0,0,.47,8.039c.115.538.257,1.079.426,1.608a73.247,73.247,0,0,1,3.049,20.118c.178,8.621-3.933,26.667-2.331,40.437" transform="translate(-104.627 -38.333)" fill="#ffab82"/>
        <path id="Path_921283" data-name="Path 921283" d="M349.093,213.172l-16.573-.917a26.416,26.416,0,0,1-.572-6.3c.9-5.337,16.675-.821,16.675-.821a28.53,28.53,0,0,0,.47,8.038" transform="translate(-105.563 -38.333)" fill="#ff875f"/>
        <path id="Path_921284" data-name="Path 921284" d="M320.243,302.232c-.172.266,13.857,0,15.245,0s7.456-8.042,8.035-8.152.676,8.152.676,8.152h1.973a26.127,26.127,0,0,1,.823-7.727,11.783,11.783,0,0,0-.2-8.629,1.377,1.377,0,0,0-1.994-.793c-2.923,1.754-4.683,7.359-6.751,10.8a3.235,3.235,0,0,1-4.94.988A10.076,10.076,0,0,1,331.358,295a1.009,1.009,0,0,0-1.462-.258l-.7.525a32.435,32.435,0,0,1-5.4,3.278c-1.623.783-2.478,2.033-3.549,3.688" transform="translate(-102.17 -53.705)" fill="#a3073f"/>
        <path id="Path_921285" data-name="Path 921285" d="M347.985,221.075l-2.356-7.018c-.107-.317-.542-.135-.435.185q1.178,3.509,2.357,7.018c.106.318.541.135.434-.185" transform="translate(-109.43 -40.32)" fill="#10284f"/>
        <path id="Path_921286" data-name="Path 921286" d="M324.205,275.335c-4.787,1.256-11.117,10.879-11.117,10.879l-9.5-1.026s9.5-9.9,10.221-16.423c1.6-14.488-5.183-43.307-7.317-56.51a26.384,26.384,0,0,1-.572-6.3c.9-5.338,16.675-.822,16.675-.822a28.533,28.533,0,0,0,.47,8.039c.115.538.257,1.079.425,1.608a73.214,73.214,0,0,1,3.049,20.118c.178,8.621-3.933,26.667-2.331,40.437" transform="translate(-97.32 -38.333)" fill="#ffab82"/>
        <path id="Path_921287" data-name="Path 921287" d="M324,213.172l-16.573-.917a26.414,26.414,0,0,1-.572-6.3c.9-5.337,16.675-.821,16.675-.821a28.527,28.527,0,0,0,.47,8.038" transform="translate(-98.256 -38.333)" fill="#ff875f"/>
        <path id="Path_921288" data-name="Path 921288" d="M375.6,108.537c-2.521,7.217-11.711,16.182-17.7,20.386a15.451,15.451,0,0,1-4.227,2.322c-2.452-8.282-2.333-10.553-2.333-10.553l3.139-4.232,4.528-6.1,1.549-2.086-.005,0c-.1-.119-1.808-2.03-4-4.489-2.829-3.18-6.477-7.277-8.547-9.618-.517-.586-.934-1.06-1.216-1.384-1.771-2.03-1.516-14.292,3.968-15.493,0,0,22.515,19.232,24.848,31.251" transform="translate(-109.613 -14.569)" fill="#ff85e7"/>
        <path id="Path_921289" data-name="Path 921289" d="M360.166,138.023a15.429,15.429,0,0,1-4.227,2.322c-2.452-8.282-2.333-10.553-2.333-10.553l3.139-4.232a108.581,108.581,0,0,0,3.422,12.464" transform="translate(-111.884 -23.669)" fill="#9d0388"/>
        <path id="Path_921290" data-name="Path 921290" d="M357.446,105.2c-2.829-3.18-6.477-7.277-8.547-9.618,1.891-3.766,5.5-10.77,5.5-10.77s3.646,11.624,3.049,20.388" transform="translate(-110.514 -15.988)" fill="#9d0388"/>
        <path id="Path_921291" data-name="Path 921291" d="M343.243,172.409c-.785,13.251-2.158,24.035-2.158,24.035H304.394c-4.531-23.038-4.132-37.617-3.41-44.6a37.115,37.115,0,0,1,.755-4.9c29.72-11.764,40.336.173,40.336.173s.375,2.31.729,6.024a128.221,128.221,0,0,1,.44,19.272" transform="translate(-96.433 -26.722)" fill="#23396a"/>
        <path id="Path_921292" data-name="Path 921292" d="M342.985,153.137l-41.819-1.294a37.108,37.108,0,0,1,.755-4.9c29.719-11.764,40.335.173,40.335.173s.375,2.311.729,6.024" transform="translate(-96.616 -26.722)" fill="#10284f"/>
        <path id="Path_921293" data-name="Path 921293" d="M315.9,59.732c-.578.157-1.184.245-1.608-.329a3.105,3.105,0,0,1-.449-1.82c-.008-.563-.081-1.383.309-1.814.445-.492,1.153-.338,1.7-.228.294.059.377-.462.084-.522a2.1,2.1,0,0,0-2.088.36,3.251,3.251,0,0,0-.461,2.249,3.441,3.441,0,0,0,.654,2.234,1.8,1.8,0,0,0,2.025.365c.289-.078.125-.575-.162-.5" transform="translate(-100.172 -10.351)" fill="#10284f"/>
        <path id="Path_921294" data-name="Path 921294" d="M242.826,84.489s-.515-1.77-.027-2.391c.651.311.868,1.025,2.6,2.391a6.646,6.646,0,0,1,2.739,4.719c-2.278-.092-5.316-4.719-5.316-4.719" transform="translate(-79.56 -15.476)" fill="#ff875f"/>
        <path id="Path_921295" data-name="Path 921295" d="M254.025,93.471s-2.142-.94-4.177-1.995A14.726,14.726,0,0,1,245.5,88c-2.431-2.817-6.995-5.659-8.434-6.911-1.669-1.453-3.405-3.21-3.606-2.6s.561,1.939,1.783,2.957a9.367,9.367,0,0,1,2.558,3.235c-1.469.535-1.5.733-1.737,1.911-1.6.993-1.8,1.605-1.736,2.14s1.1,2.659,1.8,2.905a1.084,1.084,0,0,0,1.069-.076,10.864,10.864,0,0,0,2.943,2.317,9.623,9.623,0,0,0,3.267.435s5.375,4.758,8.079,6.8a16.523,16.523,0,0,0,2.538-7.644" transform="translate(-76.893 -14.772)" fill="#ffab82"/>
        <path id="Path_921296" data-name="Path 921296" d="M266.247,97.517,260.873,95.8a6.316,6.316,0,0,0-3.684,3.59,8.278,8.278,0,0,0,.357,6.042l6.205,3.347Z" transform="translate(-83.685 -18.06)" fill="#fff"/>
        <path id="Path_921297" data-name="Path 921297" d="M335.185,54.478a8.789,8.789,0,0,1-2.8,3.5c-6.218,4.492-13.255.764-13.447.473s-3.919-10.941-3.919-10.941-.543-2.727.291-4.384c1.123-2.232,5-4.99,9.985-4.789a16.554,16.554,0,0,1,6.176,1.455c5.412,2.447,5.739,9.509,3.711,14.682" transform="translate(-100.599 -7.226)" fill="#23396a"/>
        <path id="Path_921298" data-name="Path 921298" d="M339.055,54.48c-3.359.923-6.876.318-8.882-3.278a14.7,14.7,0,0,1-1-12.859,16.554,16.554,0,0,1,6.176,1.455c5.412,2.447,5.739,9.509,3.711,14.682" transform="translate(-104.47 -7.228)" fill="#10284f"/>
        <path id="Path_921299" data-name="Path 921299" d="M334.436,68.829l-9.709.7-.289-1.956-.079-.538a.754.754,0,0,0-.018-.095,2.023,2.023,0,0,0-2.049-1.776c-1.511.108-3.572.076-4.384-.769-1.352-1.407-1.07-14.767-1.03-14.713,2.056,2.729,6.5,4.232,6.5,4.232s.673-4.15,2.641-3.588.8,4.5-.676,6.612a1.75,1.75,0,0,0,.18,1.04c.653,1.3,2.854,2.12,4.98,2.2a9.185,9.185,0,0,0,2.461-.056l.729,4.315Z" transform="translate(-101.175 -9.366)" fill="#ffab82"/>
        <path id="Path_921300" data-name="Path 921300" d="M337.522,72.223l-9.709.7-.289-1.956-.079-.538a.744.744,0,0,0-.018-.095,12.283,12.283,0,0,1,9.352-2.507Z" transform="translate(-104.262 -12.761)" fill="#ff875f"/>
        <path id="Path_921301" data-name="Path 921301" d="M335.227,35.472c-2.9,1.55-6.319,5.752-3.349,12.463s10.277,4.445,12.561,1.394,1.827-8.541.077-11.156-4.72-5.142-9.288-2.7" transform="translate(-105.225 -6.5)" fill="#23396a"/>
        <path id="Path_921302" data-name="Path 921302" d="M326.233,68.644a1.88,1.88,0,0,0-1.7-.888,5.36,5.36,0,0,0,2.781-4.336l0,.008c.039.188.7,3.543-1.086,5.215" transform="translate(-103.42 -11.955)" fill="#23396a"/>
        <path id="Path_921303" data-name="Path 921303" d="M340.69,119.514l1.877,14.133-40.336-.171a153.707,153.707,0,0,0,3.16-20.821c.086-1.257-.778-4.129-1.681-7.152-.805-2.7-1.562-5.508-1.4-7.355.208-2.438,4.238-10.256,8.255-16.354,2.426-3.682,4.845-6.737,6.414-7.6a13.333,13.333,0,0,1,6.086-2.958c4.084-.954,7.586-1.145,8.836-.668s2.917,3.339,2.917,3.339,6.859,3.605,7.525,6.659c.466,2.134-.953,17.113-1.849,25.929a55.951,55.951,0,0,0,.2,13.017" transform="translate(-96.926 -13.255)" fill="#ff85e7"/>
        <path id="Path_921304" data-name="Path 921304" d="M314.288,91.881a33.111,33.111,0,0,1-10.556,16.24c-.806-2.7-1.563-5.507-1.406-7.355.208-2.438,4.239-10.256,8.255-16.354l.984-.2Z" transform="translate(-96.948 -15.875)" fill="#9d0388"/>
        <path id="Path_921305" data-name="Path 921305" d="M304.885,90.336c-2.139,2.889-21.478,19.426-26.219,19.163s-13.987-4.376-13.987-4.376a9.623,9.623,0,0,1-2.141-5.862c.23-5.425,4.663-6.3,4.663-6.3l7.368,1.368,1.576.294.354-.281c2.507-1.993,17.543-13.94,19.923-15.625,2.6-1.837,9-3.623,9-3.623,3.361,2.523,1.609,12.353-.532,15.241" transform="translate(-85.369 -14.156)" fill="#ff85e7"/>
        <path id="Path_921306" data-name="Path 921306" d="M278.478,98.8l1.576.295-4.091,3.964a13.242,13.242,0,0,1,2.514-4.259" transform="translate(-89.278 -18.624)" fill="#23396a"/>
        <path id="Path_921307" data-name="Path 921307" d="M280.906,103.383a.233.233,0,1,0-.461.046,13.187,13.187,0,0,1-.049,3.309,2.282,2.282,0,0,1-.371,1.132.645.645,0,0,1-1-.067c-.572-.613-.5-1.868-.459-2.685a10.849,10.849,0,0,1,.516-2.789,10.056,10.056,0,0,1,1.413-2.79c.191-.263-.164-.6-.354-.341a11.122,11.122,0,0,0-2.046,6.221c-.025.975-.009,2.275.761,2.907a1.077,1.077,0,0,0,1.131.207,1.524,1.524,0,0,0,.719-.987,8.336,8.336,0,0,0,.269-1.961,14.019,14.019,0,0,0-.065-2.2" transform="translate(-89.896 -18.682)" fill="#23396a"/>
        <path id="Path_921308" data-name="Path 921308" d="M319.775,82.735a14.165,14.165,0,0,0-1.05-2.888c-.146-.3-.523.011-.378.307a14.774,14.774,0,0,1-.194,12.973.238.238,0,1,0,.418.226,15.411,15.411,0,0,0,1.2-10.618" transform="translate(-101.552 -15.029)" fill="#23396a"/>
        <path id="Path_921309" data-name="Path 921309" d="M340.652,118.535c-3.19-1.825-7-.11-9.846,1.778a23.96,23.96,0,0,0-7.142,7.533,26.561,26.561,0,0,0-2.546,5.527c-.1.318.314.546.419.226a25.689,25.689,0,0,1,5.085-8.957,20.272,20.272,0,0,1,8.072-5.764,6.8,6.8,0,0,1,5.761.136c.267.153.464-.327.2-.48" transform="translate(-102.42 -22.198)" fill="#23396a"/>
        <path id="Path_921310" data-name="Path 921310" d="M340.919,106.238a15.966,15.966,0,0,1-7.877-6.589,18.153,18.153,0,0,1-1.433-2.8.236.236,0,1,0-.434.184,17.7,17.7,0,0,0,6.979,8.433,14.75,14.75,0,0,0,2.682,1.293c.284.1.364-.42.084-.522" transform="translate(-105.347 -18.227)" fill="#23396a"/>
        <path id="Path_921311" data-name="Path 921311" d="M244.5,96.268a6.343,6.343,0,0,1-7.207-4.356.237.237,0,1,0-.435.185c1.264,3.42,4.488,5.414,7.682,4.7.289-.065.252-.594-.04-.528" transform="translate(-77.886 -17.296)" fill="#23396a"/>
        <path id="Path_921312" data-name="Path 921312" d="M322.1,53.888l-8.523,2.246c-.289.076-.125.573.162.5l8.523-2.247c.289-.076.126-.572-.162-.5" transform="translate(-100.185 -10.157)" fill="#10284f"/>
        <path id="Path_921313" data-name="Path 921313" d="M338.013,167.292l-3.587,11.281a75.431,75.431,0,0,0-2.889,10.786,27.514,27.514,0,0,0-.332,6.253.233.233,0,1,0,.461-.046,33.1,33.1,0,0,1,1.41-10.968c1.005-3.67,2.235-7.267,3.384-10.881l1.971-6.2c.1-.318-.317-.547-.419-.226" transform="translate(-105.346 -31.507)" fill="#10284f"/>
        <path id="Path_921314" data-name="Path 921314" d="M369.83,119.83a33.011,33.011,0,0,1-5.408-2.274l1.549-2.086Z" transform="translate(-115.033 -21.767)" fill="#23396a"/>
        <path id="Path_921315" data-name="Path 921315" d="M328.425,59.665a3.382,3.382,0,0,1-1.632.067c1.034.108,1.451-1.105,1.451-1.105a1.749,1.749,0,0,0,.181,1.039" transform="translate(-104.077 -11.051)" fill="#ff875f"/>
        <path id="Path_921316" data-name="Path 921316" d="M329.32,51.707a.725.725,0,0,0-.91-.311,1.816,1.816,0,0,0-.8.93,10.483,10.483,0,0,0-.978,2.76.233.233,0,1,0,.455.1,10.032,10.032,0,0,1,.753-2.252,3.3,3.3,0,0,1,.522-.889c.155-.159.446-.275.583-.028.16.288.538-.019.378-.306" transform="translate(-104.027 -9.679)" fill="#23396a"/>
        <path id="Path_921317" data-name="Path 921317" d="M327.445,54.151c-.19-.26-.57.045-.378.307a2.011,2.011,0,0,1,.294,1.768,1.66,1.66,0,0,1-1.141,1.121.265.265,0,0,0-.211.287c.01.131.128.269.251.241a2.135,2.135,0,0,0,1.518-1.423,2.605,2.605,0,0,0-.335-2.3" transform="translate(-103.849 -10.189)" fill="#23396a"/>
        <path id="Path_921318" data-name="Path 921318" d="M295.148,302.232c-.172.266,13.857,0,15.245,0s7.456-8.042,8.035-8.152.676,8.152.676,8.152h1.973a26.126,26.126,0,0,1,.823-7.727,11.784,11.784,0,0,0-.2-8.629,1.377,1.377,0,0,0-1.994-.793c-2.923,1.754-4.683,7.359-6.751,10.8a3.235,3.235,0,0,1-4.94.988A10.076,10.076,0,0,1,306.263,295a1.009,1.009,0,0,0-1.462-.258l-.7.525a32.4,32.4,0,0,1-5.4,3.278c-1.623.783-2.478,2.033-3.549,3.688" transform="translate(-94.863 -53.705)" fill="#ff0146"/>
        <path id="Path_921319" data-name="Path 921319" d="M322.89,221.075l-2.356-7.018c-.107-.317-.542-.135-.435.185q1.179,3.509,2.357,7.018c.106.318.541.135.434-.185" transform="translate(-102.123 -40.32)" fill="#10284f"/>
        <path id="Path_921320" data-name="Path 921320" d="M204.927,268.217a6.883,6.883,0,0,1-4.269,1.339,6.434,6.434,0,0,1-4.464-1.629,5.835,5.835,0,0,1-1.813-4.575H179.137q0,8.258,4.172,13.568a19.18,19.18,0,0,0,11.579,6.874v5.219h11.93v-5.219a19.208,19.208,0,0,0,11.248-6.517q4.113-5,4.113-12.988v-.625q-.234-10.086-8.187-14.819a46.55,46.55,0,0,0-9.98-3.883h-.039q-1.989-.579-2.964-.893t-2.4-.893a8.587,8.587,0,0,1-2.086-1.116,5.127,5.127,0,0,1-1.17-1.384,3.58,3.58,0,0,1-.507-1.875,3.234,3.234,0,0,1,1.54-2.879,6.592,6.592,0,0,1,3.684-1,5.841,5.841,0,0,1,4,1.384,5,5,0,0,1,1.579,3.972l14.815-.045q0-7.632-3.684-12.586a17.21,17.21,0,0,0-10.507-6.473v-6.115h-11.93v6.025a17.817,17.817,0,0,0-10.7,6.16q-3.8,4.731-3.8,12.1a23.217,23.217,0,0,0,.37,4.263,20.491,20.491,0,0,0,.936,3.481,11.681,11.681,0,0,0,1.579,2.857,24.125,24.125,0,0,0,1.891,2.276,11.408,11.408,0,0,0,2.359,1.807q1.481.893,2.475,1.406a23.65,23.65,0,0,0,2.729,1.139q1.735.626,2.652.893t2.67.759q1.715.492,2.476.714t2.105.691a8.915,8.915,0,0,1,1.969.893q.623.425,1.345,1.026a3.349,3.349,0,0,1,1.014,1.362,4.686,4.686,0,0,1,.293,1.7,4.3,4.3,0,0,1-1.774,3.615" transform="translate(-61.086 -40.54)" fill="#f1c830"/>
        <path id="Path_921321" data-name="Path 921321" d="M151.61,283.916a4.04,4.04,0,0,1-2.5.785,3.771,3.771,0,0,1-2.618-.956,3.422,3.422,0,0,1-1.063-2.684h-8.942a12.493,12.493,0,0,0,2.447,7.959,11.252,11.252,0,0,0,6.792,4.032v3.062h7v-3.062a11.266,11.266,0,0,0,6.6-3.823,11.6,11.6,0,0,0,2.413-7.618v-.367q-.137-5.917-4.8-8.693a27.317,27.317,0,0,0-5.854-2.277h-.023q-1.166-.341-1.738-.524t-1.407-.523a5.013,5.013,0,0,1-1.223-.655,3.013,3.013,0,0,1-.686-.811,2.1,2.1,0,0,1-.3-1.1,1.9,1.9,0,0,1,.9-1.689,3.869,3.869,0,0,1,2.161-.589,3.429,3.429,0,0,1,2.344.812,2.935,2.935,0,0,1,.926,2.331l8.69-.026a12.041,12.041,0,0,0-2.161-7.384,10.092,10.092,0,0,0-6.163-3.8v-3.587h-7v3.535a10.448,10.448,0,0,0-6.278,3.613,10.971,10.971,0,0,0-2.23,7.095,13.588,13.588,0,0,0,.218,2.5,12,12,0,0,0,.549,2.042,6.843,6.843,0,0,0,.926,1.676,14.045,14.045,0,0,0,1.109,1.335,6.694,6.694,0,0,0,1.384,1.061q.869.525,1.452.825a13.919,13.919,0,0,0,1.6.667q1.018.368,1.555.523t1.567.446q1.006.288,1.452.419t1.235.406a5.231,5.231,0,0,1,1.155.523q.366.25.789.6a1.958,1.958,0,0,1,.595.8,2.76,2.76,0,0,1,.172,1,2.517,2.517,0,0,1-1.041,2.12" transform="translate(-48.666 -47.642)" fill="#fff"/>
        <path id="Path_921322" data-name="Path 921322" d="M296.616,307.022H.7c-.846,0-.965-1.506-.119-1.506H296.5c.846,0,.965,1.506.119,1.506" transform="translate(-8.928 -57.592)" fill="#10284f"/>
        <path id="Path_921325" data-name="Path 921325" d="M140.989,159.144c.578,2.988-1.7,5.592-4.306,4.93a3.842,3.842,0,0,1-2.668-3.055c-.579-2.988,1.7-5.592,4.306-4.929a3.839,3.839,0,0,1,2.668,3.054" transform="translate(-47.922 -29.404)" fill="#363e66"/>
      </g>
    </g>
  </g>
</svg>
