<svg xmlns="http://www.w3.org/2000/svg" xmlns:xlink="http://www.w3.org/1999/xlink" width="119" height="119" viewBox="0 0 119 119">
  <defs>
    <clipPath id="clip-path">
      <rect id="Rectangle_406617" data-name="Rectangle 406617" width="119" height="119" fill="#170551" stroke="rgba(0,0,0,0)" stroke-miterlimit="10" stroke-width="1"/>
    </clipPath>
    <clipPath id="clip-path-2">
      <rect id="Rectangle_401492" data-name="Rectangle 401492" width="69.729" height="69.729" transform="translate(-0.314 0.197)" fill="#fff" stroke="#707070" stroke-width="1"/>
    </clipPath>
    <clipPath id="clip-path-3">
      <rect id="Rectangle_408437" data-name="Rectangle 408437" width="62.199" height="62.308" fill="#fff"/>
    </clipPath>
  </defs>
  <g id="Group_1115778" data-name="Group 1115778" transform="translate(-314.001 -7639.335)">
    <g id="Group_1113263" data-name="Group 1113263" transform="translate(314.001 7639.335)">
      <g id="Group_1112834" data-name="Group 1112834" transform="translate(0 0)" clip-path="url(#clip-path)">
        <path id="Path_917479" data-name="Path 917479" d="M118.163,71l-5.841-4.807a52.529,52.529,0,0,0-.6-16.787l5.47-5.208a3.328,3.328,0,0,0,.732-3.8l-5.546-12.131a3.335,3.335,0,0,0-3.026-1.944c-.108,0-.217,0-.325.015l-7.532.731A53.325,53.325,0,0,0,89.209,15.619l.185-7.551a3.329,3.329,0,0,0-2.166-3.2L74.728.21A3.32,3.32,0,0,0,73.566,0h0a3.315,3.315,0,0,0-2.57,1.214L66.186,7.057a52.524,52.524,0,0,0-16.786.6l-5.208-5.47A3.344,3.344,0,0,0,41.78,1.15a3.3,3.3,0,0,0-1.385.3L28.264,7a3.33,3.33,0,0,0-1.929,3.35l.731,7.534a53.315,53.315,0,0,0-11.449,12.29l-7.55-.185-.083,0a3.342,3.342,0,0,0-3.119,2.169L.208,44.652a3.333,3.333,0,0,0,1,3.731l5.846,4.811a52.523,52.523,0,0,0,.6,16.786L2.181,75.188a3.329,3.329,0,0,0-.731,3.8L7,91.116a3.336,3.336,0,0,0,3.027,1.945c.107,0,.215,0,.323-.015l7.534-.732a53.328,53.328,0,0,0,12.289,11.449l-.185,7.55a3.329,3.329,0,0,0,2.167,3.2l12.5,4.657a3.334,3.334,0,0,0,3.733-1l4.809-5.843a52.521,52.521,0,0,0,16.786-.6l5.208,5.47a3.343,3.343,0,0,0,2.41,1.034,3.308,3.308,0,0,0,1.384-.3l12.134-5.547a3.332,3.332,0,0,0,1.929-3.35l-.731-7.533a53.311,53.311,0,0,0,11.449-12.29l7.551.185h.082a3.342,3.342,0,0,0,3.119-2.167l4.657-12.5A3.329,3.329,0,0,0,118.163,71" transform="translate(0 -0.38)" fill="#170551" stroke="rgba(0,0,0,0)" stroke-miterlimit="10" stroke-width="1"/>
      </g>
    </g>
    <g id="Group_1111310" data-name="Group 1111310" transform="translate(339.026 7663.892)">
      <rect id="Rectangle_401104" data-name="Rectangle 401104" width="64.968" height="66.017" transform="translate(2.38 0)" fill="none"/>
      <g id="Mask_Group_1098697" data-name="Mask Group 1098697" transform="translate(0 0)" clip-path="url(#clip-path-2)">
        <g id="Group_1115783" data-name="Group 1115783" transform="translate(3.686 4.197)">
          <g id="Group_1115782" data-name="Group 1115782" clip-path="url(#clip-path-3)">
            <path id="Path_922065" data-name="Path 922065" d="M317.245.2c7.7.689,21.692-3.333,24.082,7.216.524,2.314.544,12.1,0,14.382a9.82,9.82,0,0,1-8.7,7.265,117.762,117.762,0,0,1-14.553.01,9.876,9.876,0,0,1-8.505-5.866c-.392-.947-.47-2.393-.823-3.08-.659-1.279-3.643-3.2-4.495-4.554a1.662,1.662,0,0,1,.166-2.125c.924-1.246,3.738-3.219,4.329-4.365a13,13,0,0,0,.428-2.056A9.755,9.755,0,0,1,317.245.2M309.2,13.7a6.032,6.032,0,0,1-.784.9c0,.263,3.282,3.046,3.7,3.752.5.845.271,1.528.461,2.378a6.231,6.231,0,0,0,4.664,4.561c4.727.736,11.156-.427,16.059,0a6.212,6.212,0,0,0,4.487-4.384,52.941,52.941,0,0,0,0-12.613c-.735-3.092-3.227-4.4-6.211-4.612a109.454,109.454,0,0,0-12.788,0c-2.722.189-5.234,1.457-6.064,4.226a17.515,17.515,0,0,0-.268,2.039c-.3,1.455-2.338,2.671-3.252,3.751" transform="translate(-279.529 0.001)" fill="#fff"/>
            <path id="Path_922066" data-name="Path 922066" d="M30.222,436.142a10.066,10.066,0,0,1-6.212,2.919,118.6,118.6,0,0,1-15.084-.01A9.694,9.694,0,0,1,.4,431.787c-.524-2.307-.544-12.1,0-14.382a9.8,9.8,0,0,1,8.87-7.275,117.958,117.958,0,0,1,14.553.009,9.754,9.754,0,0,1,8.653,6.783,17.2,17.2,0,0,0,.508,2.153c.624,1.213,3.508,3.15,4.414,4.457a1.655,1.655,0,0,1,0,2.129c-.905,1.309-3.787,3.241-4.414,4.457a12.985,12.985,0,0,0-.428,2.055,10.24,10.24,0,0,1-2.334,3.97m3.078-11.3-.066-.345c-1.006-1.289-3.651-2.981-3.956-4.561-.093-.485-.007-.96-.122-1.475a6.178,6.178,0,0,0-4.664-4.561c-4.727-.736-11.156.427-16.059,0a6.362,6.362,0,0,0-4.067,3.207c-.986,2.091-.847,9.195-.686,11.75.263,4.178,2.251,6.358,6.477,6.652a109.489,109.489,0,0,0,12.788,0c2.723-.189,5.234-1.458,6.064-4.226a17.523,17.523,0,0,0,.268-2.039,7.615,7.615,0,0,1,1.9-2.534,22.925,22.925,0,0,1,2.119-1.869" transform="translate(0 -376.989)" fill="#fff"/>
            <path id="Path_922067" data-name="Path 922067" d="M17.739,14.668a11.466,11.466,0,0,1,6.04,9.486c.063.973.128,4.646-.209,5.308a2.1,2.1,0,0,1-1.833,1.006c-6.013.564-12.891-.442-19,0A1.963,1.963,0,0,1,.7,28.779a34.149,34.149,0,0,1,0-4.8,11.35,11.35,0,0,1,6.038-9.31l0-.258C2.2,10.146,5.368,2.051,11.443,1.545a7.72,7.72,0,0,1,7.082,12.049c-.185.274-.962.808-.785,1.074M12.179,5.16c-5.32.087-5.475,8.8,1.019,7.9,4.3-.6,3.923-7.98-1.019-7.9m8.043,21.576c.389-5.181-2.432-9.912-8.042-9.868-5.55.043-8.317,4.724-7.925,9.868Z" transform="translate(-0.566 -1.394)" fill="#fff"/>
            <path id="Path_922068" data-name="Path 922068" d="M504.282,427.909a12.559,12.559,0,0,1,3.233,6.969,32.079,32.079,0,0,1,.013,5.29,1.981,1.981,0,0,1-1.844,1.526c-6.19.57-13.245-.447-19.528,0A1.967,1.967,0,0,1,484.469,440a33.786,33.786,0,0,1,.007-4.969,12.133,12.133,0,0,1,6.025-9.227,7.682,7.682,0,1,1,11.008,0,19.079,19.079,0,0,1,2.773,2.1m-9.21-11.374c-4.279.727-4.018,7.865.854,7.946,5.669.094,5.356-9-.854-7.946m-6.784,21.6h15.435c.5-.861.229-2.592.043-3.591a7.566,7.566,0,0,0-6.955-6.352c-5.315-.385-8.527,3.128-8.8,8.25-.02.382-.106,1.577.273,1.693" transform="translate(-445.479 -379.619)" fill="#fff"/>
            <path id="Path_922069" data-name="Path 922069" d="M485.006,104.124a1.865,1.865,0,0,1-1.268,3.131c-3.9.442-8.6-.32-12.585-.011-2.047-.313-2.333-3.44.7-3.711a84.326,84.326,0,0,1,11.18-.01,3.531,3.531,0,0,1,1.972.6" transform="translate(-431.881 -95.042)" fill="#fff"/>
            <path id="Path_922070" data-name="Path 922070" d="M471.045,211.012a42.7,42.7,0,0,1,6.448.042c1.522.466,1.437,3.187-.286,3.459a41.506,41.506,0,0,1-6.3-.069c-1.485-.455-1.423-3.082.135-3.432" transform="translate(-432.102 -193.972)" fill="#fff"/>
            <path id="Path_922071" data-name="Path 922071" d="M108.209,518.924l13.437-.026a1.821,1.821,0,0,1,0,3.528H108.538a1.873,1.873,0,0,1-.329-3.5" transform="translate(-98.541 -477.225)" fill="#fff"/>
            <path id="Path_922072" data-name="Path 922072" d="M107.4,624.727a1.88,1.88,0,0,1,.955-3.089,34.355,34.355,0,0,1,5.949,0,1.821,1.821,0,0,1,.433,3.367c-1.08.528-6.483.563-7.338-.277" transform="translate(-98.327 -571.595)" fill="#fff"/>
          </g>
        </g>
      </g>
    </g>
  </g>
</svg>
