<svg xmlns="http://www.w3.org/2000/svg" xmlns:xlink="http://www.w3.org/1999/xlink" width="119" height="119" viewBox="0 0 119 119">
  <defs>
    <clipPath id="clip-path">
      <rect id="Rectangle_406617" data-name="Rectangle 406617" width="119" height="119" fill="#170551" stroke="rgba(0,0,0,0)" stroke-miterlimit="10" stroke-width="1"/>
    </clipPath>
    <clipPath id="clip-path-2">
      <rect id="Rectangle_401492" data-name="Rectangle 401492" width="69.729" height="69.729" transform="translate(-0.314 0.198)" fill="#fff" stroke="#707070" stroke-width="1"/>
    </clipPath>
    <clipPath id="clip-path-3">
      <rect id="Rectangle_408436" data-name="Rectangle 408436" width="65.67" height="64.111" fill="#fff"/>
    </clipPath>
  </defs>
  <g id="Group_1115754" data-name="Group 1115754" transform="translate(-314.001 -7639.335)">
    <g id="Group_1113263" data-name="Group 1113263" transform="translate(314.001 7639.335)">
      <g id="Group_1112834" data-name="Group 1112834" transform="translate(0 0)" clip-path="url(#clip-path)">
        <path id="Path_917479" data-name="Path 917479" d="M118.163,71l-5.841-4.807a52.529,52.529,0,0,0-.6-16.787l5.47-5.208a3.328,3.328,0,0,0,.732-3.8l-5.546-12.131a3.335,3.335,0,0,0-3.026-1.944c-.108,0-.217,0-.325.015l-7.532.731A53.325,53.325,0,0,0,89.209,15.619l.185-7.551a3.329,3.329,0,0,0-2.166-3.2L74.728.21A3.32,3.32,0,0,0,73.566,0h0a3.315,3.315,0,0,0-2.57,1.214L66.186,7.057a52.524,52.524,0,0,0-16.786.6l-5.208-5.47A3.344,3.344,0,0,0,41.78,1.15a3.3,3.3,0,0,0-1.385.3L28.264,7a3.33,3.33,0,0,0-1.929,3.35l.731,7.534a53.315,53.315,0,0,0-11.449,12.29l-7.55-.185-.083,0a3.342,3.342,0,0,0-3.119,2.169L.208,44.652a3.333,3.333,0,0,0,1,3.731l5.846,4.811a52.523,52.523,0,0,0,.6,16.786L2.181,75.188a3.329,3.329,0,0,0-.731,3.8L7,91.116a3.336,3.336,0,0,0,3.027,1.945c.107,0,.215,0,.323-.015l7.534-.732a53.328,53.328,0,0,0,12.289,11.449l-.185,7.55a3.329,3.329,0,0,0,2.167,3.2l12.5,4.657a3.334,3.334,0,0,0,3.733-1l4.809-5.843a52.521,52.521,0,0,0,16.786-.6l5.208,5.47a3.343,3.343,0,0,0,2.41,1.034,3.308,3.308,0,0,0,1.384-.3l12.134-5.547a3.332,3.332,0,0,0,1.929-3.35l-.731-7.533a53.311,53.311,0,0,0,11.449-12.29l7.551.185h.082a3.342,3.342,0,0,0,3.119-2.167l4.657-12.5A3.329,3.329,0,0,0,118.163,71" transform="translate(0 -0.38)" fill="#170551" stroke="rgba(0,0,0,0)" stroke-miterlimit="10" stroke-width="1"/>
      </g>
    </g>
    <g id="Group_1111310" data-name="Group 1111310" transform="translate(339.026 7663.892)">
      <rect id="Rectangle_401104" data-name="Rectangle 401104" width="64.968" height="66.017" transform="translate(2.38 0)" fill="none"/>
      <g id="Mask_Group_1098697" data-name="Mask Group 1098697" transform="translate(0 0)" clip-path="url(#clip-path-2)">
        <g id="Group_1115781" data-name="Group 1115781" transform="translate(1.686 3.198)">
          <rect id="Rectangle_408432" data-name="Rectangle 408432" width="2.783" height="2.783" transform="translate(62.664 8.347)" fill="#fff"/>
          <rect id="Rectangle_408433" data-name="Rectangle 408433" width="2.783" height="2.783" transform="translate(59.882 5.565)" fill="#fff"/>
          <rect id="Rectangle_408434" data-name="Rectangle 408434" width="2.783" height="2.783" transform="translate(26.49 2.783)" fill="#fff"/>
          <rect id="Rectangle_408435" data-name="Rectangle 408435" width="2.783" height="2.783" transform="translate(23.707 0)" fill="#fff"/>
          <g id="Group_1115780" data-name="Group 1115780" transform="translate(0 0)">
            <g id="Group_1115779" data-name="Group 1115779" clip-path="url(#clip-path-3)">
              <path id="Path_922062" data-name="Path 922062" d="M64,46.379a1.873,1.873,0,0,0,1.669-1.558V15.659a1.473,1.473,0,0,0-1.446-1.447h-4.5a3.411,3.411,0,0,0-3.4-4.006H52.805a3.455,3.455,0,0,0-3.386-4.118H41.071a3.438,3.438,0,0,0-3.383,4.118H34.169a3.42,3.42,0,0,0-3.45,3.451,3.413,3.413,0,0,0,.057.556H26.49a1.473,1.473,0,0,0-1.446,1.447v2.894H6.9a5.511,5.511,0,0,0-5.565,5.565v16.7a5.582,5.582,0,0,0,4.229,5.342V61.517H1.446a1.447,1.447,0,0,0,0,2.894H6.474a1.358,1.358,0,0,0,1.075,0H32.167a1,1,0,0,0,.556.111,1.237,1.237,0,0,0,.493-.111H57.269a1.274,1.274,0,0,0,.5.111c.223,0,.334-.111.445-.111H64a1.567,1.567,0,0,0,1.558-1.447,1.473,1.473,0,0,0-1.447-1.446H58.52L52.111,46.379ZM40.626,8.981c0-.112.222-.223.445-.223h8.349a.718.718,0,0,1,.668.668.843.843,0,0,1-.223.445c0,.112-.223.223-.445.223H41.071a.717.717,0,0,1-.667-.668.844.844,0,0,1,.222-.445m-7.235,4.786a.581.581,0,0,1,.223-.446c0-.111.223-.223.445-.223h7.012a1.4,1.4,0,0,0,.538-.11H48.77a1.393,1.393,0,0,0,.537.11H56.32a.719.719,0,0,1,.667.669.847.847,0,0,1-.222.445h-.223a1.411,1.411,0,0,0-.747.223H34.916a1.406,1.406,0,0,0-.747-.223h-.58a.664.664,0,0,1-.2-.445m-5.454,3.339H56.431c.02,0,.039,0,.059-.006s.035.006.052.006h6.233V37.92H59.881V32.465a1.447,1.447,0,0,0-2.894,0V37.92H55.763V33.8a1.457,1.457,0,0,0-1.446-1.336A1.38,1.38,0,0,0,52.87,33.8V37.92H51.533V35.248a1.447,1.447,0,0,0-2.894,0V37.92H47.415V36.584a1.447,1.447,0,0,0-2.894,0V37.92H40.4a1.447,1.447,0,1,0,0,2.894H62.776V43.6H50.266a1.229,1.229,0,0,0-.346,0H27.937V25.565h5.454A5.512,5.512,0,0,0,38.956,20a1.474,1.474,0,0,0-1.447-1.446H27.937ZM22.261,61.517V25.565h2.783V44.932a1.472,1.472,0,0,0,1.446,1.446H38.266L31.858,61.517ZM7.013,43.485A2.756,2.756,0,0,1,4.229,40.7v-16.7a2.756,2.756,0,0,1,2.784-2.783H25.95a1.388,1.388,0,0,0,.54.112,1.281,1.281,0,0,0,.524-.112h8.936A2.9,2.9,0,0,1,33.5,22.671H20.926a1.473,1.473,0,0,0-1.447,1.446v37.4H15.36V44.932a1.447,1.447,0,1,0-2.894,0V61.517H8.459V44.932a1.473,1.473,0,0,0-1.446-1.447M55.536,61.517h-8.9V51.945A1.38,1.38,0,0,0,45.3,50.5a1.473,1.473,0,0,0-1.447,1.447v9.572H34.843l6.408-15.138h7.878Z" transform="translate(0 -0.41)" fill="#fff"/>
              <path id="Path_922063" data-name="Path 922063" d="M14.411,16.888A7.012,7.012,0,1,0,7.4,9.876a7.054,7.054,0,0,0,7.012,7.012m0-11.131a4.23,4.23,0,1,1-4.229,4.23,4.228,4.228,0,0,1,4.229-4.23" transform="translate(-0.499 -0.193)" fill="#fff"/>
              <path id="Path_922064" data-name="Path 922064" d="M39.837,29.107a1.37,1.37,0,0,0-1.113.557l-5.566,7.012a1.517,1.517,0,0,0,.223,2,1.479,1.479,0,0,0,.891.334,1.774,1.774,0,0,0,1.113-.556l4.341-5.566,1.781,2.56a1.222,1.222,0,0,0,1.113.668,1.136,1.136,0,0,0,1.113-.445L49.3,29l1.78,3.673a1.341,1.341,0,0,0,1.114.78A1.324,1.324,0,0,0,53.417,33l5.788-6.89v1.659a1.473,1.473,0,0,0,1.447,1.447,1.3,1.3,0,0,0,1.335-1.558V22.094a1.473,1.473,0,0,0-1.447-1.446H54.975a1.447,1.447,0,1,0,0,2.894h2.671l-5.009,6.01-1.78-3.673a1.339,1.339,0,0,0-1.113-.779,1.325,1.325,0,0,0-1.225.445l-5.788,6.9-1.78-2.672a1.226,1.226,0,0,0-1.114-.668" transform="translate(-2.217 -1.392)" fill="#fff"/>
            </g>
          </g>
        </g>
      </g>
    </g>
  </g>
</svg>
