<svg id="Group_1116006" data-name="Group 1116006" xmlns="http://www.w3.org/2000/svg" xmlns:xlink="http://www.w3.org/1999/xlink" width="119" height="119" viewBox="0 0 119 119">
  <defs>
    <clipPath id="clip-path">
      <rect id="Rectangle_406617" data-name="Rectangle 406617" width="119" height="119" fill="#170551" stroke="rgba(0,0,0,0)" stroke-miterlimit="10" stroke-width="1"/>
    </clipPath>
    <clipPath id="clip-path-2">
      <rect id="Rectangle_401492" data-name="Rectangle 401492" width="69.729" height="69.729" transform="translate(9.687 0.275)" fill="#fff" stroke="#707070" stroke-width="1"/>
    </clipPath>
    <clipPath id="clip-path-3">
      <rect id="Rectangle_408673" data-name="Rectangle 408673" width="66.122" height="66.454" fill="#fff"/>
    </clipPath>
  </defs>
  <g id="Group_1113263" data-name="Group 1113263" transform="translate(0 0)">
    <g id="Group_1112834" data-name="Group 1112834" transform="translate(0 0)" clip-path="url(#clip-path)">
      <path id="Path_917479" data-name="Path 917479" d="M118.163,71l-5.841-4.807a52.529,52.529,0,0,0-.6-16.787l5.47-5.208a3.328,3.328,0,0,0,.732-3.8l-5.546-12.131a3.335,3.335,0,0,0-3.026-1.944c-.108,0-.217,0-.325.015l-7.532.731A53.325,53.325,0,0,0,89.209,15.619l.185-7.551a3.329,3.329,0,0,0-2.166-3.2L74.728.21A3.32,3.32,0,0,0,73.566,0h0a3.315,3.315,0,0,0-2.57,1.214L66.186,7.057a52.524,52.524,0,0,0-16.786.6l-5.208-5.47A3.344,3.344,0,0,0,41.78,1.15a3.3,3.3,0,0,0-1.385.3L28.264,7a3.33,3.33,0,0,0-1.929,3.35l.731,7.534a53.315,53.315,0,0,0-11.449,12.29l-7.55-.185-.083,0a3.342,3.342,0,0,0-3.119,2.169L.208,44.652a3.333,3.333,0,0,0,1,3.731l5.846,4.811a52.523,52.523,0,0,0,.6,16.786L2.181,75.188a3.329,3.329,0,0,0-.731,3.8L7,91.116a3.336,3.336,0,0,0,3.027,1.945c.107,0,.215,0,.323-.015l7.534-.732a53.328,53.328,0,0,0,12.289,11.449l-.185,7.55a3.329,3.329,0,0,0,2.167,3.2l12.5,4.657a3.334,3.334,0,0,0,3.733-1l4.809-5.843a52.521,52.521,0,0,0,16.786-.6l5.208,5.47a3.343,3.343,0,0,0,2.41,1.034,3.308,3.308,0,0,0,1.384-.3l12.134-5.547a3.332,3.332,0,0,0,1.929-3.35l-.731-7.533a53.311,53.311,0,0,0,11.449-12.29l7.551.185h.082a3.342,3.342,0,0,0,3.119-2.167l4.657-12.5A3.329,3.329,0,0,0,118.163,71" transform="translate(0 -0.38)" fill="#170551" stroke="rgba(0,0,0,0)" stroke-miterlimit="10" stroke-width="1"/>
    </g>
  </g>
  <g id="Group_1111310" data-name="Group 1111310" transform="translate(21.025 24.557)">
    <rect id="Rectangle_401104" data-name="Rectangle 401104" width="64.968" height="66.017" transform="translate(2.38 0)" fill="none"/>
    <g id="Mask_Group_1098697" data-name="Mask Group 1098697" transform="translate(-7.306 -0.276)" clip-path="url(#clip-path-2)">
      <g id="Group_1116039" data-name="Group 1116039" transform="translate(11.686 1.275)">
        <g id="Group_1116038" data-name="Group 1116038" clip-path="url(#clip-path-3)">
          <path id="Path_923739" data-name="Path 923739" d="M4.708,25.739C6.493,16.076,12.783,8.9,21.45,4.711c.773-.374,1.879-.577,2.556-.976.535-.315,1.684-1.838,2.019-1.9.9.082,2.2,1.669,3.016,1.251.64-.327.639-2.332,1.074-2.856.372-.447,4.761-.086,5.666-.167.62.209.627,2.679,1.3,3.022.706.36,2.251-1.036,3.016-1.263.288.049,1.505,1.61,2.018,1.914.614.363,1.494.461,2.165.778,5.773,2.728,10.866,6.628,13.8,12.395l-8.138,2.556c-.477-.049-3.484-4.254-4.023-3.926a.42.42,0,0,1-.243.452c-.579.281-2.163.413-2.578.705-.94.661,1.135,2.629,1.02,3.228l-1.338,1.4c.474.544,1.321.217,1.958.294V51.442H21.386V21.619c.637-.078,1.484.25,1.958-.294l-1.338-1.4c.127-.9,1.377-1.9,1.215-2.783-.189-1.025-2.7-.585-3.11-1.6a19.5,19.5,0,0,0-6.574,10.2h5.494L9.515,39.273,0,25.739Zm29.6-23.517h-2.5l-.718,2.323L28.66,5.635l-2.364-1L24.559,6.411l1.13,1.957-.95,2.528-2.38.845.028,2.6c.548.2,1.847.251,2.236.609a23.634,23.634,0,0,1,1.049,2.3c.109.716-1.2,2.088-1.056,2.41l1.8,1.734,2.164-1.113c.736.6,2.265.6,2.632,1.419.258.576.138,1.745.863,1.884a8.209,8.209,0,0,0,2.266-.093c.444-.524.323-1.723.779-2.165.091-.088,2.193-.961,2.337-.989.649-.125,1.846,1.256,2.365,1l1.725-1.774L40.432,17.4l1.3-2.606,2.03-.554-.037-2.6-2.283-.66-.99-2.753L41.51,6.315,39.7,4.58,37.574,5.658l-2.45-1.014ZM10.791,27.9a23.209,23.209,0,0,1,7.453-13.639,23.339,23.339,0,0,0,1.869-1.467c.33-.671-.143-2.3.183-2.76,2.3-.691,4.111-.68,1.981-3.278A27.029,27.029,0,0,0,6.446,27.87L4.12,27.9l5.4,7.647,5.4-7.649ZM54.741,15.731c.182-.2-1.426-2.085-1.665-2.356A27.158,27.158,0,0,0,48.72,9.49c-.95-.682-3.737-2.544-4.76-2.707-.3-.048-1.354,1.6-.972,2.154.475.692,2.1.649,2.836,1.094l.183,2.761c1.578.671,3.084,3.214,4.307,3.932.983.577,3.252-.944,4.426-.993M23.348,23.875V49.284H42.772V23.875c-.727-.9-2.413.15-2.993.066-.92-.133-1.908-1.74-3.049-.906l-.647,2.684-5.944.031c-.5-.727-.352-2.8-1.247-2.916-1.082-.141-1.731.988-2.55,1.106-.545.079-1.574-.675-2.668-.329Z" transform="translate(0.001 -0.001)" fill="#fff"/>
          <path id="Path_923740" data-name="Path 923740" d="M78.172,156.832l9.206-13.412.5-.134L97.2,156.832H92.5a29.182,29.182,0,0,1-23.7,23.1c-11.841,1.858-24.005-3.7-29.668-14.264l8.3-2.527a24.907,24.907,0,0,0,5.528,5.278c11.5,7.531,27.212,1.613,30.712-11.582Zm4.12-2.158h4.12c-2.791,19.1-27.665,26.163-39.661,10.809l-4.29,1.357c-.146.153,1.455,2.115,1.665,2.356a26.708,26.708,0,0,0,30.779,6.64A27.171,27.171,0,0,0,90.757,154.7l2.326-.123-5.394-7.551Z" transform="translate(-31.083 -113.827)" fill="#fff"/>
          <path id="Path_923741" data-name="Path 923741" d="M139.056,177.678v10.6H123.948c.088-.7-.264-1.641.294-2.158h4.022v-4.12h2.158v4.12h2.158v-6.279h2.158v6.279H136.9v-8.437Z" transform="translate(-98.441 -141.148)" fill="#fff"/>
          <rect id="Rectangle_408670" data-name="Rectangle 408670" width="15.108" height="2.158" transform="translate(25.507 32.213)" fill="#fff"/>
          <rect id="Rectangle_408671" data-name="Rectangle 408671" width="10.791" height="2.158" transform="translate(29.824 27.897)" fill="#fff"/>
          <rect id="Rectangle_408672" data-name="Rectangle 408672" width="2.16" height="2.16" transform="translate(25.506 27.896)" fill="#fff"/>
          <path id="Path_923742" data-name="Path 923742" d="M135.645,31.759c8.838-.933,9.569,12.61.916,12.9-7.965.266-9.023-12.044-.916-12.9m.2,2.152c-6.392.791-3.711,10.9,2.4,8.093,4.248-1.953,2.466-8.694-2.4-8.093" transform="translate(-103.315 -25.193)" fill="#fff"/>
        </g>
      </g>
    </g>
  </g>
</svg>
