<svg id="Group_1116008" data-name="Group 1116008" xmlns="http://www.w3.org/2000/svg" xmlns:xlink="http://www.w3.org/1999/xlink" width="119" height="119" viewBox="0 0 119 119">
  <defs>
    <clipPath id="clip-path">
      <rect id="Rectangle_406617" data-name="Rectangle 406617" width="119" height="119" fill="#170551" stroke="rgba(0,0,0,0)" stroke-miterlimit="10" stroke-width="1"/>
    </clipPath>
    <clipPath id="clip-path-2">
      <rect id="Rectangle_401492" data-name="Rectangle 401492" width="69.729" height="69.729" transform="translate(-0.313 0.275)" fill="#fff" stroke="#707070" stroke-width="1"/>
    </clipPath>
    <clipPath id="clip-path-3">
      <rect id="Rectangle_408674" data-name="Rectangle 408674" width="65.238" height="65.275" fill="#fff"/>
    </clipPath>
  </defs>
  <g id="Group_1113263" data-name="Group 1113263" transform="translate(0 0)">
    <g id="Group_1112834" data-name="Group 1112834" transform="translate(0 0)" clip-path="url(#clip-path)">
      <path id="Path_917479" data-name="Path 917479" d="M118.163,71l-5.841-4.807a52.529,52.529,0,0,0-.6-16.787l5.47-5.208a3.328,3.328,0,0,0,.732-3.8l-5.546-12.131a3.335,3.335,0,0,0-3.026-1.944c-.108,0-.217,0-.325.015l-7.532.731A53.325,53.325,0,0,0,89.209,15.619l.185-7.551a3.329,3.329,0,0,0-2.166-3.2L74.728.21A3.32,3.32,0,0,0,73.566,0h0a3.315,3.315,0,0,0-2.57,1.214L66.186,7.057a52.524,52.524,0,0,0-16.786.6l-5.208-5.47A3.344,3.344,0,0,0,41.78,1.15a3.3,3.3,0,0,0-1.385.3L28.264,7a3.33,3.33,0,0,0-1.929,3.35l.731,7.534a53.315,53.315,0,0,0-11.449,12.29l-7.55-.185-.083,0a3.342,3.342,0,0,0-3.119,2.169L.208,44.652a3.333,3.333,0,0,0,1,3.731l5.846,4.811a52.523,52.523,0,0,0,.6,16.786L2.181,75.188a3.329,3.329,0,0,0-.731,3.8L7,91.116a3.336,3.336,0,0,0,3.027,1.945c.107,0,.215,0,.323-.015l7.534-.732a53.328,53.328,0,0,0,12.289,11.449l-.185,7.55a3.329,3.329,0,0,0,2.167,3.2l12.5,4.657a3.334,3.334,0,0,0,3.733-1l4.809-5.843a52.521,52.521,0,0,0,16.786-.6l5.208,5.47a3.343,3.343,0,0,0,2.41,1.034,3.308,3.308,0,0,0,1.384-.3l12.134-5.547a3.332,3.332,0,0,0,1.929-3.35l-.731-7.533a53.311,53.311,0,0,0,11.449-12.29l7.551.185h.082a3.342,3.342,0,0,0,3.119-2.167l4.657-12.5A3.329,3.329,0,0,0,118.163,71" transform="translate(0 -0.38)" fill="#170551" stroke="rgba(0,0,0,0)" stroke-miterlimit="10" stroke-width="1"/>
    </g>
  </g>
  <g id="Group_1111310" data-name="Group 1111310" transform="translate(25.025 24.557)">
    <rect id="Rectangle_401104" data-name="Rectangle 401104" width="64.968" height="66.017" transform="translate(2.38 0)" fill="none"/>
    <g id="Group_1098697" data-name="Group 1098697" transform="translate(0 0)" clip-path="url(#clip-path-2)">
      <g id="Group_1116041" data-name="Group 1116041" transform="translate(2.686 2.276)">
        <g id="Group_1116040" data-name="Group 1116040" clip-path="url(#clip-path-3)">
          <path id="Path_923743" data-name="Path 923743" d="M33.826,7.488l-.031,2.324a25.163,25.163,0,0,1,9.359,2.533c1.574.8,2.878,1.979,4.429,2.793l7.964-7.474c.118-.927-.229-1.617-.059-2.621a3.874,3.874,0,1,1,3.855,4.713c-.8.026-1.563-.546-2.265-.135l-7.853,7.37a23.767,23.767,0,0,1,6.455,14.433l2.082,0c1-3.54,6.124-3.5,7.254-.014,1.582,4.878-5.693,7.27-7.254,2.437l-2.089-.009a24.767,24.767,0,0,1-5.994,14.48c1.891,2.092,3.945,4.368,6.072,6.286.3.272,1.922,1.758,2.047,1.816.634.293,1.154-.122,1.8-.115a4.133,4.133,0,0,1,3.371,2.432c1.641,3.745-3.042,7.065-6.113,4.4-1.494-1.3-1.337-3.157-.882-4.889-2.8-2.629-5.259-5.662-8.365-7.942a23.559,23.559,0,0,1-13.619,5.458l-.213,1.916a3.886,3.886,0,1,1-3.852.876c.36-.344,1.35-.748,1.471-1.1.792-2.308-1.609-1.736-3.218-2.068a23.551,23.551,0,0,1-6.746-2.467c-1.4-.774-2.605-1.814-4-2.575L9.481,58.016c1.036,3.4-1.4,7.139-5.186,5.4-3.144-1.442-2.545-6.679.944-7.269,1-.17,1.694.177,2.62.059l7.932-7.719A23.763,23.763,0,0,1,9.57,33.825l-2.1.021c-1.041,3.626-6.3,3.469-7.3-.152-1.342-4.864,5.816-6.979,7.3-2.27l2.082,0c.264-1.5,1.1-7.537,2.44-8.171a1.277,1.277,0,0,1,1.838.855c.073.477-1.227,3.746-1.4,4.726C8.555,50.38,35.992,62.321,48.877,45.361,62.949,26.839,40.355,2.983,21.17,15.727c-1.015.674-3.2,3.017-4.185,2.878-1.053-.149-.82-1.3-1.284-1.948L7.876,9.287c-2.173.79-5.263.047-5.585-2.573C1.444-.166,11.7.953,9.682,7.667l8.144,7.455A24.244,24.244,0,0,1,31.434,9.813L31.4,7.488c-4.981-1.6-2.3-9.024,2.6-7.2,3.34,1.242,3.289,6.243-.176,7.2M32.237,2.567a1.407,1.407,0,0,0,.755,2.71,1.407,1.407,0,0,0-.755-2.71M5.667,4.5a1.407,1.407,0,0,0,.755,2.71A1.407,1.407,0,0,0,5.667,4.5m53.354,0a1.407,1.407,0,1,0,.58,2.754c1.539-.263,1.311-3.093-.58-2.754M3.525,31.279A1.407,1.407,0,0,0,4.28,33.99a1.407,1.407,0,0,0-.755-2.711m57.424,0A1.407,1.407,0,0,0,61.7,33.99a1.407,1.407,0,0,0-.755-2.711m-54.9,27.27a1.386,1.386,0,0,0-.98,2.384c2.058,1.882,3.588-2.384.98-2.384m54.476,2.636a1.465,1.465,0,0,0-2-2.1c-1.6,1.13.6,3.58,2,2.1M32.237,59.991a1.407,1.407,0,0,0,.755,2.71,1.407,1.407,0,0,0-.755-2.71" transform="translate(0 0)" fill="#fff"/>
          <path id="Path_923744" data-name="Path 923744" d="M83.725,99.426V84.856l-5.75,3.034c-.31.5.176,7.535-.086,9.023-.322,1.836-2.228,1.088-3.592,1.23.355.745,1.134,1.327,1.443,2.09a3.261,3.261,0,0,1-5.2,3.7c-1.234-1.079-3.506-5.278-4.231-5.732-.3-.187-1.284-.266-1.881-.584-1.537-.82-1.816-2.243-1.927-3.858-.2-2.851-.4-7.275,3.323-7.625,3.259-.306,6.973.253,10.284,0,2.56-.91,5.693-3.731,8.1-4.539,1.247-.418,1.921-.1,2.091,1.223-.411,5.872.53,12.441.005,18.228-.1,1.083-.618,2.043-1.832,1.611a44.6,44.6,0,0,1-5.663-3.135c-.781-.588-1.376-1.517-.313-2.212,1.234-.807,3.926,1.72,5.227,2.119M75.369,88.5H65.834a1.443,1.443,0,0,0-.551.36,29.3,29.3,0,0,0-.193,5.955c.045.235.37.756.53.756h9.749Zm-4.116,9.689a4.111,4.111,0,0,0-1.882.059c.691.682,2.584,4.317,3.5,4.148.51-.094.664-.854.527-1.312a32.7,32.7,0,0,0-2.148-2.894" transform="translate(-45.862 -59.828)" fill="#fff"/>
          <path id="Path_923745" data-name="Path 923745" d="M155.047,145.242a1.665,1.665,0,0,1,1.125.081,55.729,55.729,0,0,1,5.044,3.1c1.257,1.239.334,2.747-1.387,2.031a44.022,44.022,0,0,1-4.918-3.011c-.7-.627-.937-1.867.136-2.2" transform="translate(-113.391 -106.676)" fill="#fff"/>
          <path id="Path_923746" data-name="Path 923746" d="M161.371,80.442c-.2.238-4.984,3.084-5.283,3.177-1.071.33-2.2-.276-1.853-1.406.319-1.042,4.643-2.916,5.644-3.8l1.575.248a1.691,1.691,0,0,1-.082,1.782" transform="translate(-113.286 -57.618)" fill="#fff"/>
          <path id="Path_923747" data-name="Path 923747" d="M154.812,116.3c.393-.374,5.245-.381,6.038-.256a1.18,1.18,0,0,1,.222,2.338,41.523,41.523,0,0,1-5.775,0,1.217,1.217,0,0,1-.485-2.083" transform="translate(-113.465 -85.214)" fill="#fff"/>
        </g>
      </g>
    </g>
  </g>
</svg>
