<svg xmlns="http://www.w3.org/2000/svg" xmlns:xlink="http://www.w3.org/1999/xlink" width="400.211" height="390" viewBox="0 0 400.211 390">
  <defs>
    <clipPath id="clip-path">
      <rect id="Rectangle_408648" data-name="Rectangle 408648" width="400" height="390" transform="translate(284.711 5955)" fill="#fff" stroke="#707070" stroke-width="1"/>
    </clipPath>
    <clipPath id="clip-path-2">
      <rect id="Rectangle_408686" data-name="Rectangle 408686" width="418.378" height="393.81" fill="none"/>
    </clipPath>
    <clipPath id="clip-path-3">
      <path id="Path_923857" data-name="Path 923857" d="M152.831,35.119c-36.37,21.938-58.924,55.772-79.352,92.1-22.4,39.83-38.47,83.238-33.19,129.74,9.04,79.612,89.953,114.768,161.554,117.569,63.288,2.476,121.813-30.99,160.8-78.894,24.286-29.842,41.982-68.381,36.7-107.625-5-37.139-27.109-72.829-50.717-101.156-23.836-28.6-54.475-52.964-90.472-63.968a134.587,134.587,0,0,0-39.315-5.9,127.573,127.573,0,0,0-66.009,18.134" transform="translate(-39.28 -16.985)" fill="none"/>
    </clipPath>
    <clipPath id="clip-path-4">
      <path id="Path_923877" data-name="Path 923877" d="M75.475,139.465c-10.117,17.989-18.942,36.707-25.093,56.111v105.2c.057.135.115.276.172.41h55.831V91.535c-11.535,14.821-21.449,31.108-30.91,47.931m36.07-54.325q-.252.3-.5.6v259.5H241.722V85.14Zm134.834,0v260.1h79.968a232.4,232.4,0,0,0,38.295-37.361,201.573,201.573,0,0,0,12.42-16.976V135.961A296.52,296.52,0,0,0,350.622,99.1q-5.983-7.181-12.531-13.96Z" transform="translate(-50.382 -85.14)" fill="none"/>
    </clipPath>
  </defs>
  <g id="Group_1116066" data-name="Group 1116066" transform="translate(-284.5 -5955)">
    <g id="Mask_Group_1110989" data-name="Mask Group 1110989" clip-path="url(#clip-path)">
      <g id="Group_1116054" data-name="Group 1116054" transform="translate(275.711 5951.082)">
        <g id="Group_1116045" data-name="Group 1116045">
          <g id="Group_1116044" data-name="Group 1116044" clip-path="url(#clip-path-2)">
            <path id="Path_923853" data-name="Path 923853" d="M201.844,374.525c-71.6-2.8-152.514-37.957-161.554-117.569-5.28-46.5,10.79-89.911,33.19-129.74,20.428-36.324,42.982-70.158,79.352-92.1,31.656-19.095,70.114-23,105.324-12.235,36,11,66.636,35.364,90.472,63.967,23.608,28.328,45.717,64.018,50.717,101.157,5.284,39.244-12.411,77.783-36.7,107.624-38.988,47.9-97.514,81.369-160.8,78.894" transform="translate(-7.06 -3.053)" fill="#cbd8e9"/>
          </g>
        </g>
        <g id="Group_1116047" data-name="Group 1116047" transform="translate(32.22 13.932)">
          <g id="Group_1116046" data-name="Group 1116046" clip-path="url(#clip-path-3)">
            <path id="Path_923854" data-name="Path 923854" d="M198.814,416.765l25.029,11.441-56.94-12.3c-56.887-1.527-107.9-2.82-108.99-2.576L35.663,450.79l264.366,7.1,21.78-37.7s-64.271-1.818-122.995-3.425" transform="translate(-38.63 -88.217)" fill="#a9bdd9"/>
            <path id="Path_923855" data-name="Path 923855" d="M0,58.712,324.314,11.125,0,0Z" transform="translate(-32.22 -13.932)" fill="#a9bdd9"/>
            <path id="Path_923856" data-name="Path 923856" d="M258.7,51.548l164.021-15.76,14.831,17Z" transform="translate(-78.718 -20.365)" fill="#a9bdd9"/>
            <rect id="Rectangle_408687" data-name="Rectangle 408687" width="29.731" height="7.598" transform="translate(115.073 36.626)" fill="none" stroke="#fff" stroke-miterlimit="10" stroke-width="0.487"/>
            <rect id="Rectangle_408688" data-name="Rectangle 408688" width="29.731" height="7.598" transform="translate(141.158 22.617)" fill="none" stroke="#fff" stroke-miterlimit="10" stroke-width="0.487"/>
            <rect id="Rectangle_408689" data-name="Rectangle 408689" width="29.731" height="7.598" transform="translate(345.103 151.904)" fill="none" stroke="#fff" stroke-miterlimit="10" stroke-width="0.487"/>
            <rect id="Rectangle_408690" data-name="Rectangle 408690" width="29.731" height="7.598" transform="translate(356.228 168.971)" fill="none" stroke="#fff" stroke-miterlimit="10" stroke-width="0.487"/>
            <rect id="Rectangle_408691" data-name="Rectangle 408691" width="29.731" height="7.598" transform="translate(22.442 285.458)" fill="none" stroke="#fff" stroke-miterlimit="10" stroke-width="0.487"/>
            <rect id="Rectangle_408692" data-name="Rectangle 408692" width="29.731" height="7.598" transform="translate(5.579 297.654)" fill="none" stroke="#fff" stroke-miterlimit="10" stroke-width="0.487"/>
            <path id="Path_924002" data-name="Path 924002" d="M0,0H130.681V260.1H0Z" transform="translate(205.104 55.904)" fill="#c0afff"/>
            <rect id="Rectangle_408694" data-name="Rectangle 408694" width="130.681" height="260.103" transform="translate(69.766 55.904)" fill="#c0afff"/>
            <rect id="Rectangle_408695" data-name="Rectangle 408695" width="56.003" height="216.05" transform="translate(9.107 55.904)" fill="#c0afff"/>
          </g>
        </g>
        <g id="Group_1116049" data-name="Group 1116049" transform="translate(41.327 69.837)">
          <g id="Group_1116048" data-name="Group 1116048" clip-path="url(#clip-path-4)">
            <path id="Path_923858" data-name="Path 923858" d="M348.779,209.47V182H316.868v93.159H265.577V212.612h-40.14v46.052H198.564v-89.1H181.975L172.541,179v38.18H153.419v73.684H111.257V238.211H95.033V225.728H62.651V189.617L29.016,189.6v177.39H382.864V209.47Z" transform="translate(-46.542 -100.314)" fill="#806dc7"/>
            <rect id="Rectangle_408696" data-name="Rectangle 408696" width="1.596" height="48.205" transform="translate(279.565 42.849)" fill="#79a9c9"/>
            <rect id="Rectangle_408697" data-name="Rectangle 408697" width="1.596" height="48.205" transform="translate(287.951 42.849)" fill="#79a9c9"/>
            <rect id="Rectangle_408698" data-name="Rectangle 408698" width="28.46" height="3.387" transform="translate(16.109 144.41)" fill="#d6ebf0"/>
            <rect id="Rectangle_408699" data-name="Rectangle 408699" width="28.46" height="3.388" transform="translate(16.109 152.033)" fill="#d6ebf0"/>
            <rect id="Rectangle_408700" data-name="Rectangle 408700" width="28.46" height="3.387" transform="translate(16.109 159.656)" fill="#d6ebf0"/>
            <rect id="Rectangle_408701" data-name="Rectangle 408701" width="28.46" height="3.387" transform="translate(16.109 167.28)" fill="#d6ebf0"/>
            <rect id="Rectangle_408702" data-name="Rectangle 408702" width="28.46" height="3.388" transform="translate(16.109 174.902)" fill="#d6ebf0"/>
            <rect id="Rectangle_408703" data-name="Rectangle 408703" width="28.46" height="3.387" transform="translate(16.109 197.69)" fill="#d6ebf0"/>
            <rect id="Rectangle_408704" data-name="Rectangle 408704" width="28.46" height="3.388" transform="translate(16.109 221.497)" fill="#d6ebf0"/>
            <rect id="Rectangle_408705" data-name="Rectangle 408705" width="9.686" height="13.511" transform="translate(186.518 118.957)" fill="#d6ebf0"/>
            <rect id="Rectangle_408706" data-name="Rectangle 408706" width="9.686" height="13.511" transform="translate(198.977 118.957)" fill="#d6ebf0"/>
            <rect id="Rectangle_408707" data-name="Rectangle 408707" width="9.686" height="13.511" transform="translate(186.518 152.381)" fill="#d6ebf0"/>
            <rect id="Rectangle_408708" data-name="Rectangle 408708" width="9.686" height="13.511" transform="translate(198.977 152.381)" fill="#d6ebf0"/>
            <rect id="Rectangle_408709" data-name="Rectangle 408709" width="9.686" height="13.511" transform="translate(186.518 169.094)" fill="#d6ebf0"/>
            <rect id="Rectangle_408710" data-name="Rectangle 408710" width="9.686" height="13.511" transform="translate(198.977 185.806)" fill="#d6ebf0"/>
            <rect id="Rectangle_408711" data-name="Rectangle 408711" width="4.635" height="1.895" transform="translate(131.153 84.002)" fill="#d6ebf0"/>
            <rect id="Rectangle_408712" data-name="Rectangle 408712" width="4.635" height="1.895" transform="translate(138.45 84.002)" fill="#d6ebf0"/>
            <rect id="Rectangle_408713" data-name="Rectangle 408713" width="4.635" height="1.895" transform="translate(145.746 84.002)" fill="#d6ebf0"/>
            <rect id="Rectangle_408714" data-name="Rectangle 408714" width="4.635" height="1.895" transform="translate(131.153 89.77)" fill="#d6ebf0"/>
            <rect id="Rectangle_408715" data-name="Rectangle 408715" width="4.635" height="1.895" transform="translate(145.746 89.77)" fill="#d6ebf0"/>
            <rect id="Rectangle_408716" data-name="Rectangle 408716" width="4.635" height="1.896" transform="translate(131.153 95.537)" fill="#d6ebf0"/>
            <rect id="Rectangle_408717" data-name="Rectangle 408717" width="4.635" height="1.896" transform="translate(138.45 95.537)" fill="#d6ebf0"/>
            <rect id="Rectangle_408718" data-name="Rectangle 408718" width="4.635" height="1.895" transform="translate(145.746 101.306)" fill="#d6ebf0"/>
            <rect id="Rectangle_408719" data-name="Rectangle 408719" width="4.635" height="1.896" transform="translate(131.153 112.842)" fill="#d6ebf0"/>
            <rect id="Rectangle_408720" data-name="Rectangle 408720" width="4.635" height="1.896" transform="translate(145.746 112.842)" fill="#d6ebf0"/>
            <rect id="Rectangle_408721" data-name="Rectangle 408721" width="4.635" height="1.895" transform="translate(145.746 118.611)" fill="#d6ebf0"/>
            <rect id="Rectangle_408722" data-name="Rectangle 408722" width="4.635" height="1.896" transform="translate(131.153 124.378)" fill="#d6ebf0"/>
            <rect id="Rectangle_408723" data-name="Rectangle 408723" width="4.635" height="1.896" transform="translate(138.45 124.378)" fill="#d6ebf0"/>
            <rect id="Rectangle_408724" data-name="Rectangle 408724" width="4.635" height="1.896" transform="translate(145.746 124.378)" fill="#d6ebf0"/>
            <rect id="Rectangle_408725" data-name="Rectangle 408725" width="4.635" height="1.896" transform="translate(131.153 130.146)" fill="#d6ebf0"/>
            <rect id="Rectangle_408726" data-name="Rectangle 408726" width="4.635" height="1.896" transform="translate(145.746 130.146)" fill="#d6ebf0"/>
            <rect id="Rectangle_408727" data-name="Rectangle 408727" width="4.635" height="1.896" transform="translate(131.153 135.915)" fill="#d6ebf0"/>
            <rect id="Rectangle_408728" data-name="Rectangle 408728" width="4.635" height="1.896" transform="translate(138.45 135.915)" fill="#d6ebf0"/>
            <path id="Path_923859" data-name="Path 923859" d="M367.355,162.421a12.007,12.007,0,0,1-6.882-21.851A13.294,13.294,0,1,0,371.135,161.8a11.976,11.976,0,0,1-3.78.616" transform="translate(-103.73 -95.103)" fill="#d6ebf0"/>
            <path id="Path_923860" data-name="Path 923860" d="M67.12,142.335a1.064,1.064,0,1,1-1.064-1.064,1.064,1.064,0,0,1,1.064,1.064" transform="translate(-53.008 -95.229)" fill="#d6ebf0"/>
            <path id="Path_923861" data-name="Path 923861" d="M97.416,171.206a.927.927,0,1,1-.927-.927.927.927,0,0,1,.927.927" transform="translate(-58.502 -100.442)" fill="#d6ebf0"/>
            <path id="Path_923862" data-name="Path 923862" d="M104.167,122.029a1.854,1.854,0,1,1-1.854-1.854,1.854,1.854,0,0,1,1.854,1.854" transform="translate(-59.383 -91.437)" fill="#d6ebf0"/>
            <path id="Path_923863" data-name="Path 923863" d="M217.967,107.163a.927.927,0,1,1-.927-.927.927.927,0,0,1,.927.927" transform="translate(-80.17 -88.932)" fill="#d6ebf0"/>
            <path id="Path_923864" data-name="Path 923864" d="M262.661,114.252a1.236,1.236,0,1,1-1.236-1.235,1.237,1.237,0,0,1,1.236,1.235" transform="translate(-88.092 -90.15)" fill="#d6ebf0"/>
            <path id="Path_923865" data-name="Path 923865" d="M149.268,228.4a1.236,1.236,0,1,1-1.236-1.236,1.236,1.236,0,0,1,1.236,1.236" transform="translate(-67.711 -110.667)" fill="#d6ebf0"/>
            <path id="Path_923866" data-name="Path 923866" d="M304.68,138.653a.773.773,0,1,1-.773-.773.773.773,0,0,1,.773.773" transform="translate(-95.811 -94.619)" fill="#d6ebf0"/>
            <path id="Path_923867" data-name="Path 923867" d="M363.8,136.19a1.7,1.7,0,1,1-1.7-1.7,1.7,1.7,0,0,1,1.7,1.7" transform="translate(-106.103 -94.01)" fill="#d6ebf0"/>
            <path id="Path_923868" data-name="Path 923868" d="M364.579,233.21a.773.773,0,1,1-.773-.773.773.773,0,0,1,.773.773" transform="translate(-106.577 -111.614)" fill="#d6ebf0"/>
            <path id="Path_923869" data-name="Path 923869" d="M338.276,203.671a.618.618,0,1,1-.618-.618.618.618,0,0,1,.618.618" transform="translate(-101.905 -106.333)" fill="#d6ebf0"/>
            <path id="Path_923870" data-name="Path 923870" d="M353.964,199.083a.927.927,0,1,1-.927-.927.927.927,0,0,1,.927.927" transform="translate(-104.613 -105.453)" fill="#d6ebf0"/>
            <path id="Path_923871" data-name="Path 923871" d="M425.918,159.9a.927.927,0,1,1-.927-.927.927.927,0,0,1,.927.927" transform="translate(-117.546 -98.411)" fill="#d6ebf0"/>
            <path id="Path_923872" data-name="Path 923872" d="M413.8,128.79a1.082,1.082,0,1,1-1.082-1.082,1.082,1.082,0,0,1,1.082,1.082" transform="translate(-115.311 -92.791)" fill="#d6ebf0"/>
            <path id="Path_923873" data-name="Path 923873" d="M186.39,120.947a.773.773,0,1,1-.774-.773.774.774,0,0,1,.774.773" transform="translate(-74.55 -91.437)" fill="#d6ebf0"/>
            <path id="Path_923874" data-name="Path 923874" d="M200.638,164.8a.927.927,0,1,1-.927-.927.927.927,0,0,1,.927.927" transform="translate(-77.055 -99.291)" fill="#d6ebf0"/>
            <path id="Path_923875" data-name="Path 923875" d="M155.261,285.078a1.03,1.03,0,1,1-1.03-1.03,1.03,1.03,0,0,1,1.03,1.03" transform="translate(-68.862 -120.891)" fill="#d6ebf0"/>
            <path id="Path_923876" data-name="Path 923876" d="M124.332,343.045h25.21v-8.117h40.131V345.67h11.749V320.609l17.226-17.226h9.562V335.5h7.032v-7.886l13.845,13.844v20.672h32.464v-19.6h22.977V335.5h21.7v12.055H349V334.424s5.121-12.25,15.164-12.25h14.852V336.92h11.049v47.547H124.332Z" transform="translate(-63.673 -124.366)" fill="#6596b8"/>
          </g>
        </g>
        <g id="Group_1116051" data-name="Group 1116051" transform="translate(32.22 13.932)">
          <g id="Group_1116050" data-name="Group 1116050" clip-path="url(#clip-path-3)">
            <rect id="Rectangle_408729" data-name="Rectangle 408729" width="124.496" height="2.884" transform="translate(209.154 55.904)" fill="#fff"/>
            <rect id="Rectangle_408730" data-name="Rectangle 408730" width="124.496" height="2.884" transform="translate(209.154 60.282)" fill="#fff"/>
            <rect id="Rectangle_408731" data-name="Rectangle 408731" width="124.496" height="2.884" transform="translate(209.154 64.66)" fill="#fff"/>
            <rect id="Rectangle_408732" data-name="Rectangle 408732" width="124.496" height="2.884" transform="translate(209.154 69.038)" fill="#fff"/>
            <rect id="Rectangle_408733" data-name="Rectangle 408733" width="124.496" height="2.884" transform="translate(209.154 73.415)" fill="#fff"/>
            <rect id="Rectangle_408734" data-name="Rectangle 408734" width="124.496" height="2.884" transform="translate(209.154 77.793)" fill="#fff"/>
            <path id="Path_923878" data-name="Path 923878" d="M445.61,221.513l-1.957,4.635h3.914Z" transform="translate(-111.96 -53.746)" fill="#9d0388"/>
            <rect id="Rectangle_408735" data-name="Rectangle 408735" width="0.798" height="113.483" transform="translate(333.251 55.904)" fill="#fff"/>
            <path id="Path_923879" data-name="Path 923879" d="M79.114,312.976l-1.957,4.635h3.914Z" transform="translate(-46.088 -70.185)" fill="#ff3d45"/>
            <path id="Path_923880" data-name="Path 923880" d="M73.184,222.761h-28.1L33.347,257.929h51.58Z" transform="translate(-38.214 -53.97)" fill="#6f8eba"/>
            <path id="Path_923881" data-name="Path 923881" d="M45.089,222.761,33.346,257.929H54.238l-.277-35.168Zm18.313,0H58.9l5.652,24.068Z" transform="translate(-38.213 -53.97)" fill="#3a5782"/>
            <rect id="Rectangle_408736" data-name="Rectangle 408736" width="0.798" height="40.172" transform="translate(32.627 203.959)" fill="#fff"/>
            <rect id="Rectangle_408737" data-name="Rectangle 408737" width="53.459" height="0.798" transform="translate(-5.691 198.924)" fill="#fff"/>
            <rect id="Rectangle_408738" data-name="Rectangle 408738" width="37.087" height="0.798" transform="translate(2.446 171.319)" fill="#fff"/>
            <path id="Path_923882" data-name="Path 923882" d="M46.28,408.162v2.125c0,.618,6.8,1.12,15.181,1.12s15.181-.5,15.181-1.12v-2.125Z" transform="translate(-40.538 -87.293)" fill="#6a44a3"/>
            <path id="Path_923883" data-name="Path 923883" d="M76.642,408.021c0,.357-6.8.646-15.181.646s-15.181-.289-15.181-.646,6.8-.646,15.181-.646,15.181.289,15.181.646" transform="translate(-40.538 -87.152)" fill="#9661cb"/>
            <path id="Path_923884" data-name="Path 923884" d="M61.614,408.342l-8.464.354c2.608.089,5.927.144,9.546.144H63l.774-.5Z" transform="translate(-41.773 -87.326)" fill="#6a44a3"/>
            <rect id="Rectangle_408739" data-name="Rectangle 408739" width="2.163" height="117.058" transform="translate(19.841 203.959)" fill="#1b2a4f"/>
            <rect id="Rectangle_408740" data-name="Rectangle 408740" width="0.798" height="72.473" transform="translate(95.632 -4.233)" fill="#253b7a"/>
            <rect id="Rectangle_408741" data-name="Rectangle 408741" width="3.09" height="3.09" transform="translate(94.486 68.239)" fill="#253b7a"/>
            <path id="Path_923885" data-name="Path 923885" d="M165.282,114.938A11.433,11.433,0,1,1,153.848,103.5a11.433,11.433,0,0,1,11.434,11.434" transform="translate(-57.817 -32.536)" fill="#d6ebf0"/>
            <path id="Path_923886" data-name="Path 923886" d="M166.489,117.164c-.445,2.192-2.134,3.7-3.772,3.367s-2.608-2.378-2.164-4.571,2.133-3.7,3.772-3.367,2.608,2.379,2.164,4.571" transform="translate(-61.057 -34.161)" fill="#fff"/>
            <path id="Path_923887" data-name="Path 923887" d="M159.644,125.729a1.479,1.479,0,1,1-.043-2.367,1.712,1.712,0,0,1,.043,2.367" transform="translate(-60.42 -36.067)" fill="#fff"/>
            <rect id="Rectangle_408742" data-name="Rectangle 408742" width="0.798" height="63.357" transform="translate(127.027 -4.234)" fill="#253b7a"/>
            <rect id="Rectangle_408743" data-name="Rectangle 408743" width="3.09" height="3.09" transform="translate(125.881 59.123)" fill="#253b7a"/>
            <path id="Path_923888" data-name="Path 923888" d="M203.557,103.825a11.433,11.433,0,1,1-11.434-11.434,11.434,11.434,0,0,1,11.434,11.434" transform="translate(-64.696 -30.538)" fill="#d6ebf0"/>
            <path id="Path_923889" data-name="Path 923889" d="M204.763,106.051c-.445,2.192-2.134,3.7-3.772,3.367s-2.608-2.378-2.164-4.571,2.133-3.7,3.772-3.367,2.608,2.379,2.164,4.571" transform="translate(-67.937 -32.164)" fill="#fff"/>
            <path id="Path_923890" data-name="Path 923890" d="M197.918,114.615a1.479,1.479,0,1,1-.043-2.367,1.711,1.711,0,0,1,.043,2.367" transform="translate(-67.299 -34.07)" fill="#fff"/>
            <rect id="Rectangle_408744" data-name="Rectangle 408744" width="0.798" height="54.242" transform="translate(158.423 -4.234)" fill="#253b7a"/>
            <rect id="Rectangle_408745" data-name="Rectangle 408745" width="3.09" height="3.09" transform="translate(157.277 50.007)" fill="#253b7a"/>
            <path id="Path_923891" data-name="Path 923891" d="M241.83,92.712A11.434,11.434,0,1,1,230.4,81.278,11.434,11.434,0,0,1,241.83,92.712" transform="translate(-71.575 -28.541)" fill="#d6ebf0"/>
            <path id="Path_923892" data-name="Path 923892" d="M243.037,94.938c-.444,2.192-2.133,3.7-3.772,3.367s-2.608-2.378-2.164-4.57,2.134-3.7,3.772-3.368,2.608,2.379,2.164,4.571" transform="translate(-74.816 -30.166)" fill="#fff"/>
            <path id="Path_923893" data-name="Path 923893" d="M236.192,103.5a1.479,1.479,0,1,1-.043-2.367,1.71,1.71,0,0,1,.043,2.367" transform="translate(-74.178 -32.072)" fill="#fff"/>
            <path id="Path_923894" data-name="Path 923894" d="M291.161,331.582l13.4,100.279h-3.939L284.309,331.582Z" transform="translate(-83.32 -73.529)" fill="#1b2a4f"/>
            <path id="Path_923895" data-name="Path 923895" d="M134.746,331.582l-13.4,100.279h3.939L141.6,331.582Z" transform="translate(-54.03 -73.529)" fill="#1b2a4f"/>
            <path id="Path_923896" data-name="Path 923896" d="M280.164,324.4H118.789v20.392h52.243l3.871-12.141h105.26Z" transform="translate(-53.571 -72.238)" fill="#a2badc"/>
            <rect id="Rectangle_408746" data-name="Rectangle 408746" width="42.297" height="11.08" transform="translate(70.215 256.284)" fill="none" stroke="#d6ebf0" stroke-miterlimit="10" stroke-width="0.973"/>
            <path id="Path_923897" data-name="Path 923897" d="M150.815,335.832a1.591,1.591,0,1,1-1.591-1.591,1.591,1.591,0,0,1,1.591,1.591" transform="translate(-58.755 -74.007)" fill="#d6ebf0"/>
            <rect id="Rectangle_408747" data-name="Rectangle 408747" width="42.342" height="3.183" transform="translate(124.384 248.977)" fill="#ebf3ff"/>
            <path id="Path_923898" data-name="Path 923898" d="M226.253,304.71H200.359s1.923,8.723-2.674,12.966h31.242c-4.6-4.243-2.674-12.966-2.674-12.966" transform="translate(-67.751 -68.699)" fill="#d2e4ff"/>
            <path id="Path_923899" data-name="Path 923899" d="M264.391,215.222v70.13a2.774,2.774,0,0,1-2.768,2.777H145.086a2.774,2.774,0,0,1-2.768-2.777v-70.13a2.773,2.773,0,0,1,2.768-2.768H261.624a2.772,2.772,0,0,1,2.768,2.768" transform="translate(-57.8 -52.118)" fill="#25396b"/>
            <path id="Path_923900" data-name="Path 923900" d="M264.391,289.477v9.72a2.774,2.774,0,0,1-2.768,2.777H145.086a2.774,2.774,0,0,1-2.768-2.777v-9.72Z" transform="translate(-57.8 -65.961)" fill="#ebf3ff"/>
            <path id="Path_923901" data-name="Path 923901" d="M217.866,296.776a1.456,1.456,0,1,1-1.455-1.456,1.455,1.455,0,0,1,1.455,1.456" transform="translate(-70.855 -67.012)" fill="#6f8eba"/>
            <rect id="Rectangle_408748" data-name="Rectangle 408748" width="63.18" height="34.318" transform="translate(182.237 175.391)" fill="#d2e4ff"/>
            <rect id="Rectangle_408749" data-name="Rectangle 408749" width="63.18" height="4.951" transform="translate(182.237 175.391)" fill="#ff85e7"/>
            <rect id="Rectangle_408750" data-name="Rectangle 408750" width="45.087" height="2.394" transform="translate(190.901 184.214)" fill="#a2badc"/>
            <rect id="Rectangle_408751" data-name="Rectangle 408751" width="45.087" height="2.394" transform="translate(190.901 188.708)" fill="#a2badc"/>
            <rect id="Rectangle_408752" data-name="Rectangle 408752" width="21.936" height="2.394" transform="translate(202.477 193.202)" fill="#a2badc"/>
            <rect id="Rectangle_408753" data-name="Rectangle 408753" width="11.632" height="4.064" transform="translate(207.629 201.003)" fill="#ff85e7"/>
            <path id="Path_923902" data-name="Path 923902" d="M266.491,233.582a1.12,1.12,0,1,1-1.12-1.12,1.119,1.119,0,0,1,1.12,1.12" transform="translate(-79.715 -55.714)" fill="#912327"/>
            <path id="Path_923903" data-name="Path 923903" d="M271.089,233.582a1.12,1.12,0,1,1-1.12-1.12,1.12,1.12,0,0,1,1.12,1.12" transform="translate(-80.542 -55.714)" fill="#912327"/>
            <path id="Path_923904" data-name="Path 923904" d="M275.687,233.582a1.12,1.12,0,1,1-1.12-1.12,1.12,1.12,0,0,1,1.12,1.12" transform="translate(-81.368 -55.714)" fill="#912327"/>
            <path id="Path_923905" data-name="Path 923905" d="M211.9,239.985,200.8,259.225a2.2,2.2,0,0,0,1.907,3.3H224.92a2.2,2.2,0,0,0,1.909-3.3l-11.11-19.24A2.2,2.2,0,0,0,211.9,239.985Z" transform="translate(-68.256 -56.868)" fill="none" stroke="#fff" stroke-miterlimit="10" stroke-width="0.973"/>
            <path id="Path_923906" data-name="Path 923906" d="M216.579,257.314a.685.685,0,0,1-.685-.685v-10.2a.685.685,0,1,1,1.37,0v10.2a.685.685,0,0,1-.685.685" transform="translate(-71.024 -58.102)" fill="#fff"/>
            <path id="Path_923907" data-name="Path 923907" d="M216.579,263.033a.685.685,0,1,1,.685-.685.685.685,0,0,1-.685.685" transform="translate(-71.024 -60.962)" fill="#fff"/>
            <rect id="Rectangle_408754" data-name="Rectangle 408754" width="38.613" height="1.768" transform="translate(58.353 199.565)" fill="#ff85e7"/>
            <rect id="Rectangle_408755" data-name="Rectangle 408755" width="16.646" height="1.768" transform="translate(58.353 196.089)" fill="#ff85e7"/>
            <rect id="Rectangle_408756" data-name="Rectangle 408756" width="38.613" height="1.768" transform="translate(58.353 203.038)" fill="#ff85e7"/>
            <rect id="Rectangle_408757" data-name="Rectangle 408757" width="38.613" height="1.768" transform="translate(58.353 206.514)" fill="#ff85e7"/>
            <rect id="Rectangle_408758" data-name="Rectangle 408758" width="38.613" height="1.768" transform="translate(58.353 209.989)" fill="#ff85e7"/>
            <rect id="Rectangle_408759" data-name="Rectangle 408759" width="24.459" height="1.768" transform="translate(58.353 213.463)" fill="#ff85e7"/>
            <path id="Path_923908" data-name="Path 923908" d="M159.461,195.662a2.7,2.7,0,0,0-2.138-1.06H122.372a2.7,2.7,0,0,0-2.7,2.695V219.1a2.694,2.694,0,0,0,2.7,2.695h34.951a2.7,2.7,0,0,0,2.7-2.695V197.3a2.679,2.679,0,0,0-.558-1.635m-37.088-.146h34.951a1.734,1.734,0,0,1,.576.1l-18.051,12.031-18.061-12.031a1.744,1.744,0,0,1,.585-.1M159.1,219.1a1.79,1.79,0,0,1-1.782,1.782H122.372a1.784,1.784,0,0,1-1.782-1.782V197.3a1.775,1.775,0,0,1,.4-1.124l18.855,12.571L158.7,196.173a1.775,1.775,0,0,1,.4,1.124Z" transform="translate(-53.73 -48.909)" fill="#fff"/>
            <path id="Path_923909" data-name="Path 923909" d="M127.373,192.877a7.872,7.872,0,1,1-7.872-7.872,7.872,7.872,0,0,1,7.872,7.872" transform="translate(-52.284 -47.184)" fill="#9d0388"/>
            <path id="Path_923910" data-name="Path 923910" d="M120.019,193.306a3.756,3.756,0,0,1-.7,2.489,2.641,2.641,0,0,1-2.126.822,3.991,3.991,0,0,1-.76-.054v-.957a2.79,2.79,0,0,0,.679.081,2.384,2.384,0,0,0,.984-.176,1.236,1.236,0,0,0,.591-.552,2.439,2.439,0,0,0,.235-1.036h-.046a1.315,1.315,0,0,1-.518.509,1.626,1.626,0,0,1-.733.147,1.48,1.48,0,0,1-1.161-.473,1.894,1.894,0,0,1-.424-1.313,1.963,1.963,0,0,1,.515-1.434,1.87,1.87,0,0,1,1.4-.527,2.013,2.013,0,0,1,1.093.294,1.883,1.883,0,0,1,.72.851,3.232,3.232,0,0,1,.251,1.33m-2.042-1.517a.708.708,0,0,0-.579.254,1.134,1.134,0,0,0-.208.733,1.014,1.014,0,0,0,.189.648.686.686,0,0,0,.575.24.885.885,0,0,0,.621-.237.724.724,0,0,0,.258-.546,1.245,1.245,0,0,0-.241-.776.742.742,0,0,0-.615-.316" transform="translate(-53.076 -48.231)" fill="#fff"/>
            <path id="Path_923911" data-name="Path 923911" d="M125.518,193.306a3.756,3.756,0,0,1-.7,2.489,2.641,2.641,0,0,1-2.126.822,3.99,3.99,0,0,1-.76-.054v-.957a2.79,2.79,0,0,0,.679.081,2.384,2.384,0,0,0,.984-.176,1.236,1.236,0,0,0,.591-.552,2.439,2.439,0,0,0,.235-1.036h-.046a1.315,1.315,0,0,1-.518.509,1.626,1.626,0,0,1-.733.147,1.48,1.48,0,0,1-1.161-.473,1.894,1.894,0,0,1-.425-1.313,1.963,1.963,0,0,1,.516-1.434,1.87,1.87,0,0,1,1.4-.527,2.014,2.014,0,0,1,1.094.294,1.878,1.878,0,0,1,.72.851,3.232,3.232,0,0,1,.251,1.33m-2.042-1.517a.708.708,0,0,0-.579.254,1.134,1.134,0,0,0-.208.733,1.014,1.014,0,0,0,.189.648.685.685,0,0,0,.574.24.885.885,0,0,0,.622-.237.724.724,0,0,0,.258-.546,1.245,1.245,0,0,0-.241-.776.742.742,0,0,0-.615-.316" transform="translate(-54.064 -48.231)" fill="#fff"/>
            <path id="Path_923912" data-name="Path 923912" d="M228.227,146.75H197.639a2.033,2.033,0,0,0-2.033,2.033v29.35a2.033,2.033,0,0,0,2.033,2.033H208.3a2.032,2.032,0,0,1,1.747.993L212.933,186l2.882-4.842a2.033,2.033,0,0,1,1.747-.993h10.665a2.034,2.034,0,0,0,2.033-2.033v-29.35A2.034,2.034,0,0,0,228.227,146.75Z" transform="translate(-67.377 -40.308)" fill="none" stroke="#fff" stroke-miterlimit="10" stroke-width="0.973"/>
            <path id="Path_923913" data-name="Path 923913" d="M225.543,164.539a11.286,11.286,0,1,1-11.286-11.286,11.287,11.287,0,0,1,11.286,11.286" transform="translate(-68.701 -41.477)" fill="#ff85e7"/>
            <path id="Path_923914" data-name="Path 923914" d="M214.454,167.563v-.579a2.567,2.567,0,0,1,.321-1.307,4.2,4.2,0,0,1,1.174-1.181,4.9,4.9,0,0,0,1.084-.955,1.383,1.383,0,0,0,.262-.821.89.89,0,0,0-.375-.775,1.794,1.794,0,0,0-1.049-.266,6.023,6.023,0,0,0-2.676.766l-.853-1.713a7.459,7.459,0,0,1,3.7-.979,3.938,3.938,0,0,1,2.562.774,2.53,2.53,0,0,1,.951,2.066,2.748,2.748,0,0,1-.391,1.486,5.576,5.576,0,0,1-1.486,1.408,4.594,4.594,0,0,0-.951.845,1.315,1.315,0,0,0-.2.759v.47Zm-.25,2.676a1.314,1.314,0,0,1,.352-.994,1.43,1.43,0,0,1,1.025-.336,1.386,1.386,0,0,1,1,.345,1.521,1.521,0,0,1,0,1.96,1.365,1.365,0,0,1-1,.356,1.4,1.4,0,0,1-1.017-.348,1.3,1.3,0,0,1-.36-.982" transform="translate(-70.385 -42.646)" fill="#fff"/>
            <circle id="Ellipse_11914" data-name="Ellipse 11914" cx="14.566" cy="14.566" r="14.566" transform="translate(199.124 121.753)" fill="#3d034b"/>
            <path id="Path_923915" data-name="Path 923915" d="M294.926,181.826a6.657,6.657,0,0,1,5.67,0,1.469,1.469,0,0,1,.545,1.854,1.435,1.435,0,0,0,1.308,2.071H305.5a1.54,1.54,0,0,0,1.472-1.472v-2.072c0-2.181-4.089-3.871-9.214-3.871s-9.159,1.745-9.214,3.871v2.072a1.539,1.539,0,0,0,1.472,1.472h3.053a1.436,1.436,0,0,0,1.308-2.072,1.4,1.4,0,0,1,.545-1.854" transform="translate(-84.082 -45.986)" fill="#ff85e7"/>
            <path id="Path_923916" data-name="Path 923916" d="M414.959,332.908c-.052-.259-5.007-26.4,4.985-58.247l.38.12c-9.959,31.746-5.024,57.791-4.973,58.051Z" transform="translate(-106.574 -63.298)" fill="#fff"/>
            <path id="Path_923917" data-name="Path 923917" d="M421.263,273.354l-.091-.176a7.71,7.71,0,0,1,3.214-9.987l.205-.133.089.229a7.707,7.707,0,0,1-3.24,9.977Zm3.132-9.691c-5.081,3.453-3.4,8.138-2.955,9.144.947-.559,5.054-3.37,2.955-9.144" transform="translate(-107.79 -61.213)" fill="#fff"/>
            <path id="Path_923918" data-name="Path 923918" d="M420.892,287.947a8.165,8.165,0,0,1-3.075-.59l-.182-.084.084-.18a7.705,7.705,0,0,1,9.837-3.646l.232.079-.125.212c-2.026,3.417-4.715,4.209-6.77,4.209m-2.717-.872c1.025.4,5.774,1.891,9.015-3.329-5.853-1.86-8.5,2.36-9.015,3.329" transform="translate(-107.284 -64.777)" fill="#fff"/>
            <path id="Path_923919" data-name="Path 923919" d="M416.679,286.543l-.2-.021a7.708,7.708,0,0,1-6.629-8.131v-.246l.24.05a7.71,7.71,0,0,1,6.608,8.149Zm-6.424-7.9c.132,6.142,4.977,7.28,6.062,7.457.048-1.1-.076-6.074-6.062-7.457" transform="translate(-105.885 -63.925)" fill="#fff"/>
            <path id="Path_923920" data-name="Path 923920" d="M417.334,302.276a7.784,7.784,0,0,1-2.119-.273l-.19-.061.062-.19a7.712,7.712,0,0,1,9.321-4.812l.24.05-.1.226c-1.873,4.269-5.091,5.06-7.215,5.06m-1.8-.6c1.063.274,5.96,1.176,8.545-4.4-6.027-1.134-8.148,3.372-8.545,4.4" transform="translate(-106.815 -67.261)" fill="#fff"/>
            <path id="Path_923921" data-name="Path 923921" d="M413.66,301.53a7.7,7.7,0,0,1-7.554-7.267l-.03-.244.246.021a7.706,7.706,0,0,1,7.545,7.286l0,.2-.2,0Zm-7.125-7.069c.875,6.081,5.823,6.622,6.921,6.666-.086-1.094-.812-6.019-6.921-6.666" transform="translate(-105.206 -66.778)" fill="#fff"/>
            <path id="Path_923922" data-name="Path 923922" d="M415.771,316.423a7.6,7.6,0,0,1-1.843-.208l-.192-.055.055-.192a7.708,7.708,0,0,1,9.157-5.115l.242.042-.091.229c-1.811,4.526-5.216,5.3-7.328,5.3m-1.53-.541c1.075.238,5.994.975,8.393-4.676a7.266,7.266,0,0,0-8.393,4.676" transform="translate(-106.583 -69.773)" fill="#fff"/>
            <path id="Path_923923" data-name="Path 923923" d="M412.221,315.849c-.874,0-6.632-.262-7.688-7.015l-.039-.244.246.012a7.707,7.707,0,0,1,7.781,7.035l.011.2-.2.011-.111,0m-7.253-6.832a7.263,7.263,0,0,0,7.136,6.433c-.123-1.1-1.014-5.988-7.136-6.433" transform="translate(-104.922 -69.397)" fill="#fff"/>
            <path id="Path_923924" data-name="Path 923924" d="M414.935,329.918a6.324,6.324,0,0,1-.993-.066l-.2-.035.035-.2a7.71,7.71,0,0,1,8.6-6l.245.018-.068.236c-1.558,5.392-5.709,6.045-7.626,6.045m-.719-.43c1.09.129,6.062.38,7.889-5.488-6.133-.33-7.63,4.419-7.889,5.488" transform="translate(-106.585 -72.092)" fill="#fff"/>
            <path id="Path_923925" data-name="Path 923925" d="M411.422,329.85c-1.8,0-6.213-.6-7.683-6.247l-.062-.238.245-.011a7.706,7.706,0,0,1,8.442,6.227l.03.2-.2.03a5.932,5.932,0,0,1-.776.043m-7.232-6.107c1.671,5.91,6.649,5.794,7.741,5.693a7.136,7.136,0,0,0-7.431-5.7q-.153,0-.31,0" transform="translate(-104.775 -72.048)" fill="#fff"/>
            <path id="Path_923926" data-name="Path 923926" d="M430.008,337.628l-.4-.012c.007-.21.815-21.206,17.333-36.517l.272.293c-16.4,15.2-17.2,36.027-17.205,36.236" transform="translate(-109.436 -68.05)" fill="#fff"/>
            <path id="Path_923927" data-name="Path 923927" d="M450.324,300.107l-.01-.2a7.71,7.71,0,0,1,7.059-7.76l.244-.037-.014.245a7.709,7.709,0,0,1-7.08,7.742Zm6.863-7.524a7.261,7.261,0,0,0-6.473,7.1c1.1-.116,5.993-.98,6.473-7.1" transform="translate(-113.157 -66.435)" fill="#fff"/>
            <path id="Path_923928" data-name="Path 923928" d="M451.175,308.475a8.037,8.037,0,0,1-5.38-2.254l-.136-.146.145-.136a7.708,7.708,0,0,1,10.485.322l.185.161-.2.149a8.362,8.362,0,0,1-5.1,1.9m-4.942-2.381c.8.754,4.637,3.923,9.605.308-4.726-3.926-8.76-1.009-9.605-.308" transform="translate(-112.321 -68.575)" fill="#fff"/>
            <path id="Path_923929" data-name="Path 923929" d="M445.225,304.6l-.176-.093a7.707,7.707,0,0,1-3.083-10.027l.092-.227.2.137a7.707,7.707,0,0,1,3.055,10.034Zm-2.98-9.739c-2.188,5.741,1.874,8.618,2.812,9.189.457-1,2.214-5.657-2.812-9.189" transform="translate(-111.523 -66.819)" fill="#fff"/>
            <path id="Path_923930" data-name="Path 923930" d="M443.713,317.446a8.147,8.147,0,0,1-4.853-1.716l-.151-.131.13-.15a7.707,7.707,0,0,1,10.461-.779l.2.141-.18.168a8.072,8.072,0,0,1-5.61,2.467m-4.43-1.888c.873.666,5.022,3.416,9.584-.7-5.111-3.409-8.818-.086-9.584.7" transform="translate(-111.071 -70.184)" fill="#fff"/>
            <path id="Path_923931" data-name="Path 923931" d="M438.153,314.285l-.186-.075a7.708,7.708,0,0,1-4.115-9.65l.068-.235.217.115a7.709,7.709,0,0,1,4.09,9.66Zm-3.984-9.373c-1.576,5.938,2.766,8.373,3.758,8.844.35-1.041,1.609-5.858-3.758-8.844" transform="translate(-110.124 -68.63)" fill="#fff"/>
            <path id="Path_923932" data-name="Path 923932" d="M437.74,328.021a8.256,8.256,0,0,1-4.111-1.137l-.167-.11.11-.167a7.712,7.712,0,0,1,10.275-2.115l.218.114-.156.189a7.816,7.816,0,0,1-6.169,3.226m-3.714-1.362c.951.549,5.421,2.741,9.415-1.926-5.5-2.721-8.756,1.047-9.415,1.926" transform="translate(-110.128 -72.055)" fill="#fff"/>
            <path id="Path_923933" data-name="Path 923933" d="M432.736,325.7l-.193-.05a7.708,7.708,0,0,1-5.322-9.04l.037-.243.23.086a7.709,7.709,0,0,1,5.3,9.054Zm-5.155-8.783c-.8,6.091,3.82,7.948,4.865,8.288.212-1.078.843-6.016-4.865-8.288" transform="translate(-108.983 -70.795)" fill="#fff"/>
            <path id="Path_923934" data-name="Path 923934" d="M433.524,338.786a8.2,8.2,0,0,1-2.993-.555l-.181-.082.081-.182a7.7,7.7,0,0,1,9.8-3.754l.233.076-.122.212c-2.018,3.49-4.747,4.285-6.813,4.285m-2.637-.842c1.028.388,5.794,1.825,8.977-3.428-5.876-1.8-8.468,2.454-8.977,3.428" transform="translate(-109.569 -73.907)" fill="#fff"/>
            <path id="Path_923935" data-name="Path 923935" d="M429.375,337.445l-.2-.018a7.708,7.708,0,0,1-6.718-8.057l0-.245.242.048a7.707,7.707,0,0,1,6.7,8.075Zm-6.512-7.831c.2,6.14,5.059,7.223,6.145,7.389.035-1.1-.143-6.072-6.145-7.389" transform="translate(-108.15 -73.087)" fill="#fff"/>
            <path id="Path_923936" data-name="Path 923936" d="M418.782,344.318H400.757l2.493,52.325h31.065l2.494-52.325Z" transform="translate(-104.25 -75.818)" fill="#25396b"/>
            <path id="Path_923937" data-name="Path 923937" d="M434.525,356.875c-1.529,0-2.274-1.384-2.932-2.6-.605-1.125-1.177-2.185-2.229-2.185s-1.623,1.061-2.229,2.185c-.658,1.221-1.4,2.6-2.93,2.6s-2.271-1.384-2.928-2.6c-.6-1.125-1.175-2.185-2.225-2.185s-1.622,1.061-2.227,2.185c-.657,1.221-1.4,2.6-2.929,2.6s-2.272-1.384-2.929-2.6c-.6-1.125-1.175-2.185-2.225-2.185s-1.622,1.061-2.225,2.185c-.658,1.221-1.4,2.6-2.929,2.6s-2.272-1.384-2.929-2.6c-.6-1.125-1.175-2.185-2.225-2.185v-.8c1.527,0,2.271,1.384,2.928,2.6.6,1.124,1.176,2.185,2.226,2.185s1.622-1.061,2.225-2.185c.657-1.221,1.4-2.6,2.929-2.6s2.271,1.384,2.928,2.6c.6,1.124,1.176,2.185,2.226,2.185s1.622-1.061,2.226-2.185c.657-1.221,1.4-2.6,2.93-2.6s2.27,1.384,2.928,2.6c.6,1.124,1.175,2.185,2.225,2.185s1.622-1.061,2.227-2.184c.658-1.221,1.4-2.605,2.932-2.605s2.274,1.384,2.932,2.6c.6,1.124,1.177,2.185,2.229,2.185s1.624-1.061,2.229-2.185c.658-1.221,1.4-2.6,2.933-2.6v.8c-1.052,0-1.625,1.061-2.229,2.185-.659,1.221-1.4,2.6-2.932,2.6" transform="translate(-103.832 -77.071)" fill="#ff3d45"/>
            <path id="Path_923938" data-name="Path 923938" d="M439.687,378.395c-1.527,0-2.271-1.384-2.928-2.6-.6-1.125-1.176-2.185-2.226-2.185s-1.622,1.061-2.225,2.185c-.657,1.221-1.4,2.6-2.929,2.6s-2.272-1.384-2.929-2.605c-.6-1.124-1.176-2.184-2.226-2.184S422.6,374.667,422,375.79c-.657,1.221-1.4,2.6-2.929,2.6s-2.271-1.384-2.928-2.605c-.6-1.124-1.176-2.184-2.225-2.184s-1.622,1.061-2.227,2.185c-.657,1.221-1.4,2.6-2.93,2.6s-2.275-1.384-2.932-2.6c-.6-1.125-1.177-2.185-2.229-2.185s-1.625,1.061-2.229,2.185c-.658,1.221-1.4,2.6-2.932,2.6v-.8c1.052,0,1.624-1.061,2.229-2.185.659-1.221,1.4-2.6,2.933-2.6s2.274,1.384,2.932,2.6c.605,1.124,1.177,2.185,2.229,2.185s1.622-1.061,2.227-2.185c.657-1.221,1.4-2.6,2.93-2.6s2.271,1.384,2.928,2.6c.6,1.124,1.175,2.185,2.225,2.185s1.622-1.061,2.226-2.184c.657-1.221,1.4-2.605,2.929-2.605s2.272,1.384,2.929,2.6c.6,1.124,1.175,2.185,2.226,2.185s1.622-1.061,2.226-2.185c.657-1.221,1.4-2.6,2.928-2.6s2.272,1.384,2.929,2.6c.6,1.124,1.175,2.185,2.225,2.185Z" transform="translate(-103.832 -80.939)" fill="#ff3d45"/>
            <rect id="Rectangle_408760" data-name="Rectangle 408760" width="41.254" height="0.798" transform="translate(294.601 285.019)" fill="#ff3d45"/>
          </g>
        </g>
        <g id="Group_1116053" data-name="Group 1116053">
          <g id="Group_1116052" data-name="Group 1116052" clip-path="url(#clip-path-2)">
            <path id="Path_923940" data-name="Path 923940" d="M288.827,366.5a1.571,1.571,0,0,1-.983-2.795c14.111-11.352,14.275-30.4,14.275-30.589a1.57,1.57,0,0,1,3.141,0c0,.842-.176,20.752-15.449,33.037a1.558,1.558,0,0,1-.984.347" transform="translate(-51.63 -59.59)" fill="#5175a8"/>
            <path id="Path_923941" data-name="Path 923941" d="M308.3,326v3.626a1.959,1.959,0,0,1-1.949,1.949H268.131a1.959,1.959,0,0,1-1.949-1.949V326a1.959,1.959,0,0,1,1.949-1.949H306.35A1.959,1.959,0,0,1,308.3,326" transform="translate(-47.842 -58.243)" fill="#5175a8"/>
            <path id="Path_923942" data-name="Path 923942" d="M310.457,326v3.626a1.959,1.959,0,0,1-1.949,1.949H280.141a1.959,1.959,0,0,1-1.949-1.949V326a1.959,1.959,0,0,1,1.949-1.949h28.367A1.959,1.959,0,0,1,310.457,326" transform="translate(-50.001 -58.243)" fill="#2c4b75"/>
            <path id="Path_923943" data-name="Path 923943" d="M355.747,385.939l4.363-12.576L336.04,371.2l-10.006,5.41-43.532.541,2.585,8.79Z" transform="translate(-50.775 -66.717)" fill="#273d73"/>
            <path id="Path_923944" data-name="Path 923944" d="M333.935,380.393l1.613,5.546h29.443l4.363-12.576-26.91-2.164Z" transform="translate(-60.02 -66.717)" fill="#1b2a4f"/>
            <path id="Path_923945" data-name="Path 923945" d="M361.269,319.093q-.346.534-.691,1.2c-5.492,10.249-11.193,39.363-11.193,39.363l-2.913-.125-3.312-.147c1.614-13.792,11.633-40.558,11.633-40.558l3.9.167.377.021h.063Z" transform="translate(-61.678 -57.303)" fill="#5175a8"/>
            <path id="Path_923946" data-name="Path 923946" d="M360.963,320.325c-5.492,10.249-11.193,39.364-11.193,39.364l-2.914-.126-1.551-.817c0-.4,8.929-34.605,12.7-39.07a1.573,1.573,0,0,1,1.069-.65l.377.021h.063a2.992,2.992,0,0,1,1.446,1.279" transform="translate(-62.064 -57.34)" fill="#3a5782"/>
            <path id="Path_923947" data-name="Path 923947" d="M344.84,362.746c-15.825-.838-23.665,7.692-23.665,7.692l-53.684-1.216s14.609-7.295,30.833-8.112c14.588-.734,42.323,1.216,46.516,1.635" transform="translate(-48.078 -64.875)" fill="#5175a8"/>
            <path id="Path_923948" data-name="Path 923948" d="M321.992,380.364l-54.5-1.613v-7.714l53.684,1.216.357,3.438Z" transform="translate(-48.078 -66.688)" fill="#5175a8"/>
            <path id="Path_923949" data-name="Path 923949" d="M374.712,367.572v10.145s-14.19-13.792-40.957,1.216l-.461-4.675-.356-3.437s7.839-8.531,23.664-7.692c.105,0,.189.021.272.021a54,54,0,0,1,17.837,4.423" transform="translate(-59.841 -65.257)" fill="#2c4b75"/>
            <path id="Path_923950" data-name="Path 923950" d="M388.186,279.664,391,284.172l-10.989,34.376-59.182-1.691-3.381-3.1Z" transform="translate(-57.057 -50.266)" fill="#2c4b75"/>
            <path id="Path_923951" data-name="Path 923951" d="M317.451,313.4s8.171-31.558,12.68-34.376,55.8-.564,58.055.282S377.2,314.8,377.2,314.8Z" transform="translate(-57.057 -49.903)" fill="#5175a8"/>
            <rect id="Rectangle_408761" data-name="Rectangle 408761" width="40.622" height="5.168" transform="translate(253.363 319.221)" fill="#1b2a4f"/>
            <rect id="Rectangle_408762" data-name="Rectangle 408762" width="4.26" height="25.313" transform="translate(271.268 324.146)" fill="#1b2a4f"/>
            <rect id="Rectangle_408763" data-name="Rectangle 408763" width="18.053" height="8.925" transform="translate(264.371 349.459)" fill="#273d73"/>
            <rect id="Rectangle_408764" data-name="Rectangle 408764" width="9.737" height="8.925" transform="translate(272.688 349.459)" fill="#1b2a4f"/>
            <path id="Path_923952" data-name="Path 923952" d="M330.812,446.771l-.846-17.358,2.028-3.38,2.84,3.38-1.657,17.358Z" transform="translate(-59.307 -76.573)" fill="#1b2a4f"/>
            <path id="Path_923953" data-name="Path 923953" d="M344.309,429.494v6.086l39.372,9.8a4.258,4.258,0,0,0-2.942-4.05Z" transform="translate(-61.884 -77.195)" fill="#1b2a4f"/>
            <path id="Path_923954" data-name="Path 923954" d="M380.5,452.78a4.327,4.327,0,1,0,4.328-4.327,4.327,4.327,0,0,0-4.328,4.327" transform="translate(-68.389 -80.603)" fill="#1b2a4f"/>
            <path id="Path_923955" data-name="Path 923955" d="M335.819,452.78a4.327,4.327,0,1,1-4.327-4.327,4.327,4.327,0,0,1,4.327,4.327" transform="translate(-58.803 -80.603)" fill="#1b2a4f"/>
            <path id="Path_923956" data-name="Path 923956" d="M331.508,447.488h-.486a5.119,5.119,0,0,0-5.119,5.118h10.724a5.118,5.118,0,0,0-5.118-5.118" transform="translate(-58.576 -80.429)" fill="#273d73"/>
            <path id="Path_923957" data-name="Path 923957" d="M384.84,446.4h-.486a5.119,5.119,0,0,0-5.119,5.118h10.724a5.118,5.118,0,0,0-5.118-5.118" transform="translate(-68.162 -80.234)" fill="#273d73"/>
            <path id="Path_923958" data-name="Path 923958" d="M313.6,429.494v6.086l-39.372,9.8a4.258,4.258,0,0,1,2.942-4.05Z" transform="translate(-49.289 -77.195)" fill="#1b2a4f"/>
            <path id="Path_923959" data-name="Path 923959" d="M284.148,452.78a4.327,4.327,0,1,1-4.328-4.327,4.327,4.327,0,0,1,4.328,4.327" transform="translate(-49.516 -80.603)" fill="#1b2a4f"/>
            <path id="Path_923960" data-name="Path 923960" d="M279.35,446.4h.486a5.119,5.119,0,0,1,5.119,5.118H274.232a5.118,5.118,0,0,1,5.118-5.118" transform="translate(-49.289 -80.234)" fill="#273d73"/>
            <path id="Path_923961" data-name="Path 923961" d="M276.95,450.952v8a6.91,6.91,0,0,1-4.16,6.342,50.123,50.123,0,0,0-4.509,2.192s-13.906,6.866-18.345,6.866c-3.042,0-7.8-.591-10.5-2.1-2.255-1.259-1.486-4.445-.527-6.291,1.12-2.157,3.26-2.545,5.319-3.592,3.382-1.719,7.538-3.034,10.613-5.261a82.711,82.711,0,0,0,3.784-7.5c.335-.7.543-1.157.543-1.157l.463.064Z" transform="translate(-42.77 -80.603)" fill="#9d0388"/>
            <path id="Path_923962" data-name="Path 923962" d="M276.882,450.966v8a6.91,6.91,0,0,1-4.16,6.342c-1.474.639-3.112,1.4-4.509,2.192-8.53,4.211-18.686,9.647-28.22,5.371-3.543-1.588-2.271-5.086-1.791-5.325a14.444,14.444,0,0,0,4.626,2.244,20.485,20.485,0,0,0,7.086,1.151c.176-.009.353-.021.529-.04,5.488-.585,19.933-9.484,19.933-9.484l-5.716-1.173,5.867-1.549v-4.639s-9.579-1.908-11.974-4.43l1.006-1.093Z" transform="translate(-42.702 -80.617)" fill="#640958"/>
            <path id="Path_923963" data-name="Path 923963" d="M308.881,337.464l-20.244-2.389s-28,.567-38.9,3.759l-1.788,19.6h79.3s3.931-3.057,3.927-13.1Z" transform="translate(-44.565 -60.225)" fill="#1a2954"/>
            <path id="Path_923964" data-name="Path 923964" d="M329.736,362.262l-32.242,11.08-14.378,61.987s-1.54.04-3.9-.032c-4.454-.144-11.854-.671-17.427-2.594,0,0,9.995-57.66,10.162-58.594s5.827-8.781,6.642-9.491,20.859-8.239,20.859-8.239Z" transform="translate(-47.052 -64.054)" fill="#253b7a"/>
            <path id="Path_923965" data-name="Path 923965" d="M333.418,362.262c-6.278,8.049-32.242,11.08-32.242,11.08L286.8,435.328s-1.54.04-3.9-.032l13.356-63.8c-5.341-6.2-13.978-6.881-13.978-6.881.815-.71,20.859-8.239,20.859-8.239Z" transform="translate(-50.734 -64.054)" fill="#1a2954"/>
            <path id="Path_923966" data-name="Path 923966" d="M320.281,351.816l-2.978,7.44-2.163,5.4-68.166-5.4s-5.252-10.777-4.327-12.661c.3-.606.87-5.4,6.115-6.937,0,0,28.53,5.069,30.678,4.909s40.84,7.249,40.84,7.249" transform="translate(-43.593 -61.049)" fill="#253b7a"/>
            <path id="Path_923967" data-name="Path 923967" d="M255.367,361.888l56.815,4.606.826-3.242Z" transform="translate(-45.898 -65.044)" fill="#1a2954"/>
            <path id="Path_923968" data-name="Path 923968" d="M333.137,353.174,326.3,368.78,314.9,386.55s-3.744-1.245-4.789-2.243a7.818,7.818,0,0,1-2.483-6.387,7.915,7.915,0,0,1,1.326-3.416c1.245-1.884,10.042-9.125,11.9-13.371.567-1.309,4.853-6.314,9.084-7.272a3.8,3.8,0,0,1,.5-.1,16.224,16.224,0,0,1,2.69-.582" transform="translate(-55.283 -63.478)" fill="#9d0388"/>
            <path id="Path_923969" data-name="Path 923969" d="M315.765,386.547s-5.962-5.872-2.132-11.279,13-12.7,14.055-14.151,3.991-8.262,6.309-7.948,2.556,8.7,2.051,11.3-5.461,6.619-6.7,8.641-7.708,17.3-13.579,13.433" transform="translate(-56.14 -63.475)" fill="#640958"/>
            <path id="Path_923970" data-name="Path 923970" d="M301.64,312.918l-4.979-2.855-.763.246c-3.109,1.017-14.757,4.807-16.405,5.151-1.854.377-7.046,1.813-7.366,1.895a.025.025,0,0,1-.016.008c-.427.213-6.144,3.174-6.562,3.388a13.424,13.424,0,0,0-2.01,3.913,19.107,19.107,0,0,0-.107,2.116s1.009.312,2.2.656c.139.033.279.082.427.123.993.287,2.042.574,2.69.722a3.684,3.684,0,0,0,.5.09.787.787,0,0,0,.2,0h.008a20.983,20.983,0,0,0,4.241-1.485s.623-4.356.952-4.552a6.4,6.4,0,0,1,2.256-.853h0a12.44,12.44,0,0,0,.285,2.629c.158.556.979.979.979.979a1.346,1.346,0,0,0,1.165-.9,6.338,6.338,0,0,0,.317-2.7,5.171,5.171,0,0,0,2.223-1.034s8.1-.952,10.795-1.9,11.2-3.888,11.2-3.888Z" transform="translate(-47.348 -55.729)" fill="#ffcbad"/>
            <path id="Path_923971" data-name="Path 923971" d="M307.416,314.665s-8.5,2.937-11.2,3.888-10.795,1.9-10.795,1.9a5.171,5.171,0,0,1-2.223,1.034,2.585,2.585,0,0,1,1.353-2.272s5.4-.057,7.514-.271,9.737-3.486,10.139-4.1-2.756-4.536-2.756-4.536l.763-.246,4.979,2.855Z" transform="translate(-50.901 -55.729)" fill="#ffa294"/>
            <path id="Path_923972" data-name="Path 923972" d="M319.605,276.773l-.23,4.233-.566,10.368-7.62,18.415-5.52-3.716-3.207-2.157,11.59-20.638Z" transform="translate(-54.363 -49.746)" fill="#fffefd"/>
            <path id="Path_923973" data-name="Path 923973" d="M320.079,281.827l-.566,10.368-7.62,18.415-5.52-3.716,2.773-.623s5.077-9.63,5.4-11.188,4.708-13.739,4.708-13.739Z" transform="translate(-55.066 -50.567)" fill="#c9d5e1"/>
            <path id="Path_923974" data-name="Path 923974" d="M278.987,321.933v1.682a6.4,6.4,0,0,0-2.256.853c-.328.2-.951,4.552-.951,4.552l-.738-1a16.318,16.318,0,0,1,.213-2.969c.213-.476-.107-.8.8-1.427a20.193,20.193,0,0,1,2.321-1.321Z" transform="translate(-49.435 -57.863)" fill="#ffa294"/>
            <path id="Path_923975" data-name="Path 923975" d="M270.609,331.6a.787.787,0,0,1-.2,0,3.683,3.683,0,0,1-.5-.09l.025-1.075.615-2.387a9.176,9.176,0,0,0-.189,1.435c0,.566.049,2.042.246,2.116" transform="translate(-48.513 -58.963)" fill="#ffa294"/>
            <path id="Path_923976" data-name="Path 923976" d="M266.662,329.353l-.123,1.673c-.148-.041-.287-.09-.427-.123.172-.55.55-1.55.55-1.55" transform="translate(-47.83 -59.196)" fill="#ffa294"/>
            <path id="Path_923977" data-name="Path 923977" d="M358.26,278.066l-.345,4.159-.615,7.432s-.336.632-.9,1.7c-1.247,2.33-3.593,6.734-5.857,11.024-3,5.652-5.865,11.106-5.939,11.41-.156.632-4.511,20.3-4.511,20.3s-15.495-2.682-17.554-2.838a27.52,27.52,0,0,1-3.248-.8c-6.866-1.911-21.737-6.628-21.737-6.628S311.9,305.217,311.9,304.577s6.349-28.094,6.825-28.57,11.27-3.494,11.27-3.494l13.764.525,2.748.107Z" transform="translate(-53.481 -48.98)" fill="#fffefd"/>
            <path id="Path_923978" data-name="Path 923978" d="M351.268,273.26l-2.748-.107L345,279.846l1.616,1.4,5.127,6.3-3.79,17.57-7.03,9.786-1.2,11.6-8.383,2.928-7.292,1.14a27.518,27.518,0,0,0,3.248.8c2.059.156,17.554,2.838,17.554,2.838s4.356-19.67,4.511-20.3c.074-.3,2.937-5.758,5.939-11.41-.435-.016-.7-.025-.7-.025s3.019-17.619,3.65-19.686,4.766-4.6,4.766-4.6Z" transform="translate(-58.244 -49.095)" fill="#c9d5e1"/>
            <path id="Path_923979" data-name="Path 923979" d="M354.09,271.8s-4.044,6.029-6.743,7.218c-.025.008-.041.016-.066.025a6.313,6.313,0,0,1-6.816-1.05c-1.559-1.435-3.363-6.193-3.363-6.193l3.363.131.64-.943,1.641-2.444,5.873.476Z" transform="translate(-60.589 -48.267)" fill="#ffcbad"/>
            <path id="Path_923980" data-name="Path 923980" d="M354.967,271.8s-4.044,6.029-6.743,7.218c-.025.008-.041.016-.066.025a48.7,48.7,0,0,1-4.249-3.749,32.84,32.84,0,0,1-1.928-4.306l1.641-2.444,5.873.476Z" transform="translate(-61.466 -48.267)" fill="#ffa294"/>
            <path id="Path_923981" data-name="Path 923981" d="M347.82,224.7s-3.89,1.826-5.159,5.239-.451,11.661-.451,11.661l5.134-8.724Z" transform="translate(-61.46 -40.387)" fill="#061951"/>
            <path id="Path_923982" data-name="Path 923982" d="M339.486,249.252s-.4-4.445,0-5.636,1.588-3.255,2.54-2.858-.159,4.366,0,4.922-2.54,3.572-2.54,3.572" transform="translate(-60.986 -43.264)" fill="#ffa294"/>
            <path id="Path_923983" data-name="Path 923983" d="M363.2,253.02l-5.881,8.58s-.976.582-2.28,1.321c-1.165.656-2.592,1.444-3.839,2.042a11.6,11.6,0,0,1-2.526,1,14.05,14.05,0,0,1-5.479-.952c-.64-.32-3.576-6.833-4.126-9.449a14.276,14.276,0,0,1,.312-7.62c.8-1.829,2.937-5.791,3.494-8.1a8.951,8.951,0,0,1,3.888-5.4c2.149-1.591,9.367-1.353,12.78.951s4.848,2.855,5.561,6.349a16.552,16.552,0,0,1-1.9,11.27" transform="translate(-60.877 -41.956)" fill="#ffcbad"/>
            <path id="Path_923984" data-name="Path 923984" d="M350.338,253.229a6.939,6.939,0,0,0-.449.831c-.084.176-.179.346-.274.517a1.287,1.287,0,0,0-.536-.294,1.443,1.443,0,0,0-1.043.135,1.343,1.343,0,0,0-.332,2.092,1.527,1.527,0,0,0,1.294.426c.286-.043.276-.517,0-.568a1.366,1.366,0,0,1-.856-.374.731.731,0,0,1-.007-.808.775.775,0,0,1,.614-.344.69.69,0,0,1,.69.341.279.279,0,0,0,.436.056,3.144,3.144,0,0,0,.5-.911,3.911,3.911,0,0,0,.265-.971.167.167,0,0,0-.3-.128" transform="translate(-62.429 -45.5)" fill="#ffa294"/>
            <path id="Path_923985" data-name="Path 923985" d="M348.656,263.078a6.185,6.185,0,0,0-1.064-.335,2.27,2.27,0,0,0-2.007.3c-.152.132.051.4.217.281a2.22,2.22,0,0,1,1.782-.1,6.034,6.034,0,0,1,.922.317c.216.094.6.377.837.25a.17.17,0,0,0,.086-.149c0-.311-.544-.473-.774-.568" transform="translate(-62.104 -47.207)" fill="#ff8085"/>
            <path id="Path_923986" data-name="Path 923986" d="M357.416,252.168a.345.345,0,0,0-.331-.252.411.411,0,0,0-.283.11.794.794,0,0,0-.094.127,1.472,1.472,0,0,0-.085.154,4.136,4.136,0,0,0-.166.411c-.041.116-.079.232-.12.347l-.034.092c0,.008-.007.017-.011.025a1.327,1.327,0,0,1-.076.157.346.346,0,1,0,.6.349,4.734,4.734,0,0,0,.321-.732l.033-.084.009-.02c.023-.053.047-.107.073-.158s.053-.1.084-.145a.813.813,0,0,0,.051-.075.416.416,0,0,0,.033-.306" transform="translate(-64.017 -45.278)" fill="#061951"/>
            <path id="Path_923987" data-name="Path 923987" d="M360.066,249.417a.871.871,0,0,0-.1-.129.526.526,0,0,0-.162-.1c-.076-.036-.148-.077-.221-.115s-.153-.08-.226-.125c-.037-.022-.073-.046-.108-.071l-.058-.042,0,0a2.062,2.062,0,0,1-.189-.18l-.034-.04,0,0,0-.006a1.207,1.207,0,0,1-.065-.1c-.01-.017-.02-.034-.028-.053l-.007-.014a.855.855,0,0,0-.052-.139s0,0-.007-.025-.011-.033-.016-.049-.012-.044-.016-.067l0-.02v0h0l0-.01,0,.008a.237.237,0,0,0-.465-.06,1.139,1.139,0,0,0-.048.328.918.918,0,0,0,.1.362,1.579,1.579,0,0,0,.367.491,2.718,2.718,0,0,0,.511.372,2.538,2.538,0,0,0,.313.139.539.539,0,0,0,.2.053.589.589,0,0,0,.175-.028.258.258,0,0,0,.152-.374" transform="translate(-64.391 -44.557)" fill="#061951"/>
            <path id="Path_923988" data-name="Path 923988" d="M348.333,248.141a.344.344,0,0,1,.41.066.41.41,0,0,1,.116.281.715.715,0,0,1-.027.156,1.477,1.477,0,0,1-.053.168,4.146,4.146,0,0,1-.183.4c-.056.109-.114.217-.168.326-.015.029-.029.058-.043.088l-.012.025a1.358,1.358,0,0,0-.061.164.346.346,0,1,1-.665-.192,4.762,4.762,0,0,1,.31-.737l.037-.081.01-.021c.022-.053.044-.107.063-.162s.034-.106.048-.161c.007-.029.011-.06.02-.089a.419.419,0,0,1,.2-.235" transform="translate(-62.482 -44.592)" fill="#061951"/>
            <path id="Path_923989" data-name="Path 923989" d="M348.323,244.431a.784.784,0,0,1,.162-.017.532.532,0,0,1,.181.05c.078.03.157.053.235.08s.162.056.246.077c.042.011.084.021.126.03l.071.013h0a1.982,1.982,0,0,0,.261.013l.053,0h.009a1.164,1.164,0,0,0,.119-.023l.057-.016.014,0a.866.866,0,0,1,.136-.058l.023-.011.047-.023c.02-.011.04-.022.06-.034l.016-.011,0,0h0l.008-.006-.007,0a.237.237,0,0,1,.364.294,1.113,1.113,0,0,1-.205.261.911.911,0,0,1-.331.176,1.556,1.556,0,0,1-.608.073,2.727,2.727,0,0,1-.623-.113,2.472,2.472,0,0,1-.317-.13.559.559,0,0,1-.173-.1.587.587,0,0,1-.1-.146.257.257,0,0,1,.166-.367" transform="translate(-62.571 -43.93)" fill="#061951"/>
            <path id="Path_923990" data-name="Path 923990" d="M363.05,258.786c-.224.238-4.522,5.279-5.3,5.914l-7.451,4.8-.013.007h.006c.034,0,1.91-.171,2.389-.155a4.923,4.923,0,0,0,.6-.049c1.247-.6,2.674-1.386,3.839-2.042L357,266.66a44.54,44.54,0,0,0,4.876-4.341c.463-.835,2.606-4.781,2.606-4.781s-1.2,1.01-1.429,1.248" transform="translate(-62.958 -46.289)" fill="#ffa294"/>
            <path id="Path_923991" data-name="Path 923991" d="M362.194,252.7a14.412,14.412,0,0,1,.08-8.017s-9.129-4.842-10.955-9.367a9.144,9.144,0,0,0,1.27,3.651s-5.548-2.859-6.5-4.6c0,0-2.307-7.61,2.377-9.842a7.06,7.06,0,0,1,7.859.794,9.944,9.944,0,0,1,9.129,1.111c4.922,3.1,6.033,9.049,6.588,12.7s-1.27,11.033-1.905,12.7-6.35,7.314-6.35,7.314Z" transform="translate(-62.101 -40.207)" fill="#061951"/>
            <path id="Path_923992" data-name="Path 923992" d="M376.05,318.527a8.234,8.234,0,0,1-2.3,2.067,7.862,7.862,0,0,1-2.075.345c-2.174.18-5.151.18-5.151.18s-2.617-1.132-4.175-1.944a5.681,5.681,0,0,1-1.058-.648.025.025,0,0,0-.008-.016.224.224,0,0,1-.057-.148,7.711,7.711,0,0,1,.451-2.428c.107-.361.23-.755.369-1.165.993-2.953,2.658-6.62,3.8-6.956.919-.271,2.7.156,4.274.664.213.066.427.139.623.205.484.172.935.336,1.312.484.41.156.738.3.935.369l.205.09.139.254c.582,1.1,2.863,5.6,2.723,8.646" transform="translate(-64.922 -55.31)" fill="#ffcbad"/>
            <path id="Path_923993" data-name="Path 923993" d="M378.082,318.819a8.234,8.234,0,0,1-2.3,2.067,7.86,7.86,0,0,1-2.075.345,19.749,19.749,0,0,0,.673-2.092c.262-1.165-.213-3.494-.418-4.708a17.9,17.9,0,0,0-.517-1.887.462.462,0,0,1-.033-.1c-.049-.148-.1-.287-.139-.435-.377-1.14-.755-2.19-.755-2.19l1.567-.361.459-.107.476.476.345.344c.582,1.1,2.863,5.6,2.723,8.646" transform="translate(-66.954 -55.602)" fill="#ffa294"/>
            <path id="Path_923994" data-name="Path 923994" d="M376.067,313.414s-2.223-7.456-4.29-8.572c-1-.541-3.486-.853-5.783-1.034-.582-.049-1.157-.082-1.69-.115-.943-.057-1.764-.082-2.3-.1-.435-.016-.7-.025-.7-.025s3.019-17.619,3.65-19.686,4.766-4.6,4.766-4.6l1.534,2.026,1,1.312s3.65,16.988,3.97,19.211.32,7.62.476,8.408a10.775,10.775,0,0,1-.632,3.174" transform="translate(-64.939 -50.197)" fill="#fffefd"/>
            <path id="Path_923995" data-name="Path 923995" d="M376.7,310.24c-.837-1.591-1.271-7.3-1.271-7.3l-.451,2.3s-3.593-2.461-4.192-3.732-2.928-8.941-2.928-8.941c.074-2.715.271-6.98.788-8.047a6.387,6.387,0,0,1,.73-1.083c.509-.64,1.181-1.394,1.878-2.133l-1.534-2.026s-4.134,2.543-4.766,4.6-3.65,19.686-3.65,19.686.262.008.7.025l.376.012c.441.015,1,.036,1.617.07.359.019.738.042,1.13.068h.013c.281.018.568.039.858.063a32.165,32.165,0,0,1,4.5.6,5.356,5.356,0,0,1,1.28.435c2.067,1.116,4.29,8.572,4.29,8.572a10.775,10.775,0,0,0,.632-3.174" transform="translate(-64.939 -50.197)" fill="#c9d5e1"/>
            <path id="Path_923996" data-name="Path 923996" d="M369.8,306.143a12.736,12.736,0,0,1-1.764,3.437,8.177,8.177,0,0,1-2.781,1.952,9.235,9.235,0,0,1-3.388-.763,3.416,3.416,0,0,1-1.846-1.829s-.025-.057-.066-.164a19.466,19.466,0,0,1-1.206-5c-.32-3.01-2.108-15.79-2.362-19.129s-2.3-14.084-2.19-14.855a9.546,9.546,0,0,1,1.3-2.978c.32-.345,4.6-2.682,6.431-5.479s4.052-6.775,4.528-6.931a3.952,3.952,0,0,1,1.616.3,8.111,8.111,0,0,1,.878.345,3.294,3.294,0,0,1,.96.591l.033.033c.558.632.074,3.494-.435,4.364s-2.338,4.528-2.42,4.922-5.955,4.922-5.955,5.159a53.813,53.813,0,0,0,.64,8.1c.427,1.8,4.831,14.24,7.079,20.671.131.369.254.722.369,1.05.443,1.271.763,2.19.886,2.576a6.2,6.2,0,0,1-.3,3.626" transform="translate(-63.662 -45.723)" fill="#ffcbad"/>
            <path id="Path_923997" data-name="Path 923997" d="M361.457,279.366s4.185,11.543,4.4,12.179c.13.39,1.645,3.048,2.79,5.034-2.356-6.715-5.8-16.5-6.174-18.082a53.814,53.814,0,0,1-.64-8.1c0-.238,5.873-4.758,5.955-5.159s1.9-4.044,2.42-4.922.992-3.732.435-4.364l-.033-.033c-.673,1.23-2.034,3.757-2.3,4.241-.361.632-1.627,4.137-1.627,4.137s-4.867,4.224-5.588,4.7a21.3,21.3,0,0,1-3.011,1.27l1.958,1.64Z" transform="translate(-64.359 -45.998)" fill="#ffa294"/>
            <path id="Path_923998" data-name="Path 923998" d="M371.535,255.128c-.213.476-.509,1.14-.787,1.764a8.472,8.472,0,0,1-2.166,2.412,14.554,14.554,0,0,0,1.37-2.124c.156-.427.533-1.772.705-2.4a8.116,8.116,0,0,1,.878.345" transform="translate(-66.247 -45.794)" fill="#ffa294"/>
            <path id="Path_923999" data-name="Path 923999" d="M358.761,373.573a1.893,1.893,0,0,1-1.185-3.368c17.009-13.683,17.206-36.641,17.206-36.872a1.893,1.893,0,0,1,3.786,0c0,1.015-.212,25.014-18.622,39.822a1.883,1.883,0,0,1-1.185.418" transform="translate(-64.142 -59.572)" fill="#273d73"/>
            <path id="Path_924000" data-name="Path 924000" d="M383.3,326v3.626a1.959,1.959,0,0,1-1.949,1.949H343.132a1.959,1.959,0,0,1-1.949-1.949V326a1.959,1.959,0,0,1,1.949-1.949h38.219A1.959,1.959,0,0,1,383.3,326" transform="translate(-61.323 -58.243)" fill="#5175a8"/>
            <path id="Path_924001" data-name="Path 924001" d="M385.458,326v3.626a1.959,1.959,0,0,1-1.949,1.949H355.143a1.959,1.959,0,0,1-1.95-1.949V326a1.959,1.959,0,0,1,1.95-1.949h28.366A1.959,1.959,0,0,1,385.458,326" transform="translate(-63.481 -58.243)" fill="#2c4b75"/>
          </g>
        </g>
      </g>
    </g>
    <path id="Subtraction_122" data-name="Subtraction 122" d="M28.424,74.066a2.032,2.032,0,0,1-.719-.128l-7.759-2.89A2.059,2.059,0,0,1,18.6,69.061l.113-4.685a32.965,32.965,0,0,1-7.623-7.1l-4.675.453c-.073.007-.141.01-.2.01A2.071,2.071,0,0,1,4.34,56.532L.9,49a2.06,2.06,0,0,1,.453-2.356l3.394-3.232A32.52,32.52,0,0,1,4.379,33L.75,30.018A2.052,2.052,0,0,1,0,28.456V28.4A2.038,2.038,0,0,1,.13,27.7l2.888-7.754A2.07,2.07,0,0,1,4.953,18.6h.053l4.682.117a33.125,33.125,0,0,1,7.1-7.627L16.337,6.42a2.072,2.072,0,0,1,1.2-2.079L25.062.9a2.031,2.031,0,0,1,.858-.19,2.063,2.063,0,0,1,1.5.643l3.231,3.393a32.681,32.681,0,0,1,10.417-.37L44.048.752A2.059,2.059,0,0,1,45.641,0a2.1,2.1,0,0,1,.723.129l7.753,2.889A2.072,2.072,0,0,1,55.464,5L55.347,9.69a32.914,32.914,0,0,1,7.625,7.1l4.675-.454c.071-.006.139-.01.2-.01a2.078,2.078,0,0,1,1.881,1.207l3.438,7.528a2.057,2.057,0,0,1-.453,2.356L69.32,30.649a32.7,32.7,0,0,1,.369,10.416l3.622,2.983a2.068,2.068,0,0,1,.626,2.316l-2.89,7.756a2.075,2.075,0,0,1-1.935,1.347H69.1a.039.039,0,0,0-.013,0l-.026,0-4.685-.114a33.087,33.087,0,0,1-7.105,7.624l.454,4.676a2.067,2.067,0,0,1-1.2,2.079L49,73.167a2.04,2.04,0,0,1-.86.19,2.086,2.086,0,0,1-1.5-.644l-3.228-3.392a33.43,33.43,0,0,1-6.386.624A32.656,32.656,0,0,1,33,69.687L30.02,73.313A2.064,2.064,0,0,1,28.424,74.066ZM36.641,15.5A21.139,21.139,0,1,0,57.779,36.642,21.162,21.162,0,0,0,36.641,15.5Z" transform="translate(285 5968.057)" fill="#7d0ede" stroke="rgba(0,0,0,0)" stroke-miterlimit="10" stroke-width="1"/>
    <path id="Subtraction_123" data-name="Subtraction 123" d="M19.214,50.066a1.373,1.373,0,0,1-.486-.087l-5.245-1.954a1.392,1.392,0,0,1-.908-1.343l.077-3.167a22.284,22.284,0,0,1-5.153-4.8l-3.16.306c-.049,0-.1.007-.135.007a1.4,1.4,0,0,1-1.27-.816L.609,33.126a1.392,1.392,0,0,1,.306-1.592L3.21,29.348a21.983,21.983,0,0,1-.25-7.039L.507,20.291A1.387,1.387,0,0,1,0,19.235v-.04a1.378,1.378,0,0,1,.088-.469L2.04,13.484a1.4,1.4,0,0,1,1.307-.91h.036l3.165.079A22.391,22.391,0,0,1,11.35,7.5L11.043,4.34a1.4,1.4,0,0,1,.81-1.405L16.941.61a1.373,1.373,0,0,1,.58-.128,1.4,1.4,0,0,1,1.012.434L20.717,3.21a22.091,22.091,0,0,1,7.042-.25L29.775.508A1.392,1.392,0,0,1,30.852,0a1.418,1.418,0,0,1,.489.087L36.582,2.04a1.4,1.4,0,0,1,.91,1.342L37.413,6.55a22.249,22.249,0,0,1,5.154,4.8l3.16-.307c.048,0,.094-.007.134-.007a1.4,1.4,0,0,1,1.272.816l2.324,5.088a1.391,1.391,0,0,1-.306,1.592l-2.293,2.183a22.1,22.1,0,0,1,.25,7.041l2.449,2.016a1.4,1.4,0,0,1,.423,1.566l-1.954,5.243a1.4,1.4,0,0,1-1.308.91h-.034l-3.167-.077a22.366,22.366,0,0,1-4.8,5.153l.307,3.161a1.4,1.4,0,0,1-.809,1.405l-5.088,2.325a1.379,1.379,0,0,1-.581.128,1.41,1.41,0,0,1-1.011-.435L29.35,46.858a22.6,22.6,0,0,1-4.316.422,22.075,22.075,0,0,1-2.726-.174l-2.015,2.451A1.4,1.4,0,0,1,19.214,50.066ZM24.768,10.48A14.289,14.289,0,1,0,39.057,24.769,14.3,14.3,0,0,0,24.768,10.48Z" transform="translate(346 6018.108)" fill="#7d0ede" stroke="rgba(0,0,0,0)" stroke-miterlimit="10" stroke-width="1"/>
  </g>
</svg>
