<svg xmlns="http://www.w3.org/2000/svg" xmlns:xlink="http://www.w3.org/1999/xlink" width="178" height="178" viewBox="0 0 178 178">
  <defs>
    <clipPath id="clip-path">
      <rect id="Rectangle_407598" data-name="Rectangle 407598" width="99.117" height="93.718" fill="none"/>
    </clipPath>
  </defs>
  <g id="Group_1114941" data-name="Group 1114941" transform="translate(-709.785 -3553.999)">
    <g id="Group_1114082" data-name="Group 1114082" transform="translate(709.785 3554)">
      <path id="Path_882862" data-name="Path 882862" d="M89,0A89,89,0,1,1,0,89,89,89,0,0,1,89,0Z" transform="translate(0 -0.001)" fill="#c0afff"/>
      <path id="Path_882863" data-name="Path 882863" d="M78.668,0A78.668,78.668,0,1,1,0,78.668,78.668,78.668,0,0,1,78.668,0Z" transform="translate(10.332 10.331)" fill="#f3f9ff"/>
    </g>
    <g id="Group_1114085" data-name="Group 1114085" transform="translate(748.785 3593)">
      <rect id="Rectangle_401104" data-name="Rectangle 401104" width="99.117" height="100.574" transform="translate(-0.074)" fill="none"/>
      <g id="Group_1114669" data-name="Group 1114669" transform="translate(-0.074 3)">
        <g id="Group_1114668" data-name="Group 1114668" transform="translate(0 0)">
          <g id="Group_1114667" data-name="Group 1114667" clip-path="url(#clip-path)">
            <path id="Path_919460" data-name="Path 919460" d="M64.448,7.34H11.329A7.337,7.337,0,0,1,18.669,0H57.3a7.461,7.461,0,0,1,5.215,2.125A8.668,8.668,0,0,1,64.448,7.34" transform="translate(10.095)" fill="#b3b3b3"/>
            <path id="Path_919461" data-name="Path 919461" d="M73.649,3.642H1.213V86.881H92.965V3.642Z" transform="translate(0.896 3.312)" fill="#eae5ff"/>
            <path id="Path_919470" data-name="Path 919470" d="M3.64,38.062c-.527,0,.528-.177,0-.7-.88-.878,0-3.165,0-3.165L23.949,13.532A2.238,2.238,0,1,1,27.114,16.7L6.806,37.358a2.154,2.154,0,0,1-1.583.7" transform="translate(8.755 9.502)" fill="#d49cfe"/>
            <path id="Path_922143" data-name="Path 922143" d="M3.682,40.727c-.582,0,.584-.2,0-.778-.973-.971,0-3.5,0-3.5L26.138,13.6a2.475,2.475,0,0,1,3.5,3.5L7.182,39.949a2.382,2.382,0,0,1-1.751.778" transform="translate(4.5 81.053) rotate(-104)" fill="#d49cfe"/>
            <path id="Path_922147" data-name="Path 922147" d="M3.682,40.727c-.582,0,.584-.2,0-.778-.973-.971,0-3.5,0-3.5L26.138,13.6a2.475,2.475,0,0,1,3.5,3.5L7.182,39.949a2.382,2.382,0,0,1-1.751.778" transform="matrix(-0.951, -0.309, 0.309, -0.951, 68.773, 92.02)" fill="#d49cfe"/>
            <path id="Path_919471" data-name="Path 919471" d="M29,28.785a2.285,2.285,0,0,1-2.11-1.408L22.14,15.949a2.014,2.014,0,0,1,1.231-2.812,2.014,2.014,0,0,1,2.812,1.231L30.93,25.8A2.014,2.014,0,0,1,29.7,28.608c-.176.177-.351.177-.7.177" transform="translate(16.192 9.547)" fill="#d49cfe"/>
            <path id="Path_919472" data-name="Path 919472" d="M30.491,28.83a2.154,2.154,0,0,1-1.583-.7,2.228,2.228,0,0,1,0-3.165l11.43-11.428A2.238,2.238,0,0,1,43.5,16.7L32.072,28.126a1.715,1.715,0,0,1-1.582.7" transform="translate(20.851 9.502)" fill="#d49cfe"/>
            <path id="Path_922145" data-name="Path 922145" d="M30.967,31.273a2.677,2.677,0,0,1-1.92-.812,2.482,2.482,0,0,1,0-3.65l13.86-13.178a2.8,2.8,0,0,1,3.836,0,2.482,2.482,0,0,1,0,3.65L32.885,30.461a2.124,2.124,0,0,1-1.918.812" transform="matrix(0.755, -0.656, 0.656, 0.755, 3.62, 62.885)" fill="#d49cfe"/>
            <path id="Path_919473" data-name="Path 919473" d="M39.77,9.407a5.275,5.275,0,1,1-5.275,5.275A5.276,5.276,0,0,1,39.77,9.407" transform="translate(25.463 6.944)" fill="#7d0ede"/>
            <path id="Path_922146" data-name="Path 922146" d="M43.213,9.407a8.718,8.718,0,1,1-8.718,8.718,8.719,8.719,0,0,1,8.718-8.718" transform="translate(32.029 34.494)" fill="#7d0ede"/>
            <path id="Path_922144" data-name="Path 922144" d="M39.77,9.407a5.275,5.275,0,1,1-5.275,5.275A5.276,5.276,0,0,1,39.77,9.407" transform="translate(9.788 25.561)" fill="#7d0ede"/>
            <path id="Path_919474" data-name="Path 919474" d="M30.134,19.423a5.45,5.45,0,1,1-5.451,5.451,5.45,5.45,0,0,1,5.451-5.451" transform="translate(13.974 43.876)" fill="#7d0ede"/>
            <path id="Path_919475" data-name="Path 919475" d="M23.686,9.407a5.275,5.275,0,1,1-5.275,5.275,5.276,5.276,0,0,1,5.275-5.275" transform="translate(13.59 6.944)" fill="#7d0ede"/>
            <path id="Path_919476" data-name="Path 919476" d="M13.645,19.423a5.45,5.45,0,1,1-5.451,5.451,5.45,5.45,0,0,1,5.451-5.451" transform="translate(-1.513 21.986)" fill="#7d0ede"/>
            <rect id="Rectangle_408477" data-name="Rectangle 408477" width="4" height="17" transform="translate(72.729 30.193)" fill="#3a2292"/>
            <path id="Polygon_11" data-name="Polygon 11" d="M5.5,0,11,15H0Z" transform="translate(91.729 30.193) rotate(90)" fill="#9d0388"/>
          </g>
        </g>
      </g>
    </g>
  </g>
</svg>
