<svg xmlns="http://www.w3.org/2000/svg" width="52.279" height="52.251" viewBox="0 0 52.279 52.251">
  <path id="Subtraction_115" data-name="Subtraction 115" d="M19.667,51.251a1.4,1.4,0,0,1-.5-.089l-5.368-2a1.424,1.424,0,0,1-.929-1.374l.078-3.242a22.8,22.8,0,0,1-5.276-4.913l-3.235.313c-.05,0-.1.007-.138.007A1.434,1.434,0,0,1,3,39.118L.623,33.909A1.427,1.427,0,0,1,.936,32.28l2.349-2.237a22.505,22.505,0,0,1-.256-7.205L.518,20.771A1.417,1.417,0,0,1,0,19.69v-.041a1.4,1.4,0,0,1,.089-.48l2-5.366a1.432,1.432,0,0,1,1.338-.931h.036l3.24.081a22.958,22.958,0,0,1,4.916-5.278L11.3,4.443A1.434,1.434,0,0,1,12.133,3L17.341.624a1.411,1.411,0,0,1,.6-.131,1.428,1.428,0,0,1,1.035.445l2.236,2.347a22.609,22.609,0,0,1,7.208-.256L30.479.521a1.432,1.432,0,0,1,1.6-.431l5.366,2a1.435,1.435,0,0,1,.931,1.374L38.3,6.7a22.8,22.8,0,0,1,5.276,4.915l3.236-.313c.049,0,.1-.007.138-.007a1.437,1.437,0,0,1,1.3.835l2.379,5.209a1.423,1.423,0,0,1-.313,1.63l-2.348,2.235a22.644,22.644,0,0,1,.256,7.207l2.506,2.064a1.43,1.43,0,0,1,.434,1.6l-2,5.368a1.436,1.436,0,0,1-1.34.931h-.017l-.017,0L44.546,38.3a22.883,22.883,0,0,1-4.916,5.275l.314,3.236a1.432,1.432,0,0,1-.828,1.439l-5.208,2.38a1.409,1.409,0,0,1-.6.131,1.444,1.444,0,0,1-1.035-.445l-2.234-2.347a23.147,23.147,0,0,1-4.419.431,22.625,22.625,0,0,1-2.789-.178L20.772,50.73A1.429,1.429,0,0,1,19.667,51.251Zm5.686-40.523A14.627,14.627,0,1,0,39.981,25.355,14.644,14.644,0,0,0,25.354,10.728Z" transform="translate(0.5 0.5)" fill="#ff85e7" stroke="rgba(0,0,0,0)" stroke-miterlimit="10" stroke-width="1"/>
</svg>
