<svg xmlns="http://www.w3.org/2000/svg" xmlns:xlink="http://www.w3.org/1999/xlink" width="150" height="150" viewBox="0 0 150 150">
  <defs>
    <clipPath id="clip-path">
      <rect id="Rectangle_406617" data-name="Rectangle 406617" width="150" height="150" fill="#170551" stroke="rgba(0,0,0,0)" stroke-miterlimit="10" stroke-width="1"/>
    </clipPath>
    <clipPath id="clip-path-2">
      <rect id="Rectangle_401492" data-name="Rectangle 401492" width="85.933" height="85.933" transform="translate(0.019 0.249)" fill="#fff" stroke="#707070" stroke-width="1"/>
    </clipPath>
    <clipPath id="clip-path-3">
      <rect id="Rectangle_408115" data-name="Rectangle 408115" width="71.597" height="74.358" fill="#fff"/>
    </clipPath>
  </defs>
  <g id="Group_1115066" data-name="Group 1115066" transform="translate(-314.001 -7639.334)">
    <g id="Group_1113263" data-name="Group 1113263" transform="translate(314.001 7639.334)">
      <g id="Group_1112834" data-name="Group 1112834" transform="translate(0 0)" clip-path="url(#clip-path)">
        <path id="Path_917479" data-name="Path 917479" d="M148.595,89.278l-7.345-6.045a66.057,66.057,0,0,0-.749-21.11l6.879-6.55a4.185,4.185,0,0,0,.92-4.774l-6.975-15.255a4.194,4.194,0,0,0-3.805-2.445c-.136,0-.272.006-.409.019l-9.472.919a67.058,67.058,0,0,0-15.454-14.4l.233-9.5a4.187,4.187,0,0,0-2.724-4.025L93.973.264A4.175,4.175,0,0,0,92.512,0h0a4.168,4.168,0,0,0-3.232,1.527L83.231,8.875a66.05,66.05,0,0,0-21.11.749l-6.55-6.879a4.206,4.206,0,0,0-3.032-1.3,4.153,4.153,0,0,0-1.741.38L35.543,8.8a4.188,4.188,0,0,0-2.425,4.212l.919,9.474a67.046,67.046,0,0,0-14.4,15.455l-9.494-.233-.1,0a4.2,4.2,0,0,0-3.922,2.727L.262,56.151a4.191,4.191,0,0,0,1.26,4.692l7.351,6.049A66.049,66.049,0,0,0,9.623,88l-6.88,6.55a4.187,4.187,0,0,0-.919,4.774L8.8,114.581a4.2,4.2,0,0,0,3.806,2.446c.135,0,.27-.006.406-.019l9.474-.92a67.062,67.062,0,0,0,15.454,14.4l-.233,9.494a4.187,4.187,0,0,0,2.725,4.026l15.719,5.856a4.192,4.192,0,0,0,4.694-1.263l6.047-7.347A66.046,66.046,0,0,0,88,140.5l6.55,6.879a4.2,4.2,0,0,0,3.031,1.3,4.16,4.16,0,0,0,1.74-.379l15.258-6.976a4.19,4.19,0,0,0,2.425-4.213l-.919-9.473a67.041,67.041,0,0,0,14.4-15.455l9.5.233h.1A4.2,4.2,0,0,0,144,109.694l5.856-15.72a4.187,4.187,0,0,0-1.265-4.7" transform="translate(0 -0.477)" fill="#170551" stroke="#7d0ede" stroke-miterlimit="10" stroke-width="3"/>
      </g>
    </g>
    <g id="Group_1111310" data-name="Group 1111310" transform="translate(346.356 7671.085)">
      <rect id="Rectangle_401104" data-name="Rectangle 401104" width="80.066" height="81.358" transform="translate(2.933 0)" fill="none"/>
      <g id="Mask_Group_1098697" data-name="Mask Group 1098697" transform="translate(0 0)" clip-path="url(#clip-path-2)">
        <g id="Group_1115099" data-name="Group 1115099" transform="translate(7.019 6.248)">
          <g id="Group_1115098" data-name="Group 1115098" clip-path="url(#clip-path-3)">
            <path id="Path_921517" data-name="Path 921517" d="M24.8,162.9H46.287c.7,0,.981,1.127,1.034,1.7.561,6.057-.443,12.967-.006,19.116l-.741,1.306L.563,184.975l-.449-.688L0,144.811l.693-1.581,23.647,0a2.035,2.035,0,0,1,.458.451ZM7.515,145.618h-5V162.9h19.67l.341-.341V145.618h-5v6.254c0,.459-.747.967-1.24,1.034a50.069,50.069,0,0,1-7.519-.011c-.456-.049-1.247-.229-1.247-.8Zm7.5,0h-5v4.775h5ZM7.515,165.4h-5v17.282H22.524V165.4h-5v6.481a4.237,4.237,0,0,1-.968.851,44.812,44.812,0,0,1-7.773.158c-.449-.072-1.265-.563-1.265-1.009Zm7.5,0h-5v5h5Zm14.781,0h-5v17.282H44.809V165.4h-5v6.481a2.088,2.088,0,0,1-.47.667c-.714.53-6.164.451-7.385.367-.606-.042-2.151-.182-2.151-1.033Zm7.5,0h-5v5h5Z" transform="translate(0 -110.659)" fill="#fff"/>
            <path id="Path_921518" data-name="Path 921518" d="M93.876,5.169c.077-1.849-2.146-4.751.785-5.014a69.822,69.822,0,0,1,9.344,0c2.81.236.756,3.248.559,5.012h13.3c1.275,0,3.752,2.675,3.752,3.98V31.093h-2.5V9.376a4.612,4.612,0,0,0-1.478-1.706h-8.528c.1.591-.3,2.248.373,2.47,1.889.306,4.546-.3,6.329.038.249.048.8.392.8.563V32.457h-2.5V12.446H84.666l-.341.341V29.956H82.051V10.74a3.8,3.8,0,0,1,.569-.569h6.708V7.67h-8.3a6.36,6.36,0,0,0-1.478,1.478V29.956h-2.5V8.694c0-.989,2.688-3.525,3.752-3.525Zm8.641-2.5H95.922c.266.924,1.722,5-.114,5h-3.98v2.5H106.5c.647-.6.239-1.689.341-2.5h-3.98a4.293,4.293,0,0,1-.812-.551c-.751-1.038.619-3.2.471-4.451" transform="translate(-59.527 0)" fill="#fff"/>
            <path id="Path_921519" data-name="Path 921519" d="M162.31,150.092c.153,1.047.591,4.322-.107,5l-10.012,3.175-.569-2.5,8.182-2.393.223-2.618-27.233,8.144c-1.21-.309-6.1-.624-6.664-1.419a1.43,1.43,0,0,1,0-1.622l4.557-4.082,33.6-10.057a3.683,3.683,0,0,1,3.884,5.7c-1.189,1.825-4.009,1.854-5.868,2.664m-.006-2.74c1.164-.283,4.8-.668,3.981-2.5-.657-1.466-3.043-.132-4.186.013Zm-2.741-1.586-19.741,6.013.654,2.168,19.3-5.71Zm-22.049,6.586c-2.695.888-6.056,1.028-7.729,3.638.891-.115,1.985.44,2.814.382.357-.025,4.871-1.374,5.22-1.558.142-.075.292-.123.348-.294Z" transform="translate(-97.255 -109.436)" fill="#fff"/>
            <path id="Path_921520" data-name="Path 921520" d="M230.555,218.732V230.9c0,1.47-2.732,3.98-4.207,3.98h-8.3v-2.5h8.073a3.068,3.068,0,0,0,1.933-1.933V218.732Z" transform="translate(-168.464 -168.992)" fill="#fff"/>
            <path id="Path_921521" data-name="Path 921521" d="M120.632,65.484a27.976,27.976,0,0,1,4.958-.053c1.006.117,1.362.48,1.478,1.478a29.9,29.9,0,0,1-.123,5.343,1.56,1.56,0,0,1-.436.474c-.512.306-4.885.334-5.71.225-1.742-.231-1.409-4.629-1.244-6.042.085-.726.31-1.249,1.076-1.425m3.932,2.451h-2.5v2.5h2.5Z" transform="translate(-92.261 -50.487)" fill="#fff"/>
            <path id="Path_921522" data-name="Path 921522" d="M127.051,121.614c-.426.426-6.158.434-6.671.071a1.87,1.87,0,0,1-.557-1.262c-.1-.847-.106-4.7.218-5.25.628-1.062,4.6-.928,5.818-.785.63.074,1.163.249,1.373.9.229.709.224,5.922-.181,6.327m-2.219-4.723h-2.5v2.5h2.5Z" transform="translate(-92.529 -88.301)" fill="#fff"/>
            <path id="Path_921523" data-name="Path 921523" d="M225.552,223.615v9.21a1.325,1.325,0,0,1-.8.8h-6.708v-2.5h5v-7.163c.6-.647,1.689-.239,2.5-.341" transform="translate(-168.464 -172.738)" fill="#fff"/>
            <rect id="Rectangle_408107" data-name="Rectangle 408107" width="14.781" height="2.501" transform="translate(37.305 19.95)" fill="#fff"/>
            <rect id="Rectangle_408108" data-name="Rectangle 408108" width="14.781" height="2.501" transform="translate(37.305 31.093)" fill="#fff"/>
            <rect id="Rectangle_408109" data-name="Rectangle 408109" width="9.778" height="2.501" transform="translate(42.307 14.948)" fill="#fff"/>
            <rect id="Rectangle_408110" data-name="Rectangle 408110" width="9.778" height="2.501" transform="translate(42.307 26.09)" fill="#fff"/>
            <rect id="Rectangle_408111" data-name="Rectangle 408111" width="2.504" height="2.504" transform="translate(37.304 14.946)" fill="#fff"/>
            <rect id="Rectangle_408112" data-name="Rectangle 408112" width="2.504" height="2.504" transform="translate(37.304 26.089)" fill="#fff"/>
            <rect id="Rectangle_408113" data-name="Rectangle 408113" width="2.504" height="2.504" transform="translate(17.52 47.237)" fill="#fff"/>
            <path id="Path_921524" data-name="Path 921524" d="M79.547,297.231h-2.5v-2.5l2.289.1c.43.3.13,1.842.214,2.4" transform="translate(-59.523 -227.706)" fill="#fff"/>
            <rect id="Rectangle_408114" data-name="Rectangle 408114" width="2.504" height="2.504" transform="translate(39.805 67.021)" fill="#fff"/>
          </g>
        </g>
      </g>
    </g>
  </g>
</svg>
