<svg xmlns="http://www.w3.org/2000/svg" xmlns:xlink="http://www.w3.org/1999/xlink" width="150" height="150" viewBox="0 0 150 150">
  <defs>
    <clipPath id="clip-path">
      <rect id="Rectangle_406617" data-name="Rectangle 406617" width="150" height="150" fill="#170551" stroke="rgba(0,0,0,0)" stroke-miterlimit="10" stroke-width="1"/>
    </clipPath>
    <clipPath id="clip-path-2">
      <rect id="Rectangle_401492" data-name="Rectangle 401492" width="85.933" height="85.933" transform="translate(0.308 0.249)" fill="#fff" stroke="#707070" stroke-width="1"/>
    </clipPath>
    <clipPath id="clip-path-3">
      <rect id="Rectangle_408105" data-name="Rectangle 408105" width="79.665" height="57.029" fill="#fff"/>
    </clipPath>
  </defs>
  <g id="Group_1113286" data-name="Group 1113286" transform="translate(-314.001 -7639.334)">
    <g id="Group_1113263" data-name="Group 1113263" transform="translate(314.001 7639.334)">
      <g id="Group_1112834" data-name="Group 1112834" transform="translate(0 0)" clip-path="url(#clip-path)">
        <path id="Path_917479" data-name="Path 917479" d="M148.595,89.278l-7.345-6.045a66.057,66.057,0,0,0-.749-21.11l6.879-6.55a4.185,4.185,0,0,0,.92-4.774l-6.975-15.255a4.194,4.194,0,0,0-3.805-2.445c-.136,0-.272.006-.409.019l-9.472.919a67.058,67.058,0,0,0-15.454-14.4l.233-9.5a4.187,4.187,0,0,0-2.724-4.025L93.973.264A4.175,4.175,0,0,0,92.512,0h0a4.168,4.168,0,0,0-3.232,1.527L83.231,8.875a66.05,66.05,0,0,0-21.11.749l-6.55-6.879a4.206,4.206,0,0,0-3.032-1.3,4.153,4.153,0,0,0-1.741.38L35.543,8.8a4.188,4.188,0,0,0-2.425,4.212l.919,9.474a67.046,67.046,0,0,0-14.4,15.455l-9.494-.233-.1,0a4.2,4.2,0,0,0-3.922,2.727L.262,56.151a4.191,4.191,0,0,0,1.26,4.692l7.351,6.049A66.049,66.049,0,0,0,9.623,88l-6.88,6.55a4.187,4.187,0,0,0-.919,4.774L8.8,114.581a4.2,4.2,0,0,0,3.806,2.446c.135,0,.27-.006.406-.019l9.474-.92a67.062,67.062,0,0,0,15.454,14.4l-.233,9.494a4.187,4.187,0,0,0,2.725,4.026l15.719,5.856a4.192,4.192,0,0,0,4.694-1.263l6.047-7.347A66.046,66.046,0,0,0,88,140.5l6.55,6.879a4.2,4.2,0,0,0,3.031,1.3,4.16,4.16,0,0,0,1.74-.379l15.258-6.976a4.19,4.19,0,0,0,2.425-4.213l-.919-9.473a67.041,67.041,0,0,0,14.4-15.455l9.5.233h.1A4.2,4.2,0,0,0,144,109.694l5.856-15.72a4.187,4.187,0,0,0-1.265-4.7" transform="translate(0 -0.477)" fill="#170551" stroke="#7d0ede" stroke-miterlimit="10" stroke-width="3"/>
      </g>
    </g>
    <g id="Group_1111310" data-name="Group 1111310" transform="translate(346.356 7671.085)">
      <rect id="Rectangle_401104" data-name="Rectangle 401104" width="80.066" height="81.358" transform="translate(2.933 0)" fill="none"/>
      <g id="Mask_Group_1098697" data-name="Mask Group 1098697" transform="translate(0 0)" clip-path="url(#clip-path-2)">
        <g id="Group_1115095" data-name="Group 1115095" transform="translate(3.308 14.248)">
          <g id="Group_1115094" data-name="Group 1115094" clip-path="url(#clip-path-3)">
            <path id="Path_921511" data-name="Path 921511" d="M53.1,33.018H66.427a3.238,3.238,0,0,1,1.214,1.064l11.83,18.47c-.2,4.762.46,10.063.065,14.762-.038.449-.007.932-.4,1.255-1.2.988-6.1.165-7.8.454-1.611,8.719-13.668,8.462-15.64-.024l-29.107.043-.262.194c-1.955,8.436-13.79,8.237-15.632-.191-.423-.271-7.619.121-8.972-.026C.677,68.906-.092,68.483.008,67.314L.137,24.594a1.366,1.366,0,0,1,1.348-.7l50.374,0c.449-.16,1.242.76,1.242,1.036Zm-2.734-6.607H2.752V61.04H9.358v2.506H2.752V66.28h7.974c1.646-8.875,14.045-8.768,15.72,0H50.366V63.546H27.812V61.04H50.366V31.879H5.258V29.145H50.366ZM67,38.486l-1.481-2.734H53.1V66.28l2.724-.01a7.907,7.907,0,0,1,12.771-4.89,9.877,9.877,0,0,1,3.073,4.9h5.126V63.546H72.92V61.04h3.873V53.066H56.859c-.6,0-1.189-1.11-1.258-1.7a77.8,77.8,0,0,1,0-11.4c.045-.38.449-1.476.8-1.476Zm2.05,2.506H58.34v9.341h16.4ZM18.2,62.227c-7.076.7-6.075,11.242.845,10.662,6.9-.578,5.91-11.33-.845-10.662m41.593,1.628a5.323,5.323,0,1,0,8.615,1.36,5.369,5.369,0,0,0-8.615-1.36" transform="translate(0 -18.436)" fill="#fff"/>
            <path id="Path_921512" data-name="Path 921512" d="M41.76,2.738H23.079L23.292.1l17.9-.1.537.374Z" transform="translate(-17.821 -0.003)" fill="#fff"/>
            <path id="Path_921513" data-name="Path 921513" d="M2.81,2.737H.074V0L2.6.1c.442.308.12,2.043.215,2.636" transform="translate(-0.057 -0.001)" fill="#fff"/>
            <rect id="Rectangle_408104" data-name="Rectangle 408104" width="2.508" height="2.736" transform="translate(17.331 47.843)" fill="#fff"/>
            <path id="Path_921514" data-name="Path 921514" d="M275.81,210v2.736c-.593-.094-2.328.227-2.636-.214l-.1-2.522Z" transform="translate(-210.862 -162.158)" fill="#fff"/>
          </g>
        </g>
      </g>
    </g>
  </g>
</svg>
