<svg id="Group_1115137" data-name="Group 1115137" xmlns="http://www.w3.org/2000/svg" xmlns:xlink="http://www.w3.org/1999/xlink" width="296.133" height="456" viewBox="0 0 296.133 456">
  <defs>
    <clipPath id="clip-path">
      <rect id="Rectangle_408133" data-name="Rectangle 408133" width="296.133" height="456" fill="none"/>
    </clipPath>
    <clipPath id="clip-path-3">
      <rect id="Rectangle_408122" data-name="Rectangle 408122" width="7.686" height="30.043" fill="none"/>
    </clipPath>
    <clipPath id="clip-path-4">
      <rect id="Rectangle_408123" data-name="Rectangle 408123" width="17.709" height="20.945" fill="#9d0388"/>
    </clipPath>
    <clipPath id="clip-path-5">
      <rect id="Rectangle_408124" data-name="Rectangle 408124" width="14.932" height="23.505" fill="none"/>
    </clipPath>
    <clipPath id="clip-path-6">
      <rect id="Rectangle_408125" data-name="Rectangle 408125" width="14.026" height="17.981" fill="none"/>
    </clipPath>
    <clipPath id="clip-path-7">
      <rect id="Rectangle_408126" data-name="Rectangle 408126" width="15.186" height="22.246" fill="none"/>
    </clipPath>
    <clipPath id="clip-path-8">
      <rect id="Rectangle_408127" data-name="Rectangle 408127" width="156.32" height="98.867" fill="none"/>
    </clipPath>
    <clipPath id="clip-path-9">
      <rect id="Rectangle_408128" data-name="Rectangle 408128" width="47.53" height="33.389" fill="none"/>
    </clipPath>
    <clipPath id="clip-path-10">
      <rect id="Rectangle_408129" data-name="Rectangle 408129" width="48.403" height="19.045" fill="none"/>
    </clipPath>
    <clipPath id="clip-path-11">
      <rect id="Rectangle_408130" data-name="Rectangle 408130" width="40.191" height="110.825" fill="none"/>
    </clipPath>
    <clipPath id="clip-path-12">
      <rect id="Rectangle_408131" data-name="Rectangle 408131" width="37.587" height="11.85" fill="none"/>
    </clipPath>
  </defs>
  <g id="Group_1115136" data-name="Group 1115136" clip-path="url(#clip-path)">
    <g id="Group_1115135" data-name="Group 1115135">
      <g id="Group_1115134" data-name="Group 1115134" clip-path="url(#clip-path)">
        <path id="Path_921539" data-name="Path 921539" d="M360.474,552.95a26.187,26.187,0,0,1-1.9-8.56c.02-2.938,1.212-6.038,3.713-7.578a7.483,7.483,0,0,1,6-.674,10.052,10.052,0,0,1,4.977,3.569,9.413,9.413,0,0,1,2.037,5.133,13.116,13.116,0,0,1-1.83,6.549,22.382,22.382,0,0,1-3.319,5.005,5.7,5.7,0,0,1-2.818,1.873,4.739,4.739,0,0,1-4.13-1.386,9.732,9.732,0,0,1-2.733-3.93" transform="translate(-111.876 -167.172)" fill="#ffa8fb"/>
        <path id="Path_921540" data-name="Path 921540" d="M271.887,595.327a21.458,21.458,0,0,0,3.958,7.85,6.859,6.859,0,0,0,3.86,2.762,4.834,4.834,0,0,0,2.619-.3,7.829,7.829,0,0,0,4.369-5.383,10.911,10.911,0,0,0-6.961-13.124,6.71,6.71,0,0,0-3.663-.334,5.871,5.871,0,0,0-3.95,3.611,8.133,8.133,0,0,0-.233,4.921" transform="translate(-84.744 -183.041)" fill="#f8a3a8"/>
        <path id="Path_921541" data-name="Path 921541" d="M79.09,626.723a8.086,8.086,0,0,1-3.437-5.608,16.076,16.076,0,0,1,.583-6.7,14.284,14.284,0,0,1,3.809-7.046c2.009-1.816,5.1-2.634,7.5-1.383a7.989,7.989,0,0,1,3.022,3.147,16.171,16.171,0,0,1,.3,15.583c-1.194,2.215-3.145,4.259-5.642,4.572-2.533.317-4.6-1.595-6.142-2.561" transform="translate(-23.559 -188.88)" fill="#eae5ff"/>
        <path id="Path_921542" data-name="Path 921542" d="M90.633,652.686a7.15,7.15,0,0,1,2.173-3.816,3.8,3.8,0,0,1,4.16-.573,4.06,4.06,0,0,1,1.617,4.376,5.11,5.11,0,0,1-2.305,3.332,4.081,4.081,0,0,1-3.981.123,3.247,3.247,0,0,1-1.662-3.443" transform="translate(-28.254 -202.148)" fill="#eae5ff"/>
        <path id="Path_921543" data-name="Path 921543" d="M102.781,639.64a6.194,6.194,0,0,1,1.34-6.148,4.118,4.118,0,0,1,2.277-1.3,3.608,3.608,0,0,1,3.487,1.712,5.272,5.272,0,0,1-3.027,7.562c-1.7.406-3.633-.535-4.077-1.825" transform="translate(-31.97 -197.234)" fill="#eae5ff"/>
        <path id="Path_921544" data-name="Path 921544" d="M62.468,201.374a208.155,208.155,0,0,1-16.28-72.242c-.773-18.227,1.922-38.679,16.049-50.222,8.21-6.709,19.8-9.966,24.841-19.295,5.082-9.412,1.335-21.027,2.733-31.631A32.29,32.29,0,0,1,140.78,6.065c21.086,15.293,20.131,52.355,44.154,62.423,10.567,4.429,22.685,1.809,34,3.628,14.639,2.354,27.344,12.276,35.455,24.689s12.056,27.126,14.01,41.824c2.579,19.387,1.088,41.211-12.528,55.25-8.4,8.666-20.678,13.494-27.152,23.684-3.232,5.086-4.7,11.063-7.06,16.608-8.9,20.9-30.9,34.659-53.532,36.672s-45.381-6.615-63.294-20.588-34.81-31.062-42.363-48.88" transform="translate(-14.373 0)" fill="#d49cfe"/>
        <path id="Path_921545" data-name="Path 921545" d="M47.388,429.6a176.12,176.12,0,0,1-8.807-82.644c2.305-17.212,7.172-34.129,7.6-51.49.355-14.434-2.243-29.646,3.778-42.768,7.084-15.441,24.414-23.668,41.175-26.438,15.722-2.6,32.563-1.313,46.428,6.544,28.848,16.347,37.2,55.358,63.808,75.147,7.845,5.836,16.958,9.729,25.1,15.139,27.514,18.278,41.382,54.882,32.887,86.8-3.834,14.407-12.693,28.448-26.54,33.973-17.789,7.1-38.738-1.392-56.818,4.927-12.6,4.4-21.709,15.253-32.974,22.412a63.422,63.422,0,0,1-61.289,3.076c-19.113-9.608-29.236-30.473-34.35-44.68" transform="translate(-11.558 -70.215)" fill="#ffe4fa"/>
        <path id="Path_921546" data-name="Path 921546" d="M261.007,75.79c7-5.981,15.025-11.949,24.235-11.987,6.876-.028,13.249,3.278,19.6,5.913,2.622,1.088,5.965,1.956,8.03.009a5.01,5.01,0,0,0,.624-5.841,10.555,10.555,0,0,0-4.635-4.136c-5-2.636-10.775-3.487-16.424-3.374a52.876,52.876,0,0,0-39.217,19c-.069,1.628,1.829,2.978,3.487,2.81s3.031-1.311,4.3-2.394m46.328-.557a2.221,2.221,0,0,0-1.479.95,1.935,1.935,0,0,0,.179,1.72,4.988,4.988,0,0,0,5.662,2.4,14.694,14.694,0,0,1,1.915-.617c1.438-.218,2.786.638,4.142,1.161s3.226.546,3.912-.736c.653-1.218-.262-2.7-1.31-3.6a10.774,10.774,0,0,0-10.306-1.992c-.611.208-1.673.418-2.714.711M272.7,82.066c1.218-.823,2.541-1.853,2.67-3.317a3.218,3.218,0,0,0-1.84-2.978,6.217,6.217,0,0,0-3.628-.459,7.925,7.925,0,0,0-4.075,1.609,4.767,4.767,0,0,0-1.82,3.869,3.846,3.846,0,0,0,3.957,3.276,9.247,9.247,0,0,0,4.737-2" transform="translate(-79.005 -17.586)" fill="#eae5ff"/>
        <path id="Path_921547" data-name="Path 921547" d="M163.323,613.836c2.187-1.762,5.117-2.236,7.655-3.437s4.923-3.84,4.125-6.533a5.838,5.838,0,0,0-3.575-3.393,12.4,12.4,0,0,0-10.89.753c-4.109,2.424-6.552,7.086-10.743,9.366-3.376,1.836-7.5,1.867-11.223.9a46.155,46.155,0,0,1-10.5-4.688c.065-.4-1.64-.431-2.817.389A3.526,3.526,0,0,0,124.031,611a6.309,6.309,0,0,0,2.05,2.724,35.924,35.924,0,0,0,15.787,8.126c6.109,1.395,13.254.859,17.587-3.669,1.343-1.4,2.354-3.131,3.869-4.35m15.751-5.068c-.657,1.1-1.09,2.317-1.77,3.4a8.79,8.79,0,0,1-5.762,3.922,1.336,1.336,0,0,0-1.732.911,2.094,2.094,0,0,0,.628,2.065,3.76,3.76,0,0,0,2.048.9,8.5,8.5,0,0,0,6.164-1.775,23.424,23.424,0,0,0,4.509-4.764,7.433,7.433,0,0,0,1.4-2.368,5.23,5.23,0,0,0-.18-3.119,2.558,2.558,0,0,0-.777-1.26,2.045,2.045,0,0,0-1.652-.288,4.719,4.719,0,0,0-2.874,2.372m-15.1,15.749a3.435,3.435,0,0,0,2.67-5.18,2.637,2.637,0,0,0-1.241-1.119,2.606,2.606,0,0,0-2.667.614,4.419,4.419,0,0,0-1.227,2.56,2.9,2.9,0,0,0,.532,2.482,2.376,2.376,0,0,0,1.934.643" transform="translate(-38.656 -187.063)" fill="#eae5ff"/>
        <path id="Path_921548" data-name="Path 921548" d="M353.621,321.728c-6.048-10.386-3.444-28.427-.363-39.382,2.224-7.906,6.219-15.577,9.216-23.221,5.959-15.2,11.324-31.005,11.327-47.519,0-10.976-2.365-21.835-2.593-32.808-.094-4.495.319-9.375,3.29-12.749,4.078-4.629,11.774-4.513,16.921-1.111s8.155,9.232,10.138,15.073c7.3,21.507,3.291,45.558-6.052,66.26-8.848,19.6-22.639,38.482-21.727,59.97.162,3.8.793,7.6.4,11.379s-2.034,7.688-5.307,9.619c-5.179,3.055-12.225-.314-15.251-5.51" transform="translate(-109.19 -50.691)" fill="#e9d6fa"/>
        <path id="Path_921549" data-name="Path 921549" d="M391.6,383.614c2.592-13.1-6.9-27.788-.235-39.358a4.113,4.113,0,0,1,1.821-1.883,3.862,3.862,0,0,1,3.651.889c3.19,2.427,4.634,6.6,4.764,10.608s-.87,7.948-1.714,11.866c-1.518,7.052-2.544,14.394-1.051,21.45.862,4.076,2.539,7.928,3.74,11.917,3.8,12.61,2.729,26.237-.316,39.05-2.158,9.084-5.458,18.222-11.869,25.009-2.153,2.28-4.784,4.328-7.884,4.8-4.736.729-9.4-2.537-11.647-6.771s-2.519-9.222-2.353-14.01c.366-10.5,2.227-22.62,6.119-32.486,4.316-10.94,14.661-19.4,16.973-31.085" transform="translate(-114.964 -106.763)" fill="#ffa8fb"/>
        <path id="Path_921550" data-name="Path 921550" d="M285.992,571.772a.214.214,0,0,1,.008-.058.193.193,0,0,1,.24-.125,13.444,13.444,0,0,0,6.159.609,8.343,8.343,0,0,0,4.634-2.306c-.091-.036-.179-.076-.266-.118a2.928,2.928,0,0,1-1.735-2.729,2.134,2.134,0,0,1,1-1.571,1.712,1.712,0,0,1,1.52-.195,1.674,1.674,0,0,1,1.027,1.144,3.683,3.683,0,0,1-.641,2.994q-.108.148-.225.289a6.572,6.572,0,0,0,2.262.078,8.638,8.638,0,0,0,6.3-3.567,3.749,3.749,0,0,1-.757-.166,2.87,2.87,0,0,1-2.045-2.617,2.177,2.177,0,0,1,.906-1.672,1.775,1.775,0,0,1,1.56-.311c1.213.367,1.645,1.932,1.362,3.232a5.491,5.491,0,0,1-.4,1.178,5.872,5.872,0,0,0,1.852-.391,8.61,8.61,0,0,0,5.324-9.051.193.193,0,0,1,.161-.217.191.191,0,0,1,.217.16,9,9,0,0,1-5.569,9.466,5.983,5.983,0,0,1-2.185.416c-1.319,2.321-4.2,3.644-6.689,3.919a6.669,6.669,0,0,1-2.585-.137,8.674,8.674,0,0,1-4.97,2.547,13.82,13.82,0,0,1-6.335-.621.191.191,0,0,1-.133-.182m12.3-4.6a2.267,2.267,0,0,0-.085-.636,1.286,1.286,0,0,0-.8-.894,1.315,1.315,0,0,0-1.181.161,1.741,1.741,0,0,0-.821,1.28,2.547,2.547,0,0,0,1.521,2.352,3.512,3.512,0,0,0,.377.158c.111-.128.217-.26.316-.4a3.577,3.577,0,0,0,.667-2.023m8.712-3.281a2.019,2.019,0,0,0-1.176-2.069,1.4,1.4,0,0,0-1.224.255,1.784,1.784,0,0,0-.749,1.368v.03a2.516,2.516,0,0,0,1.784,2.218,3.448,3.448,0,0,0,.84.164,5.149,5.149,0,0,0,.449-1.25,3.378,3.378,0,0,0,.076-.717" transform="translate(-89.23 -173.536)"/>
        <path id="Path_921551" data-name="Path 921551" d="M41.84,218.658a4.2,4.2,0,0,1,1.345-3.249,4.448,4.448,0,0,1,2.52-.947,4.783,4.783,0,0,1,3.408.843,5.939,5.939,0,0,1,1.485,6.318,4.226,4.226,0,0,1-3.566,2.229,4.585,4.585,0,0,1-3.91-1.521A5.939,5.939,0,0,1,41.84,218.7v-.046m8.769,1.128a6.321,6.321,0,0,0-.195-1.494,4.7,4.7,0,0,0-1.536-2.685,4.4,4.4,0,0,0-3.137-.764,4.076,4.076,0,0,0-2.309.857,3.9,3.9,0,0,0-1.209,3,5.547,5.547,0,0,0,1.2,3.393,4.206,4.206,0,0,0,3.587,1.378,3.841,3.841,0,0,0,3.245-2.014,3.8,3.8,0,0,0,.354-1.671m-7.335,2.427v0Z" transform="translate(-13.054 -66.904)"/>
        <path id="Path_921552" data-name="Path 921552" d="M326.038,324.111a6.564,6.564,0,0,0,2.508-2.916c.532-1.223.594-2.837-.415-3.709a3.171,3.171,0,0,0-1.478-.641,5.686,5.686,0,0,0-5.252,1.582,4.448,4.448,0,0,0-.529,5.3,3.14,3.14,0,0,0,2.46,1.188,4.8,4.8,0,0,0,2.705-.8m-5.387,15.344a3.4,3.4,0,0,0,.98-4.184,5.085,5.085,0,0,0-3.668-2.629,5.025,5.025,0,0,0-2.85.2,3.331,3.331,0,0,0-1.95,2.015,4.652,4.652,0,0,0,1.923,4.109,6,6,0,0,0,2.225.885,4.426,4.426,0,0,0,3.34-.4m-19.872-15.236a5.94,5.94,0,0,0-.379-3.49,3.412,3.412,0,0,0-1.908-1.967,2.8,2.8,0,0,0-2.505.479,4.206,4.206,0,0,0-1.434,2.177,5.727,5.727,0,0,0,1.313,5.487,2.776,2.776,0,0,0,3.032.168,4.131,4.131,0,0,0,1.882-2.854m-1.589,29.528a3.584,3.584,0,0,0,3.154-1.741,3.7,3.7,0,0,0-.316-3.906,4.622,4.622,0,0,0-3.585-1.778,3.778,3.778,0,0,0-2.166.55,2.434,2.434,0,0,0-1.133,1.869,5.28,5.28,0,0,0,.835,3.271,4.173,4.173,0,0,0,3.212,1.736" transform="translate(-91.83 -98.82)" fill="#fcab00"/>
        <path id="Path_921553" data-name="Path 921553" d="M238.812,353.065a160.614,160.614,0,0,0,28.761-8.561,30.838,30.838,0,0,1,7.858,3.159c.667.342,1.334.684,2,1.012.96.47,1.948.921,2.9,1.356,1.52.694,3.093,1.41,4.582,2.22a.191.191,0,0,0,.183-.336c-1.5-.817-3.079-1.536-4.606-2.232-.953-.435-1.939-.884-2.894-1.352-.668-.327-1.333-.667-2-1.009a33.269,33.269,0,0,0-7.417-3.069q5.3-2.158,10.436-4.687a.2.2,0,0,0,.105-.051q4.933-2.433,9.694-5.2A65.213,65.213,0,0,1,304.4,338.3a.192.192,0,0,0,.248-.109.189.189,0,0,0-.109-.247,65.547,65.547,0,0,0-15.585-3.935,160.508,160.508,0,0,0,21.817-15.34.191.191,0,0,0-.245-.294,160.562,160.562,0,0,1-31.658,20.65,78.534,78.534,0,0,0,1.717-19.871.191.191,0,0,0-.376-.039.2.2,0,0,0-.006.054,78.134,78.134,0,0,1-1.77,20.066q-5.362,2.64-10.91,4.88a.185.185,0,0,0-.127.05,160.242,160.242,0,0,1-28.663,8.529.191.191,0,0,0-.149.141.2.2,0,0,0,0,.083.191.191,0,0,0,.225.151" transform="translate(-74.439 -99.319)"/>
        <path id="Path_921554" data-name="Path 921554" d="M52.564,355.142c-3.717-4.75-11.375-3.915-17.216-3.259-3.173.356-6.46,1.346-8.593,3.721a5.391,5.391,0,0,0-1.539,3.634,5.033,5.033,0,0,0,2.892,4.12,10.776,10.776,0,0,0,5.148.921,18.287,18.287,0,0,0,7.338-1.547c2.991-1.393,5.406-3.8,8.345-5.3a21.887,21.887,0,0,0-3.153,7.106,14.4,14.4,0,0,0,.265,7.714,5.749,5.749,0,0,0,1.157,2.128,2.825,2.825,0,0,0,2.155.969,3.54,3.54,0,0,0,2.564-1.8,12.52,12.52,0,0,0,1.55-3.8,27.742,27.742,0,0,0,.75-9.551,9.573,9.573,0,0,0-1.662-5.059m9.4-20.513a3.062,3.062,0,0,0-1.8-2.224,2.923,2.923,0,0,0-2.259.526,11.638,11.638,0,0,0-3.9,4.518A22.978,22.978,0,0,0,51.518,351.5a3.961,3.961,0,0,0,.775,2.077,8.6,8.6,0,0,0,4.552-2.566,18.365,18.365,0,0,0,2.994-4.364,23.355,23.355,0,0,0,2.261-5.823,12.218,12.218,0,0,0-.133-6.2m-28.936,6.708c.048.036.093.076.142.111l-.112.137c2.608-2.146,4.132-5.322,5.324-8.482,2.17-5.759,3.512-11.988,2.6-18.074a10.755,10.755,0,0,0-1.346-4.149,5.047,5.047,0,0,0-3.483-2.438,4.948,4.948,0,0,0-3.638,1.147,9.651,9.651,0,0,0-2.389,3.074,22.934,22.934,0,0,0-2.5,10.119,41.779,41.779,0,0,0,1.194,10.42c.191.843.411,1.7.679,2.537a27.959,27.959,0,0,0-9.387-5.754,27.4,27.4,0,0,0-12.356-1.864c-2.83.279-5.908,1.346-7.183,3.888a6.242,6.242,0,0,0-.277,4.58,9.722,9.722,0,0,0,2.486,3.936,19.914,19.914,0,0,0,9.607,4.867,28.159,28.159,0,0,0,10.85.614,19.117,19.117,0,0,0,9.82-4.461c-.008-.072-.025-.138-.036-.208" transform="translate(0 -96.224)" fill="#ff85e7"/>
        <path id="Path_921555" data-name="Path 921555" d="M105.533,429.515c-11.38-23.158-27.336-51.766-51.594-73.041a46.719,46.719,0,0,1,6.124-18.28.191.191,0,0,0-.33-.194,47.105,47.105,0,0,0-6.142,18.173c-2.15-1.873-4.358-3.7-6.641-5.444a69.293,69.293,0,0,0-12-7.654c-.925-3.236-.967-6.751-.74-11.025.217-4.079.612-8.2,1.173-12.249a20.925,20.925,0,0,1,1.274-5.39.191.191,0,0,0-.352-.15,21.226,21.226,0,0,0-1.3,5.487c-.563,4.06-.958,8.192-1.176,12.281a35.657,35.657,0,0,0,.665,10.83c-1.151-.539-2.291-1.016-3.434-1.434a79.565,79.565,0,0,0-12.5-3.085,75.88,75.88,0,0,1-12.934-3.254.191.191,0,0,0-.137.357,76.138,76.138,0,0,0,13,3.273,79.245,79.245,0,0,1,12.439,3.068c1.24.453,2.477.974,3.729,1.572a.184.184,0,0,0,.135.072H34.8a68.952,68.952,0,0,1,11.917,7.6c2.215,1.7,4.358,3.463,6.447,5.277a65.414,65.414,0,0,0-8.115,2.251l-.87.284c-4.531,1.471-9.362,2.887-14.216,2.6a.2.2,0,0,0-.2.18.191.191,0,0,0,.18.2c4.922.291,9.79-1.132,14.356-2.614l.871-.283a64.709,64.709,0,0,1,8.089-2.247,165.42,165.42,0,0,1-3,16.469.19.19,0,0,0,.142.229.16.16,0,0,0,.041.006.192.192,0,0,0,.189-.147,165.928,165.928,0,0,0,3-16.514c24.235,21.236,40.181,49.825,51.552,72.966a.19.19,0,0,0,.169.107.188.188,0,0,0,.087-.019.192.192,0,0,0,.087-.256" transform="translate(-1.674 -98.013)"/>
        <path id="Path_921556" data-name="Path 921556" d="M303.508,436.8a4.548,4.548,0,0,0,.577-2.8,5.8,5.8,0,0,0-3.053-4.835,3.8,3.8,0,0,0-5.678,3.445,7.5,7.5,0,0,0,.263,1.862,5.508,5.508,0,0,0,3.214,3.668,3.942,3.942,0,0,0,4.678-1.342m-6.481-6.943a3.872,3.872,0,0,1,3.841-.345,5.412,5.412,0,0,1,2.835,4.519c.012.155.018.308.018.458a3.918,3.918,0,0,1-.537,2.107,2.76,2.76,0,0,1-.446.533,70.983,70.983,0,0,0-5.711-7.271m1.942,7.928a5.186,5.186,0,0,1-2.982-3.407,4.873,4.873,0,0,1,.119-3.462,2.893,2.893,0,0,1,.625-.818,70.623,70.623,0,0,1,5.714,7.276,3.725,3.725,0,0,1-3.475.411" transform="translate(-92.151 -133.779)"/>
        <path id="Path_921557" data-name="Path 921557" d="M345.393,111.727a.192.192,0,0,1,.008-.056,73.335,73.335,0,0,1,3.728-9.2.192.192,0,0,1,.277-.081,75,75,0,0,1,13.258,10.747.191.191,0,0,1-.142.325,146.013,146.013,0,0,1-16.967-1.546.192.192,0,0,1-.162-.189m3.993-8.9a72.877,72.877,0,0,0-3.554,8.74,145.615,145.615,0,0,0,16.223,1.493,74.639,74.639,0,0,0-12.669-10.233" transform="translate(-107.763 -31.937)"/>
        <path id="Path_921558" data-name="Path 921558" d="M125.07,648.292a.19.19,0,0,1,.019-.084.188.188,0,0,1,.122-.1,75,75,0,0,1,16.875-2.552.191.191,0,0,1,.144.325,146.016,146.016,0,0,1-12.577,11.492.194.194,0,0,1-.154.039.189.189,0,0,1-.131-.091,73.388,73.388,0,0,1-4.283-8.954.19.19,0,0,1-.015-.075m16.551-2.335a74.537,74.537,0,0,0-16.1,2.463,73.24,73.24,0,0,0,4.061,8.515,145.563,145.563,0,0,0,12.037-10.978" transform="translate(-39.022 -201.415)"/>
        <path id="Path_921559" data-name="Path 921559" d="M367.148,152.608a1.124,1.124,0,0,1,.091-.448,1.78,1.78,0,0,1,2.3-.635,3.58,3.58,0,0,1,.967.569,3.4,3.4,0,0,0,.115-1.613,6.463,6.463,0,0,0-1.259-2.687,4.075,4.075,0,0,0-1.9-1.629.191.191,0,0,1,.115-.365,4.414,4.414,0,0,1,2.1,1.77A7.02,7.02,0,0,1,371,150.419a3.745,3.745,0,0,1-.186,1.953,4.412,4.412,0,0,1,1.144,2.089,6.172,6.172,0,0,1-.439,3.8,3.8,3.8,0,0,1-2.436,2.366.191.191,0,1,1-.078-.375,3.434,3.434,0,0,0,2.162-2.142,5.786,5.786,0,0,0,.418-3.562,4.039,4.039,0,0,0-.945-1.8,2.714,2.714,0,0,1-.528.685,2.03,2.03,0,0,1-1.974.524,1.5,1.5,0,0,1-.87-.8,1.325,1.325,0,0,1-.12-.541m3.207-.143a3.229,3.229,0,0,0-.952-.583c-.671-.261-1.554-.171-1.813.43a.841.841,0,0,0,.027.681,1.112,1.112,0,0,0,.643.6,1.649,1.649,0,0,0,1.592-.441,2.409,2.409,0,0,0,.5-.685" transform="translate(-114.551 -45.487)"/>
        <path id="Path_921560" data-name="Path 921560" d="M233.173,574.919c3.854.924,8.244,1.183,11.462-1.131a3.764,3.764,0,0,0,1.814-2.956,3.9,3.9,0,0,0-1.013-2.24c-2.707-3.347-7.2-4.691-11.478-5.14a39.1,39.1,0,0,0-17.756,2.275,35.963,35.963,0,0,0,16.971,9.192M206.019,560.16a16.85,16.85,0,0,0-8.562-2.077c-1.187.064-2.549.429-3.016,1.523-.589,1.379.635,2.837,1.847,3.72a20.112,20.112,0,0,0,17.3,2.974,4.927,4.927,0,0,0-.315-.989,39.394,39.394,0,0,0-7.254-5.15m8.653,11.772a6.809,6.809,0,0,0-.413-4.371,30.431,30.431,0,0,0-13.348,9.181c-1.514,1.808-2.86,3.925-2.965,6.281s1.444,4.911,3.783,5.2a6.1,6.1,0,0,0,3.851-1.136c5.173-3.2,8.2-9.14,9.091-15.158m.637-15.543a46.974,46.974,0,0,0-.221,8.326,3.121,3.121,0,0,0,2.472-.835,26.7,26.7,0,0,0,8.692-11.161c.654-1.583,1.135-3.459.29-4.948a3.983,3.983,0,0,0-4.217-1.684,7.067,7.067,0,0,0-3.944,2.656,15.728,15.728,0,0,0-3.072,7.646m18.539,36.453a11.585,11.585,0,0,0-.717-5.981,34.758,34.758,0,0,0-17.19-19.747c-1.014,9.82,1.666,20.19,8.523,27.223,1.461,1.5,3.366,2.918,5.441,2.643a5.076,5.076,0,0,0,3.944-4.138" transform="translate(-60.618 -170.355)" fill="#ffa8fb"/>
        <path id="Path_921561" data-name="Path 921561" d="M207.479,561.229a.191.191,0,1,0-.3-.23l-12.038,15.92a.192.192,0,0,0-.018.2.181.181,0,0,0,.055.066.19.19,0,0,0,.268-.037Zm-.473-1.917a86.394,86.394,0,0,1-15.382-3.938.19.19,0,0,0-.244.116.186.186,0,0,0,.009.15.189.189,0,0,0,.107.094,86.717,86.717,0,0,0,15.45,3.956.191.191,0,1,0,.06-.378m.619-1.112a.192.192,0,0,0-.028.214.177.177,0,0,0,.043.056.191.191,0,0,0,.27-.014,38.214,38.214,0,0,0,7.636-13.032.191.191,0,1,0-.361-.124,37.83,37.83,0,0,1-7.56,12.9m25.126,6.315a.192.192,0,0,0-.171-.209,132.847,132.847,0,0,1-23.951-4.619.191.191,0,0,0-.107.367,133.248,133.248,0,0,0,24.021,4.632.191.191,0,0,0,.208-.171m-11.684,21.049-12.075-24.515a.206.206,0,0,0-.256-.087.192.192,0,0,0-.087.256l12.075,24.515v0a.191.191,0,0,0,.342-.171M207,558.615a.185.185,0,0,0,.254.094.192.192,0,0,0,.094-.254A68.414,68.414,0,0,0,192.811,538.3c-6.658-6.506-13.53-10.838-20.425-12.875a.191.191,0,1,0-.108.367c6.835,2.019,13.653,6.319,20.266,12.782A67.918,67.918,0,0,1,207,558.615" transform="translate(-53.708 -163.93)"/>
        <path id="Path_921562" data-name="Path 921562" d="M221.474,576.131a2.132,2.132,0,0,1-.98-2.383,2.484,2.484,0,0,1,1.986-1.725,2.627,2.627,0,0,1,2.775,1.526,2.444,2.444,0,0,1-1,2.962,2.355,2.355,0,0,1-2.782-.38" transform="translate(-68.773 -178.463)" fill="#fcab00"/>
        <path id="Path_921563" data-name="Path 921563" d="M336.134,388.363a6.361,6.361,0,0,0,2.857,2.257c.771.3,1.6.456,2.354.8a3.667,3.667,0,0,1,1.985,2.378c.743,7.161.77,14.375.8,21.575a8.8,8.8,0,0,1-.35,3.056,6.578,6.578,0,0,1-2.515,2.968c-2.835,2-6.363,2.775-9.82,3.086-3.545.319-7.278.166-10.418-1.514a3.552,3.552,0,0,1-1.979-2.222,94.512,94.512,0,0,1-.383-24,4.358,4.358,0,0,1,.233-1.137c.528-1.329,2.1-1.817,3.4-2.41a7.7,7.7,0,0,0,4.139-4.088,72.4,72.4,0,0,0,9.7-.751" transform="translate(-99.24 -121.17)" fill="#9d0388"/>
        <path id="Path_921564" data-name="Path 921564" d="M323.216,408.465q-.04,6-.081,12a7.442,7.442,0,0,0,.153,1.916,5.178,5.178,0,0,0,1.88,2.649,10.209,10.209,0,0,0,6.187,2.06,17.85,17.85,0,0,0,6.478-1.265c1.518-.563,3.126-1.4,3.7-2.912a6.322,6.322,0,0,0,.28-2.167c.052-4.175.1-8.354-.06-12.526a1.622,1.622,0,0,0-.133-.7,1.313,1.313,0,0,0-.431-.441,6.425,6.425,0,0,0-3.63-.814,36.749,36.749,0,0,0-14.342,2.2" transform="translate(-100.819 -126.753)" fill="#fbb4b8"/>
        <path id="Path_921565" data-name="Path 921565" d="M341.177,384.54a43.958,43.958,0,0,1-13.332,1.824,16.02,16.02,0,0,1-4.592-.613,1.273,1.273,0,0,1-.669-.394,1.3,1.3,0,0,1-.193-.539,23.56,23.56,0,0,1-.409-3.366,2.716,2.716,0,0,1,.106-1.1,2.135,2.135,0,0,1,.767-.92,7.275,7.275,0,0,1,2.464-1.046,34.058,34.058,0,0,1,15.577-.508,1.523,1.523,0,0,1,.869.386,1.437,1.437,0,0,1,.283.713,7.92,7.92,0,0,1-.872,5.566" transform="translate(-100.456 -117.69)" fill="#00cdcc"/>
        <path id="Path_921566" data-name="Path 921566" d="M340.034,381.3a.208.208,0,0,1-.056.024,68.722,68.722,0,0,1-9.644,1.651,10.351,10.351,0,0,1-5.4-.515.191.191,0,1,1,.163-.346,10.038,10.038,0,0,0,5.2.481,68.409,68.409,0,0,0,9.591-1.642.191.191,0,0,1,.147.347" transform="translate(-101.345 -118.855)"/>
        <path id="Path_921567" data-name="Path 921567" d="M323.049,408.451c.256,1.17,1.625,1.672,2.8,1.887a24.871,24.871,0,0,0,11.96-.76c.82-.261,1.626-.564,2.429-.875.658-.255,1.423-.658,1.456-1.362a1.247,1.247,0,0,0-.629-1.055,3.408,3.408,0,0,0-1.216-.4,31.437,31.437,0,0,0-13.457.449,7.717,7.717,0,0,0-2.958,1.28.923.923,0,0,0-.388.835" transform="translate(-100.788 -126.475)" fill="#f8a3a8"/>
        <path id="Path_921568" data-name="Path 921568" d="M236.469,518.982a.174.174,0,0,0,.181-.1,5.4,5.4,0,0,0,2.1-2.137c1.255-2.375.314-5.145-.358-6.584-.6-1.292-1.676-2.9-3.357-3.194a11.261,11.261,0,0,0-4.918.145c-.136.039-.264.082-.392.125a.183.183,0,0,0-.226.077,4.922,4.922,0,0,0-2.579,1.909,5.342,5.342,0,0,0-.695,2.934c0,.094,0,.191,0,.289a9.643,9.643,0,0,0,.916,4.059,6.071,6.071,0,0,0,2.955,2.925,6.69,6.69,0,0,0,2.952.475,8.036,8.036,0,0,0,3.417-.921m-6.246-11.5a10.879,10.879,0,0,1,4.747-.136c1.52.27,2.513,1.77,3.078,2.98a9.349,9.349,0,0,1,.938,3.8,5.181,5.181,0,0,1-.572,2.443,5.01,5.01,0,0,1-1.887,1.942c-2.293-3.563-4.5-7.243-6.563-10.947.086-.028.169-.056.258-.082m.03,11.6a5.692,5.692,0,0,1-2.764-2.744,9.261,9.261,0,0,1-.875-3.9,5.224,5.224,0,0,1,.632-3.009,4.538,4.538,0,0,1,2.351-1.739c2.074,3.725,4.292,7.426,6.6,11.009a7.67,7.67,0,0,1-3.157.824,6.316,6.316,0,0,1-2.784-.443" transform="translate(-70.583 -158.111)"/>
        <path id="Path_921569" data-name="Path 921569" d="M259.217,50.4c1.212-.092,2.436-.235,3.64-.426a.191.191,0,0,0,.155-.148,2.528,2.528,0,0,0,1.013-.8,4.824,4.824,0,0,0,.773-2.241,15.3,15.3,0,0,0-2.142-10.05c-.493-.788-1.467-2.021-2.753-2.07a.183.183,0,0,0-.1-.017,8.908,8.908,0,0,1-1.1.065,4.136,4.136,0,0,0-2.3.485,3.332,3.332,0,0,0-1.223,1.841,10.368,10.368,0,0,0-.448,2.4q-.048.6-.048,1.2a15.591,15.591,0,0,0,2.026,7.673,9.124,9.124,0,0,0,1.043,1.509,1.693,1.693,0,0,0,.674.521,1.871,1.871,0,0,0,.79.06m3.115-13.466a14.933,14.933,0,0,1,2.222,7.836,14.2,14.2,0,0,1-.134,1.959,4.491,4.491,0,0,1-.7,2.067,2.038,2.038,0,0,1-1.253.795,112.791,112.791,0,0,0-1.071-13.814,5.894,5.894,0,0,1,.938,1.157m-1.371-1.5h0A112.351,112.351,0,0,1,262.081,49.6a1.3,1.3,0,0,1-.161-.024,2.561,2.561,0,0,1-1.224-.943,12.11,12.11,0,0,1-1.605-2.354,19.152,19.152,0,0,1-1.454-7.771,5.442,5.442,0,0,1,.381-2.136,2.183,2.183,0,0,1,1.511-1.3,1.943,1.943,0,0,1,1.431.367m-2.4,14.55a1.359,1.359,0,0,1-.516-.413,8.765,8.765,0,0,1-1-1.447,15.176,15.176,0,0,1-1.928-8.657,10.044,10.044,0,0,1,.43-2.31,2.976,2.976,0,0,1,1.071-1.641,3.528,3.528,0,0,1,1.936-.418,2.849,2.849,0,0,0-.88,1.111,5.887,5.887,0,0,0-.416,2.284q-.005.232-.005.464a19.552,19.552,0,0,0,1.489,7.463,12.7,12.7,0,0,0,1.662,2.45,3.508,3.508,0,0,0,1.031.916c-.748.095-1.5.178-2.244.235a1.524,1.524,0,0,1-.631-.038" transform="translate(-79.462 -10.81)"/>
        <path id="Path_921570" data-name="Path 921570" d="M82.357,77.544,82.21,65.227a41.408,41.408,0,0,1,.368-7.532,12.917,12.917,0,0,1,1.655-4.68,13.425,13.425,0,0,1,6.885-5.106,18.32,18.32,0,0,1,10.766-.826,12.957,12.957,0,0,1,8.437,6.464,19.162,19.162,0,0,1,1.649,6.806,109.28,109.28,0,0,1,.1,16.611.571.571,0,0,1-.59.674,85.2,85.2,0,0,1-29.122-.095" transform="translate(-25.645 -14.544)" fill="#9d0388"/>
        <g id="Group_1115106" data-name="Group 1115106" transform="translate(79.004 33.558)" style="mix-blend-mode: multiply;isolation: isolate">
          <g id="Group_1115105" data-name="Group 1115105">
            <g id="Group_1115104" data-name="Group 1115104" clip-path="url(#clip-path-3)">
              <path id="Path_921571" data-name="Path 921571" d="M120.5,54.223a12.425,12.425,0,0,0-5.671-5.445,28.99,28.99,0,0,1,2.715,10.313,155.717,155.717,0,0,1,.545,19.729q1.788-.221,3.569-.506a.569.569,0,0,0,.59-.674,109.28,109.28,0,0,0-.1-16.611,19.162,19.162,0,0,0-1.65-6.806" transform="translate(-114.832 -48.777)" fill="#ee5952"/>
            </g>
          </g>
        </g>
        <path id="Path_921572" data-name="Path 921572" d="M108.184,63.573h-3.825V59.748h-7.3v3.825H93.238v7.3h3.824v3.825h7.3V70.87h3.825Z" transform="translate(-29.09 -18.642)" fill="#fff"/>
        <path id="Path_921573" data-name="Path 921573" d="M82.566,89.988l25.8-.385a6.361,6.361,0,0,1,4.055.859,3.142,3.142,0,0,1-.841,5.437,6.037,6.037,0,0,1-1.842.275c-1.915.077-3.831.078-5.748.079l-21.344.012a8.074,8.074,0,0,1-3.635-.562,2.765,2.765,0,0,1-1.623-3.01,3.033,3.033,0,0,1,1.2-1.534,6.818,6.818,0,0,1,3.979-1.17" transform="translate(-24.121 -27.955)" fill="#3f2532"/>
        <path id="Path_921574" data-name="Path 921574" d="M334.07,274.363a.382.382,0,0,1,.331.619c-2.835,3.558-5.778,7.108-8.746,10.551a.382.382,0,1,1-.579-.5c2.962-3.435,5.9-6.978,8.727-10.528a.379.379,0,0,1,.267-.143" transform="translate(-101.395 -85.602)"/>
        <path id="Path_921575" data-name="Path 921575" d="M377.322,216.473,346.4,252.336a3.564,3.564,0,0,1-3.093,1.567l-7.942.775q-1.518-4.656-2.624-9.435a1.8,1.8,0,0,1,.52-2.068q16.4-18.494,31.655-37.967a75.5,75.5,0,0,1,12.408,11.265" transform="translate(-103.779 -64.025)" fill="#c0dbf9"/>
        <path id="Path_921576" data-name="Path 921576" d="M392.986,206.489l14.275-17.066a46.509,46.509,0,0,0-9.889-8.308l-13.788,16.973a27.69,27.69,0,0,0,9.4,8.4" transform="translate(-119.679 -56.508)" fill="#ffa1f2"/>
        <path id="Path_921577" data-name="Path 921577" d="M365.345,224.52a.191.191,0,1,0,.255-.286,41.29,41.29,0,0,0-4.817-3.685.191.191,0,0,0-.209.32,40.927,40.927,0,0,1,4.772,3.651m-5.217,5.584a.191.191,0,1,0,.266-.275l-3.921-3.8a.192.192,0,0,0-.27,0,.192.192,0,0,0,0,.27ZM355,235.954a.191.191,0,1,0,.235-.3l-4.057-3.163a.192.192,0,0,0-.133-.04.194.194,0,0,0-.135.073.191.191,0,0,0,.033.268Zm-4.759,5.919a.191.191,0,0,0,.2-.325,22.9,22.9,0,0,1-4.109-3.286.191.191,0,1,0-.272.269,23.281,23.281,0,0,0,4.178,3.342m-9.905,2.561,4.052,3.333a.191.191,0,0,0,.243-.3l-4.052-3.332a.192.192,0,0,0-.269.026.192.192,0,0,0,.026.269" transform="translate(-106.165 -68.802)"/>
        <g id="Group_1115109" data-name="Group 1115109" transform="translate(263.906 124.607)" style="mix-blend-mode: multiply;isolation: isolate">
          <g id="Group_1115108" data-name="Group 1115108">
            <g id="Group_1115107" data-name="Group 1115107" clip-path="url(#clip-path-4)">
              <path id="Path_921578" data-name="Path 921578" d="M401.294,183.863a46.326,46.326,0,0,0-3.922-2.747l-13.788,16.972a31.131,31.131,0,0,0,3.408,3.973q7.429-8.875,14.3-18.2" transform="translate(-383.585 -181.115)" fill="#9d0388"/>
            </g>
          </g>
        </g>
        <path id="Path_921579" data-name="Path 921579" d="M394.473,180.684q4.989,4.286,10.028,8.513a15.6,15.6,0,0,0,1.349.956,1.5,1.5,0,0,0,1.605.2,1.254,1.254,0,0,0,.327-1.51,3.669,3.669,0,0,0-1.077-1.264l-4.224-3.641-3.606-3.108a18.351,18.351,0,0,0-3.766-2.727,1.553,1.553,0,0,0-1.19-.2,1.155,1.155,0,0,0-.529,1.465,3.355,3.355,0,0,0,1.084,1.318M377.9,196.3q6.421,6.512,13.43,12.406c.639.537,1.606,1.075,2.224.515a1.206,1.206,0,0,0,.12-1.452,4.6,4.6,0,0,0-.851-1.115l-12.827-11.514a3.2,3.2,0,0,0-1.417-.879,1.106,1.106,0,0,0-1.329.727,1.624,1.624,0,0,0,.649,1.312" transform="translate(-117.698 -55.488)" fill="#3f2532"/>
        <path id="Path_921580" data-name="Path 921580" d="M337.049,497.054l-15.955,18.134a23.3,23.3,0,0,1-5.8,5.258c-2.289,1.28-5.226,1.718-7.519.444a7.752,7.752,0,0,1-3.395-4.5,8.532,8.532,0,0,1-.373-3.985,12.994,12.994,0,0,1,2.848-5.488c4.047-5.345,8.517-10.354,12.98-15.355a44.247,44.247,0,0,1,5.154-5.171c2.21-1.775,5.031-3.163,7.808-2.594a7.376,7.376,0,0,1,3.172,1.575,8.538,8.538,0,0,1,3.085,5.737,8.2,8.2,0,0,1-2,5.94" transform="translate(-94.821 -150.907)" fill="#fff"/>
        <path id="Path_921581" data-name="Path 921581" d="M304.378,516.4a8.325,8.325,0,0,0,2.456,3.835c-1.42-3.765.563-8.556,3.656-12.641s11.222-13.677,16.6-18.352c5.359-4.66,8.6-4.07,8.616-4.066A7.259,7.259,0,0,0,332.8,483.8c-2.777-.569-5.6.819-7.809,2.594a44.241,44.241,0,0,0-5.154,5.171c-4.464,5-8.934,10.01-12.98,15.355a12.994,12.994,0,0,0-2.848,5.488,8.542,8.542,0,0,0,.372,3.985" transform="translate(-94.821 -150.907)" fill="#c0dbf9"/>
        <path id="Path_921582" data-name="Path 921582" d="M307.773,526.81c2.293,1.274,5.23.837,7.52-.444a23.291,23.291,0,0,0,5.8-5.258l7.429-8.444a24.23,24.23,0,0,0-5.506-6.66,14.841,14.841,0,0,0-7.755-3.359c-2.9,3.317-5.748,6.683-8.407,10.2a12.985,12.985,0,0,0-2.848,5.489,8.521,8.521,0,0,0,.372,3.984,7.755,7.755,0,0,0,3.395,4.5" transform="translate(-94.821 -156.826)" fill="#9d0388"/>
        <g id="Group_1115112" data-name="Group 1115112" transform="translate(209.09 345.819)" style="mix-blend-mode: multiply;isolation: isolate">
          <g id="Group_1115111" data-name="Group 1115111">
            <g id="Group_1115110" data-name="Group 1115110" clip-path="url(#clip-path-5)">
              <path id="Path_921583" data-name="Path 921583" d="M304.7,523.162q.074.175.155.347.072.153.151.3c.041.078.084.156.127.233.068.122.136.244.21.362l.021.032a7.352,7.352,0,0,0,1.47,1.709h0c-1.42-3.765.562-8.555,3.656-12.641,1.7-2.244,4.912-6.141,8.352-9.975a13.246,13.246,0,0,0-3.581-.889q-2.073,2.368-4.091,4.782c-.159.191-.316.383-.474.574q-.737.893-1.461,1.8c-.177.221-.355.441-.531.663q-.937,1.182-1.851,2.382a12.985,12.985,0,0,0-2.848,5.489,8.521,8.521,0,0,0,.372,3.984c.066.206.142.41.221.612.032.079.066.157.1.235" transform="translate(-303.911 -502.646)" fill="#ee5952"/>
            </g>
          </g>
        </g>
        <path id="Path_921584" data-name="Path 921584" d="M40.012,417.511l17.666,10.818c2.788,1.708,5.773,3.65,6.844,6.74a6.856,6.856,0,0,1-.813,6.107,6.2,6.2,0,0,1-5.532,2.586,10.847,10.847,0,0,1-3.7-1.282A162.6,162.6,0,0,1,36.558,431.52c-1.294-.87-2.59-1.742-3.8-2.723a9.779,9.779,0,0,1-2.137-2.224,6.563,6.563,0,0,1,1.254-8.183,7.237,7.237,0,0,1,8.14-.879" transform="translate(-9.268 -129.992)" fill="#ebf7fa"/>
        <path id="Path_921585" data-name="Path 921585" d="M55,439.888c-4.546-2.933-18.7-11.673-21.262-13.979-2.519-2.269-1.79-6.776-1.584-7.059-.1.075-.193.149-.285.23a6.564,6.564,0,0,0-1.254,8.183,9.765,9.765,0,0,0,2.137,2.224c1.213.981,2.509,1.853,3.8,2.724a162.543,162.543,0,0,0,17.916,10.96,10.835,10.835,0,0,0,3.7,1.282,6.2,6.2,0,0,0,5.532-2.586A12.226,12.226,0,0,1,55,439.888" transform="translate(-9.268 -130.682)" fill="#c0dbf9"/>
        <path id="Path_921586" data-name="Path 921586" d="M43.535,436.138a12.3,12.3,0,0,1,1.13-6.869,10.942,10.942,0,0,1,2.254-3.487,5.669,5.669,0,0,1,3.706-1.712l.01-.054-10.623-6.505a7.237,7.237,0,0,0-8.14.878,6.563,6.563,0,0,0-1.254,8.184,9.793,9.793,0,0,0,2.137,2.224c1.212.981,2.508,1.853,3.8,2.723,2.312,1.556,4.629,3.112,6.974,4.621Z" transform="translate(-9.268 -129.992)" fill="#9d0388"/>
        <g id="Group_1115115" data-name="Group 1115115" transform="translate(20.436 288.167)" style="mix-blend-mode: multiply;isolation: isolate">
          <g id="Group_1115114" data-name="Group 1115114">
            <g id="Group_1115113" data-name="Group 1115113" clip-path="url(#clip-path-6)">
              <path id="Path_921587" data-name="Path 921587" d="M43.535,436.828a10.42,10.42,0,0,1,.194-4.1,120.2,120.2,0,0,1-9.988-6.82c-2.519-2.269-1.79-6.776-1.584-7.059-.1.076-.193.149-.285.23a6.563,6.563,0,0,0-1.254,8.184,9.793,9.793,0,0,0,2.137,2.224c1.212.981,2.508,1.853,3.8,2.723,2.312,1.556,4.629,3.112,6.974,4.621Z" transform="translate(-29.704 -418.849)" fill="#ee5952"/>
            </g>
          </g>
        </g>
        <path id="Path_921588" data-name="Path 921588" d="M299.914,116.317,317.6,137.734c1.558,1.887,3.221,3.851,5.509,4.72a7.574,7.574,0,0,0,8.164-2.116,8.207,8.207,0,0,0,1.267-8.422,17.169,17.169,0,0,0-3.187-4.472q-8.226-9.289-15.949-19.009a15.417,15.417,0,0,0-3.082-3.2,7.841,7.841,0,0,0-10.011,1.189c-2.437,2.753-2.469,7.384-.4,9.895" transform="translate(-93.107 -32.432)" fill="#ebf7fa"/>
        <path id="Path_921589" data-name="Path 921589" d="M317.6,138.423c1.558,1.887,3.221,3.851,5.509,4.72a7.507,7.507,0,0,0,6.506-.72c-.034,0-3.315.327-7.907-4.848-4.618-5.2-17.3-21.157-18.645-23.554s-2.59-5.8-1.706-7.866a6.873,6.873,0,0,0-1.046.955c-2.437,2.753-2.469,7.384-.4,9.895L317.6,138.423" transform="translate(-93.107 -33.121)" fill="#c0dbf9"/>
        <path id="Path_921590" data-name="Path 921590" d="M317.193,125.045a10.792,10.792,0,0,0,3.583-7.572q-3.741-4.474-7.373-9.038a15.434,15.434,0,0,0-3.082-3.2,7.842,7.842,0,0,0-10.011,1.189c-2.437,2.753-2.469,7.384-.4,9.895l9.384,11.364a10.79,10.79,0,0,0,7.895-2.636" transform="translate(-93.107 -32.432)" fill="#fcab00"/>
        <g id="Group_1115118" data-name="Group 1115118" transform="translate(205.31 73.035)" style="mix-blend-mode: multiply;isolation: isolate">
          <g id="Group_1115117" data-name="Group 1115117">
            <g id="Group_1115116" data-name="Group 1115116" clip-path="url(#clip-path-7)">
              <path id="Path_921591" data-name="Path 921591" d="M313.6,127.81c-4.8-5.973-9.73-12.344-10.541-13.788-1.344-2.4-2.59-5.8-1.706-7.866q-.278.206-.535.44l-.012.01a6.508,6.508,0,0,0-.5.5c-2.438,2.753-2.47,7.384-.4,9.895L309.3,128.37a10.73,10.73,0,0,0,4.3-.56" transform="translate(-298.417 -106.156)" fill="#fcab00"/>
            </g>
          </g>
        </g>
        <path id="Path_921592" data-name="Path 921592" d="M102.154,280.335a7.263,7.263,0,0,1-1-2.806q-5.087-24.322-10.167-48.64c-.31-1.487-.623-2.974-.925-4.458-6.924,12.828-12.916,26.683-12.564,41.208a27.631,27.631,0,0,0,2.056,10.575c2.715,6.106,8.58,10.438,14.969,12.395a25.007,25.007,0,0,0,13.236.581,19.444,19.444,0,0,0,7.111-3.38q-4.5-1.588-9-3.207a7.316,7.316,0,0,1-3.72-2.268M135.29,201.6q-2.942,1.566-5.781,3.334a75.624,75.624,0,0,0-18.589,15.955l7.57,1.583a8.831,8.831,0,0,1,3.613,1.33,3.433,3.433,0,0,1,1.338,2.222q6.876,1.767,13.673,3.816,2.116-5.414,4.312-10.793a93.509,93.509,0,0,1,7.077-14.533,43.862,43.862,0,0,1,3.005-4.217c.711-.879,1.464-1.736,2.087-2.68a14.451,14.451,0,0,0,1.434-2.868c-6.924.845-13.558,3.56-19.74,6.852m94.1,27.023a65.36,65.36,0,0,0-12.4-14.414,68.234,68.234,0,0,0-25.609-14.016c-2.206,3.98-4.412,7.964-6.527,11.994a188.053,188.053,0,0,0-8.308,17.717,93.852,93.852,0,0,0-6.909,28.495c-.218-.08-.44-.157-.662-.233q-1.4,1.7-2.7,3.487a76.883,76.883,0,0,0-9.975,18.573q-.929,2.489-1.678,5.043c2.733,1.728,5.49,3.391,8.277,4.963a110.8,110.8,0,0,0,19.06,8.683c9.611,3.227,19.927,4.764,29.955,3.276a31.994,31.994,0,0,0,11.1-3.521c8.308-4.683,12.954-14.066,14.919-23.4a63.879,63.879,0,0,0-8.545-46.645" transform="translate(-24.175 -60.761)" fill="#fff"/>
        <path id="Path_921593" data-name="Path 921593" d="M194.163,326.814q-6.876-.924-13.688-2.244-1.169-6.331-2.8-12.568c.891.173,1.774.367,2.646.616a14.936,14.936,0,0,1,7.241,4.191q-.929,2.489-1.678,5.043c2.733,1.728,5.49,3.391,8.277,4.963" transform="translate(-55.436 -97.345)" fill="#00cdcc"/>
        <path id="Path_921594" data-name="Path 921594" d="M211.9,216.612a188.051,188.051,0,0,0-8.308,17.717,93.871,93.871,0,0,0-6.909,28.5c-.217-.081-.44-.157-.661-.233q-1.4,1.7-2.7,3.487a52.006,52.006,0,0,1-7.245-2.673c-5.6-2.7-10.553-7.375-16.578-8.339q-1.875-10.162-3.751-20.321c-.528-.161-1.059-.325-1.591-.482q2.117-5.414,4.313-10.793a93.538,93.538,0,0,1,7.077-14.533c1.4,3.41,3.43,6.667,6.6,8.476a19.759,19.759,0,0,0,7.019,2.023,47.148,47.148,0,0,0,13.577.332,24.723,24.723,0,0,0,9.153-3.158" transform="translate(-51.217 -65.189)" fill="#00cdcc"/>
        <path id="Path_921595" data-name="Path 921595" d="M95.434,235.722c-.222-1.051-.436-2.1-.65-3.154a1.524,1.524,0,0,1,.1-1.219,1.469,1.469,0,0,1,1.193-.409c.363-.008.727,0,1.09.012a38.8,38.8,0,0,1,5.127.649c1.353.237,2.7.478,4.053.734q11.315,2.11,22.473,4.978,6.876,1.766,13.672,3.816c.532.157,1.063.321,1.591.482q1.875,10.162,3.751,20.321l1.17,6.328c-6.538.374-13.045-1.377-19.594-1.9a1.387,1.387,0,0,0-.8.1c-.673.371-.332,1.415.176,1.988.084.091.168.184.256.271-.631.291-1.22.723-1.25,1.384a1.814,1.814,0,0,0,.344,1,6.26,6.26,0,0,0,.7.906,2.442,2.442,0,0,0-.872,1.426,2.835,2.835,0,0,0,.963,2.172c.233.252.474.5.727.73a3.075,3.075,0,0,0,.371,2.944,7.494,7.494,0,0,0,2.887,2.2,44.115,44.115,0,0,0,11.909,4.091c2.313.44,4.665.7,6.97,1.136q1.623,6.233,2.8,12.567.716,3.848,1.262,7.723a1.94,1.94,0,0,1-.058,1.1c-.4.863-1.655.7-2.557.4q-16.546-5.562-32.992-11.393-4.5-1.588-9-3.207a5.508,5.508,0,0,1-4.722-5.074q-5.087-24.322-10.166-48.64c-.31-1.487-.623-2.975-.925-4.458" transform="translate(-29.548 -72.052)" fill="#3f2532"/>
        <path id="Path_921596" data-name="Path 921596" d="M121.571,232.051l7.57,1.583a8.837,8.837,0,0,1,3.613,1.33,3.436,3.436,0,0,1,1.338,2.222q-11.149-2.867-22.473-4.978a1.743,1.743,0,0,1,.875-1.4,4.281,4.281,0,0,1,2.826-.061l.815.172,5.437,1.136" transform="translate(-34.825 -71.927)" fill="#c0dbf9"/>
        <path id="Path_921597" data-name="Path 921597" d="M191.167,92.444a27.748,27.748,0,0,0-15.1-.057,20.974,20.974,0,0,0-12.086,9.118,34.994,34.994,0,0,0-3.376,9.214c-1.17,4.569-2.233,9.165-3.3,13.761a37.085,37.085,0,0,0-1.319,9.019,18.909,18.909,0,0,0,8.8,15.435,27.722,27.722,0,0,0,10.541,3.468,31.741,31.741,0,0,1-1.377,5.353c-6.924.845-13.558,3.56-19.74,6.851q-2.941,1.566-5.781,3.334c-8.109-7.2-12.747-19-8.932-29.107,3.032-8.025,10.621-13.637,13.776-21.617,2.114-5.357,2.041-11.313,3.468-16.9a32.134,32.134,0,0,1,43.433-21.732,4.722,4.722,0,0,0,1.923.512,4.932,4.932,0,0,0,2.011-.727c6.213-3.181,14-2.538,20.069.91s10.453,9.443,12.77,16.028c1.923,5.468,2.535,11.4,5.142,16.586,1.973,3.915,4.989,7.2,7.287,10.931,5.731,9.31,6.634,21.219,3.227,31.607a47.69,47.69,0,0,1-16.692,22.78A68.23,68.23,0,0,0,210.311,163.2l-.085-.023a102.651,102.651,0,0,1-1.165-27.062c3.544.845,7.39,1.357,10.728-.1s5.735-5.563,4.179-8.855a7.043,7.043,0,0,0-2.489-2.738,10.869,10.869,0,0,0-13.913,1.935,15.587,15.587,0,0,0-2.111-10.621c-3.418-5.521-10.082-8.568-12.98-14.38a13.6,13.6,0,0,1-1.112-8.855c-.061-.016-.118-.034-.18-.05,0,0-.008,0-.015,0" transform="translate(-43.103 -23.77)" fill="#3f2532"/>
        <path id="Path_921598" data-name="Path 921598" d="M84.352,204.473q-1.778,2.6-3.545,5.227-.286,1.915-.58,3.831c1.207-.81,2.416-1.617,3.437-2.416.967-1.1,1.878-2.256,2.746-3.434l-.127-.149a10.625,10.625,0,0,1-1.931-3.059M103.3,178.3q-2.753,3.561-5.449,7.192-1.175,1.583-2.339,3.177a12.837,12.837,0,0,1,2.352,2.8c.718-.918,1.437-1.836,2.14-2.764.087-.118.175-.233.264-.352,2.084-2.784,4.008-5.681,6.067-8.511A27.19,27.19,0,0,0,103.3,178.3" transform="translate(-25.031 -55.631)" fill="#00cdcc"/>
        <path id="Path_921599" data-name="Path 921599" d="M145.053,220.533q.585,3.165,1.17,6.328c-6.538.374-13.044-1.377-19.595-1.9a1.382,1.382,0,0,0-.8.1c-.674.371-.334,1.415.175,1.988.084.091.169.184.256.272-.631.29-1.22.722-1.25,1.384a1.814,1.814,0,0,0,.344,1,6.181,6.181,0,0,0,.7.906,2.442,2.442,0,0,0-.872,1.426,2.838,2.838,0,0,0,.964,2.172c.234.252.474.5.727.73a3.075,3.075,0,0,0,.371,2.944,7.5,7.5,0,0,0,2.886,2.2,44.12,44.12,0,0,0,11.91,4.091c2.313.44,4.665.7,6.97,1.136.891.172,1.774.367,2.645.615a14.947,14.947,0,0,1,7.242,4.191,76.9,76.9,0,0,1,9.975-18.574,52.037,52.037,0,0,1-7.245-2.672c-5.6-2.7-10.552-7.375-16.578-8.339m-38.569-41.579c.215-1.636.734-3.215,1-4.844a7.582,7.582,0,0,0-.547-4.828c-.821-1.5-2.347-2.451-3.567-3.648a14.782,14.782,0,0,1-1.617-1.9c-.7.929-1.423,1.847-2.141,2.764a12.8,12.8,0,0,0-2.352-2.8q1.164-1.594,2.34-3.177c-.283-.421-.572-.834-.879-1.235-.577-.757-1.411-1.545-2.34-1.342a1.96,1.96,0,0,0-1.258,1.124,3.488,3.488,0,0,0,.042,3.085,3.2,3.2,0,0,0-.81-.275,1.963,1.963,0,0,0-2,.715,2.788,2.788,0,0,0,.305,2.746c.12.217.238.432.367.646l-.245.145c-1.066-.581-2.466.31-2.833,1.468a5.237,5.237,0,0,0,.383,3.379l-.157.061a3.2,3.2,0,0,0-2.442,1.56,3.122,3.122,0,0,0-.058,2.324l-.191.027a3.449,3.449,0,0,0-1.594,3.789,5.169,5.169,0,0,0,.211.761,10.572,10.572,0,0,0,1.931,3.059l.126.149a9.787,9.787,0,0,0,3.541,2.959,1.9,1.9,0,0,0,2.022-.1l.042-.042c.149,1.311.4,2.914.634,3.973l0,.054a38.841,38.841,0,0,1,5.127.649c1.353.237,2.7.478,4.052.734a1.743,1.743,0,0,1,.876-1.4,4.279,4.279,0,0,1,2.826-.061l.814.172c-.424-3.082-2-7.624-1.6-10.69m101.154-44.912a7.048,7.048,0,0,0-2.489-2.738,10.869,10.869,0,0,0-13.913,1.935,15.587,15.587,0,0,0-2.111-10.621c-3.418-5.52-10.082-8.568-12.98-14.379a13.6,13.6,0,0,1-1.112-8.855c-.061-.015-.118-.034-.18-.05-.015.008-.03.012-.046.019.012-.008.019-.016.031-.023a27.748,27.748,0,0,0-15.1-.057,20.968,20.968,0,0,0-12.085,9.119,34.962,34.962,0,0,0-3.377,9.214c-1.17,4.568-2.233,9.164-3.3,13.76a37.086,37.086,0,0,0-1.319,9.019,18.914,18.914,0,0,0,8.8,15.435,27.728,27.728,0,0,0,10.542,3.468,31.776,31.776,0,0,1-1.377,5.353,14.451,14.451,0,0,1-1.434,2.868c-.623.945-1.377,1.8-2.087,2.68A43.861,43.861,0,0,0,151.1,174.4c1.4,3.41,3.43,6.668,6.6,8.476a19.753,19.753,0,0,0,7.02,2.023,47.148,47.148,0,0,0,13.577.333,24.741,24.741,0,0,0,9.153-3.159c2.114-4.03,4.32-8.013,6.526-11.993l-.085-.023A102.649,102.649,0,0,1,192.731,143c3.544.846,7.39,1.357,10.728-.1s5.735-5.562,4.179-8.855" transform="translate(-26.773 -30.655)" fill="#fbb4b8"/>
        <g id="Group_1115121" data-name="Group 1115121" transform="translate(53.307 143.131)" style="mix-blend-mode: multiply;isolation: isolate">
          <g id="Group_1115120" data-name="Group 1115120">
            <g id="Group_1115119" data-name="Group 1115119" clip-path="url(#clip-path-8)">
              <path id="Path_921600" data-name="Path 921600" d="M104.374,286.166C86.9,289.916,80,275.349,77.508,266.946c-.031.944-.034,1.893-.012,2.841a27.629,27.629,0,0,0,2.057,10.575c2.714,6.106,8.579,10.438,14.968,12.395a25,25,0,0,0,13.236.581,19.444,19.444,0,0,0,7.111-3.38q-4.5-1.588-9-3.207c-.5-.18-1.009-.363-1.5-.585m95.652,13.779c-21.942-3.587-36.708-16.609-41.361-21.235-.86,1.854-1.652,3.747-2.363,5.662q-.93,2.489-1.679,5.043c2.733,1.728,5.49,3.391,8.277,4.963a110.821,110.821,0,0,0,19.06,8.683c9.612,3.227,19.927,4.764,29.955,3.276a32,32,0,0,0,11.1-3.521A27.93,27.93,0,0,0,233.8,291.17a42.113,42.113,0,0,1-33.775,8.775m-13.867-30.178q1.164.493,2.347.96a49.654,49.654,0,0,0,8.109,2.462,173.935,173.935,0,0,0,6.094-17.545c-.253.588-6.267,14.429-16.551,14.123m-.832-14.539-6.852,11.04,1.624.753a11.3,11.3,0,0,0,1.527-1.744l4.4-5.985a8.234,8.234,0,0,0,1.663-9.122q-.834-3.107-1.668-6.215a2.837,2.837,0,0,1,1.343-3.867l8.033-5.809a4.194,4.194,0,0,0,1.51-1.562,4.127,4.127,0,0,0,.135-2.156c-.656-5.545-1.652-11.051-2.652-16.8l.846,17.6a3.444,3.444,0,0,1-.16,1.54,3.383,3.383,0,0,1-1.388,1.362,69,69,0,0,1-7.905,4.413,2.387,2.387,0,0,0-.971.676,2.177,2.177,0,0,0-.3,1.21c-.125,3.459,1.015,6.819,1.694,10.213a6.036,6.036,0,0,1,.14,2.247,6.547,6.547,0,0,1-1.016,2.214m-51.815-35.146L143.6,208.04c-3.881,3.366-7.841,6.98-11.731,10.667a2.109,2.109,0,0,0-.671,2.8l1.031,3.19a8.79,8.79,0,0,1,.571,2.74c-.013,1.677-.968,3.175-1.553,4.755l.654.151L134,229.4a2.438,2.438,0,0,0,.394-2.74q-.666-2.278-1.332-4.555a1.7,1.7,0,0,1,.448-2.023" transform="translate(-77.482 -208.04)" fill="#c0dbf9"/>
            </g>
          </g>
        </g>
        <g id="Group_1115124" data-name="Group 1115124" transform="translate(130.007 102.602)" style="mix-blend-mode: multiply;isolation: isolate">
          <g id="Group_1115123" data-name="Group 1115123">
            <g id="Group_1115122" data-name="Group 1115122" clip-path="url(#clip-path-9)">
              <path id="Path_921601" data-name="Path 921601" d="M206.269,174.978a35.1,35.1,0,0,1-13.1.451c-.658-.08-1.319-.164-1.977-.268a31.677,31.677,0,0,1-1.377,5.353,15.677,15.677,0,0,1-.848,1.881,32.615,32.615,0,0,0,16.329-2.531,20.288,20.288,0,0,0,10.694-11.344,17,17,0,0,1-9.719,6.458m30.051-23.73a3.613,3.613,0,0,0-2.292-1.913,6.568,6.568,0,0,0-7.4,3.426,1.182,1.182,0,0,0,.645.363,1.477,1.477,0,0,0,.847-.29,17.605,17.605,0,0,1,2.269-1.3,3.6,3.6,0,0,1,2.552-.2,7.394,7.394,0,0,1,1.86,1.236,1.326,1.326,0,0,0,1.068.356.9.9,0,0,0,.608-.713,1.663,1.663,0,0,0-.153-.962" transform="translate(-188.964 -149.132)" fill="#f8a3a8"/>
            </g>
          </g>
        </g>
        <path id="Path_921602" data-name="Path 921602" d="M182.056,128.878a1.758,1.758,0,0,0-1.384.012,3.965,3.965,0,0,0-2.559,3.731,2.351,2.351,0,0,0,.175.89,1.7,1.7,0,0,0,2.5.731,4.732,4.732,0,0,0,2.04-3.657,1.829,1.829,0,0,0-.773-1.706m20.872,3.037a1.758,1.758,0,0,0-1.382.066,3.966,3.966,0,0,0-2.41,3.829,2.385,2.385,0,0,0,.209.883,1.7,1.7,0,0,0,2.528.631,4.733,4.733,0,0,0,1.895-3.734,1.83,1.83,0,0,0-.84-1.675" transform="translate(-55.571 -40.167)"/>
        <path id="Path_921603" data-name="Path 921603" d="M185.351,115.027a6.963,6.963,0,0,0-2.763-.612,12.594,12.594,0,0,0-2.929.216,4.465,4.465,0,0,0-1.815.689,1.982,1.982,0,0,0-.876,1.659.63.63,0,0,0,.134.387.729.729,0,0,0,.61.158,19.682,19.682,0,0,0,2.48-.585,6.451,6.451,0,0,1,4.773.877c.708.455,1.443,1.082,2.272.938a2.333,2.333,0,0,0,.028-1.711,3.713,3.713,0,0,0-1.914-2.014m23.627,7.074c-.069-1.8-1.672-3.2-3.355-3.844a8.8,8.8,0,0,0-6.813.219,2.529,2.529,0,0,0-.985.711,1.074,1.074,0,0,0-.136,1.15c.205.354.759.484.9.316,2.072-.554,4.4-.755,6.259.321.881.51,1.588,1.271,2.414,1.867.391.282.926.529,1.332.269a1.112,1.112,0,0,0,.388-1.009" transform="translate(-55.214 -35.694)" fill="#3f2532"/>
        <path id="Path_921604" data-name="Path 921604" d="M152.469,246.087c-.78-.223-1.626-.42-2.663-.62-1.161-.222-2.352-.4-3.5-.572s-2.319-.346-3.467-.564a43.809,43.809,0,0,1-11.858-4.073,7.379,7.379,0,0,1-2.817-2.141,2.958,2.958,0,0,1-.445-2.51,17.871,17.871,0,0,0,6.226,3.428,27.2,27.2,0,0,0,4.574,1.1l.029,0a.191.191,0,0,0,.028-.38,26.845,26.845,0,0,1-4.51-1.09,17.255,17.255,0,0,1-6.3-3.53c-.235-.217-.469-.453-.716-.72a2.59,2.59,0,0,1-.914-2.017,2.08,2.08,0,0,1,.681-1.184,12.368,12.368,0,0,0,1.893,1.535,26.954,26.954,0,0,0,11.287,4.344h.027a.191.191,0,0,0,.026-.38,26.569,26.569,0,0,1-11.126-4.281,11.48,11.48,0,0,1-1.967-1.616,6.089,6.089,0,0,1-.682-.879,1.59,1.59,0,0,1-.314-.89c.021-.451.36-.832,1.026-1.162a13.2,13.2,0,0,0,4.01,2.468,44.071,44.071,0,0,0,11.5,3.268h.028a.191.191,0,0,0,.026-.38,43.671,43.671,0,0,1-11.4-3.24,12.578,12.578,0,0,1-3.994-2.483c-.084-.084-.164-.171-.248-.263a1.812,1.812,0,0,1-.491-1.312.507.507,0,0,1,.266-.382,1.228,1.228,0,0,1,.69-.072c2.4.191,4.837.554,7.194.9a61.242,61.242,0,0,0,12.423.993c.388-.017.767-.049,1.119-.081a.191.191,0,0,0,.173-.208.2.2,0,0,0-.208-.173c-.347.032-.72.064-1.1.081a61.046,61.046,0,0,1-12.348-.99c-2.363-.352-4.807-.715-7.219-.906a1.542,1.542,0,0,0-.907.118.891.891,0,0,0-.458.651,2.2,2.2,0,0,0,.59,1.64l.077.082a1.784,1.784,0,0,0-1.127,1.432,2.028,2.028,0,0,0,.374,1.11,6.429,6.429,0,0,0,.6.79,2.508,2.508,0,0,0-.8,1.415,2.932,2.932,0,0,0,1.012,2.327c.222.24.433.452.645.652a3.3,3.3,0,0,0,.436,3A7.7,7.7,0,0,0,130.8,240.6a44.193,44.193,0,0,0,11.962,4.108c1.155.22,2.338.4,3.481.567s2.335.349,3.488.569c1.025.2,1.86.392,2.63.612a14.726,14.726,0,0,1,7.15,4.133.189.189,0,0,0,.143.065.191.191,0,0,0,.144-.317,15.1,15.1,0,0,0-7.333-4.248m-51.94-79.35a13,13,0,0,0-2.386-2.841c-.291-.265-.606-.53-.936-.789a6.691,6.691,0,0,0-1.2-.786,3.393,3.393,0,0,0-.859-.292.191.191,0,1,0-.071.376,3.013,3.013,0,0,1,.764.26,6.367,6.367,0,0,1,1.134.742c.323.253.63.513.915.771a12.613,12.613,0,0,1,2.316,2.757,9.722,9.722,0,0,1,.9,1.912c.27.795.552,1.917-.124,2.5-.758.654-1.977.058-2.333-.141-.031-.017-.058-.034-.094-.056a7.752,7.752,0,0,1-.99-.673,11.925,11.925,0,0,1-1.265-1.155c-.387-.4-.764-.836-1.119-1.287a15.971,15.971,0,0,1-1.239-1.809.191.191,0,1,0-.33.193,16.349,16.349,0,0,0,1.269,1.853c.363.46.748.9,1.143,1.313a12.3,12.3,0,0,0,1.3,1.191,8.061,8.061,0,0,0,.9.617.187.187,0,0,0,.017.078,9.223,9.223,0,0,1,.817,4.645c-.048.575-.268,1.953-1.266,2.334a1.783,1.783,0,0,1-1.426-.133,4.586,4.586,0,0,1-1.121-.781,13.047,13.047,0,0,1-1.417-1.552,16.716,16.716,0,0,1-1.935-3.245c-.206-.44-.4-.885-.569-1.324-.021-.054-.043-.107-.061-.161a.191.191,0,1,0-.363.12c.02.061.045.122.068.181.173.445.368.9.578,1.345a17.077,17.077,0,0,0,1.98,3.318,13.334,13.334,0,0,0,1.46,1.6,5.16,5.16,0,0,0,1.128.8,5.776,5.776,0,0,1,.442,2.147,1.6,1.6,0,0,1-.371,1.227,1.16,1.16,0,0,1-1.146.187,3.645,3.645,0,0,1-.982-.431,13.79,13.79,0,0,1-4.856-5.178c-.035-.063-.068-.127-.1-.191l-.036-.068a7.593,7.593,0,0,1-.459-1.108.191.191,0,0,0-.365.114,7.866,7.866,0,0,0,.484,1.168l.036.07c.035.067.071.136.106.2a14.163,14.163,0,0,0,4.989,5.319,4.015,4.015,0,0,0,1.088.477,2.178,2.178,0,0,0,.551.076,1.351,1.351,0,0,0,.951-.354,1.948,1.948,0,0,0,.493-1.51,6.165,6.165,0,0,0-.345-1.946,2.262,2.262,0,0,0,.676.114,1.831,1.831,0,0,0,.659-.12c1.157-.442,1.443-1.856,1.509-2.659a9.6,9.6,0,0,0-.695-4.471,3.23,3.23,0,0,0,1.355.347,1.7,1.7,0,0,0,1.132-.389c.85-.733.542-2.014.236-2.913a10.12,10.12,0,0,0-.939-1.988m112.294,72.43a.19.19,0,0,0-.233-.136,27.509,27.509,0,0,1-12.355.1,175.139,175.139,0,0,0,6.864-20.392.191.191,0,0,0-.369-.1,174.807,174.807,0,0,1-6.877,20.414,49.218,49.218,0,0,1-7.922-2.419c-2.842-1.115-5.66-2.429-8.385-3.7-3.393-1.582-6.9-3.217-10.486-4.484-.205-.076-.413-.147-.622-.219l-.043-.014a.191.191,0,1,0-.125.361l.043.015c.206.071.412.142.617.217,3.571,1.262,7.071,2.893,10.455,4.471,2.731,1.273,5.554,2.59,8.407,3.708a49.335,49.335,0,0,0,8.14,2.472,32.766,32.766,0,0,0,6.56.7,24.353,24.353,0,0,0,6.194-.764.191.191,0,0,0,.136-.233M175.55,99.946a13.722,13.722,0,0,0,1.181,8.72c1.56,3.129,4.236,5.5,6.823,7.785a31.327,31.327,0,0,1,6.166,6.61,15.448,15.448,0,0,1,2.084,10.49.191.191,0,0,0,.158.219.169.169,0,0,0,.032,0,.192.192,0,0,0,.189-.16,15.836,15.836,0,0,0-2.137-10.753,31.607,31.607,0,0,0-6.237-6.695c-2.56-2.265-5.207-4.606-6.735-7.669a13.336,13.336,0,0,1-1.1-8.729.2.2,0,0,0,0-.029l.039-.016a.191.191,0,1,0-.131-.358c-.085.031-.168.065-.251.1a.187.187,0,0,0-.114.028l-.031.023-.007,0-.008.006-.007,0a20.532,20.532,0,0,0-10.239,9.218.191.191,0,0,0,.338.18,20.179,20.179,0,0,1,8.711-8.438,15.551,15.551,0,0,0-5.179,10.716.191.191,0,0,0,.181.2h.01a.192.192,0,0,0,.191-.182,15.358,15.358,0,0,1,6.07-11.279m-19.005,35.271a.191.191,0,0,0,.153.076.188.188,0,0,0,.114-.039.19.19,0,0,0,.039-.267l-1.457-1.943a1.393,1.393,0,0,1-.37-.78c0-.376.364-.7.654-.954a17.8,17.8,0,0,0,3.861-4.86.191.191,0,1,0-.336-.182,17.432,17.432,0,0,1-3.778,4.756,1.817,1.817,0,0,0-.784,1.237,1.743,1.743,0,0,0,.447,1.012Zm7.574,6.2a.191.191,0,0,0-.258.08,3.775,3.775,0,0,1-2.224,1.741,7.724,7.724,0,0,1-2.944.253,8.765,8.765,0,0,1-3.86-1.046,4.56,4.56,0,0,1-2.279-3.076.191.191,0,0,0-.378.061,4.944,4.944,0,0,0,2.463,3.345,9.123,9.123,0,0,0,4.027,1.1q.475.034.9.034a7.074,7.074,0,0,0,2.186-.3,4.156,4.156,0,0,0,2.446-1.928.191.191,0,0,0-.08-.258" transform="translate(-27.529 -30.998)"/>
        <g id="Group_1115127" data-name="Group 1115127" transform="translate(112.962 93.674)" style="mix-blend-mode: multiply;isolation: isolate">
          <g id="Group_1115126" data-name="Group 1115126">
            <g id="Group_1115125" data-name="Group 1115125" clip-path="url(#clip-path-10)">
              <path id="Path_921605" data-name="Path 921605" d="M220.5,142.43a7.364,7.364,0,1,0,7.364,7.364,7.364,7.364,0,0,0-7.364-7.364" transform="translate(-179.46 -138.113)" fill="#f8a3a8"/>
              <path id="Path_921606" data-name="Path 921606" d="M167.413,150.884a7.364,7.364,0,0,0,0-14.729c-.114,0-.225.012-.339.017q-.833,3.506-1.638,7.019a47.946,47.946,0,0,0-1.247,6.942,7.323,7.323,0,0,0,3.224.751" transform="translate(-164.189 -136.155)" fill="#f8a3a8"/>
            </g>
          </g>
        </g>
        <path id="Path_921607" data-name="Path 921607" d="M222.07,155.068a.189.189,0,0,0,.131-.052,27.089,27.089,0,0,1,4.937-3.713.191.191,0,0,0-.193-.33,27.49,27.49,0,0,0-5.007,3.766.191.191,0,0,0,.131.33" transform="translate(-69.227 -47.096)" fill="#ee5952"/>
        <path id="Path_921608" data-name="Path 921608" d="M223.208,149.29a.192.192,0,0,0-.256-.087,24.27,24.27,0,0,0-5.786,3.979.191.191,0,0,0,.13.332.194.194,0,0,0,.13-.051,23.871,23.871,0,0,1,5.695-3.917.191.191,0,0,0,.087-.256" transform="translate(-67.737 -46.545)" fill="#ee5952"/>
        <path id="Path_921609" data-name="Path 921609" d="M169.078,148.924a.194.194,0,0,0,.126-.047,22.917,22.917,0,0,1,4.334-2.975.191.191,0,0,0-.179-.338,23.339,23.339,0,0,0-4.407,3.024.191.191,0,0,0,.126.335" transform="translate(-52.693 -45.41)" fill="#ee5952"/>
        <path id="Path_921610" data-name="Path 921610" d="M170.833,143.114a.192.192,0,0,0-.257-.085,22.714,22.714,0,0,0-5.014,3.421c-.049.215-.1.431-.144.647a22.356,22.356,0,0,1,5.329-3.726.191.191,0,0,0,.085-.257" transform="translate(-51.611 -44.619)" fill="#ee5952"/>
        <path id="Path_921611" data-name="Path 921611" d="M219.764,227.741a.573.573,0,0,0-.657.477,67.509,67.509,0,0,1-6.7,20.849c-1.028,1.957-2.237,3.91-4.106,4.943a8.185,8.185,0,0,1-7.018.021.574.574,0,1,0-.443,1.058,10.783,10.783,0,0,0,4.144.863,7.978,7.978,0,0,0,3.873-.938c2.133-1.179,3.455-3.3,4.566-5.414a68.658,68.658,0,0,0,6.818-21.2.574.574,0,0,0-.476-.656m-23.3,23.558a7.507,7.507,0,0,1-3.538-5.581,14.278,14.278,0,0,1,1.035-6.958c2.365-6.347,7.031-11.488,11.721-16.1a.573.573,0,1,0-.8-.818c-4.785,4.7-9.549,9.958-11.993,16.515a15.383,15.383,0,0,0-1.1,7.516,8.553,8.553,0,0,0,4.125,6.431.574.574,0,1,0,.548-1.008m19.2-34.577a.764.764,0,0,0,.441.987.749.749,0,0,0,.273.051.764.764,0,0,0,.714-.491,41.724,41.724,0,0,0,2.366-11.728c.361-7.833-2.186-13.617-7.375-16.83q.08.987.18,1.97c10.255,7.681,3.475,25.849,3.4,26.043m-62,2.863a4.836,4.836,0,0,0-2.3.2,5.081,5.081,0,0,0-3.321,4.848l8.892,2.784a5.083,5.083,0,0,0,.036-5.877,4.833,4.833,0,0,0-1.842-1.5c1.7-4.37,10.98-26.9,22.62-29.45q.209-.806.38-1.624c-13.011,2.047-22.78,26.191-24.47,30.625" transform="translate(-46.189 -58.878)" fill="#ee5952"/>
        <path id="Path_921612" data-name="Path 921612" d="M152.8,234.964a3.021,3.021,0,0,0-1.942,2.971l-.007.224,5.216,1.421a2.936,2.936,0,0,0-3.267-4.616m67.168-3.131A4.793,4.793,0,0,0,217.7,230a5.211,5.211,0,0,0-1.759-.175,16.824,16.824,0,0,0-11.119,4.751c0,.47,1.225,1.161,1.817,1.84.14.16.319.333.53.3a.661.661,0,0,0,.324-.184,17.828,17.828,0,0,1,4.451-3.157,4.7,4.7,0,0,1,7.034,3.487,18.465,18.465,0,0,1,.238,3.711.627.627,0,0,0,.178.531.616.616,0,0,0,.275.084l1.741.244c.649.091.566-6.9-1.441-9.608M198.76,264.219a1.35,1.35,0,0,0-.352-.065,2.636,2.636,0,0,1-.629-.151c-.162-.061-.356-.134-.5-.034a.738.738,0,0,0-.172.266,1.711,1.711,0,0,1-.16.2,6.185,6.185,0,0,1-.441.589.253.253,0,0,0-.08.116.224.224,0,0,0,.072.184c.235.277.564.46.8.734.114.131.23.3.4.305a.515.515,0,0,0,.381-.218,4.132,4.132,0,0,0,.861-1.479.45.45,0,0,0,.032-.187.338.338,0,0,0-.223-.258m2.735,1.737c-.116-.13-.234-.292-.408-.3a.516.516,0,0,0-.378.223,4.147,4.147,0,0,0-.843,1.49.449.449,0,0,0-.03.187.337.337,0,0,0,.226.255,1.323,1.323,0,0,0,.353.06,2.672,2.672,0,0,1,.63.143c.163.058.358.13.5.027a.726.726,0,0,0,.169-.267,1.711,1.711,0,0,1,.158-.2,6.2,6.2,0,0,1,.434-.594.259.259,0,0,0,.079-.116.224.224,0,0,0-.074-.183c-.239-.274-.57-.453-.813-.724" transform="translate(-47.066 -71.705)"/>
        <path id="Path_921613" data-name="Path 921613" d="M193.572,516.136q2.243-.408,4.493-.768a15.987,15.987,0,0,0-1.32,5.586q-.458,4.25-.914,8.507a50.3,50.3,0,0,0-.428,7.83q-4.657-1.4-9.318-2.8a38.219,38.219,0,0,1,.528-16.925c.226-.049.451-.1.677-.149,2.087-.47,4.178-.891,6.281-1.277" transform="translate(-57.84 -160.796)" fill="#fff"/>
        <path id="Path_921614" data-name="Path 921614" d="M191.223,494.267q-2.249.361-4.493.768c-7.322-12.051-14.612-24.121-21.4-36.478-.635-1.159-1.269-2.321-1.878-3.5a28.025,28.025,0,0,0,7.284,2.875,152.185,152.185,0,0,0,17.954,3.85,5.055,5.055,0,0,0,1.931.034,4.733,4.733,0,0,0,1.656-.9,41.209,41.209,0,0,0,11.538-13.183,86.586,86.586,0,0,1,13.71,43.395q-1.737.172-3.475.348c-7.624.776-15.263,1.583-22.829,2.787" transform="translate(-50.998 -139.695)" fill="#00cdcc"/>
        <path id="Path_921615" data-name="Path 921615" d="M140.4,362.648c-5.1-5.368-9.482-11.814-10.6-19.139s1.693-15.584,8.128-19.262a5.533,5.533,0,0,0,1.648-1.178,5.359,5.359,0,0,0,.815-1.946,20.653,20.653,0,0,1,7.558-10.376,39.083,39.083,0,0,1,11.673-5.716c6.03-1.95,12.426-3.089,18.716-2.332,3.07.367,6.109,1.185,9.2,1.09a30.3,30.3,0,0,1,5.418-.16,10.978,10.978,0,0,1,5.429,2.78c6.393,5.547,8.4,14.678,8.3,23.143-.072,5.781-1.315,12.142-5.555,15.909-.042-.126-.08-.253-.119-.378-1.82-5.892-3.949-11.723-5.062-17.427a86.85,86.85,0,0,1-38.256,10.3,24.508,24.508,0,0,1-2.86,16.861,9.1,9.1,0,0,0-5.158-2.129,9.212,9.212,0,0,0-8.35,4.3,7.066,7.066,0,0,0-.975,5.291c.031.118.061.233.1.348Z" transform="translate(-40.424 -94.369)"/>
        <path id="Path_921616" data-name="Path 921616" d="M244.856,478.854a97.623,97.623,0,0,0-19.694-26.443c-3.43-3.181-7.283-6.132-11.814-7.3-4.007-1.033-8.22-.589-12.357-.493a71.468,71.468,0,0,1-19.307-2.214,21.539,21.539,0,0,1-2.841-.9q1.543,2.1,2.955,4.286a86.586,86.586,0,0,1,13.71,43.395q-1.737.172-3.475.348c-7.624.776-15.263,1.582-22.829,2.787a15.986,15.986,0,0,0-1.319,5.586q-.459,4.25-.914,8.507a50.221,50.221,0,0,0-.429,7.83q-4.656-1.4-9.318-2.8-3.819-1.147-7.635-2.3c-1.977-3.992-3.98-8.01-6.114-11.952a89.225,89.225,0,0,1,14.3-2.761c.217-.023.436-.045.654-.065,2.087-.471,4.179-.891,6.281-1.277-7.322-12.051-14.612-24.121-21.4-36.478-.635-1.159-1.269-2.321-1.878-3.5a50.026,50.026,0,0,1-3.238-7.509c-12.039,6.205-27.321,6.9-36.864,16.562-6.067,6.145-8.7,15.118-8.434,23.751s3.181,16.987,6.943,24.76A115.462,115.462,0,0,0,111.8,530.17c4.7,6.182,10.533,12.2,18.123,13.829,4.726,1.017,9.635.214,14.379-.7a307.5,307.5,0,0,0,59.48-17.851l6.151,1.851c6.744,2.03,13.619,4.08,20.658,3.946s14.4-2.8,18.485-8.534a23.716,23.716,0,0,0,3.881-11.718c1-11.161-2.905-22.218-8.1-32.139" transform="translate(-28.979 -137.751)" fill="#fff"/>
        <path id="Path_921617" data-name="Path 921617" d="M165.848,477.187q3.82,1.148,7.635,2.3a38.229,38.229,0,0,1,.528-16.925c.008-.027.015-.058.023-.085a89.254,89.254,0,0,0-14.3,2.761c2.133,3.942,4.137,7.96,6.114,11.951m40.092-120.3c-.042-.126-.08-.253-.118-.378-1.82-5.892-3.95-11.723-5.062-17.427a86.845,86.845,0,0,1-38.256,10.3,24.508,24.508,0,0,1-2.86,16.861,9.1,9.1,0,0,0-5.158-2.129,9.21,9.21,0,0,0-8.35,4.3,7.066,7.066,0,0,0-.975,5.291c.03.118.061.233.1.348a9.223,9.223,0,0,0,2.986,4.052,19.275,19.275,0,0,0,7.043,3.812,4.206,4.206,0,0,1,1.529.658,3.51,3.51,0,0,1,.937,1.537,45.524,45.524,0,0,1,2.179,9.448c.857,5.788,1.4,11.955-.887,17.3a36.652,36.652,0,0,1-4.592,2.787,50.033,50.033,0,0,0,3.238,7.509,28.03,28.03,0,0,0,7.283,2.875,152.361,152.361,0,0,0,17.955,3.85,5.055,5.055,0,0,0,1.931.034,4.738,4.738,0,0,0,1.656-.9,41.209,41.209,0,0,0,11.538-13.183q-1.411-2.185-2.956-4.286A8.515,8.515,0,0,1,192.566,408c-2.91-2.661-2.841-7.077-3.946-10.923a29.942,29.942,0,0,0,7.245-2.137,23.082,23.082,0,0,0,6.03-3.728c4.622-4.079,6.821-10.4,7.054-16.559.229-6.033-1.239-11.994-3.009-17.767" transform="translate(-45.237 -105.793)" fill="#ed6c71"/>
        <path id="Path_921618" data-name="Path 921618" d="M227.8,491.2c2.129-.011,4.259.034,6.385.161a67.891,67.891,0,0,1,17.106,3.077c-3.177-3.326-7.834-5.1-12.429-5.854a11.648,11.648,0,0,1-3.353-.845c.57-2.03,3.243-3,3.606-5.077a9.653,9.653,0,0,0-5.414,4.255c-.964-.9-1.216-2.3-1.541-3.582-1.029-4.052-3.212-7.7-5.368-11.287a4.858,4.858,0,0,0-2.195-2.282c.489,4.194,1.824,8.25,2.443,12.429.444,2.978.52,6,.761,9m-.229,32.8c-12.6-1.724-31.837-6.235-46.282-9.868-3.624-.91-6.947-1.762-9.784-2.5.111.975.264,1.946.451,2.91q-3.819-1.147-7.635-2.3c-.478-.963-.956-1.93-1.441-2.9-1.51-3.032-3.055-6.067-4.672-9.054-4.959-9.152-10.6-17.889-18.118-24.859,9.068,9.539,14.429,22.286,19.472,34.589a1.993,1.993,0,0,1,.215,1.269,1.925,1.925,0,0,1-.662.846c-2.466,2.1-5.364,3.628-8.029,5.479s-5.181,4.149-6.347,7.176c2.023.555,4.045-.7,5.816-1.831a70.438,70.438,0,0,1,13.19-6.55A33.268,33.268,0,0,0,156.665,529c4.2-1.07,5.284-6.817,9-9.047,2.821-1.686,6.408-.948,9.6-.156l40.263,9.967q1.5-.6,2.982-1.216l6.152,1.851c6.744,2.03,13.618,4.079,20.657,3.946s14.4-2.8,18.486-8.534a19.8,19.8,0,0,0,2.826-5.979c-6.129,4.756-19.641,6.824-39.059,4.171M212.69,471.919a116.993,116.993,0,0,0,10.537,5.5,75.21,75.21,0,0,0-4.247,13.916l.391-.028q2.485-7.393,5.395-14.634a77.766,77.766,0,0,0-9.911-4.784q3.183-4.33,6.64-8.449c-4.909-4.066-9.817-8.132-14.828-11.99q6.146,6.21,12.646,12.054a75.269,75.269,0,0,0-6.623,8.416m-55.456,4.266-2.8,6.334a1.356,1.356,0,0,0,.329,1.89c3.408,3.572,6.821,7.15,10.533,10.4a16.119,16.119,0,0,0,4.56,3.068l.515-.074-13.521-13.6a1.932,1.932,0,0,1-.667-1.068,1.963,1.963,0,0,1,.3-1.052,46.993,46.993,0,0,0,3.015-7.613,60.713,60.713,0,0,1-11.571-.039,1.151,1.151,0,0,1-1.267-1.341,128.6,128.6,0,0,1-.2-15.362c-.48,5.986-.9,11.913-1.2,17.847a37.8,37.8,0,0,0,11.979.608" transform="translate(-43.707 -140.854)" fill="#c0dbf9"/>
        <path id="Path_921619" data-name="Path 921619" d="M195.439,379.083c.1.1.185.191.19.279a.511.511,0,0,1-.072.217,14.488,14.488,0,0,1-1.538,2.466.192.192,0,0,0,.151.308.193.193,0,0,0,.151-.074,14.885,14.885,0,0,0,1.578-2.531.829.829,0,0,0,.11-.407.842.842,0,0,0-.3-.529,38.639,38.639,0,0,1-5.146-6.353.191.191,0,0,0-.321.208,39.01,39.01,0,0,0,5.2,6.416m-6.4,9.7c.424,0,.85-.021,1.272-.061a.191.191,0,0,0-.036-.38,13.489,13.489,0,0,1-9.16-2.52.191.191,0,0,0-.226.309,13.909,13.909,0,0,0,8.151,2.653m70.077,84.851c-7.213-4.129-16.087-6.53-26.373-7.137a154.751,154.751,0,0,0-24.01.93q-1.72.17-3.442.344c-7.779.792-15.379,1.6-22.839,2.788-1.492.24-3.005.5-4.5.769-2.237.411-4.294.829-6.286,1.278-.152.031-.3.065-.457.1l-.035.008a.2.2,0,0,0-.07-.039.386.386,0,0,0-.33.314.2.2,0,0,0,.028.073,38.479,38.479,0,0,0-.524,16.649c-4.047-1.272-6.8-2.144-7.277-2.3-2-4.042-3.975-7.993-6.081-11.886-4.66-8.6-11.277-19.509-21.167-27.528a.191.191,0,0,0-.241.3c9.838,7.977,16.429,18.84,21.073,27.413,2.116,3.911,4.1,7.882,6.111,11.946h0v0l.327.661a.191.191,0,0,0,.171.106.19.19,0,0,0,.171-.276l-.129-.262c4.53,1.437,43.953,13.911,53.775,16.171a.185.185,0,0,0,.043,0,.191.191,0,0,0,.043-.378c-6.094-1.4-23.62-6.748-37.105-10.941a.185.185,0,0,0,.017-.085,50.186,50.186,0,0,1,.427-7.8l.914-8.506a16.085,16.085,0,0,1,1.26-5.433c7.419-1.177,14.979-1.983,22.718-2.771,1.147-.117,2.294-.231,3.474-.347a154.111,154.111,0,0,1,23.915-.925c10.227.6,19.044,2.987,26.206,7.086a.191.191,0,1,0,.19-.331m-78.143,2.68-.914,8.507a50.829,50.829,0,0,0-.431,7.812c-3.313-1.031-6.368-1.987-8.938-2.794a.023.023,0,0,0,0-.007,38.093,38.093,0,0,1,.5-16.729l.109-.024c.15-.034.3-.068.453-.1,1.99-.449,4.041-.866,6.273-1.276,1.372-.248,2.759-.486,4.133-.709a17.247,17.247,0,0,0-1.183,5.317" transform="translate(-42.259 -116.181)"/>
        <path id="Path_921620" data-name="Path 921620" d="M189.082,350.892a5.776,5.776,0,0,0-3.589-.283,12.554,12.554,0,0,0-3.379,1.379c-1.384.764-2.835,1.818-3.077,3.379a.985.985,0,0,0,.069.639.834.834,0,0,0,1.007.273,2.921,2.921,0,0,0,.91-.666,9.7,9.7,0,0,1,8.047-2.371,1.073,1.073,0,0,0,1.081-.344,1.165,1.165,0,0,0-.065-1.221,2.279,2.279,0,0,0-1-.786m24.72-3.478a3.267,3.267,0,0,0-2.037-1.47,6.888,6.888,0,0,0-2.563-.1c-2.194.252-4.475,1.07-5.752,2.872a2.09,2.09,0,0,0-.432,1.017.963.963,0,0,0,.469.943,1.288,1.288,0,0,0,1.26-.266,5.143,5.143,0,0,1,1.7-1.055,8.42,8.42,0,0,1,5.813-.892,2.883,2.883,0,0,0,.981.126.8.8,0,0,0,.716-.589.936.936,0,0,0-.149-.588" transform="translate(-55.853 -107.882)"/>
        <path id="Path_921621" data-name="Path 921621" d="M231.634,492.7a19.281,19.281,0,0,1-5.016-.727,6.088,6.088,0,0,1-3.64-2.9,8.508,8.508,0,0,1-.614-3.536,51.223,51.223,0,0,1,2.994-18.378.573.573,0,1,0-1.079-.386,52.361,52.361,0,0,0-3.062,18.788,9.608,9.608,0,0,0,.729,4.012,7.135,7.135,0,0,0,4.309,3.487,20.151,20.151,0,0,0,5.314.784h.033a.574.574,0,0,0,.032-1.146m14.8-15.055A53.429,53.429,0,0,0,240,462.937a.574.574,0,1,0-.97.612,52.244,52.244,0,0,1,6.3,14.4c1.207,4.507,1.064,7.7-.45,10.04-1.413,2.186-3.986,3.4-6.07,4.222a.574.574,0,0,0,.419,1.068c2.244-.88,5.023-2.205,6.614-4.667,2.237-3.461,1.411-7.912.6-10.959" transform="translate(-69.017 -144.354)" fill="#ed6c71"/>
        <path id="Path_921622" data-name="Path 921622" d="M159.981,496.888a7.979,7.979,0,0,1,7.2-3.5,7.316,7.316,0,0,1,6.2,4.945,7.723,7.723,0,0,1-4.31,8.931,7.581,7.581,0,0,1-9.172-2.446,7.741,7.741,0,0,1,.089-7.925" transform="translate(-49.559 -153.928)" fill="#ed6c71"/>
        <path id="Path_921623" data-name="Path 921623" d="M164.889,504.774l-.1-.073a3.588,3.588,0,0,1-.98-4.221,4.393,4.393,0,0,1,2.245-2.161,4.547,4.547,0,0,1,4.375.2,3.7,3.7,0,0,1,1.537,2.351,4,4,0,0,1-1.324,3.66,4.676,4.676,0,0,1-3.806,1.024,5.057,5.057,0,0,1-1.948-.781" transform="translate(-51.015 -155.333)"/>
        <path id="Path_921624" data-name="Path 921624" d="M208.905,448.651a31.04,31.04,0,0,0-17.866-20.423.956.956,0,0,0-.727,1.767,29.094,29.094,0,0,1,16.744,19.142.956.956,0,0,0,.923.713.968.968,0,0,0,.244-.032.956.956,0,0,0,.681-1.168m-45.467-19.065c-5.43,3.741-8.951,7.993-10.463,12.639a25.849,25.849,0,0,0-.971,9.422,49.917,49.917,0,0,0,7.79,24.579.956.956,0,1,0,1.606-1.037,48.01,48.01,0,0,1-7.487-23.638,24.065,24.065,0,0,1,.879-8.736c1.38-4.237,4.654-8.16,9.73-11.657a.956.956,0,1,0-1.084-1.574" transform="translate(-47.409 -133.586)" fill="#ed6c71"/>
        <path id="Path_921625" data-name="Path 921625" d="M189.921,363.007c-1.117.186-1.783,1.774-1.487,3.547s1.439,3.06,2.556,2.874,1.782-1.774,1.487-3.547-1.439-3.06-2.555-2.874m24.6-2.142c-.3-1.773-1.439-3.06-2.556-2.874s-1.782,1.774-1.487,3.547,1.439,3.06,2.556,2.874,1.782-1.774,1.487-3.547" transform="translate(-58.77 -111.689)"/>
        <path id="Path_921626" data-name="Path 921626" d="M238.449,505.2a.354.354,0,0,0-.12-.152.416.416,0,0,0-.232-.045,12.655,12.655,0,0,0-1.9.4c-.4.072-.3.336-.316.658q-.03.571-.032,1.143a.183.183,0,0,0,.028.12.179.179,0,0,0,.075.044,6.433,6.433,0,0,0,2.069.414.421.421,0,0,0,.555-.436,8.254,8.254,0,0,0-.019-1.664,1.508,1.508,0,0,0-.113-.477m5.877.94c-.062-.162-.153-.308-.2-.475-.074-.24-.136-.484-.2-.727a.235.235,0,0,0-.067-.128.233.233,0,0,0-.162-.03l-2.195.114a.561.561,0,0,0-.451.166.506.506,0,0,0-.036.391c.081.393.246.762.347,1.15.056.217.092.44.127.661a.681.681,0,0,0,.171.422.6.6,0,0,0,.591.038,12.233,12.233,0,0,0,1.539-.825c.292-.148.69-.37.543-.756" transform="translate(-73.587 -157.493)"/>
        <path id="Path_921627" data-name="Path 921627" d="M225.292,465.041c.78-2.865,2.143-5.786,4.69-7.313a7.873,7.873,0,0,1,5.734-.861,9.179,9.179,0,0,1,4.947,3.1c.4.48.762,1.179.405,1.692a1.1,1.1,0,0,1-1.327.253,4.106,4.106,0,0,1-1.135-.912c-1.989-1.936-5.143-2.938-7.615-1.675a7.953,7.953,0,0,0-3.566,4.886,2.317,2.317,0,0,1-.846,1.423c-.491.281-1.406-.152-1.287-.588" transform="translate(-70.288 -142.481)"/>
        <g id="Group_1115130" data-name="Group 1115130" transform="translate(104.638 262.867)" style="mix-blend-mode: multiply;isolation: isolate">
          <g id="Group_1115129" data-name="Group 1115129">
            <g id="Group_1115128" data-name="Group 1115128" clip-path="url(#clip-path-11)">
              <path id="Path_921628" data-name="Path 921628" d="M154.134,382.26a3.2,3.2,0,0,0-1.547.957,1.982,1.982,0,0,0-.447,1.719.54.54,0,0,0,.205.34c.191.12.44.012.637-.1a9.67,9.67,0,0,1,2.269-1.112,2.376,2.376,0,0,1,2.352.528,7.185,7.185,0,0,1,.876,2.006,1.858,1.858,0,0,0,1.947,1.1,9.355,9.355,0,0,0-.857-3.222,4.8,4.8,0,0,0-5.436-2.222M166.622,487.7q.729,1.451,1.441,2.9,3.82,1.148,7.635,2.3c-.187-.963-.34-1.935-.451-2.91-3.991-1.04-7.035-1.858-8.625-2.286m24.213-77.216a27.225,27.225,0,0,1-19.667-3.926,13.282,13.282,0,0,0,4.634,5.93,24.174,24.174,0,0,0,8.274,3.682,21.459,21.459,0,0,0,8.205.772c-.585-2.068-.837-4.347-1.445-6.458" transform="translate(-152.09 -382.076)" fill="#ed6c71"/>
            </g>
          </g>
        </g>
        <path id="Path_921629" data-name="Path 921629" d="M182.082,374.5a5.743,5.743,0,1,0,6.166,5.728,5.959,5.959,0,0,0-6.166-5.728m33.994-7.25a6.6,6.6,0,0,0-1.463-.169,5.743,5.743,0,1,0,0,11.456,6.443,6.443,0,0,0,3.7-1.152,64.843,64.843,0,0,0-2.234-10.135" transform="translate(-54.886 -114.529)" fill="#ee5952"/>
        <g id="Group_1115133" data-name="Group 1115133" transform="translate(124.05 256.22)" style="mix-blend-mode: multiply;isolation: isolate">
          <g id="Group_1115132" data-name="Group 1115132">
            <g id="Group_1115131" data-name="Group 1115131" clip-path="url(#clip-path-12)">
              <path id="Path_921630" data-name="Path 921630" d="M184.446,378.384a.19.19,0,0,0-.27,0,39.114,39.114,0,0,0-3.834,4.508.191.191,0,1,0,.31.225,38.594,38.594,0,0,1,3.8-4.464.191.191,0,0,0,0-.27m.772,1.427A18.394,18.394,0,0,0,182.635,384a.191.191,0,0,0,.35.155,17.988,17.988,0,0,1,2.529-4.1.191.191,0,0,0-.3-.243m31.005-7.064a.191.191,0,1,0-.257-.282,26.492,26.492,0,0,0-3.18,3.472.191.191,0,1,0,.3.232,26.178,26.178,0,0,1,3.133-3.422m1.618.34a.192.192,0,0,0-.27-.008,24.985,24.985,0,0,0-2.728,3.042.192.192,0,0,0,.036.268.19.19,0,0,0,.116.039.192.192,0,0,0,.153-.076,24.54,24.54,0,0,1,2.686-3,.192.192,0,0,0,.008-.27" transform="translate(-180.306 -372.414)" fill="#ee5952"/>
            </g>
          </g>
        </g>
        <path id="Path_921631" data-name="Path 921631" d="M214.453,358.089a7.73,7.73,0,0,0-6.894-7.108,9.128,9.128,0,0,0-5.479,1.62,9.41,9.41,0,0,0-2.4,2.186,7.575,7.575,0,0,0-1.43,4.771,14.842,14.842,0,0,0-6.676,1.4,7.576,7.576,0,0,0-2.963-4.08,7.842,7.842,0,0,0-2.829-1.1A9.62,9.62,0,0,0,179,356.942a8.474,8.474,0,0,0-3.913,5.617,8.389,8.389,0,0,0,.037,3.046.189.189,0,0,0-.093.014l-8.824,3.969a.191.191,0,0,0,.078.365.182.182,0,0,0,.078-.017l8.825-3.969.01-.008a9.657,9.657,0,0,0,.834,2.267,8.068,8.068,0,0,0,2.086,2.619,7.739,7.739,0,0,0,4.813,1.582,8.805,8.805,0,0,0,1.4-.111,12.378,12.378,0,0,0,5.794-2.8c2.05-1.694,2.321-5.4,1.553-8.189a14.482,14.482,0,0,1,6.6-1.386,7.691,7.691,0,0,0,1.717,4.348,8.184,8.184,0,0,0,6.214,2.771,7.81,7.81,0,0,0,3.1-.627,8.87,8.87,0,0,0,5.143-8.343M189.882,369.22a11.98,11.98,0,0,1-5.612,2.719,7.106,7.106,0,0,1-7.9-3.888,8.588,8.588,0,0,1-.907-5.424,8.087,8.087,0,0,1,3.737-5.359,9.066,9.066,0,0,1,4.708-1.287,9.464,9.464,0,0,1,1.795.171A7.445,7.445,0,0,1,188.4,357.2a7.207,7.207,0,0,1,2.821,3.912c.859,2.735.593,6.518-1.337,8.113m19.276-3.139a7.867,7.867,0,0,1-8.874-2.039,7.516,7.516,0,0,1-.3-9.027,9.781,9.781,0,0,1,7.106-3.668q.221,0,.444.014a7.338,7.338,0,0,1,6.537,6.753,8.471,8.471,0,0,1-4.913,7.967" transform="translate(-51.823 -109.502)"/>
      </g>
    </g>
  </g>
</svg>
