<svg xmlns="http://www.w3.org/2000/svg" width="88.365" height="88.321" viewBox="0 0 88.365 88.321">
  <path id="Subtraction_114" data-name="Subtraction 114" d="M33.511,87.321a2.4,2.4,0,0,1-.848-.151l-9.147-3.407a2.427,2.427,0,0,1-1.583-2.342l.134-5.523a38.865,38.865,0,0,1-8.987-8.371l-5.512.534c-.086.008-.166.012-.236.012a2.442,2.442,0,0,1-2.215-1.423L1.063,57.775A2.428,2.428,0,0,1,1.6,55l4-3.811a38.341,38.341,0,0,1-.437-12.276L.884,35.391A2.419,2.419,0,0,1,0,33.549v-.07a2.4,2.4,0,0,1,.153-.818l3.405-9.142a2.44,2.44,0,0,1,2.28-1.587H5.9l5.52.138a39.053,39.053,0,0,1,8.374-8.992l-.534-5.508a2.443,2.443,0,0,1,1.412-2.451l8.875-4.054A2.394,2.394,0,0,1,30.56.841a2.433,2.433,0,0,1,1.765.758l3.81,4a38.53,38.53,0,0,1,12.281-.437L51.932.887A2.428,2.428,0,0,1,53.81,0a2.473,2.473,0,0,1,.853.152L63.8,3.559A2.442,2.442,0,0,1,65.39,5.9l-.138,5.524A38.8,38.8,0,0,1,74.241,19.8l5.512-.535c.084-.007.164-.012.234-.012a2.449,2.449,0,0,1,2.218,1.423l4.054,8.875a2.425,2.425,0,0,1-.534,2.777l-4,3.807a38.554,38.554,0,0,1,.436,12.28l4.271,3.517a2.438,2.438,0,0,1,.738,2.73l-3.407,9.145a2.446,2.446,0,0,1-2.281,1.588h-.013a.046.046,0,0,0-.016,0l-.03,0L75.9,65.255a39.009,39.009,0,0,1-8.377,8.988l.535,5.513a2.437,2.437,0,0,1-1.411,2.451l-8.874,4.055a2.4,2.4,0,0,1-1.014.224A2.459,2.459,0,0,1,55,85.727l-3.806-4a39.412,39.412,0,0,1-7.528.735,38.5,38.5,0,0,1-4.754-.3l-3.515,4.274A2.433,2.433,0,0,1,33.511,87.321ZM43.2,18.279A24.922,24.922,0,1,0,68.12,43.2,24.95,24.95,0,0,0,43.2,18.279Z" transform="translate(0.5 0.5)" fill="#ff85e7" stroke="rgba(0,0,0,0)" stroke-miterlimit="10" stroke-width="1"/>
</svg>
