<svg id="Group_1113267" data-name="Group 1113267" xmlns="http://www.w3.org/2000/svg" xmlns:xlink="http://www.w3.org/1999/xlink" width="48.099" height="50.667" viewBox="0 0 48.099 50.667">
  <defs>
    <clipPath id="clip-path">
      <rect id="Rectangle_406743" data-name="Rectangle 406743" width="48.099" height="50.667" fill="#7d0ede"/>
    </clipPath>
  </defs>
  <g id="Group_1113266" data-name="Group 1113266" clip-path="url(#clip-path)">
    <path id="Path_917649" data-name="Path 917649" d="M23.646.013A7.41,7.41,0,0,1,25.805.2a3.437,3.437,0,0,1,.658.253c6.39,3.157,13.321,5.2,18.448,8.039,4.211,2.334,3.225,7.14,2.691,11.321-1.436,11.244-7.387,22.082-17.016,28.209-3.942,2.508-6.058,3.687-10.553,1.5C9.448,44.367,2.649,32.53.75,21.228.091,17.3-1.077,11.98,2.225,9.108a3.678,3.678,0,0,1,.975-.6L22.387.318A3.752,3.752,0,0,1,23.646.013m9.81,16.556a2.509,2.509,0,0,0-3.289-.1L21.351,28.515c-.631.156-2.68-2.782-3.372-3.077a2.4,2.4,0,0,0-3.247,3.247,61.206,61.206,0,0,0,5.605,5.843c1.358.621,2.481-.051,3.35-1.044,2.053-2.345,8.7-11.258,9.977-13.809.53-1.059.768-2.214-.209-3.106" transform="translate(0 0)" fill="#7d0ede"/>
  </g>
</svg>
