<svg id="Group_1113278" data-name="Group 1113278" xmlns="http://www.w3.org/2000/svg" xmlns:xlink="http://www.w3.org/1999/xlink" width="119" height="119" viewBox="0 0 119 119">
  <defs>
    <clipPath id="clip-path">
      <rect id="Rectangle_406617" data-name="Rectangle 406617" width="119" height="119" fill="#170551" stroke="rgba(0,0,0,0)" stroke-miterlimit="10" stroke-width="1"/>
    </clipPath>
    <clipPath id="clip-path-2">
      <rect id="Rectangle_401492" data-name="Rectangle 401492" width="69.729" height="69.729" transform="translate(0 0)" fill="#fff" stroke="#707070" stroke-width="1"/>
    </clipPath>
    <clipPath id="clip-path-3">
      <rect id="Rectangle_408668" data-name="Rectangle 408668" width="64.687" height="64.156" fill="#fff"/>
    </clipPath>
  </defs>
  <g id="Group_1113263" data-name="Group 1113263" transform="translate(0 0)">
    <g id="Group_1112834" data-name="Group 1112834" transform="translate(0 0)" clip-path="url(#clip-path)">
      <path id="Path_917479" data-name="Path 917479" d="M118.163,71l-5.841-4.807a52.529,52.529,0,0,0-.6-16.787l5.47-5.208a3.328,3.328,0,0,0,.732-3.8l-5.546-12.131a3.335,3.335,0,0,0-3.026-1.944c-.108,0-.217,0-.325.015l-7.532.731A53.325,53.325,0,0,0,89.209,15.619l.185-7.551a3.329,3.329,0,0,0-2.166-3.2L74.728.21A3.32,3.32,0,0,0,73.566,0h0a3.315,3.315,0,0,0-2.57,1.214L66.186,7.057a52.524,52.524,0,0,0-16.786.6l-5.208-5.47A3.344,3.344,0,0,0,41.78,1.15a3.3,3.3,0,0,0-1.385.3L28.264,7a3.33,3.33,0,0,0-1.929,3.35l.731,7.534a53.315,53.315,0,0,0-11.449,12.29l-7.55-.185-.083,0a3.342,3.342,0,0,0-3.119,2.169L.208,44.652a3.333,3.333,0,0,0,1,3.731l5.846,4.811a52.523,52.523,0,0,0,.6,16.786L2.181,75.188a3.329,3.329,0,0,0-.731,3.8L7,91.116a3.336,3.336,0,0,0,3.027,1.945c.107,0,.215,0,.323-.015l7.534-.732a53.328,53.328,0,0,0,12.289,11.449l-.185,7.55a3.329,3.329,0,0,0,2.167,3.2l12.5,4.657a3.334,3.334,0,0,0,3.733-1l4.809-5.843a52.521,52.521,0,0,0,16.786-.6l5.208,5.47a3.343,3.343,0,0,0,2.41,1.034,3.308,3.308,0,0,0,1.384-.3l12.134-5.547a3.332,3.332,0,0,0,1.929-3.35l-.731-7.533a53.311,53.311,0,0,0,11.449-12.29l7.551.185h.082a3.342,3.342,0,0,0,3.119-2.167l4.657-12.5A3.329,3.329,0,0,0,118.163,71" transform="translate(0 -0.38)" fill="#170551" stroke="rgba(0,0,0,0)" stroke-miterlimit="10" stroke-width="1"/>
    </g>
  </g>
  <g id="Group_1111310" data-name="Group 1111310" transform="translate(25.025 24.557)">
    <rect id="Rectangle_401104" data-name="Rectangle 401104" width="64.968" height="66.017" transform="translate(1.686 2.276)" fill="none"/>
    <g id="Mask_Group_1098697" data-name="Mask Group 1098697" transform="translate(-0.313 0.276)" clip-path="url(#clip-path-2)">
      <g id="Group_1116035" data-name="Group 1116035" transform="translate(0 3.229)">
        <g id="Group_1116034" data-name="Group 1116034" clip-path="url(#clip-path-3)">
          <path id="Path_923733" data-name="Path 923733" d="M57.3,36.3c1.948-.962,5.109-1.462,6.684.427,1.175,1.409.745,2.731-.292,4.01-1.79,2.21-6.126,5.684-8.45,7.624-3.237,2.7-7.534,6.275-11.552,7.613-4.178,1.391-8.644.9-12.969.833-1.255.792-1.019,1.455-1.379,2.542-.367,1.108-3.779,4.582-4.924,4.76a2.994,2.994,0,0,1-2.459-.605L13.2,54.747l-.608-.1a2.222,2.222,0,0,1-3.306,1.537c-1.2-.481-3-1.456-3.1-2.887-.072-1.025.519-1.316.6-1.9.089-.622-1.9-2.231-2.073-3.1-.687-.4-1.883.785-3.262-.346a6.871,6.871,0,0,1-1.427-4.32c.27-1.737,2.513-1.65,2.669-2.486.184-.986-.145-2.386.221-3.47-1.068-.5-2.062-1.158-2.042-2.51A8.807,8.807,0,0,1,3.029,31.39c1.709-1.05,2.778.577,3.364.288l2.8-2.381c-.82-2.46.084-3.7,2.563-4.123L10.49,21.7c-1.18-.116-2.734-.071-3.283-1.354a12,12,0,0,1-.035-4.6c.516-1.282,2.16-1.367,3.321-1.315,0-1.086,1.741-3.5,1.369-4.3-.251-.54-1.085-.781-1.26-1.856-.21-1.287,1.7-3.226,2.7-3.92C15.545,2.811,16.493,5.4,17.214,5.4,17.9,4.707,21,4.076,21.2,3.4c.295-1.013-.326-2.035,1.086-2.829.958-.539,4.084-.525,5,.117,1.115.782.894,1.905,1.049,3.073,1.927,1.042,3.311.7,5.312.134C36.6,3.056,38.184,1.3,40.493.438,44.832-1.18,47,2.109,50.65,3.49c4.474,1.7,10.133.237,11.183,6.745-.125,5.214.134,10.676-.209,15.867A16.416,16.416,0,0,1,57.3,36.3m-26.068,0h4.224c-1.827-1.729-3.768-3.1-5.107-5.3-3.09-5.072-1.161-13.708-1.65-19.489.978-2.66,3.63-2.194,5.935-2.72a18.3,18.3,0,0,0,2.525-.772c2.258-.891,4.111-3.1,6.6-2.583,1.062.221,3.778,2.291,5.4,2.847,2.8.962,7.526.284,7.943,4.009.353,3.15.17,13.368-.631,16.268-1.194,4.326-7.959,9.123-11.58,11.707-.285.2-.833.319-.925.412-.249.254-.175,1.4-.466,1.8,2.745.453,4.131-.689,6.161-2.183,3.768-2.774,8.605-6.872,9.606-11.619.871-4.13.906-13.929.521-18.248-.364-4.09-3.929-3.683-6.851-4.277A19.7,19.7,0,0,1,48.02,4.471c-2.6-1.327-3.87-3.438-7.144-2-2.215.972-3.757,2.493-6.407,3.279-3.547,1.052-8.271.026-8.707,5.1a76.22,76.22,0,0,0,.222,8.241c.14,6-.779,10.585,3.5,15.458.223.254,1.627,1.723,1.746,1.757m-5.049-34H23.09c.1,1.372.093,2.643-1.295,3.342-.465.234-3.23,1.4-3.645,1.506-1.909.5-2.244-.355-3.584-1.33-.417.48-2.121,1.717-1.964,2.313.167.637,1.509.927,1.434,2.512-.012.246-1.405,3.705-1.623,4.163-.746,1.57-1.877,1.81-3.543,1.712l.091,2.9c.237.34,1.315.139,1.821.24,1.805.361,2.009,3.417,2.993,4.838.688.994,1.959,1.316,1.917,2.925l3.77.387c.345-.148.88-.852.656-1.195-7.637-3.963-6.5-15.79,1.9-18.069.655-.178,1.885-.165,2.311-.368S25.912,5.609,26.917,5.4a6.1,6.1,0,0,1-.736-3.1m16.435,4.98A26.952,26.952,0,0,1,35.29,10.69c-1.685.4-4.552,0-4.786,2.014-.327,2.814.087,6.617.219,9.475.155,3.363-.336,5.205,1.678,8.213a27.828,27.828,0,0,0,6.163,5.788c1.152.752,2.067.428,3.217,1.11.646.383,1.037,1.029,1.635,1.464,3.867-2.874,10.439-6.806,11.355-11.88.6-3.338.195-7.618.25-11.084a20.434,20.434,0,0,0,.224-2.682c-.24-2.556-2.019-1.8-3.967-2.213A21.051,21.051,0,0,1,45.96,9c-.861-.443-2.519-1.859-3.343-1.721m-18.7,3.057c-6.918.42-9.527,9.507-4.013,13.8.706.55,3.088,1.762,3.907,1.653.483-.064.106-.488.106-.515ZM13.6,26.832l-2.665.618c1.22,3.62-1.839,3.909-3.719,6.068a3.986,3.986,0,0,1-1.739.1c-.73-.143-.961-1.069-1.647-.186a9.986,9.986,0,0,0-.922,1.927c3.291,1.492,1.449,3.658,1.621,6.4-.3,1.986-2.569,1.892-2.654,2.294l.8,2.264c.957.244,1.6-.381,2.636.043a25.219,25.219,0,0,1,3.457,4.164c.348,1.269-.271,1.641-.5,2.757l2.16,1.167,1.028-1.434a4.233,4.233,0,0,1,1.328-3.511,9.159,9.159,0,0,1-2.374-15.462c4.98-4.152,13.034-1.839,14.534,4.539.269.236,2.884-2.154,3.707-1.857-.092-.848-1.155-.58-1.865-1.121-.176-.134-2.586-3.037-2.71-3.266-1.009-1.856.242-2.27.254-3.14.006-.471-1.661-1.191-2.164-1.347-.635.054-.749,1.563-1.9,1.825a18.492,18.492,0,0,1-5.358-.531,2.736,2.736,0,0,1-1.3-2.3m2.238,7.054a7.214,7.214,0,0,0-5.285,11.553c.577.777,2.85,2.645,3.782,2.541.227-.025,1.048-1.109,1.664-1.352.685-.271,1.3-.114,1.847-.42l5.572-5.876a7.246,7.246,0,0,0-7.579-6.446M32.62,44.7a1.351,1.351,0,0,1-.229-1.041c.33-1.2,4.183-.7,5.236-.756a21.835,21.835,0,0,0,3.34-.37c1.737-.743.91-3.654-1.306-3.948-2.433-.323-7.919-.665-10.193-.132A5.612,5.612,0,0,0,27,39.7a71.808,71.808,0,0,0-7.314,7.318c-.1.13-.408.255-.211.412l8.868,8.857c.148,0,.96-1.092,1.225-1.244,1.087-.623,5.488.033,7.026.02,5.915-.051,9.762-2.238,14.292-5.7a120.315,120.315,0,0,0,10.846-9.349c.443-.444,1.091-1.005.894-1.714-.824-1.153-2.245-1.052-3.473-.66-2.933.936-7.449,4.3-10.507,5.773-3.16,1.527-3.854.935-7.122,1.12-1.4.079-8.217.852-8.905.165m-9.452,9.243c-1.928-1.886-3.826-3.808-5.787-5.663-.762-.18-3.66,3-3.73,3.413a1.074,1.074,0,0,0,.156,1l9.841,9.549c.247.089.4-.082.6-.167a38.137,38.137,0,0,0,2.976-2.993,1.006,1.006,0,0,0,0-1.26c-.534-.911-3.146-2.992-4.054-3.88" transform="translate(0 0)" fill="#fff"/>
          <path id="Path_923734" data-name="Path 923734" d="M200.184,76.325c11.2-1.523,16.521,12.422,7.576,18.5-7.577,5.147-17.531-1.584-15.717-10.566.763-3.777,4.249-7.4,8.141-7.932m1.038,1.864c-10.6.95-9.256,17.343,1.587,16.42,10.582-.9,9.441-17.409-1.587-16.42" transform="translate(-159.216 -63.254)" fill="#fff"/>
          <path id="Path_923735" data-name="Path 923735" d="M233.439,109.417c1.043-.156,1.257.761.972,1.6a72.468,72.468,0,0,1-3.917,6.8c-.456.6-.725.808-1.479.476a26.627,26.627,0,0,1-3.03-2.946c-.406-.631-.438-1.139.229-1.605,1.275-.446,2.168,1.362,3.057,2.025l3.428-5.841a1.171,1.171,0,0,1,.74-.51" transform="translate(-187.325 -90.802)" fill="#fff"/>
        </g>
      </g>
    </g>
  </g>
</svg>
