<svg xmlns="http://www.w3.org/2000/svg" xmlns:xlink="http://www.w3.org/1999/xlink" width="104.668" height="150" viewBox="0 0 104.668 150">
  <defs>
    <clipPath id="clip-path">
      <rect id="Rectangle_406755" data-name="Rectangle 406755" width="73" height="73" transform="translate(275.328 9379.664)" fill="#fff" stroke="#707070" stroke-width="1"/>
    </clipPath>
    <clipPath id="clip-path-2">
      <rect id="Rectangle_406752" data-name="Rectangle 406752" width="63.475" height="70.682" fill="#fff" stroke="#3d034b" stroke-width="3"/>
    </clipPath>
    <clipPath id="clip-path-3">
      <rect id="Rectangle_406754" data-name="Rectangle 406754" width="42.467" height="44.002" transform="translate(-0.153 0.271)" fill="#3a2292" stroke="#707070" stroke-width="1"/>
    </clipPath>
    <clipPath id="clip-path-4">
      <rect id="Rectangle_408659" data-name="Rectangle 408659" width="39.4" height="38.617" fill="#3a2292"/>
    </clipPath>
  </defs>
  <g id="Group_1116076" data-name="Group 1116076" transform="translate(-179.83 -1468)">
    <rect id="Rectangle_404547" data-name="Rectangle 404547" width="104.668" height="150" transform="translate(179.83 1468)" fill="#3a2292"/>
    <g id="Mask_Group_1110900" data-name="Mask Group 1110900" transform="translate(-79.498 -7872.664)" clip-path="url(#clip-path)">
      <g id="Group_1113303" data-name="Group 1113303" transform="translate(280.131 9380.624)" clip-path="url(#clip-path-2)">
        <path id="Path_917667" data-name="Path 917667" d="M27.452,63.948A42.13,42.13,0,0,1,6.56,49.078,35.558,35.558,0,0,1,.011,31.658C0,31.568,0,31.482,0,31.392V10.025a3.181,3.181,0,0,1,2.824-3.04C10.9,5.713,22.791,1.815,27.528.2a3.73,3.73,0,0,1,2.393,0C33.635,1.458,46.4,5.675,54.771,6.987a3.179,3.179,0,0,1,2.825,3.04V31.391c0,.09,0,.176-.013.264A35.552,35.552,0,0,1,51.037,49.08c-6.024,8.366-16.761,13.146-21.1,14.814a3.7,3.7,0,0,1-2.488.057" transform="translate(2.939 3.272)" fill="#fff" stroke="#ff85e7" stroke-width="3"/>
      </g>
      <g id="Mask_Group_1110899" data-name="Mask Group 1110899" transform="translate(291.362 9392.394)" clip-path="url(#clip-path-3)">
        <g id="Group_1116026" data-name="Group 1116026" transform="translate(1.847 2.271)">
          <g id="Group_1116025" data-name="Group 1116025" transform="translate(0 0)">
            <g id="Group_1116024" data-name="Group 1116024" clip-path="url(#clip-path-4)">
              <path id="Path_923707" data-name="Path 923707" d="M34.03,6.868l1.949.666a.39.39,0,0,0,.262.066.938.938,0,0,0,.653-.262L39.18,5.052a.859.859,0,0,0,.2-.784.8.8,0,0,0-.523-.587l-1.469-.49,1.208-1.208A.831.831,0,0,0,37.417.807L36.208,2.016l-.49-1.47a.8.8,0,0,0-.587-.523.814.814,0,0,0-.784.2L32.062,2.506a1.041,1.041,0,0,0-.2.849l.829,2.487-.764.715a19.222,19.222,0,0,0-5.551-3.79,18.056,18.056,0,0,0-7.64-1.633,18.747,18.747,0,0,0-13.256,32A18.754,18.754,0,0,0,33.071,7.769l.949-.889s.005-.009.009-.013m.578-4.427.355,1.115A.817.817,0,0,0,35.2,4.2a.8.8,0,0,0,.588.262h.006l1.235.392-.98.98-1.828-.587L33.629,3.42Zm1.306,17.37A17.141,17.141,0,1,1,18.74,2.7,17.378,17.378,0,0,1,30.788,7.627L28.367,9.894a14.178,14.178,0,1,0,1.114,1.237l2.444-2.288a17.045,17.045,0,0,1,3.99,10.967m-14.692.065a2.541,2.541,0,1,1-1.244-2.126l-1.433,1.343a.83.83,0,0,0-.065,1.175.707.707,0,0,0,.587.261,2.092,2.092,0,0,0,.588-.195l1.418-1.328a2.606,2.606,0,0,1,.15.87m.025-3.314A4.144,4.144,0,0,0,18.74,15.7a4.1,4.1,0,0,0-4.113,4.114,4.139,4.139,0,0,0,4.113,4.114,4.019,4.019,0,0,0,4.049-4.179,4.173,4.173,0,0,0-.466-1.911l2.422-2.268a7.353,7.353,0,1,1-1.117-1.234Zm3.6-3.375A8.924,8.924,0,0,0,18.74,10.8a9.005,9.005,0,1,0,7.227,3.624L28.33,12.21A12.265,12.265,0,1,1,27.2,10.982Z" transform="translate(0 0)" fill="#3a2292"/>
            </g>
          </g>
        </g>
      </g>
    </g>
  </g>
</svg>
