<svg xmlns="http://www.w3.org/2000/svg" xmlns:xlink="http://www.w3.org/1999/xlink" width="119" height="119" viewBox="0 0 119 119">
  <defs>
    <clipPath id="clip-path">
      <rect id="Rectangle_406617" data-name="Rectangle 406617" width="119" height="119" fill="#170551" stroke="rgba(0,0,0,0)" stroke-miterlimit="10" stroke-width="1"/>
    </clipPath>
    <clipPath id="clip-path-2">
      <rect id="Rectangle_401492" data-name="Rectangle 401492" width="69.729" height="69.729" transform="translate(-0.313 0.443)" fill="#fff" stroke="#707070" stroke-width="1"/>
    </clipPath>
    <clipPath id="clip-path-3">
      <rect id="Rectangle_408026" data-name="Rectangle 408026" width="60.282" height="64.408" fill="#fff"/>
    </clipPath>
  </defs>
  <g id="Group_1114009" data-name="Group 1114009" transform="translate(-314.001 -7639.335)">
    <g id="Group_1113263" data-name="Group 1113263" transform="translate(314.001 7639.335)">
      <g id="Group_1112834" data-name="Group 1112834" transform="translate(0 0)" clip-path="url(#clip-path)">
        <path id="Path_917479" data-name="Path 917479" d="M118.163,71l-5.841-4.807a52.529,52.529,0,0,0-.6-16.787l5.47-5.208a3.328,3.328,0,0,0,.732-3.8l-5.546-12.131a3.335,3.335,0,0,0-3.026-1.944c-.108,0-.217,0-.325.015l-7.532.731A53.325,53.325,0,0,0,89.209,15.619l.185-7.551a3.329,3.329,0,0,0-2.166-3.2L74.728.21A3.32,3.32,0,0,0,73.566,0h0a3.315,3.315,0,0,0-2.57,1.214L66.186,7.057a52.524,52.524,0,0,0-16.786.6l-5.208-5.47A3.344,3.344,0,0,0,41.78,1.15a3.3,3.3,0,0,0-1.385.3L28.264,7a3.33,3.33,0,0,0-1.929,3.35l.731,7.534a53.315,53.315,0,0,0-11.449,12.29l-7.55-.185-.083,0a3.342,3.342,0,0,0-3.119,2.169L.208,44.652a3.333,3.333,0,0,0,1,3.731l5.846,4.811a52.523,52.523,0,0,0,.6,16.786L2.181,75.188a3.329,3.329,0,0,0-.731,3.8L7,91.116a3.336,3.336,0,0,0,3.027,1.945c.107,0,.215,0,.323-.015l7.534-.732a53.328,53.328,0,0,0,12.289,11.449l-.185,7.55a3.329,3.329,0,0,0,2.167,3.2l12.5,4.657a3.334,3.334,0,0,0,3.733-1l4.809-5.843a52.521,52.521,0,0,0,16.786-.6l5.208,5.47a3.343,3.343,0,0,0,2.41,1.034,3.308,3.308,0,0,0,1.384-.3l12.134-5.547a3.332,3.332,0,0,0,1.929-3.35l-.731-7.533a53.311,53.311,0,0,0,11.449-12.29l7.551.185h.082a3.342,3.342,0,0,0,3.119-2.167l4.657-12.5A3.329,3.329,0,0,0,118.163,71" transform="translate(0 -0.38)" fill="#170551" stroke="rgba(0,0,0,0)" stroke-miterlimit="10" stroke-width="1"/>
      </g>
    </g>
    <g id="Group_1111310" data-name="Group 1111310" transform="translate(339.026 7663.892)">
      <rect id="Rectangle_401104" data-name="Rectangle 401104" width="64.968" height="66.017" transform="translate(2.38 0)" fill="none"/>
      <g id="Mask_Group_1098697" data-name="Mask Group 1098697" transform="translate(0 0)" clip-path="url(#clip-path-2)">
        <g id="Group_1114991" data-name="Group 1114991" transform="translate(5.071 2.416)">
          <g id="Group_1114990" data-name="Group 1114990" transform="translate(0 0)" clip-path="url(#clip-path-3)">
            <path id="Path_921327" data-name="Path 921327" d="M47.333,4.126h-6.4A1.262,1.262,0,0,1,42.175,2.98h.8a1.517,1.517,0,0,0,1.49-1.49A1.517,1.517,0,0,0,42.977,0h-.916a4.11,4.11,0,0,0-4.126,4.126H30.853A1.26,1.26,0,0,1,32.089,2.98h.917A1.516,1.516,0,0,0,34.5,1.49,1.516,1.516,0,0,0,33.007,0h-.917a4.109,4.109,0,0,0-4.125,4.126h-7.2A1.26,1.26,0,0,1,22,2.98h.917a1.517,1.517,0,0,0,1.489-1.49A1.517,1.517,0,0,0,22.922,0H22a4.11,4.11,0,0,0-4.126,4.126H10.8A1.262,1.262,0,0,1,12.034,2.98h.916a1.517,1.517,0,0,0,1.49-1.49A1.517,1.517,0,0,0,12.951,0h-.916A4.109,4.109,0,0,0,7.908,4.126H1.49A1.517,1.517,0,0,0,0,5.616v57.3a1.517,1.517,0,0,0,1.49,1.49H47.333a1.444,1.444,0,0,0,1.489-1.49V5.616a1.517,1.517,0,0,0-1.489-1.49m-7.22,8.023a.688.688,0,1,1-.688-.688c.458,0,.8.343.688.688m-9.971,0a.688.688,0,1,1-.687-.688.739.739,0,0,1,.687.688m-10.085,0a.688.688,0,1,1-.688-.688c.459,0,.8.343.688.688m-9.971,0a.739.739,0,0,1-.687.688.688.688,0,0,1,0-1.375.738.738,0,0,1,.687.688M45.957,61.544H2.98V7.106H7.908V8.939a3.54,3.54,0,1,0,2.865-.063V7.106h7.106V8.939a3.54,3.54,0,1,0,2.866-.063V7.106h7.22V8.939a3.54,3.54,0,1,0,2.865-.063V7.106h7.106V8.939a3.553,3.553,0,1,0,2.979,0V7.106h5.044Z" transform="translate(0 0)" fill="#fff"/>
            <path id="Path_921328" data-name="Path 921328" d="M40.912,16.232H6.53a1.49,1.49,0,0,0,0,2.98H40.912a1.445,1.445,0,0,0,1.49-1.49,1.517,1.517,0,0,0-1.49-1.49" transform="translate(0.689 2.219)" fill="#fff"/>
            <path id="Path_921329" data-name="Path 921329" d="M39.879,20.064H14.092a1.49,1.49,0,1,0,0,2.979H39.879a1.49,1.49,0,1,0,0-2.979" transform="translate(1.723 2.743)" fill="#fff"/>
            <path id="Path_921330" data-name="Path 921330" d="M6.531,26.774H28.078a1.6,1.6,0,0,0,1.49-1.49,1.517,1.517,0,0,0-1.49-1.49H6.531a1.49,1.49,0,1,0,0,2.98" transform="translate(0.689 3.253)" fill="#fff"/>
            <path id="Path_921331" data-name="Path 921331" d="M39.189,27.626H19.133a1.49,1.49,0,0,0,0,2.979H39.189a1.49,1.49,0,1,0,0-2.979" transform="translate(2.412 3.777)" fill="#fff"/>
            <path id="Path_921332" data-name="Path 921332" d="M6.531,34.335H32.318a1.49,1.49,0,1,0,0-2.979H6.531a1.49,1.49,0,1,0,0,2.979" transform="translate(0.689 4.287)" fill="#fff"/>
            <path id="Path_921333" data-name="Path 921333" d="M42.4,36.677a1.517,1.517,0,0,0-1.49-1.49H6.53a1.49,1.49,0,0,0,0,2.98H40.912a1.517,1.517,0,0,0,1.49-1.49" transform="translate(0.689 4.81)" fill="#fff"/>
            <path id="Path_921334" data-name="Path 921334" d="M38.436,49H25.485a1.49,1.49,0,0,0,0,2.98H38.321a1.615,1.615,0,0,0,1.605-1.49A1.517,1.517,0,0,0,38.436,49" transform="translate(3.28 6.699)" fill="#fff"/>
            <path id="Path_921335" data-name="Path 921335" d="M39.469,45.27H17.924a1.49,1.49,0,1,0,0,2.979h21.43A1.712,1.712,0,0,0,40.96,46.76a1.517,1.517,0,0,0-1.49-1.49" transform="translate(2.247 6.189)" fill="#fff"/>
            <path id="Path_921336" data-name="Path 921336" d="M53.966,18.018,51.1,10.8a1.491,1.491,0,0,0-2.751,0l-2.865,7.22a1.033,1.033,0,0,0-.115.573V58.7a4.355,4.355,0,0,0,8.711,0V18.59a.858.858,0,0,0-.115-.573M48.349,51.95h2.98v2.4h-2.98Zm1.375-36.568,1.605,3.553V48.97h-2.98V18.935Zm.115,44.925a1.516,1.516,0,0,1-1.49-1.489v-1.49h2.98v1.49a1.516,1.516,0,0,1-1.49,1.489" transform="translate(6.203 1.351)" fill="#fff"/>
            <path id="Path_921337" data-name="Path 921337" d="M6.531,23.043H9.4a1.49,1.49,0,0,0,0-2.979H6.531a1.49,1.49,0,1,0,0,2.979" transform="translate(0.689 2.743)" fill="#fff"/>
            <path id="Path_921338" data-name="Path 921338" d="M32.081,26.774a1.445,1.445,0,0,0,1.49-1.49,1.517,1.517,0,0,0-1.49-1.49H29.215a1.49,1.49,0,0,0,0,2.98Z" transform="translate(3.79 3.253)" fill="#fff"/>
            <path id="Path_921339" data-name="Path 921339" d="M36.956,23.794h-1.49a1.49,1.49,0,0,0,0,2.98h1.49a1.445,1.445,0,0,0,1.49-1.49,1.517,1.517,0,0,0-1.49-1.49" transform="translate(4.645 3.253)" fill="#fff"/>
            <path id="Path_921340" data-name="Path 921340" d="M6.531,30.605h7.22a1.7,1.7,0,0,0,1.49-1.49,1.517,1.517,0,0,0-1.49-1.489H6.531a1.49,1.49,0,1,0,0,2.979" transform="translate(0.689 3.777)" fill="#fff"/>
            <path id="Path_921341" data-name="Path 921341" d="M37.3,31.356H32.946a1.49,1.49,0,1,0,0,2.979H37.3a1.49,1.49,0,1,0,0-2.979" transform="translate(4.3 4.287)" fill="#fff"/>
          </g>
        </g>
      </g>
    </g>
  </g>
</svg>
