<svg xmlns="http://www.w3.org/2000/svg" xmlns:xlink="http://www.w3.org/1999/xlink" width="104.668" height="150" viewBox="0 0 104.668 150">
  <defs>
    <clipPath id="clip-path">
      <rect id="Rectangle_406985" data-name="Rectangle 406985" width="73" height="73" transform="translate(275.328 9379.664)" fill="#fff" stroke="#707070" stroke-width="1"/>
    </clipPath>
    <clipPath id="clip-path-2">
      <rect id="Rectangle_406982" data-name="Rectangle 406982" width="63.475" height="70.682" fill="#fff" stroke="#3d034b" stroke-width="3"/>
    </clipPath>
    <clipPath id="clip-path-3">
      <rect id="Rectangle_406984" data-name="Rectangle 406984" width="42.467" height="44.002" transform="translate(-0.153 0.271)" fill="#3a2292" stroke="#707070" stroke-width="1"/>
    </clipPath>
    <clipPath id="clip-path-4">
      <rect id="Rectangle_408660" data-name="Rectangle 408660" width="40.386" height="37.333" fill="#3a2292"/>
    </clipPath>
  </defs>
  <g id="Group_1116078" data-name="Group 1116078" transform="translate(-179.83 -1642)">
    <rect id="Rectangle_406980" data-name="Rectangle 406980" width="104.668" height="150" transform="translate(179.83 1642)" fill="#3a2292"/>
    <g id="Mask_Group_1110912" data-name="Mask Group 1110912" transform="translate(-79.498 -7698.664)" clip-path="url(#clip-path)">
      <g id="Group_1113954" data-name="Group 1113954" transform="translate(280.131 9380.624)" clip-path="url(#clip-path-2)">
        <path id="Path_918032" data-name="Path 918032" d="M27.452,63.948A42.13,42.13,0,0,1,6.56,49.078,35.558,35.558,0,0,1,.011,31.658C0,31.568,0,31.482,0,31.392V10.025a3.181,3.181,0,0,1,2.824-3.04C10.9,5.713,22.791,1.815,27.528.2a3.73,3.73,0,0,1,2.393,0C33.635,1.458,46.4,5.675,54.771,6.987a3.179,3.179,0,0,1,2.825,3.04V31.391c0,.09,0,.176-.013.264A35.552,35.552,0,0,1,51.037,49.08c-6.024,8.366-16.761,13.146-21.1,14.814a3.7,3.7,0,0,1-2.488.057" transform="translate(2.939 3.272)" fill="#fff" stroke="#ff85e7" stroke-width="3"/>
      </g>
      <g id="Mask_Group_1110911" data-name="Mask Group 1110911" transform="translate(291.362 9392.394)" clip-path="url(#clip-path-3)">
        <g id="Group_1116028" data-name="Group 1116028" transform="translate(0.847 3.27)">
          <g id="Group_1116027" data-name="Group 1116027" transform="translate(0 0)" clip-path="url(#clip-path-4)">
            <path id="Path_923708" data-name="Path 923708" d="M39.736,6.317l-.416.832a3.608,3.608,0,0,0,1.458.486V8.33h.416V7.7a1.6,1.6,0,0,0,.972-.277,1.474,1.474,0,0,0,.277-.347,1.306,1.306,0,0,0,.14-.555,1.1,1.1,0,0,0-.763-1.041,2.979,2.979,0,0,0-.694-.208V4.513a1.862,1.862,0,0,1,.9.347l.416-.763a4.075,4.075,0,0,0-.555-.278,2.061,2.061,0,0,0-.694-.139V3.125h-.346V3.68a1.41,1.41,0,0,0-1.18.764,1.391,1.391,0,0,0-.07.9,1.428,1.428,0,0,0,.555.555c.348.139.625.209.763.277l-.069.624a2.074,2.074,0,0,1-1.111-.485m1.388,0a.527.527,0,0,1,.346.138c.07,0,.139.14.139.209,0,.138-.139.277-.416.277h-.069Zm-.277-1.11c-.14-.07-.209-.07-.278-.139a.256.256,0,0,1-.069-.209c0-.208.138-.347.416-.347Z" transform="translate(-12.257 -0.974)" fill="#3a2292"/>
            <path id="Path_923709" data-name="Path 923709" d="M20.883,20.37l-.416.833a1.337,1.337,0,0,0,.694.208,2.953,2.953,0,0,0,.763.14v.693h.416v-.624a1.189,1.189,0,0,0,.486-.069,1.078,1.078,0,0,0,.763-.555,1.309,1.309,0,0,0,.139-.555,1.1,1.1,0,0,0-.763-1.041,3,3,0,0,0-.694-.208v-.763a1.869,1.869,0,0,1,.9.347l.416-.763a4.028,4.028,0,0,0-.555-.277,2.052,2.052,0,0,0-.694-.139v-.555h-.416v.555c-.9.139-1.318.625-1.318,1.318a.954.954,0,0,0,.625.9c.346.139.624.209.763.277v.764a2.068,2.068,0,0,1-1.11-.486m1.666,0c.07,0,.139.139.139.208,0,.14-.139.278-.416.278l-.07-.624a.53.53,0,0,1,.347.138m-.9-1.388a.256.256,0,0,1-.07-.209c0-.188.12-.314.347-.337v.684c-.138-.069-.208-.069-.277-.138" transform="translate(-6.38 -5.312)" fill="#3a2292"/>
            <path id="Path_923710" data-name="Path 923710" d="M39.345,26.952a3.253,3.253,0,0,0-2.429-1.041,3.532,3.532,0,0,0-2.428,1.041l-7.009,6.8a3.14,3.14,0,0,0-.763-1.179,3.579,3.579,0,0,0-2.012-.9L8.258,30.283a1.121,1.121,0,0,0-.624.208L.278,37.014a.84.84,0,0,0,0,1.249l6.87,6.87a.848.848,0,0,0,.624.277,1,1,0,0,0,.486-.139l2.915-2.082,15.474,1.041a.889.889,0,0,0,.694-.277l12-12.074a3.435,3.435,0,0,0,0-4.927M38.235,30.7l-11.8,11.8L11.46,41.484,7.217,37.847a.884.884,0,1,0-1.18,1.318L9.61,42.227l-1.7,1.24-5.69-5.691L8.6,32.156l16.1,1.388a1.22,1.22,0,0,1,.9.416,1.451,1.451,0,0,1,.486.9,1.724,1.724,0,0,1-.07.555.53.53,0,0,0-.138.346,1.6,1.6,0,0,1-1.388.764l-9.3-.416a.868.868,0,0,0-.07,1.735l9.3.416a3.3,3.3,0,0,0,3.123-1.873l8.188-8.119a1.99,1.99,0,0,1,1.249-.485A1.7,1.7,0,0,1,38.235,30.7" transform="translate(0 -8.078)" fill="#3a2292"/>
            <path id="Path_923711" data-name="Path 923711" d="M20.174,5.753A2.681,2.681,0,0,0,22.81,3.117a2.637,2.637,0,1,0-2.637,2.637m0-3.47a.9.9,0,1,1-.9.9.917.917,0,0,1,.9-.9" transform="translate(-5.467 -0.15)" fill="#3a2292"/>
            <path id="Path_923712" data-name="Path 923712" d="M17.634,22.379a4.619,4.619,0,0,0,5.967,0,4.535,4.535,0,0,0,1.8-3.678,4.788,4.788,0,1,0-9.577,0,4.847,4.847,0,0,0,1.8,3.678m2.984-6.731A3.036,3.036,0,0,1,23.67,18.7a3.053,3.053,0,1,1-3.053-3.053" transform="translate(-4.934 -4.337)" fill="#3a2292"/>
            <path id="Path_923713" data-name="Path 923713" d="M39.571,9.576a4.788,4.788,0,1,0-4.788-4.788,4.8,4.8,0,0,0,4.788,4.788m0-7.772a3.036,3.036,0,0,1,3.053,3.053,3.053,3.053,0,1,1-6.106,0A3.08,3.08,0,0,1,39.571,1.8" transform="translate(-10.843 0)" fill="#3a2292"/>
          </g>
        </g>
      </g>
    </g>
  </g>
</svg>
