<svg xmlns="http://www.w3.org/2000/svg" xmlns:xlink="http://www.w3.org/1999/xlink" width="99" height="99" viewBox="0 0 99 99">
  <defs>
    <clipPath id="clip-path">
      <rect id="Rectangle_401223" data-name="Rectangle 401223" width="99" height="99" transform="translate(0)" fill="#3d034b"/>
    </clipPath>
    <clipPath id="clip-path-2">
      <rect id="Rectangle_401223-2" data-name="Rectangle 401223" width="88.539" height="88.539" fill="#f3f9ff"/>
    </clipPath>
    <clipPath id="clip-path-3">
      <rect id="Rectangle_407699" data-name="Rectangle 407699" width="65.421" height="60.473" fill="none"/>
    </clipPath>
  </defs>
  <g id="Group_1115801" data-name="Group 1115801" transform="translate(-619.921 -5755.871)">
    <g id="Group_1100724" data-name="Group 1100724" transform="translate(619.921 5755.871)">
      <g id="Group_1099654" data-name="Group 1099654" transform="translate(0 0)">
        <g id="Group_1099652" data-name="Group 1099652" clip-path="url(#clip-path)">
          <path id="Path_873521" data-name="Path 873521" d="M99,77.066A22,22,0,0,1,77.066,99H21.934A22,22,0,0,1,0,77.066V21.933A22,22,0,0,1,21.934,0H77.066A22,22,0,0,1,99,21.934Z" transform="translate(0)" fill="#170551"/>
        </g>
      </g>
      <g id="Group_1099659" data-name="Group 1099659" transform="translate(4.77 5.723)">
        <g id="Group_1099652-2" data-name="Group 1099652" transform="translate(0 0)" clip-path="url(#clip-path-2)">
          <path id="Path_873521-2" data-name="Path 873521" d="M88.539,68.922A19.674,19.674,0,0,1,68.923,88.539H19.616A19.674,19.674,0,0,1,0,68.922V19.616A19.674,19.674,0,0,1,19.616,0H68.923A19.674,19.674,0,0,1,88.539,19.616Z" fill="#f3f9ff"/>
        </g>
      </g>
    </g>
    <g id="Group_1100725" data-name="Group 1100725" transform="translate(636.343 5771.293)">
      <rect id="Rectangle_401104" data-name="Rectangle 401104" width="68" height="69" transform="translate(-0.421 0.138)" fill="none"/>
      <g id="Group_1114701" data-name="Group 1114701" transform="translate(1.579 4.137)">
        <g id="Group_1114700" data-name="Group 1114700" transform="translate(0 0)" clip-path="url(#clip-path-3)">
          <path id="Path_919889" data-name="Path 919889" d="M47.449,3.224H5.606a.927.927,0,0,0-.927.927V56.712a.928.928,0,0,0,.927.928h42.77V4.151a.927.927,0,0,0-.927-.927" transform="translate(-1.279 -0.881)" fill="#3d034b"/>
          <path id="Path_919890" data-name="Path 919890" d="M42.77,0H.927A.927.927,0,0,0,0,.928v52.56a.927.927,0,0,0,.927.928H43.7V.928A.927.927,0,0,0,42.77,0" transform="translate(0 0)" fill="#eae5ff"/>
          <path id="Path_919891" data-name="Path 919891" d="M47.544,58.183a3.264,3.264,0,1,1-3.264-3.265,3.265,3.265,0,0,1,3.264,3.265" transform="translate(-33.022 -19.416)" fill="#6bfcf2"/>
          <path id="Path_922283" data-name="Path 922283" d="M47.544,58.183a3.264,3.264,0,1,1-3.264-3.265,3.265,3.265,0,0,1,3.264,3.265" transform="translate(-33.022 -34.184)" fill="#6bfcf2"/>
          <path id="Path_922285" data-name="Path 922285" d="M47.544,58.183a3.264,3.264,0,1,1-3.264-3.265,3.265,3.265,0,0,1,3.264,3.265" transform="translate(-33.022 -48.347)" fill="#6bfcf2"/>
          <path id="Path_919892" data-name="Path 919892" d="M42.18,61.319a5.235,5.235,0,1,1,5.236-5.235,5.241,5.241,0,0,1-5.236,5.235m0-9.516a4.281,4.281,0,1,0,4.281,4.281A4.286,4.286,0,0,0,42.18,51.8" transform="translate(-30.922 -17.316)" fill="#6bfcf2"/>
          <path id="Path_922282" data-name="Path 922282" d="M42.18,61.319a5.235,5.235,0,1,1,5.236-5.235,5.241,5.241,0,0,1-5.236,5.235m0-9.516a4.281,4.281,0,1,0,4.281,4.281A4.286,4.286,0,0,0,42.18,51.8" transform="translate(-30.922 -32.084)" fill="#6bfcf2"/>
          <path id="Path_922284" data-name="Path 922284" d="M42.18,61.319a5.235,5.235,0,1,1,5.236-5.235,5.241,5.241,0,0,1-5.236,5.235m0-9.516a4.281,4.281,0,1,0,4.281,4.281A4.286,4.286,0,0,0,42.18,51.8" transform="translate(-30.922 -46.247)" fill="#6bfcf2"/>
          <rect id="Rectangle_407688" data-name="Rectangle 407688" width="22.511" height="1.725" transform="translate(18.546 6.823)" fill="#3d034b"/>
          <rect id="Rectangle_407689" data-name="Rectangle 407689" width="9.733" height="1.725" transform="translate(18.546 11.402)" fill="#3d034b"/>
          <rect id="Rectangle_407690" data-name="Rectangle 407690" width="22.511" height="1.725" transform="translate(18.546 20.986)" fill="#3d034b"/>
          <rect id="Rectangle_408534" data-name="Rectangle 408534" width="22.511" height="1.725" transform="translate(18.546 35.149)" fill="#3d034b"/>
          <rect id="Rectangle_407691" data-name="Rectangle 407691" width="9.733" height="1.725" transform="translate(18.546 25.565)" fill="#3d034b"/>
          <rect id="Rectangle_408533" data-name="Rectangle 408533" width="9.733" height="1.725" transform="translate(18.546 39.728)" fill="#3d034b"/>
          <path id="Path_919894" data-name="Path 919894" d="M13.95,13.561v2.155L11.5,12.053l.995-.666Z" transform="translate(-3.145 -3.113)" fill="#ee4643"/>
          <path id="Path_919896" data-name="Path 919896" d="M17.944,10.777l-3.074,4.591V13.215l2.077-3.1Z" transform="translate(-4.066 -2.765)" fill="#de1f26"/>
          <path id="Path_919897" data-name="Path 919897" d="M13.95,33.054v2.154L11.5,31.545l.995-.665Z" transform="translate(-3.145 -8.443)" fill="#ee4643"/>
          <path id="Path_922280" data-name="Path 922280" d="M13.95,33.054v2.154L11.5,31.545l.995-.665Z" transform="translate(-3.145 5.721)" fill="#ff85e7"/>
          <path id="Path_919899" data-name="Path 919899" d="M17.944,30.269,14.871,34.86V32.706h0l2.077-3.1Z" transform="translate(-4.066 -8.094)" fill="#de1f26"/>
          <path id="Path_922281" data-name="Path 922281" d="M17.944,30.269,14.871,34.86V32.706h0l2.077-3.1Z" transform="translate(-4.066 6.07)" fill="#de1f26"/>
          <rect id="Rectangle_407692" data-name="Rectangle 407692" width="4.97" height="2.17" transform="matrix(0.247, -0.969, 0.969, 0.247, 61.959, 11.29)" fill="#9d0388"/>
          <rect id="Rectangle_407693" data-name="Rectangle 407693" width="4.97" height="2.169" transform="translate(59.858 10.754) rotate(-75.689)" fill="#9d0388"/>
          <path id="Path_919901" data-name="Path 919901" d="M83.626,17.666,74.509,53.373,67.19,51.5,76.307,15.8a1.471,1.471,0,0,1,1.788-1.062l4.47,1.141a1.472,1.472,0,0,1,1.062,1.789" transform="translate(-18.37 -4.016)" fill="#3a2292"/>
          <rect id="Rectangle_407694" data-name="Rectangle 407694" width="5.194" height="8.759" transform="matrix(0.247, -0.969, 0.969, 0.247, 55.649, 18.302)" fill="#c4c3c3"/>
          <rect id="Rectangle_407695" data-name="Rectangle 407695" width="1.535" height="7.555" transform="matrix(0.247, -0.969, 0.969, 0.247, 55.854, 19.938)" fill="#7b7b7b"/>
          <rect id="Rectangle_407696" data-name="Rectangle 407696" width="5.194" height="1.828" transform="translate(57.071 18.665) rotate(-75.688)" fill="#e7e9e3"/>
          <path id="Path_919902" data-name="Path 919902" d="M70.743,66.292,69.588,70.81l-2.244-.573a7.452,7.452,0,0,1-.262-4.88Z" transform="translate(-18.264 -17.869)" fill="#c4c3c3"/>
          <path id="Path_919903" data-name="Path 919903" d="M75.452,67.577a7.457,7.457,0,0,1-2.569,4.158l-2.246-.573,1.154-4.519Z" transform="translate(-19.313 -18.22)" fill="#a3a4a4"/>
          <path id="Path_919904" data-name="Path 919904" d="M67.5,72.074l-.124,5.806.969.248,1.4-5.481Z" transform="translate(-18.421 -19.705)" fill="#a3a4a4"/>
          <path id="Path_919905" data-name="Path 919905" d="M72.356,73.435,69.682,78.59l-.97-.248,1.4-5.481Z" transform="translate(-18.786 -19.921)" fill="#7b7b7b"/>
          <rect id="Rectangle_407697" data-name="Rectangle 407697" width="1.39" height="7.554" transform="matrix(0.247, -0.969, 0.969, 0.247, 48.82, 47.488)" fill="#9d0388"/>
          <rect id="Rectangle_407698" data-name="Rectangle 407698" width="27.044" height="1.827" transform="matrix(0.247, -0.969, 0.969, 0.247, 50.001, 46.355)" fill="#eae5ff"/>
          <path id="Path_919906" data-name="Path 919906" d="M68.086,80.025l-.472,1.851a.382.382,0,0,0,.74.189l.473-1.851Z" transform="translate(-18.482 -21.879)" fill="#565557"/>
        </g>
      </g>
    </g>
  </g>
</svg>
