<svg xmlns="http://www.w3.org/2000/svg" xmlns:xlink="http://www.w3.org/1999/xlink" width="178" height="178" viewBox="0 0 178 178">
  <defs>
    <clipPath id="clip-path">
      <rect id="Rectangle_408532" data-name="Rectangle 408532" width="72.431" height="96" fill="none"/>
    </clipPath>
    <clipPath id="clip-path-2">
      <rect id="Rectangle_408531" data-name="Rectangle 408531" width="72.432" height="96" fill="none"/>
    </clipPath>
    <clipPath id="clip-path-3">
      <rect id="Rectangle_408530" data-name="Rectangle 408530" width="66.551" height="85.314" fill="none"/>
    </clipPath>
  </defs>
  <g id="Group_1115785" data-name="Group 1115785" transform="translate(3446.926 8146)">
    <g id="Group_1114090" data-name="Group 1114090" transform="translate(-3446.926 -8146)">
      <path id="Path_882862" data-name="Path 882862" d="M89,0A89,89,0,1,1,0,89,89,89,0,0,1,89,0Z" transform="translate(0 -0.001)" fill="#c0afff"/>
      <path id="Path_882863" data-name="Path 882863" d="M78.668,0A78.668,78.668,0,1,1,0,78.668,78.668,78.668,0,0,1,78.668,0Z" transform="translate(10.332 10.331)" fill="#f3f9ff"/>
    </g>
    <g id="Group_1114092" data-name="Group 1114092" transform="translate(-3407.926 -8107)">
      <rect id="Rectangle_401104" data-name="Rectangle 401104" width="99.117" height="100.574" transform="translate(-0.346 0.193)" fill="none"/>
      <g id="Group_1115862" data-name="Group 1115862" transform="translate(13.655 2.193)">
        <g id="Group_1115861" data-name="Group 1115861" clip-path="url(#clip-path)">
          <g id="Group_1115860" data-name="Group 1115860" transform="translate(0 0)">
            <g id="Group_1115859" data-name="Group 1115859" clip-path="url(#clip-path-2)">
              <path id="Path_922279" data-name="Path 922279" d="M2.268,0H70.152a2.269,2.269,0,0,1,2.269,2.269V93.731A2.269,2.269,0,0,1,70.152,96H2.268A2.268,2.268,0,0,1,0,93.732V2.268A2.268,2.268,0,0,1,2.268,0Z" transform="translate(0 -0.001)" fill="#9d0388"/>
              <rect id="Rectangle_408522" data-name="Rectangle 408522" width="60.691" height="77.915" transform="translate(5.867 10.684)" fill="#fff"/>
              <path id="Path_922269" data-name="Path 922269" d="M39.591,4.513A2.987,2.987,0,0,1,36.6,7.5H12.824a2.99,2.99,0,1,1,0-5.98H36.6a2.988,2.988,0,0,1,2.99,2.992" transform="translate(11.499 1.779)" fill="#8dadba"/>
              <path id="Path_922270" data-name="Path 922270" d="M35.88,12.14H11.8a1.233,1.233,0,0,1-1.232-1.23V3.563a1.232,1.232,0,0,1,2.465,0V9.682H34.654V3.563a1.228,1.228,0,1,1,2.456,0V10.91a1.229,1.229,0,0,1-1.23,1.23" transform="translate(12.367 2.729)" fill="#b8d0d5"/>
              <rect id="Rectangle_408523" data-name="Rectangle 408523" width="23.781" height="3.691" transform="translate(11.469 21.021)" fill="#c6c2c7"/>
              <rect id="Rectangle_408524" data-name="Rectangle 408524" width="7.941" height="3.691" transform="translate(52.598 21.021)" fill="#c6c2c7"/>
              <rect id="Rectangle_408525" data-name="Rectangle 408525" width="44.7" height="3.691" transform="translate(15.839 28.131)" fill="#c6c2c7"/>
              <rect id="Rectangle_408526" data-name="Rectangle 408526" width="49.07" height="3.695" transform="translate(11.469 35.101)" fill="#c6c2c7"/>
              <rect id="Rectangle_408527" data-name="Rectangle 408527" width="26.717" height="3.693" transform="translate(11.472 49.044)" fill="#c6c2c7"/>
              <rect id="Rectangle_408528" data-name="Rectangle 408528" width="30.208" height="3.689" transform="translate(11.469 56.015)" fill="#c6c2c7"/>
              <rect id="Rectangle_408529" data-name="Rectangle 408529" width="28.428" height="3.693" transform="translate(11.469 62.984)" fill="#c6c2c7"/>
              <path id="Path_922271" data-name="Path 922271" d="M14.355,37.246a3.9,3.9,0,1,1-3.908-3.906,3.906,3.906,0,0,1,3.908,3.906" transform="translate(7.677 39)" fill="#b8d0d5"/>
              <path id="Path_922272" data-name="Path 922272" d="M14.355,37.246a3.9,3.9,0,1,1-3.908-3.906,3.906,3.906,0,0,1,3.908,3.906" transform="translate(7.677 39)" fill="#b8d0d5"/>
              <path id="Path_922273" data-name="Path 922273" d="M11.944,32.07a6.659,6.659,0,1,0,6.679,6.659,6.665,6.665,0,0,0-6.679-6.659m0,11.68a5.02,5.02,0,1,1,5.036-5.021,5.022,5.022,0,0,1-5.036,5.021" transform="translate(6.182 37.515)" fill="#b8d0d5"/>
              <path id="Path_922274" data-name="Path 922274" d="M10.448,33.34a3.906,3.906,0,1,0,3.908,3.906,3.9,3.9,0,0,0-3.908-3.906" transform="translate(7.678 39)" fill="#b8d0d5"/>
              <path id="Path_922275" data-name="Path 922275" d="M29.437,21.759A12.994,12.994,0,0,0,26.29,25.9a7.892,7.892,0,0,0-1.922-1.382c-1.337-.653-1.766-.154-.749.707,1.56,1.319,1.454,2.022,2.348,3.155.473.6,1.263.666,1.519-.137A19.527,19.527,0,0,1,30.521,21.9c.957-1.176-.18-.924-1.085-.139" transform="translate(26.971 24.674)" fill="#ff85e7"/>
              <path id="Path_922276" data-name="Path 922276" d="M30.1,24.613a12.941,12.941,0,0,0-3.144,4.146,8.262,8.262,0,0,0-1.922-1.389c-1.339-.647-1.768-.15-.749.714,1.556,1.319,1.452,2.018,2.346,3.153.471.6,1.261.666,1.517-.139A19.613,19.613,0,0,1,31.18,24.75c.961-1.176-.176-.924-1.083-.137" transform="translate(27.745 28.01)" fill="#ff85e7"/>
              <path id="Path_922277" data-name="Path 922277" d="M29.78,27.913a12.909,12.909,0,0,0-3.144,4.142,8.109,8.109,0,0,0-1.92-1.384c-1.339-.649-1.768-.154-.749.71,1.556,1.324,1.454,2.02,2.346,3.155.475.6,1.261.668,1.521-.139a19.444,19.444,0,0,1,3.033-6.347c.961-1.178-.18-.926-1.087-.137" transform="translate(27.376 31.868)" fill="#ff85e7"/>
              <g id="Group_1115858" data-name="Group 1115858" transform="translate(5.88 10.683)" opacity="0.75" style="mix-blend-mode: multiply;isolation: isolate">
                <g id="Group_1115857" data-name="Group 1115857">
                  <g id="Group_1115856" data-name="Group 1115856" clip-path="url(#clip-path-3)">
                    <path id="Path_922278" data-name="Path 922278" d="M69.262,10.8V85.314a4.916,4.916,0,0,1-4.925,4.923H10.109l-7.4-7.4H63.388V4.924Z" transform="translate(-2.71 -4.924)" fill="#a39da9"/>
                  </g>
                </g>
              </g>
            </g>
          </g>
        </g>
      </g>
    </g>
  </g>
</svg>
