<svg xmlns="http://www.w3.org/2000/svg" xmlns:xlink="http://www.w3.org/1999/xlink" width="178" height="178" viewBox="0 0 178 178">
  <defs>
    <clipPath id="clip-path">
      <rect id="Rectangle_408476" data-name="Rectangle 408476" width="88.453" height="100.574" fill="none"/>
    </clipPath>
    <clipPath id="clip-path-2">
      <rect id="Rectangle_408475" data-name="Rectangle 408475" width="88.454" height="100.574" fill="none"/>
    </clipPath>
    <clipPath id="clip-path-3">
      <rect id="Rectangle_408467" data-name="Rectangle 408467" width="26.499" height="5.41" fill="none"/>
    </clipPath>
    <clipPath id="clip-path-4">
      <rect id="Rectangle_408473" data-name="Rectangle 408473" width="16.531" height="17.996" fill="none"/>
    </clipPath>
  </defs>
  <g id="Group_1114940" data-name="Group 1114940" transform="translate(-358.785 -3553.999)">
    <g id="Group_1114081" data-name="Group 1114081" transform="translate(358.785 3554)">
      <path id="Path_882862" data-name="Path 882862" d="M89,0A89,89,0,1,1,0,89,89,89,0,0,1,89,0Z" transform="translate(0 -0.001)" fill="#c0afff"/>
      <path id="Path_882863" data-name="Path 882863" d="M78.668,0A78.668,78.668,0,1,1,0,78.668,78.668,78.668,0,0,1,78.668,0Z" transform="translate(10.332 10.331)" fill="#f3f9ff"/>
    </g>
    <g id="Group_1114084" data-name="Group 1114084" transform="translate(397.785 3593)">
      <rect id="Rectangle_401104" data-name="Rectangle 401104" width="99.117" height="100.574" transform="translate(-0.346 0.193)" fill="none"/>
      <g id="Group_1115823" data-name="Group 1115823" transform="translate(5.654 0.193)">
        <g id="Group_1115822" data-name="Group 1115822" clip-path="url(#clip-path)">
          <g id="Group_1115821" data-name="Group 1115821" transform="translate(0 0)">
            <g id="Group_1115820" data-name="Group 1115820" clip-path="url(#clip-path-2)">
              <path id="Path_922122" data-name="Path 922122" d="M58.193,20.93l-26.5-.132v-5.86a3.944,3.944,0,0,1,3.663-4.2l19.17.095a3.994,3.994,0,0,1,3.664,4.236Z" transform="translate(13.146 4.455)" fill="#ccc"/>
              <g id="Group_1115816" data-name="Group 1115816" transform="translate(44.84 19.975)" opacity="0.5" style="mix-blend-mode: multiply;isolation: isolate">
                <g id="Group_1115815" data-name="Group 1115815">
                  <g id="Group_1115814" data-name="Group 1115814" clip-path="url(#clip-path-3)">
                    <path id="Path_922123" data-name="Path 922123" d="M31.694,14.119V19.4l26.5.132V14.4c-5.2-.086-23.21-.25-26.5-.28" transform="translate(-31.693 -14.119)" fill="#a5a7ab"/>
                  </g>
                </g>
              </g>
              <path id="Path_922124" data-name="Path 922124" d="M77.562,94.229,22.32,93.953a3.051,3.051,0,0,1-2.8-3.236l-.011-72.211a3.014,3.014,0,0,1,2.8-3.207l55.243.274a3.053,3.053,0,0,1,2.8,3.237l.01,72.209a3.014,3.014,0,0,1-2.8,3.209" transform="translate(8.092 6.346)" fill="#3a2292"/>
              <path id="Path_922125" data-name="Path 922125" d="M75.352,87.745l-53.094-.265-.01-68.638,53.094.265Z" transform="translate(9.228 7.816)" fill="#fff"/>
              <rect id="Rectangle_408468" data-name="Rectangle 408468" width="5.025" height="16.177" transform="translate(35.712 73.184)" fill="#d7d7d7"/>
              <rect id="Rectangle_408469" data-name="Rectangle 408469" width="5.025" height="21.203" transform="translate(45.614 68.157)" fill="#bebebe"/>
              <rect id="Rectangle_408470" data-name="Rectangle 408470" width="5.025" height="30.965" transform="translate(55.515 58.395)" fill="#ff85e7"/>
              <rect id="Rectangle_408471" data-name="Rectangle 408471" width="5.025" height="28.252" transform="translate(65.415 61.109)" fill="#9d0388"/>
              <rect id="Rectangle_408472" data-name="Rectangle 408472" width="5.025" height="38.232" transform="translate(75.318 51.129)" fill="#6bfcf2"/>
              <path id="Path_922126" data-name="Path 922126" d="M27.411,53.961,26.8,52.888l9.81-5.552L46.728,35.769l9.86,3.759,9.625-13.356,1,.72L57.033,41.019l-9.942-3.794-9.78,11.134Z" transform="translate(11.118 10.856)" fill="#ff85e7"/>
              <path id="Path_922127" data-name="Path 922127" d="M29.417,45.979a1.855,1.855,0,1,1-1.855-1.855,1.855,1.855,0,0,1,1.855,1.855" transform="translate(10.663 18.302)" fill="#ff85e7"/>
              <path id="Path_922128" data-name="Path 922128" d="M36.416,42.019a1.855,1.855,0,1,1-1.855-1.855,1.855,1.855,0,0,1,1.855,1.855" transform="translate(13.566 16.66)" fill="#ff85e7"/>
              <path id="Path_922129" data-name="Path 922129" d="M43.234,34.3a1.855,1.855,0,1,1-1.855-1.855A1.855,1.855,0,0,1,43.234,34.3" transform="translate(16.394 13.46)" fill="#ff85e7"/>
              <path id="Path_922130" data-name="Path 922130" d="M50.412,36.537a1.855,1.855,0,1,1-1.855-1.855,1.855,1.855,0,0,1,1.855,1.855" transform="translate(19.371 14.386)" fill="#ff85e7"/>
              <path id="Path_922131" data-name="Path 922131" d="M57.411,27.09a1.855,1.855,0,1,1-1.855-1.855,1.855,1.855,0,0,1,1.855,1.855" transform="translate(22.274 10.467)" fill="#ff85e7"/>
              <path id="Path_922132" data-name="Path 922132" d="M48.45,32.4c-1.525,10.182-6.722,17.458-17.484,20.053-1.186.287-8.936.2-8.936.2S7.063,40.554,8.666,27.51s17.648-22.1,17.648-22.1A95.1,95.1,0,0,1,36.409,8.5C45,11.96,50.131,21.18,48.45,32.4" transform="translate(3.545 2.245)" fill="#540549"/>
              <path id="Path_922133" data-name="Path 922133" d="M44.6,31.479C43,44.523,32.794,54,21.808,52.654S3.215,39.636,4.818,26.592,16.624,4.066,27.611,5.416,46.2,18.434,44.6,31.479" transform="translate(1.91 2.193)" fill="#9d0388"/>
              <path id="Path_922134" data-name="Path 922134" d="M38.628,29.3C37.4,39.324,29.555,46.609,21.113,45.57s-14.287-10-13.054-20.025S17.132,8.237,25.573,9.274s14.287,10,13.056,20.026" transform="translate(3.275 3.806)" fill="#fff"/>
              <path id="Path_922135" data-name="Path 922135" d="M33.577,27.458c-.917,7.467-6.76,12.9-13.049,12.123S9.884,32.128,10.8,24.659s6.76-12.894,13.05-12.122,10.643,7.453,9.727,14.92" transform="translate(4.429 5.17)" fill="#9d0388"/>
              <path id="Path_922136" data-name="Path 922136" d="M28.766,25.7c-.618,5.034-4.557,8.692-8.8,8.172s-7.176-5.024-6.556-10.058,4.556-8.694,8.8-8.172,7.176,5.024,6.558,10.058" transform="translate(5.529 6.469)" fill="#fff"/>
              <path id="Path_922137" data-name="Path 922137" d="M23.994,23.962c-.323,2.62-2.373,4.524-4.578,4.253S15.682,25.6,16,22.98s2.371-4.523,4.577-4.253,3.734,2.615,3.414,5.235" transform="translate(6.62 7.757)" fill="#ff85e7"/>
              <g id="Group_1115819" data-name="Group 1115819" transform="translate(26.244 31.213)" opacity="0.67" style="mix-blend-mode: multiply;isolation: isolate">
                <g id="Group_1115818" data-name="Group 1115818">
                  <g id="Group_1115817" data-name="Group 1115817" clip-path="url(#clip-path-4)">
                    <path id="Path_922138" data-name="Path 922138" d="M28.749,29.017l-.273.3-9.263-7.252c-.16.055-.32.112-.478.171-.062.03-.126.061-.184.091l7.133,10.1-.34.369L31.4,40.058A24.138,24.138,0,0,0,35.081,35.4Z" transform="translate(-18.55 -22.062)" fill="#b35c45"/>
                  </g>
                </g>
              </g>
              <path id="Path_922139" data-name="Path 922139" d="M21.237,24.958,21.4,24.9,15.021,15.6l-1.635,1.331,7.445,8.125c.136-.03.272-.062.406-.1" transform="translate(5.552 6.47)" fill="#5c5248"/>
              <rect id="Rectangle_408474" data-name="Rectangle 408474" width="2.549" height="24.085" transform="matrix(0.775, -0.632, 0.632, 0.775, 4.755, 6.316)" fill="#51555d"/>
              <path id="Path_922140" data-name="Path 922140" d="M3.378,4.242S2.18-.329,6.128.019s5.738,9.838,4.989,13.721Z" transform="translate(1.33 0)" fill="#9d0388"/>
              <path id="Path_922141" data-name="Path 922141" d="M4.708,3.161S.474,1.065.017,5s8.477,7.606,12.43,7.655Z" transform="translate(0 1.08)" fill="#9d0388"/>
              <path id="Path_922142" data-name="Path 922142" d="M1.49.742s1.8,4.612,10.339,12.689C5.644,3.44,1.49.742,1.49.742" transform="translate(0.618 0.308)" fill="#ff85e7"/>
            </g>
          </g>
        </g>
      </g>
    </g>
  </g>
</svg>
