<svg xmlns="http://www.w3.org/2000/svg" width="295" height="147" viewBox="0 0 295 147">
  <g id="Group_1116055" data-name="Group 1116055" transform="translate(-284.711 -2400)">
    <ellipse id="Ellipse_11859" data-name="Ellipse 11859" cx="147.5" cy="73.5" rx="147.5" ry="73.5" transform="translate(284.711 2400)" fill="#ffe4fa"/>
    <g id="Group_1115013" data-name="Group 1115013" transform="translate(2.145 -3252)">
      <g id="Group_1114679" data-name="Group 1114679" transform="translate(296.905 5652.667)">
        <g id="Group_1115014" data-name="Group 1115014" transform="translate(12.994 1.334)">
          <rect id="Rectangle_407610" data-name="Rectangle 407610" width="52.81" height="126.436" transform="translate(189.857 14.892)" fill="#004f61"/>
          <rect id="Rectangle_407611" data-name="Rectangle 407611" width="47.301" height="15.532" transform="translate(192.612 19.502)" fill="#06677d"/>
          <rect id="Rectangle_407612" data-name="Rectangle 407612" width="33.998" height="2.471" transform="translate(195.171 26.034)" fill="#067c96"/>
          <rect id="Rectangle_407613" data-name="Rectangle 407613" width="33.998" height="2.471" transform="translate(195.171 21.404)" fill="#067c96"/>
          <rect id="Rectangle_407614" data-name="Rectangle 407614" width="33.998" height="2.471" transform="translate(195.171 30.665)" fill="#067c96"/>
          <path id="Path_919531" data-name="Path 919531" d="M6.562,43.415A1.964,1.964,0,1,1,4.6,45.379a1.963,1.963,0,0,1,1.964-1.964" transform="translate(227.924 -18.108)" fill="#ffa8fb" fill-rule="evenodd"/>
          <rect id="Rectangle_407615" data-name="Rectangle 407615" width="47.301" height="15.532" transform="translate(192.614 38.955)" fill="#06677d"/>
          <rect id="Rectangle_407616" data-name="Rectangle 407616" width="33.999" height="2.471" transform="translate(203.354 45.487)" fill="#067c96"/>
          <rect id="Rectangle_407617" data-name="Rectangle 407617" width="33.999" height="2.471" transform="translate(203.354 40.855)" fill="#067c96"/>
          <rect id="Rectangle_407618" data-name="Rectangle 407618" width="33.999" height="2.471" transform="translate(203.354 50.117)" fill="#067c96"/>
          <path id="Path_919532" data-name="Path 919532" d="M33.513,57.8a1.964,1.964,0,1,0,1.962,1.964A1.963,1.963,0,0,0,33.513,57.8" transform="translate(164.527 -13.04)" fill="#ffa8fb" fill-rule="evenodd"/>
          <rect id="Rectangle_407619" data-name="Rectangle 407619" width="47.301" height="15.532" transform="translate(192.612 58.797)" fill="#06677d"/>
          <rect id="Rectangle_407620" data-name="Rectangle 407620" width="33.998" height="2.472" transform="translate(195.171 65.331)" fill="#067c96"/>
          <rect id="Rectangle_407621" data-name="Rectangle 407621" width="33.998" height="2.471" transform="translate(195.171 60.698)" fill="#067c96"/>
          <rect id="Rectangle_407622" data-name="Rectangle 407622" width="33.998" height="2.471" transform="translate(195.171 69.961)" fill="#067c96"/>
          <path id="Path_919533" data-name="Path 919533" d="M6.562,72.472A1.964,1.964,0,1,1,4.6,74.436a1.963,1.963,0,0,1,1.964-1.964" transform="translate(227.924 -7.869)" fill="#ffa8fb" fill-rule="evenodd"/>
          <rect id="Rectangle_407623" data-name="Rectangle 407623" width="47.301" height="15.532" transform="translate(192.614 78.251)" fill="#06677d"/>
          <rect id="Rectangle_407624" data-name="Rectangle 407624" width="33.999" height="2.471" transform="translate(203.354 84.783)" fill="#067c96"/>
          <rect id="Rectangle_407625" data-name="Rectangle 407625" width="33.999" height="2.471" transform="translate(203.354 80.151)" fill="#067c96"/>
          <rect id="Rectangle_407626" data-name="Rectangle 407626" width="33.999" height="2.472" transform="translate(203.354 89.412)" fill="#067c96"/>
          <path id="Path_919534" data-name="Path 919534" d="M33.513,86.856a1.964,1.964,0,1,0,1.962,1.964,1.963,1.963,0,0,0-1.962-1.964" transform="translate(164.527 -2.803)" fill="#ffa8fb" fill-rule="evenodd"/>
          <rect id="Rectangle_407627" data-name="Rectangle 407627" width="47.301" height="15.532" transform="translate(192.612 98.331)" fill="#06677d"/>
          <rect id="Rectangle_407628" data-name="Rectangle 407628" width="33.998" height="2.471" transform="translate(195.171 104.86)" fill="#067c96"/>
          <rect id="Rectangle_407629" data-name="Rectangle 407629" width="33.998" height="2.471" transform="translate(195.171 100.229)" fill="#067c96"/>
          <rect id="Rectangle_407630" data-name="Rectangle 407630" width="33.998" height="2.471" transform="translate(195.171 109.49)" fill="#067c96"/>
          <path id="Path_919535" data-name="Path 919535" d="M6.562,101.7A1.964,1.964,0,1,1,4.6,103.666,1.963,1.963,0,0,1,6.562,101.7" transform="translate(227.924 2.429)" fill="#ffa8fb" fill-rule="evenodd"/>
          <rect id="Rectangle_407631" data-name="Rectangle 407631" width="47.301" height="15.532" transform="translate(192.614 117.782)" fill="#06677d"/>
          <rect id="Rectangle_407632" data-name="Rectangle 407632" width="33.999" height="2.471" transform="translate(203.354 124.312)" fill="#067c96"/>
          <rect id="Rectangle_407633" data-name="Rectangle 407633" width="33.999" height="2.471" transform="translate(203.354 119.682)" fill="#067c96"/>
          <rect id="Rectangle_407634" data-name="Rectangle 407634" width="33.999" height="2.471" transform="translate(203.354 128.943)" fill="#067c96"/>
          <path id="Path_919536" data-name="Path 919536" d="M33.513,116.087a1.963,1.963,0,1,0,1.962,1.964,1.963,1.963,0,0,0-1.962-1.964" transform="translate(164.527 7.498)" fill="#ffa8fb" fill-rule="evenodd"/>
          <rect id="Rectangle_407635" data-name="Rectangle 407635" width="54.813" height="131.232" transform="translate(140.378 10.346)" fill="#00657c"/>
          <rect id="Rectangle_407636" data-name="Rectangle 407636" width="49.095" height="16.121" transform="translate(143.236 15.132)" fill="#067c96"/>
          <rect id="Rectangle_407637" data-name="Rectangle 407637" width="35.288" height="2.564" transform="translate(145.892 21.909)" fill="#0393b0"/>
          <rect id="Rectangle_407638" data-name="Rectangle 407638" width="35.288" height="2.564" transform="translate(145.892 17.102)" fill="#0393b0"/>
          <rect id="Rectangle_407639" data-name="Rectangle 407639" width="35.288" height="2.564" transform="translate(145.892 26.717)" fill="#0393b0"/>
          <path id="Path_919537" data-name="Path 919537" d="M41.917,40.344a2.038,2.038,0,1,1-2.038,2.038,2.038,2.038,0,0,1,2.038-2.038" transform="translate(144.782 -19.191)" fill="#ffa8fb" fill-rule="evenodd"/>
          <rect id="Rectangle_407640" data-name="Rectangle 407640" width="49.095" height="16.121" transform="translate(143.235 35.322)" fill="#067c96"/>
          <rect id="Rectangle_407641" data-name="Rectangle 407641" width="35.288" height="2.565" transform="translate(154.387 42.1)" fill="#0393b0"/>
          <rect id="Rectangle_407642" data-name="Rectangle 407642" width="35.288" height="2.564" transform="translate(154.387 37.292)" fill="#0393b0"/>
          <rect id="Rectangle_407643" data-name="Rectangle 407643" width="35.288" height="2.564" transform="translate(154.387 46.908)" fill="#0393b0"/>
          <path id="Path_919538" data-name="Path 919538" d="M69.89,55.274a2.038,2.038,0,1,0,2.038,2.039,2.04,2.04,0,0,0-2.038-2.039" transform="translate(78.98 -13.929)" fill="#ffa8fb" fill-rule="evenodd"/>
          <rect id="Rectangle_407644" data-name="Rectangle 407644" width="49.095" height="16.121" transform="translate(143.236 55.918)" fill="#067c96"/>
          <rect id="Rectangle_407645" data-name="Rectangle 407645" width="35.288" height="2.564" transform="translate(145.892 62.695)" fill="#0393b0"/>
          <rect id="Rectangle_407646" data-name="Rectangle 407646" width="35.288" height="2.565" transform="translate(145.892 57.89)" fill="#0393b0"/>
          <rect id="Rectangle_407647" data-name="Rectangle 407647" width="35.288" height="2.564" transform="translate(145.892 67.503)" fill="#0393b0"/>
          <path id="Path_919539" data-name="Path 919539" d="M41.917,70.5a2.038,2.038,0,1,1-2.038,2.038A2.038,2.038,0,0,1,41.917,70.5" transform="translate(144.782 -8.563)" fill="#3ab54a" fill-rule="evenodd"/>
          <rect id="Rectangle_407648" data-name="Rectangle 407648" width="49.095" height="16.121" transform="translate(143.235 76.11)" fill="#067c96"/>
          <rect id="Rectangle_407649" data-name="Rectangle 407649" width="35.288" height="2.564" transform="translate(154.387 82.888)" fill="#0393b0"/>
          <rect id="Rectangle_407650" data-name="Rectangle 407650" width="35.288" height="2.564" transform="translate(154.387 78.081)" fill="#0393b0"/>
          <rect id="Rectangle_407651" data-name="Rectangle 407651" width="35.288" height="2.564" transform="translate(154.387 87.694)" fill="#0393b0"/>
          <path id="Path_919540" data-name="Path 919540" d="M69.89,85.434a2.038,2.038,0,1,0,2.038,2.038,2.038,2.038,0,0,0-2.038-2.038" transform="translate(78.98 -3.304)" fill="#ffa8fb" fill-rule="evenodd"/>
          <rect id="Rectangle_407652" data-name="Rectangle 407652" width="49.095" height="16.121" transform="translate(143.236 96.949)" fill="#067c96"/>
          <rect id="Rectangle_407653" data-name="Rectangle 407653" width="35.288" height="2.564" transform="translate(145.892 103.727)" fill="#0393b0"/>
          <rect id="Rectangle_407654" data-name="Rectangle 407654" width="35.288" height="2.564" transform="translate(145.892 98.92)" fill="#0393b0"/>
          <rect id="Rectangle_407655" data-name="Rectangle 407655" width="35.288" height="2.564" transform="translate(145.892 108.533)" fill="#0393b0"/>
          <path id="Path_919541" data-name="Path 919541" d="M41.917,100.844a2.038,2.038,0,1,1-2.038,2.038,2.038,2.038,0,0,1,2.038-2.038" transform="translate(144.782 2.128)" fill="#ffa8fb" fill-rule="evenodd"/>
          <rect id="Rectangle_407656" data-name="Rectangle 407656" width="49.095" height="16.121" transform="translate(143.235 117.137)" fill="#067c96"/>
          <rect id="Rectangle_407657" data-name="Rectangle 407657" width="35.288" height="2.564" transform="translate(154.387 123.918)" fill="#0393b0"/>
          <rect id="Rectangle_407658" data-name="Rectangle 407658" width="35.288" height="2.564" transform="translate(154.387 119.11)" fill="#0393b0"/>
          <rect id="Rectangle_407659" data-name="Rectangle 407659" width="35.288" height="2.564" transform="translate(154.387 128.724)" fill="#0393b0"/>
          <path id="Path_919542" data-name="Path 919542" d="M69.89,115.774a2.038,2.038,0,1,0,2.038,2.038,2.038,2.038,0,0,0-2.038-2.038" transform="translate(78.98 7.386)" fill="#ffa8fb" fill-rule="evenodd"/>
          <path id="Path_919543" data-name="Path 919543" d="M33.306,127.05l.118,4.79,8.7-.154-2.86-5.161Z" transform="translate(155.499 11.175)" fill="#1f1c1d" fill-rule="evenodd"/>
          <path id="Path_919544" data-name="Path 919544" d="M50.761,127.062l-.118,4.9-8.7-.16,2.862-5.274Z" transform="translate(135.184 11.174)" fill="#1f1c1d" fill-rule="evenodd"/>
          <rect id="Rectangle_407660" data-name="Rectangle 407660" width="7.744" height="6.439" transform="translate(183.481 39.089)" fill="#f0c17d"/>
          <path id="Path_919545" data-name="Path 919545" d="M42.7,60.258h-.065A3.844,3.844,0,0,1,41,60.068c-.418-.178-.622-.59-1.2-1.145-.49-.472-1.37-.955-1.586-1.469a8.817,8.817,0,0,1-.308-2.219c-.456.25-.943-1.053-1.041-1.481-.141-.63-.6-1.7-.736-2.422-.082-.412-.034-.74.105-.843.295-.22.6-.1,1.039.5.03-.507.062-1.032.046-1.586a13.788,13.788,0,0,1,.066-2.637,3.1,3.1,0,0,1,1.02-1.888v0a5.266,5.266,0,0,1,1.121-.753l.014-.005.081-.039.046-.022a.562.562,0,0,1,.065-.03L39.795,44a.574.574,0,0,1,.069-.028.616.616,0,0,1,.061-.028c.03-.012.058-.024.089-.034l.042-.018c.042-.018.085-.032.131-.049h0A7.3,7.3,0,0,1,43.7,43.5a5.964,5.964,0,0,1,3.1,1.362,3.1,3.1,0,0,1,1.014,1.881,13.729,13.729,0,0,1,.073,2.626c-.016.559.019,1.086.049,1.6.433-.583.733-.7,1.026-.48.138.1.189.43.107.843-.141.719-.6,1.792-.738,2.422-.1.423-.573,1.7-1.024,1.489a8.453,8.453,0,0,1-.3,2.164c-.215.517-1.089,1-1.575,1.481-.573.563-.776.975-1.193,1.16a3.623,3.623,0,0,1-1.539.21" transform="translate(144.758 -18.103)" fill="#f0c17d" fill-rule="evenodd"/>
          <path id="Path_919546" data-name="Path 919546" d="M36.482,51.2c-1.1-4.467-.145-9.745,6.117-9.123,5.888-.316,7.047,4.759,5.589,9.4-.792,5.593-3.143,8.084-5.926,8.785-3.181-1.208-4.346-1.575-5.78-9.061" transform="translate(145.106 -18.599)" fill="#632404" fill-rule="evenodd"/>
          <path id="Path_919547" data-name="Path 919547" d="M51.13,97.283l-.642,46.429-3.576.7-3.425-.871L40.934,94.257l1.409-12.17,9.253-1.31V97.062Z" transform="translate(135.713 -4.943)" fill="#05345e" fill-rule="evenodd"/>
          <path id="Path_919548" data-name="Path 919548" d="M45.7,97.283l-.622,46.429-3.454.715L40.65,89.39l.252-7.868,5.417-.745.229,13.375-.131,2.91Z" transform="translate(141.145 -4.943)" fill="#032747" fill-rule="evenodd"/>
          <path id="Path_919549" data-name="Path 919549" d="M33.273,97.283l1.154,46.135,3.012.475,3.462-1.121,2.569-48.514L42.06,82.088l-9.251-1.31V97.062Z" transform="translate(154.828 -4.943)" fill="#032747" fill-rule="evenodd"/>
          <path id="Path_919550" data-name="Path 919550" d="M37.295,97.272l.368,46.214,3.846.383.834-54.489-.252-7.868-5.476-.706.1,16.266Z" transform="translate(150.808 -4.933)" fill="#05345e" fill-rule="evenodd"/>
          <path id="Path_919551" data-name="Path 919551" d="M46.127,55.793a2.147,2.147,0,0,0,.936,1.653l-2.4,4.1H39.687l-2.4-4.1a2.143,2.143,0,0,0,.934-1.653c1.881.809,6.129.974,7.906,0" transform="translate(145.179 -13.748)" fill="#d8ebed" fill-rule="evenodd"/>
          <path id="Path_919552" data-name="Path 919552" d="M58.927,67.4l-2.79,11.617a21.665,21.665,0,0,0-.694,9.066l1.436,14.179h-10.8l-.407-7.876-.461,7.876H34.421c.614-6.063,1.4-14.177.035-19.874L30.436,64.8c-.235-1.032.128-3.812,1.154-4.142,5.1-1.644,7.121-2.1,9.111-3.7.755.825,8.924.6,9.959.031,1.965,1.77,3.178,2.368,8.328,4.411,1.892.752.268,4.63-.059,6" transform="translate(141.715 -13.338)" fill="#05345e" fill-rule="evenodd"/>
          <path id="Path_919553" data-name="Path 919553" d="M21.828,48.652h.043a.657.657,0,0,1,.673-.521H22.6a.654.654,0,0,1,.678.542h.046A.65.65,0,0,1,24,48.121h.055a.645.645,0,0,1,.679.583l.054.007V48.7a.47.47,0,0,1,.5-.434h.039a.47.47,0,0,1,.5.434v2.116l.042,2.467a2.335,2.335,0,0,1-.924,1.685l-.343.287-.565,3.225h-3.48l.577-3.293a1.359,1.359,0,0,1-.891-1.086L19.8,51.906a.587.587,0,0,1,.149-.761l.479-.38-.018-.964c0-.038,0-.076,0-.112V45.273a.681.681,0,0,1,.679-.679h.054a.682.682,0,0,1,.68.679Z" transform="translate(190.136 -17.692)" fill="#f0c07d" fill-rule="evenodd"/>
          <path id="Path_919554" data-name="Path 919554" d="M34.1,71.155c.646.241,2.125-.521,2.971-1.692,2.64-3.65-2.536-5.031-4.49-5.958L24.4,60.979c-4.176-1.78-2.323,1.331-4.468,2.583L19.47,68.74Z" transform="translate(178.527 -12.111)" fill="#05345e" fill-rule="evenodd"/>
          <path id="Path_919555" data-name="Path 919555" d="M24.821,53.476l-.037-.8-4.315-.151-.064,1.26Z" transform="translate(190.251 -14.897)" fill="#d8ebed" fill-rule="evenodd"/>
          <path id="Path_919556" data-name="Path 919556" d="M19.488,69.539l.784-16.6L25,53.193l1.029,15.39a9.982,9.982,0,0,1-.143,2.254c-.56,2.122-5.445-.464-6.4-1.3" transform="translate(190.281 -14.752)" fill="#05345e" fill-rule="evenodd"/>
          <path id="Path_919557" data-name="Path 919557" d="M60.317,48.623l-.569,2.3c-.055.219,2.6,1.961,2.49.962L62.071,50.4l1.03-1.928a4.206,4.206,0,0,0-.358-1.893.449.449,0,0,0-.634.014c-.348.362-1.674,1.559-1.792,2.031" transform="translate(98.742 -17.037)" fill="#f0c07d" fill-rule="evenodd"/>
          <path id="Path_919558" data-name="Path 919558" d="M62.618,46.052,60.782,47.97a.388.388,0,0,0-.053.064.819.819,0,0,0-.177.362l-.6,2.4a4.262,4.262,0,0,0,.051.929c.053.218.2-.174.38-.181.51-.019,1.112.661,1.137-.625l.047-2.277,1.8-1.877a.517.517,0,0,0-.747-.715" transform="translate(98.089 -17.237)" fill="#ffdba7" fill-rule="evenodd"/>
          <path id="Path_919559" data-name="Path 919559" d="M63,49.233l-1.051.169c-.164.027-.979,1.815-1.939.016-.165-.308-1.64-.089-1.627.26a7.916,7.916,0,0,0,.262,2.031,6.83,6.83,0,0,0,1.663,2.122l.331,3.075,2.395-.963.426-1.931c.074-.342.66-.872.584-1.374l-.376-2.511c-.051-.346-.325-.951-.669-.894" transform="translate(99.663 -16.06)" fill="#ffdba7" fill-rule="evenodd"/>
          <path id="Path_919560" data-name="Path 919560" d="M60.685,41a5.134,5.134,0,1,1-5.135,5.134A5.135,5.135,0,0,1,60.685,41" transform="translate(101.725 -18.96)" fill="#a5c2d9" fill-rule="evenodd"/>
          <path id="Path_919561" data-name="Path 919561" d="M59.827,43.438a1.843,1.843,0,1,1-1.842,1.842,1.842,1.842,0,0,1,1.842-1.842" transform="translate(102.584 -18.1)" fill="#676e73" fill-rule="evenodd"/>
          <path id="Path_919562" data-name="Path 919562" d="M59.3,46.608h0a.617.617,0,0,0-.592.64c.041,1.11.253,2.291.231,3.4l-.066,1.032a.6.6,0,0,0,.638.594c.339-.014.376-.38.594-.641l.619-.741L59.937,47.2a.666.666,0,0,0-.64-.594" transform="translate(102.555 -16.984)" fill="#ffdba7" fill-rule="evenodd"/>
          <path id="Path_919563" data-name="Path 919563" d="M51.259,71.438c-.621.326-2.212-.256-3.216-1.331-3.129-3.35,1.92-5.4,3.777-6.587l6.461-3.082c5.419-2.418,4,.538,6.329,1.53l1.12,5.17Z" transform="translate(113.319 -12.437)" fill="#05345e" fill-rule="evenodd"/>
          <path id="Path_919564" data-name="Path 919564" d="M58.227,53.67l-.062-.807,4.336-.7.224,1.264Z" transform="translate(101.283 -15.027)" fill="#d8ebed" fill-rule="evenodd"/>
          <path id="Path_919565" data-name="Path 919565" d="M63.651,69.222l-2.9-16.662-4.74.856.918,15.671a10.142,10.142,0,0,0,.431,2.258c.834,2.072,5.439-1.16,6.292-2.123" transform="translate(103.272 -14.886)" fill="#05345e" fill-rule="evenodd"/>
          <path id="Path_919566" data-name="Path 919566" d="M89.2,129.751c-2.646,3.829-3.61,4.335-7.462,4.852-1.2.16-1.59.419-1.559,1.684,3.7.28,6.849.254,10.557.215.542-.881.744-1.436,1.717-1.534l.092,1.5h3.284l.165-3.1-.778-3.316Z" transform="translate(18.633 -8.81)" fill-rule="evenodd"/>
          <path id="Path_919567" data-name="Path 919567" d="M91.5,92.163c.883-3.715,1.078-5.137.612-7.57a24.461,24.461,0,0,0-3.034-7.564L78.706,79.79l-.53,8.791L79.2,91.9l1.347,15.143.092.889,1.691,30.32,7.432.142.567-21.282-.917-10.25a100.124,100.124,0,0,1,2.089-14.7" transform="translate(24.532 -15.954)" fill="#111417" fill-rule="evenodd"/>
          <path id="Path_919568" data-name="Path 919568" d="M87.313,130.006c-2.645,3.829-3.61,4.336-7.461,4.852-1.2.16-1.591.419-1.56,1.684,3.7.281,6.849.254,10.555.215.543-.881.745-1.436,1.718-1.534l.092,1.5h3.284l.164-3.1-.777-3.316Z" transform="translate(22.659 -8.777)" fill="#1f1c1d" fill-rule="evenodd"/>
          <path id="Path_919569" data-name="Path 919569" d="M90.834,91.959c.793-3.715.952-5.137.428-7.57a25.1,25.1,0,0,0-3.22-7.564L77.735,79.587l-.318,8.791,1.109,3.317,1.718,15.143.112.888,2.431,30.321,7.435.141.047-21.281L89.1,106.655a99.08,99.08,0,0,1,1.73-14.7" transform="translate(26.189 -15.982)" fill="#22282e" fill-rule="evenodd"/>
          <path id="Path_919570" data-name="Path 919570" d="M91.574,52.426l-4.7,5.951L85.7,57.307c-.456-.98-.738-1.972-.963-2.574-.728-1.969-1.113-1.358-3.176-1.944l4.964-10.842,3.252,3.575c.2,1.629.14,2.648.422,4.413a6.532,6.532,0,0,0,1.371,2.492" transform="translate(21.471 -20.708)" fill="#f0c17d" fill-rule="evenodd"/>
          <path id="Path_919571" data-name="Path 919571" d="M86.709,41.211l-.627,1.445a5.7,5.7,0,0,0-.223,1.8,6.046,6.046,0,0,0,.041,1.559,5.127,5.127,0,0,1,.4,1.191,4.707,4.707,0,0,1-.888,2.3c-.352.631.605.863,1.156.857.3,0,.347.142.286.312a1.048,1.048,0,0,1-.257.367c.085.446.317.447.885.422-.562.177-.609.35-.452.942.384.044.6.024.674.336.252,1.034.077,1.742,1.415,1.541,1.174-.177,3.17-1.905,3.938-2.825a2.225,2.225,0,0,0,.235-1.475l-.066-.952a7.824,7.824,0,0,0,.728-2.622l.149-1.352-1.558-4.177Z" transform="translate(14.665 -20.851)" fill="#ffdba7" fill-rule="evenodd"/>
          <path id="Path_919572" data-name="Path 919572" d="M81.145,44.288c.137-3.856,3.029-5.675,6.136-6,4.055-.425,8.038,3.5,6.716,7.867-.519,1.712-1.13,2.114-1.585,4-2.951-.935-1.853-2.4-3.545-4.189-1.83-1.936-2.592,1.5-3.034,2.53-.351-1.341-.785-3.57-2.045-3.376.179-2.1-1.231-2.726-2.643-.83" transform="translate(19.267 -21.209)" fill="#632404" fill-rule="evenodd"/>
          <path id="Path_919573" data-name="Path 919573" d="M87.623,51.226c3.409,3.486,4.8,4.827,5.358,7.611,1.115,5.566-.5,9.612-1.191,14.3S90.585,80.4,90.711,84.1a27.4,27.4,0,0,1-12.854-.772c-.42-6.277-.966-9.049-.925-13.2-1.478-7.188.6-8.3,3.4-14.816Z" transform="translate(25.499 -19.45)" fill="#dde5e6" fill-rule="evenodd"/>
          <path id="Path_919574" data-name="Path 919574" d="M91.023,54.061l.412,2.632c-.4.575-.881.832-1.254,1.456l-.805,4.175c-1.209,4.223-1.469,6.247-1.812,12.284-1.3-6.538-.6-10.4,1.723-16.787a5.613,5.613,0,0,1,1.352-3.909Z" transform="translate(15.533 -19.086)" fill="#333d45" fill-rule="evenodd"/>
          <path id="Path_919575" data-name="Path 919575" d="M87.857,49.936a14.8,14.8,0,0,1-6.6,4.322l.464,3.242a12.9,12.9,0,0,0,6.983-6.02Z" transform="translate(24.686 -19.625)" fill="#ebf4f5" fill-rule="evenodd"/>
          <path id="Path_919576" data-name="Path 919576" d="M83.959,66.857c-.12,3.453-1.015,11.252-2.818,12.242a2.907,2.907,0,0,1-.962.24c-2.237.374-3.874-2.1-3.477-2.927l.653-1.424c.225-2.223-.841-9.439-1.123-13.175-.3-4.045.581-6.211,3.444-6.367,5.115-.28,4.4,7.959,4.283,11.412" transform="translate(35.104 -18.879)" fill="#ebf4f5" fill-rule="evenodd"/>
          <path id="Path_919577" data-name="Path 919577" d="M102.528,33.152l17.6,4.728L135.114,41.9q0,24.852,0,49.674t.006,49.655q-7.114,1.891-14.987,3.987-8.322,2.212-17.609,4.684V33.152Z" transform="translate(-45.882 -21.899)" fill="#00657c" fill-rule="evenodd"/>
          <path id="Path_919578" data-name="Path 919578" d="M103.824,37.349l15.629,3.891,13.524,3.368q0,6.155,0,12.3l-13.525-2.479q-7.426-1.359-15.629-2.865Z" transform="translate(-45.207 -21.332)" fill="#067c96" fill-rule="evenodd"/>
          <path id="Path_919579" data-name="Path 919579" d="M109.031,42.969l11.275,2.5q5.244,1.16,10.154,2.247v2.014l-10.154-2.143-11.275-2.378Z" transform="translate(-48.602 -20.569)" fill="#0393b0" fill-rule="evenodd"/>
          <path id="Path_919580" data-name="Path 919580" d="M109.031,39.261l11.277,2.717,10.154,2.447V46.45l-10.154-2.341-11.275-2.6c0-.746,0-1.491,0-2.248" transform="translate(-48.604 -21.072)" fill="#0393b0" fill-rule="evenodd"/>
          <path id="Path_919581" data-name="Path 919581" d="M109.031,46.668l11.275,2.274,10.154,2.05v2.014l-10.154-1.944L109.031,48.9Z" transform="translate(-48.602 -20.068)" fill="#0393b0" fill-rule="evenodd"/>
          <path id="Path_919582" data-name="Path 919582" d="M106.555,47.209a1.813,1.813,0,0,1,1.075,1.809c0,.864-.478,1.478-1.075,1.354a1.82,1.82,0,0,1-1.088-1.821c0-.874.491-1.475,1.088-1.341" transform="translate(-21.726 -19.998)" fill="#ffa8fb" fill-rule="evenodd"/>
          <path id="Path_919583" data-name="Path 919583" d="M132.977,57.891q-6.452-1.075-13.524-2.265-7.426-1.245-15.63-2.607V67.227l15.63,1.579,13.525,1.368c0-4.095,0-8.179,0-12.284" transform="translate(-45.206 -19.207)" fill="#067c96" fill-rule="evenodd"/>
          <path id="Path_919584" data-name="Path 919584" d="M125.419,62.031q-4.679-.651-9.672-1.346-5.169-.727-10.712-1.5v2.189l10.712,1.38L125.419,64Z" transform="translate(-39.024 -18.372)" fill="#0393b0" fill-rule="evenodd"/>
          <path id="Path_919585" data-name="Path 919585" d="M125.419,58.827q-4.679-.741-9.672-1.534-5.169-.829-10.712-1.711v2.179q5.544.821,10.712,1.6,4.994.748,9.672,1.433Z" transform="translate(-39.024 -18.86)" fill="#0393b0" fill-rule="evenodd"/>
          <path id="Path_919586" data-name="Path 919586" d="M125.419,65.223l-9.672-1.157-10.712-1.281v2.19l10.712,1.168,9.672,1.055Z" transform="translate(-39.024 -17.885)" fill="#0393b0" fill-rule="evenodd"/>
          <path id="Path_919587" data-name="Path 919587" d="M126.328,58.173c-.745-.106-1.358.6-1.358,1.579a1.871,1.871,0,0,0,1.358,1.944c.747.094,1.343-.611,1.343-1.582a1.875,1.875,0,0,0-1.343-1.942" transform="translate(-63.912 -18.51)" fill="#ffa8fb" fill-rule="evenodd"/>
          <path id="Path_919588" data-name="Path 919588" d="M103.822,69.006l15.63,1.3,13.525,1.121q0,6.157,0,12.3l-13.525-.232-15.631-.269Z" transform="translate(-45.205 -17.041)" fill="#067c96" fill-rule="evenodd"/>
          <path id="Path_919589" data-name="Path 919589" d="M132.976,84.7,119.451,84.7l-15.631-.01V98.894l15.632-1.016L132.978,97q0-6.142,0-12.294" transform="translate(-45.203 -14.916)" fill="#067c96" fill-rule="evenodd"/>
          <path id="Path_919590" data-name="Path 919590" d="M125.419,89.284l-9.674.261-10.712.288v2.192l10.712-.4,9.674-.362Z" transform="translate(-39.021 -14.292)" fill="#0393b0" fill-rule="evenodd"/>
          <path id="Path_919591" data-name="Path 919591" d="M125.417,86.034l-9.673.073-10.712.078v2.179l10.712-.191L125.419,88q0-.984,0-1.967" transform="translate(-39.021 -14.734)" fill="#0393b0" fill-rule="evenodd"/>
          <path id="Path_919592" data-name="Path 919592" d="M125.419,92.535l-9.674.451-10.712.5v2.19l10.712-.611,9.674-.552Z" transform="translate(-39.021 -13.853)" fill="#0393b0" fill-rule="evenodd"/>
          <path id="Path_919593" data-name="Path 919593" d="M126.328,89.284a1.655,1.655,0,0,0-1.359,1.805c0,.983.613,1.748,1.359,1.718A1.661,1.661,0,0,0,127.671,91c0-.971-.6-1.736-1.343-1.718" transform="translate(-63.91 -14.293)" fill="#ffa8fb" fill-rule="evenodd"/>
          <path id="Path_919594" data-name="Path 919594" d="M103.819,101.16l15.632-1.318,13.526-1.14q0,6.157,0,12.294l-13.527,2.028-15.632,2.344Z" transform="translate(-45.201 -13.018)" fill="#067c96" fill-rule="evenodd"/>
          <path id="Path_919595" data-name="Path 919595" d="M109.026,106.232l11.28-1.262q5.251-.589,10.156-1.137c0,.681,0,1.354,0,2.025L120.306,107.1l-11.28,1.38Z" transform="translate(-48.6 -12.322)" fill="#0393b0" fill-rule="evenodd"/>
          <path id="Path_919596" data-name="Path 919596" d="M109.027,102.484l11.28-1.04,10.156-.938v2.013l-10.156,1.044-11.28,1.158Z" transform="translate(-48.6 -12.773)" fill="#0393b0" fill-rule="evenodd"/>
          <path id="Path_919597" data-name="Path 919597" d="M109.026,109.98l11.28-1.482,10.157-1.335v2.025l-10.156,1.441-11.281,1.6Z" transform="translate(-48.6 -11.871)" fill="#0393b0" fill-rule="evenodd"/>
          <path id="Path_919598" data-name="Path 919598" d="M106.546,103.032c.6-.065,1.075.58,1.075,1.45s-.479,1.627-1.075,1.7-1.084-.57-1.084-1.449.488-1.639,1.084-1.7" transform="translate(-21.711 -12.431)" fill="#ffa8fb" fill-rule="evenodd"/>
          <path id="Path_919599" data-name="Path 919599" d="M132.976,112.271l-13.526,2.253-15.633,2.6v14.219l15.634-3.63,13.527-3.142q0-6.14,0-12.3" transform="translate(-45.2 -11.18)" fill="#067c96" fill-rule="evenodd"/>
          <path id="Path_919600" data-name="Path 919600" d="M125.418,117.065l-9.674,1.878-10.713,2.081V123.2l10.713-2.193,9.674-1.979Z" transform="translate(-39.017 -10.529)" fill="#0393b0" fill-rule="evenodd"/>
          <path id="Path_919601" data-name="Path 919601" d="M125.418,113.8q-4.674.818-9.674,1.688l-10.713,1.87v2.19l10.713-1.983,9.674-1.79Z" transform="translate(-39.017 -10.971)" fill="#0393b0" fill-rule="evenodd"/>
          <path id="Path_919602" data-name="Path 919602" d="M125.418,120.315l-9.675,2.068-10.713,2.29v2.179l10.713-2.4,9.675-2.169Z" transform="translate(-39.016 -10.089)" fill="#0393b0" fill-rule="evenodd"/>
          <path id="Path_919603" data-name="Path 919603" d="M126.327,120.587a2.031,2.031,0,0,0-1.359,2.034c0,.978.613,1.657,1.359,1.5a2.05,2.05,0,0,0,1.343-2.04c0-.966-.6-1.636-1.343-1.494" transform="translate(-63.908 -10.055)" fill="#3ab54a" fill-rule="evenodd"/>
          <path id="Path_919604" data-name="Path 919604" d="M140.988,33.231l-9.752,3.791V146.685l9.752,3.208Z" transform="translate(-84.344 -21.889)" fill="#004554" fill-rule="evenodd"/>
          <path id="Path_919605" data-name="Path 919605" d="M79.152,81.51l29.155.526,28.235,3.255-29.157-.5Z" transform="translate(-20.758 -15.347)" fill="#0393b0" fill-rule="evenodd"/>
          <path id="Path_919606" data-name="Path 919606" d="M79.163,79.505l29.151.9-.043,5.159-29.157-.5Z" transform="translate(7.514 -15.618)" fill="#13b1d1" fill-rule="evenodd"/>
          <path id="Path_919607" data-name="Path 919607" d="M104.773,82.128l.044-5.179,11.072.728,17.181.438-.065,7.293Z" transform="translate(-46.378 -15.966)" fill="#0d9cb8" fill-rule="evenodd"/>
          <path id="Path_919608" data-name="Path 919608" d="M79.152,76.94l29.155.526,28.235,3.255-29.157-.5Z" transform="translate(-20.758 -15.966)" fill="#0393b0" fill-rule="evenodd"/>
          <path id="Path_919609" data-name="Path 919609" d="M98.017,78.657,112.91,78.6,101.2,77.239l-9.221-.107Z" transform="translate(-11.691 -15.94)" fill="#032747" fill-rule="evenodd"/>
          <path id="Path_919610" data-name="Path 919610" d="M117.457,64.228l-12.113-.253L110.065,80l12.128,1.172Z" transform="translate(-36.148 -17.723)" fill="#084478" fill-rule="evenodd"/>
          <path id="Path_919611" data-name="Path 919611" d="M104.9,64.2l.667.011,4.577,16.127-.575.8Z" transform="translate(-23.588 -17.692)" fill="#05345e" fill-rule="evenodd"/>
          <path id="Path_919612" data-name="Path 919612" d="M92.318,78.347l14.893.086.01.974-15.251-.191Z" transform="translate(-5.992 -15.775)" fill="#05345e" fill-rule="evenodd"/>
          <path id="Path_919613" data-name="Path 919613" d="M93.955,76.5a.63.63,0,0,0-.02,1.187c.171.58,1.1.8,1.524.955l.651.249,2.6.042,1.535-.756s.2-1.651.171-1.767a11.578,11.578,0,0,0-2.1-1c-.129.009-4.425,1.051-4.357,1.093" transform="translate(-0.946 -16.173)" fill="#f0c17d" fill-rule="evenodd"/>
          <path id="Path_919614" data-name="Path 919614" d="M101.274,75.073a9.916,9.916,0,0,0-2.433-.085,4.561,4.561,0,0,0-1.231.522c-.489.225-1.141.422-2.033.832-1.742.8-2.842,1.159-2.771,1.561.056.318.824.368,2.5-.142l2.867-.982c.344.068.7.152,1.1.233s.946.182,1.419.271l4.59-.108.026-1.234c-1.6-.37-2.654-.636-4.039-.869" transform="translate(-5.028 -16.236)" fill="#f0c17d" fill-rule="evenodd"/>
          <path id="Path_919615" data-name="Path 919615" d="M94.461,76.713c-1.829.064-2.767-.514-3.486.873a.715.715,0,0,0,.736,1.013c.037.534.5.688.948.634.871-.109,1.109.3,2.269.24a4.284,4.284,0,0,0,2.908-1.061l2.524-1.834L98.278,76.4s-3.837.36-3.816.311" transform="translate(2.08 -16.04)" fill="#f0c17d" fill-rule="evenodd"/>
          <path id="Path_919616" data-name="Path 919616" d="M95.025,77.363c-5.168,1.51-10.408,1.4-15.847,2.254a9.493,9.493,0,0,0-1.371-4.043s11.229-2.86,15.574-4.2c1.34-.259,6.177,4.573,1.643,5.989" transform="translate(20.387 -16.722)" fill="#ebf4f5" fill-rule="evenodd"/>
          <path id="Path_919617" data-name="Path 919617" d="M136.513,23.242q11.114,2.987,21.052,5.656l17.925,4.813q0,29.725.006,59.416t.007,59.392l-17.927,4.768-21.062,5.6V23.242Z" transform="translate(-124.849 -23.242)" fill="#00657c" fill-rule="evenodd"/>
          <path id="Path_919618" data-name="Path 919618" d="M138.064,28.261q9.819,2.444,18.695,4.656l16.175,4.026V51.66q-7.716-1.415-16.175-2.965-8.881-1.628-18.695-3.426Z" transform="translate(-124.042 -22.562)" fill="#067c96" fill-rule="evenodd"/>
          <path id="Path_919619" data-name="Path 919619" d="M144.29,34.984q6.982,1.548,13.486,2.986,6.275,1.39,12.145,2.688,0,1.2,0,2.41-5.864-1.237-12.146-2.562L144.29,37.66Z" transform="translate(-128.101 -21.65)" fill="#0393b0" fill-rule="evenodd"/>
          <path id="Path_919620" data-name="Path 919620" d="M144.291,30.549,157.777,33.8l12.145,2.926v2.421l-12.145-2.8-13.486-3.109Z" transform="translate(-128.102 -22.253)" fill="#0393b0" fill-rule="evenodd"/>
          <path id="Path_919621" data-name="Path 919621" d="M144.29,39.408l13.486,2.721,12.146,2.452v2.408q-5.864-1.121-12.145-2.324L144.29,42.083Z" transform="translate(-128.101 -21.051)" fill="#0393b0" fill-rule="evenodd"/>
          <path id="Path_919622" data-name="Path 919622" d="M141.328,40.056a2.167,2.167,0,0,1,1.286,2.163c0,1.034-.571,1.768-1.286,1.619a2.176,2.176,0,0,1-1.3-2.178c0-1.046.586-1.765,1.3-1.6" transform="translate(-95.953 -20.967)" fill="#ff85e7" fill-rule="evenodd"/>
          <path id="Path_919623" data-name="Path 919623" d="M172.931,52.832q-7.716-1.286-16.175-2.709-8.881-1.49-18.695-3.118V64l18.695,1.891,16.177,1.635c0-4.9,0-9.783,0-14.692" transform="translate(-124.038 -20.022)" fill="#067c96" fill-rule="evenodd"/>
          <path id="Path_919624" data-name="Path 919624" d="M163.893,57.783q-5.6-.778-11.569-1.609-6.181-.869-12.813-1.8V57l12.813,1.649,11.569,1.489Z" transform="translate(-116.644 -19.023)" fill="#0393b0" fill-rule="evenodd"/>
          <path id="Path_919625" data-name="Path 919625" d="M163.893,53.952q-5.6-.887-11.568-1.835-6.181-.991-12.813-2.047v2.606q6.631.984,12.813,1.913,5.973.894,11.568,1.715Z" transform="translate(-116.646 -19.608)" fill="#0393b0" fill-rule="evenodd"/>
          <path id="Path_919626" data-name="Path 919626" d="M163.893,61.6l-11.569-1.384q-6.178-.736-12.813-1.531v2.618l12.813,1.4q5.977.652,11.569,1.263Z" transform="translate(-116.644 -18.44)" fill="#0393b0" fill-rule="evenodd"/>
          <path id="Path_919627" data-name="Path 919627" d="M164.98,53.171c-.891-.127-1.625.712-1.625,1.888a2.237,2.237,0,0,0,1.625,2.325c.894.112,1.607-.73,1.607-1.892a2.243,2.243,0,0,0-1.607-2.322" transform="translate(-146.413 -19.189)" fill="#ff85e7" fill-rule="evenodd"/>
          <path id="Path_919628" data-name="Path 919628" d="M138.059,66.127l18.7,1.55,16.176,1.34q0,7.365,0,14.717l-16.178-.278-18.7-.32Z" transform="translate(-124.037 -17.432)" fill="#067c96" fill-rule="evenodd"/>
          <path id="Path_919629" data-name="Path 919629" d="M144.288,72.533l13.488.745,12.146.671v2.408l-12.146-.544q-6.5-.29-13.488-.605Z" transform="translate(-128.099 -16.563)" fill="#0393b0" fill-rule="evenodd"/>
          <path id="Path_919630" data-name="Path 919630" d="M144.288,68.1l13.488,1.009,12.146.91v2.421l-12.146-.782-13.488-.869Z" transform="translate(-128.099 -17.163)" fill="#0393b0" fill-rule="evenodd"/>
          <path id="Path_919631" data-name="Path 919631" d="M144.288,76.957l13.488.48,12.146.434v2.408l-12.146-.307-13.488-.341Z" transform="translate(-128.099 -15.965)" fill="#0393b0" fill-rule="evenodd"/>
          <path id="Path_919632" data-name="Path 919632" d="M141.325,73.332c.715.042,1.287.916,1.287,1.95s-.571,1.863-1.287,1.834-1.3-.917-1.3-1.963.586-1.861,1.3-1.82" transform="translate(-95.946 -16.455)" fill="#ffa8fb" fill-rule="evenodd"/>
          <path id="Path_919633" data-name="Path 919633" d="M172.933,84.9,156.756,84.9l-18.7-.012v16.994l18.7-1.216,16.178-1.053q0-7.346,0-14.7" transform="translate(-124.037 -14.89)" fill="#067c96" fill-rule="evenodd"/>
          <path id="Path_919634" data-name="Path 919634" d="M163.893,90.382l-11.569.312-12.815.345V93.66l12.815-.481q5.973-.221,11.569-.433Z" transform="translate(-116.641 -14.145)" fill="#0393b0" fill-rule="evenodd"/>
          <path id="Path_919635" data-name="Path 919635" d="M163.893,86.494l-11.571.086q-6.181.044-12.814.1v2.606l12.814-.229,11.571-.207Z" transform="translate(-116.641 -14.671)" fill="#0393b0" fill-rule="evenodd"/>
          <path id="Path_919636" data-name="Path 919636" d="M163.892,94.27l-11.569.539-12.815.6v2.62l12.815-.731,11.571-.66c0-.783,0-1.568,0-2.364" transform="translate(-116.64 -13.618)" fill="#0393b0" fill-rule="evenodd"/>
          <path id="Path_919637" data-name="Path 919637" d="M164.981,90.381a1.98,1.98,0,0,0-1.626,2.16c0,1.176.734,2.09,1.626,2.054a1.985,1.985,0,0,0,1.607-2.159c0-1.162-.714-2.077-1.607-2.055" transform="translate(-146.414 -14.145)" fill="#ffa8fb" fill-rule="evenodd"/>
          <path id="Path_919638" data-name="Path 919638" d="M138.057,104.587l18.7-1.576,16.178-1.364v14.7l-16.178,2.425-18.7,2.8Z" transform="translate(-124.035 -12.619)" fill="#067c96" fill-rule="evenodd"/>
          <path id="Path_919639" data-name="Path 919639" d="M144.285,110.654q6.99-.78,13.494-1.509,6.278-.7,12.146-1.358c0,.814,0,1.617,0,2.42l-12.147,1.486-13.494,1.651Z" transform="translate(-128.099 -11.786)" fill="#0393b0" fill-rule="evenodd"/>
          <path id="Path_919640" data-name="Path 919640" d="M144.286,106.171l13.493-1.246q6.28-.579,12.147-1.122v2.41l-12.146,1.248-13.494,1.385Z" transform="translate(-128.1 -12.326)" fill="#0393b0" fill-rule="evenodd"/>
          <path id="Path_919641" data-name="Path 919641" d="M144.285,115.137l13.494-1.773,12.147-1.6v2.422l-12.147,1.724-13.494,1.914Z" transform="translate(-128.099 -11.248)" fill="#0393b0" fill-rule="evenodd"/>
          <path id="Path_919642" data-name="Path 919642" d="M141.32,106.826c.713-.077,1.286.695,1.286,1.735s-.572,1.946-1.286,2.036-1.3-.681-1.3-1.733.585-1.961,1.3-2.038" transform="translate(-95.937 -11.918)" fill="#ffa8fb" fill-rule="evenodd"/>
          <path id="Path_919643" data-name="Path 919643" d="M172.934,117.877l-16.181,2.695q-8.882,1.478-18.7,3.114v17.007q9.821-2.279,18.7-4.341,8.468-1.967,16.181-3.758,0-7.346,0-14.716" transform="translate(-124.033 -10.421)" fill="#067c96" fill-rule="evenodd"/>
          <path id="Path_919644" data-name="Path 919644" d="M163.892,123.61l-11.571,2.247q-6.176,1.2-12.816,2.488v2.607l12.816-2.623q5.975-1.223,11.571-2.367Z" transform="translate(-116.636 -9.642)" fill="#0393b0" fill-rule="evenodd"/>
          <path id="Path_919645" data-name="Path 919645" d="M163.892,119.712l-11.571,2.019-12.816,2.238v2.62l12.816-2.372,11.571-2.14Z" transform="translate(-116.636 -10.171)" fill="#0393b0" fill-rule="evenodd"/>
          <path id="Path_919646" data-name="Path 919646" d="M163.892,127.5l-11.572,2.473-12.816,2.74v2.606l12.816-2.873,11.572-2.593Z" transform="translate(-116.635 -9.117)" fill="#0393b0" fill-rule="evenodd"/>
          <path id="Path_919647" data-name="Path 919647" d="M164.981,127.824a2.429,2.429,0,0,0-1.626,2.432c0,1.168.734,1.981,1.626,1.8a2.454,2.454,0,0,0,1.606-2.441c0-1.155-.713-1.958-1.606-1.787" transform="translate(-146.413 -9.077)" fill="#ffa8fb" fill-rule="evenodd"/>
          <path id="Path_919648" data-name="Path 919648" d="M182.513,23.336l-11.663,4.535V159.04l11.663,3.837Z" transform="translate(-170.851 -23.23)" fill="#004554" fill-rule="evenodd"/>
          <path id="Path_919649" data-name="Path 919649" d="M144.286,110.653l2.277-.254v2.666l-2.277.278Zm3.224-.36,2.632-.294v2.629l-2.632.321Zm3.58-.4,2.631-.3v2.591l-2.631.321Zm3.578-.4,2.631-.294v2.554l-2.631.321Zm3.578-.4,2.362-.265v2.519l-2.362.29Zm3.308-.37,2.632-.3v2.482l-2.632.321Zm3.579-.4,2.12-.237v2.449l-2.12.26Zm3.068-.343,1.726-.193c0,.814,0,1.618,0,2.421l-1.727.211Z" transform="translate(-128.101 -11.786)" fill="#31454a" fill-rule="evenodd"/>
          <path id="Path_919650" data-name="Path 919650" d="M157.409,115.642l-5.031-.527-1.262,3.512,5.031.527Z" transform="translate(-123.338 -10.794)" fill="#ffdba7" fill-rule="evenodd"/>
          <path id="Path_919651" data-name="Path 919651" d="M158.372,114.59l3.283,1.255a.629.629,0,0,1,.387.822L161,118.888c-.044.092-3.789,1.2-4.054.967l-.526-.46a11.04,11.04,0,0,1-1.994-2.34l3.124-2.078c.294-.2.492-.513.822-.387" transform="translate(-131.78 -10.869)" fill="#ffdba7" fill-rule="evenodd"/>
          <path id="Path_919652" data-name="Path 919652" d="M161.793,116.735c-.346.844.035,2.427-.32,2.57a7.24,7.24,0,0,1-2.358.43l-.526-.461a11,11,0,0,1-1.994-2.34l2.295-1.451c.3-.188,3.037.927,2.9,1.252" transform="translate(-133.948 -10.747)" fill="#f0c17d" fill-rule="evenodd"/>
          <path id="Path_919653" data-name="Path 919653" d="M132.631,116.23l15.786-.443,7.785-9.761,2.647,7.6-8.967,7.675-17.838-.97Z" transform="translate(-103.12 -12.025)" fill="#dae2e3" fill-rule="evenodd"/>
          <path id="Path_919654" data-name="Path 919654" d="M160.81,116.922h0a.461.461,0,0,1-.045.7l-.462.4a.491.491,0,1,1-.679-.691l.462-.405a.5.5,0,0,1,.724-.011" transform="translate(-136.322 -10.57)" fill="#ffdba7" fill-rule="evenodd"/>
          <path id="Path_919655" data-name="Path 919655" d="M159.565,118.427h0a.423.423,0,0,1,0,.611l-.366.32a.441.441,0,0,1-.61,0,.422.422,0,0,1,0-.611l.364-.32a.443.443,0,0,1,.611,0" transform="translate(-133.957 -10.362)" fill="#ffdba7" fill-rule="evenodd"/>
          <path id="Path_919656" data-name="Path 919656" d="M161.385,116.207h0a.46.46,0,0,1-.044.7l-.462.4a.491.491,0,1,1-.68-.691l.463-.4a.5.5,0,0,1,.723-.012" transform="translate(-137.552 -10.665)" fill="#ffdba7" fill-rule="evenodd"/>
          <path id="Path_919657" data-name="Path 919657" d="M160.193,117.6h0a.461.461,0,0,1-.045.7l-.461.4a.491.491,0,1,1-.68-.692l.463-.405a.5.5,0,0,1,.723-.011" transform="translate(-135.005 -10.478)" fill="#ffdba7" fill-rule="evenodd"/>
          <path id="Path_919658" data-name="Path 919658" d="M115.269,138.1l.211,1.472c.054.441-.142.747-.114,1.133.068.935.076,1.75.086,2.626.025,2.307-.238,3.781-.78,4.489-.483.629-1.167.873-2.855,1.3l-3.933-.148c-.213-.881-.116-1.248.242-1.581,2.205-2.053,2.148-3.334,1.874-6.346-.175-1.921-.072-3,.856-3.5a3.381,3.381,0,0,1,2.943-.417,4.79,4.79,0,0,1,1.469.973" transform="translate(-32.202 -7.837)" fill="#131314" fill-rule="evenodd"/>
          <path id="Path_919659" data-name="Path 919659" d="M143.444,142.526c-2.717,3.932-3.707,4.453-7.663,4.982-1.234.166-1.633.432-1.6,1.73,3.8.287,7.033.261,10.84.22.557-.9.764-1.476,1.765-1.576l.094,1.544h3.372l.168-3.181-.8-3.405Z" transform="translate(-97.115 -7.08)" fill="#1f1c1d" fill-rule="evenodd"/>
          <path id="Path_919660" data-name="Path 919660" d="M134.913,129.12l6.2,18.368,7.771-1.869-3.126-11.887-4.675-8.75c-5.188-.924-6.844,1.442-6.166,4.139" transform="translate(-96.246 -9.485)" fill="#22282e" fill-rule="evenodd"/>
          <path id="Path_919661" data-name="Path 919661" d="M135.365,136.241c3.355,1.489,11.831,3.478,15.255,2.425l-.52-11-8.768-2.179-3.569.414L125.4,124.359c-3.926-.347-3.852,2.512-3.55,4.808l1.166,3.041a75.192,75.192,0,0,1,12.352,4.033" transform="translate(-83.172 -9.545)" fill="#22282e" fill-rule="evenodd"/>
          <path id="Path_919662" data-name="Path 919662" d="M140.619,102.575l-3.7,4.938-.5-.156a35.068,35.068,0,0,1-1.869-7.935l5.216-2.808c.121,1.381.458,2,.645,3.5a24.058,24.058,0,0,1,.209,2.464" transform="translate(-87.736 -13.3)" fill="#f0c17d" fill-rule="evenodd"/>
          <path id="Path_919663" data-name="Path 919663" d="M138.028,101.53a.6.6,0,0,1-.1.746.505.505,0,0,0,.45.454c.939-.3.728.4.655.428-.679.235-.531.469-.36.663.207,0,.311.06.355.152.134.288-.28,1.016.27,1.441.665.512,3.207-1.468,4.391-2.385.981-.757.468-1.434.107-2.587.639-.045,1.08-.332.908-1.307a14.31,14.31,0,0,0,.907-3.7s-3.1-4.754-3.229-4.76-4.053,1.349-4.053,1.349c-.328.875-.971,1.757-1.291,2.767a8.263,8.263,0,0,0-.35,2.789,1.313,1.313,0,0,0,.253.994,1.138,1.138,0,0,1,.22.355c.209.988-.573,2.052-.463,2.315a1.134,1.134,0,0,0,1.328.287" transform="translate(-95.153 -14.106)" fill="#ffdba7" fill-rule="evenodd"/>
          <path id="Path_919664" data-name="Path 919664" d="M140.361,97.822a10.347,10.347,0,0,0,.414,1.092c.1.313.154.489.305.571a4.115,4.115,0,0,0,.664-1.384c.4-.695.974-1.478,1.584-1.419.657.064.671,1.239.412,2.128a1.394,1.394,0,0,0,.141,1.166c.393.559.895.114,1.637.563A8.557,8.557,0,0,1,146.9,101.9a9.091,9.091,0,0,1,.325-3.358,6.761,6.761,0,0,0-1.051-5.633l.12.066a4.513,4.513,0,0,0-2.6-1.751,4.211,4.211,0,0,0-4.04-.937,4.489,4.489,0,0,1,1.443.145c-5.123.141-5.462,4.156-6.939,4.089,1.432,1.6,2.716,1.158,4.365.442a3.844,3.844,0,0,1,1.553,3.209l.248-.438Z" transform="translate(-94.109 -14.177)" fill="#632404" fill-rule="evenodd"/>
          <path id="Path_919665" data-name="Path 919665" d="M135.349,129.631a25.814,25.814,0,0,0-3.5-7.684l-11.887,3.1,1.272,8.51.374,2.591-3.726,11.423c-.389,1.2-.707,1.641-.375,2.939.681,2.65,3.282,2.54,7.554,1.908,2.5-3.521,5.557-7.961,7.353-11.22,2.249-4.084,4.038-6.986,2.931-11.565" transform="translate(-63.299 -9.868)" fill="#333d45" fill-rule="evenodd"/>
          <path id="Path_919666" data-name="Path 919666" d="M124.618,100.737c4.7,1.713,6.59,2.338,8.342,4.668,3.505,4.659,3.807,9.121,5.252,13.775s.671,4.25,2.427,7.617A28.134,28.134,0,0,1,128.4,131.79c-3.324-3.183-4.5-4.886-5.279-8.8-4.561-6-3.131-7.958-3.438-15.228Z" transform="translate(-70.871 -12.742)" fill="#e4eced" fill-rule="evenodd"/>
          <path id="Path_919667" data-name="Path 919667" d="M133.306,105.915l1.551,2.254c-.112.707-.446,1.163-.514,1.905l1.108,4.224c.756,4.447,1.415,6.438,3.778,12.178-4.1-5.476-5.176-9.364-5.86-16.308a5.769,5.769,0,0,1-.485-4.222Z" transform="translate(-84.219 -12.04)" fill="#333d45" fill-rule="evenodd"/>
          <path id="Path_919668" data-name="Path 919668" d="M137.726,99.769a15.208,15.208,0,0,1-4.19,6.932l1.869,2.8a13.256,13.256,0,0,0,3.793-8.675Z" transform="translate(-85.165 -12.873)" fill="#ebf4f5" fill-rule="evenodd"/>
          <path id="Path_919669" data-name="Path 919669" d="M119.741,150.107l16.941-5.791-.079-6.837-7.265.3-16.354,6.006-1.745,3.617c-.982,4.227,4.74,3.908,8.5,2.7" transform="translate(-57.204 -7.764)" fill="#333d45" fill-rule="evenodd"/>
          <path id="Path_919670" data-name="Path 919670" d="M133.673,114.7c1.028,3.492,2,10.744.506,12.246-1.711,1.535-4.869-.347-5.392-2.578-1.377-5.866-3.045-7.66-5.282-13.548-1.48-3.895-1.241-6.285,1.533-7.274,4.956-1.768,7.8,8.3,8.635,11.153" transform="translate(-68.501 -12.389)" fill="#ebf4f5" fill-rule="evenodd"/>
          <path id="Path_919671" data-name="Path 919671" d="M103.887,110.6a5.587,5.587,0,0,1,1.109.125,1.2,1.2,0,0,1,.971.8,12.673,12.673,0,0,1,.363,2.252,8.019,8.019,0,0,0,.941,3.478h0c1.008,1.82,3.52,2.573,6.855,3.573.7.208,1.426.427,2.145.655,2.11.669,3.807,1.21,5.216,1.728a18.319,18.319,0,0,1,3.446,1.6c4.5,2.843,6.864,7.674,9.334,12.725,3.3,6.74,6.791,13.889,15.908,16.821,3.3,1.061,67.684-3.437,71.383-3.681l.077,1.232s-68.343,4.746-71.838,3.623c-9.614-3.092-13.23-10.485-16.637-17.455-2.39-4.891-4.677-9.565-8.884-12.222a17.257,17.257,0,0,0-3.215-1.482c-1.361-.5-3.056-1.041-5.164-1.709-.765-.243-1.462-.452-2.126-.651-3.609-1.082-6.325-1.9-7.579-4.163h0a9.052,9.052,0,0,1-1.086-3.956c-.044-.462-.091-.928-.181-1.411-.069-.376-.066-.47-.207-.535a2.674,2.674,0,0,0-.873-.119Z" transform="translate(-81.218 -11.406)" fill="#1cbad9" fill-rule="evenodd"/>
          <path id="Path_919672" data-name="Path 919672" d="M161.274,110.034l2.785.74V111.9l-2.785.466a1.383,1.383,0,0,1,0-2.332" transform="translate(-140.797 -11.481)" fill="#25d4f7" fill-rule="evenodd"/>
          <path id="Path_919673" data-name="Path 919673" d="M146.833,121.9c-.777-.047-3.288-1.082-4.376-1.195a2.372,2.372,0,0,0-1.5.226c-.558.194-1.4.382-1.49.418a14.961,14.961,0,0,0-1.13,1.038c-.366.955-.705,1.378-.259,1.631.271.153.6-.207,1.209-1.021l.43-.316a2.25,2.25,0,0,0-.657,1.089.791.791,0,0,0,.736,1.014c.174.023.16-.128.224-.305l.17-.47c.54-.176,1.015-.353,1.544-.562a4.212,4.212,0,0,0-1.319.8c-.275.33-.024.615.226.895.35.392.825-.3,1.935-.648a2.641,2.641,0,0,0-1.129.74c-.209.346.23.538.554.553a20.3,20.3,0,0,0,4.264-.286c.565-.114.832-.564,1.217-.546l.8-2.289Z" transform="translate(-99.163 -10.042)" fill="#ffdba7" fill-rule="evenodd"/>
          <path id="Path_919674" data-name="Path 919674" d="M139.641,125.529c-5.457.894-10.777-.109-16.427.083a13.946,13.946,0,0,0-.6-3.865s11.12-1.422,15.711-2.521c3.383-.81,5.023,5.627,1.321,6.3" transform="translate(-75.31 -10.245)" fill="#ebf4f5" fill-rule="evenodd"/>
          <path id="Path_919675" data-name="Path 919675" d="M158.576,114.081a.542.542,0,0,1,.274.119l1.5,1.189-.86.888a3.5,3.5,0,0,1-1.617-.836l-1.109.277c-.86,1.293-.8,1.551-1.308,1.323a.522.522,0,0,1-.24-.7l.746-1.527h0a.371.371,0,0,1,.244-.2l2.048-.512a.857.857,0,0,1,.32-.02" transform="translate(-130.871 -10.934)" fill="#ffdba7" fill-rule="evenodd"/>
        </g>
      </g>
    </g>
  </g>
</svg>
