<svg xmlns="http://www.w3.org/2000/svg" xmlns:xlink="http://www.w3.org/1999/xlink" width="104.668" height="150" viewBox="0 0 104.668 150">
  <defs>
    <clipPath id="clip-path">
      <rect id="Rectangle_406993" data-name="Rectangle 406993" width="73" height="73" transform="translate(275.328 9379.664)" fill="#fff" stroke="#707070" stroke-width="1"/>
    </clipPath>
    <clipPath id="clip-path-2">
      <rect id="Rectangle_406990" data-name="Rectangle 406990" width="63.475" height="70.682" fill="#fff" stroke="#3d034b" stroke-width="3"/>
    </clipPath>
    <clipPath id="clip-path-3">
      <rect id="Rectangle_406992" data-name="Rectangle 406992" width="42.467" height="44.002" fill="#3a2292" stroke="#707070" stroke-width="1"/>
    </clipPath>
    <clipPath id="clip-path-4">
      <rect id="Rectangle_408661" data-name="Rectangle 408661" width="38" height="30.415" fill="#3a2292"/>
    </clipPath>
  </defs>
  <g id="Group_1116077" data-name="Group 1116077" transform="translate(-809.834 -1468)">
    <rect id="Rectangle_406988" data-name="Rectangle 406988" width="104.668" height="150" transform="translate(809.834 1468)" fill="#3a2292"/>
    <g id="Mask_Group_1110914" data-name="Mask Group 1110914" transform="translate(550.506 -7872.664)" clip-path="url(#clip-path)">
      <g id="Group_1113957" data-name="Group 1113957" transform="translate(280.131 9380.624)" clip-path="url(#clip-path-2)">
        <path id="Path_918041" data-name="Path 918041" d="M27.452,63.948A42.13,42.13,0,0,1,6.56,49.078,35.558,35.558,0,0,1,.011,31.658C0,31.568,0,31.482,0,31.392V10.025a3.181,3.181,0,0,1,2.824-3.04C10.9,5.713,22.791,1.815,27.528.2a3.73,3.73,0,0,1,2.393,0C33.635,1.458,46.4,5.675,54.771,6.987a3.179,3.179,0,0,1,2.825,3.04V31.391c0,.09,0,.176-.013.264A35.552,35.552,0,0,1,51.037,49.08c-6.024,8.366-16.761,13.146-21.1,14.814a3.7,3.7,0,0,1-2.488.057" transform="translate(2.939 3.272)" fill="#fff" stroke="#ff85e7" stroke-width="3"/>
      </g>
      <g id="Mask_Group_1110913" data-name="Mask Group 1110913" transform="translate(291.362 9392.394)" clip-path="url(#clip-path-3)">
        <g id="Group_1116030" data-name="Group 1116030" transform="translate(2.344 4.683)">
          <g id="Group_1116029" data-name="Group 1116029" transform="translate(0 0)" clip-path="url(#clip-path-4)">
            <path id="Path_923714" data-name="Path 923714" d="M32.053,39.78H19.234a.986.986,0,1,1,0-1.972H32.053a1,1,0,0,1,.986.986,1.126,1.126,0,0,1-.986.986" transform="translate(-4.52 -9.365)" fill="#3a2292"/>
            <path id="Path_923715" data-name="Path 923715" d="M19.234,14.259a.986.986,0,1,1,0-1.972c.077,0,.607-.38,1.213-1.745a9.3,9.3,0,0,0,.683-2.958V.986A1,1,0,0,1,22.117,0h1.744a3.918,3.918,0,0,1,3.945,3.944v3.64a4.38,4.38,0,0,0,.075,1.062c.152.682.379.834.835.834h3.336a.986.986,0,0,1,0,1.973H28.716A2.657,2.657,0,0,1,25.985,9.1a7.615,7.615,0,0,1-.153-1.441V4.02a2.039,2.039,0,0,0-2.047-2.048h-.835V7.661a11.368,11.368,0,0,1-.91,3.792c-.758,1.82-1.668,2.806-2.806,2.806" transform="translate(-4.52 0)" fill="#3a2292"/>
            <path id="Path_923716" data-name="Path 923716" d="M42.553,19.277a.986.986,0,0,1,0-1.973,1.441,1.441,0,0,0,.986-.379,1.255,1.255,0,0,0,.379-.986A1.44,1.44,0,0,0,42.477,14.5H35.348a1.444,1.444,0,0,0-.986.379,1.256,1.256,0,0,0-.379.986A1.44,1.44,0,0,0,35.424,17.3a1,1,0,0,1,.986.986.993.993,0,0,1-.91.986,3.367,3.367,0,0,1-3.337-3.337A3.366,3.366,0,0,1,35.5,12.6h7.13a3.366,3.366,0,0,1,3.337,3.337,3.331,3.331,0,0,1-.986,2.351,3.655,3.655,0,0,1-2.427.986" transform="translate(-7.967 -3.122)" fill="#3a2292"/>
            <path id="Path_923717" data-name="Path 923717" d="M42.528,25.629a.986.986,0,0,1,0-1.972,1.442,1.442,0,0,0,.986-.38,1.255,1.255,0,0,0,.379-.986,1.441,1.441,0,0,0-1.442-1.441H35.323a1.444,1.444,0,0,0-.986.379,1.258,1.258,0,0,0-.379.986A1.44,1.44,0,0,0,35.4,23.657a.986.986,0,0,1,0,1.972,3.368,3.368,0,0,1-3.338-3.338A3.369,3.369,0,0,1,35.4,18.954h7.13a3.366,3.366,0,0,1,3.337,3.337,3.368,3.368,0,0,1-3.337,3.338" transform="translate(-7.942 -4.695)" fill="#3a2292"/>
            <path id="Path_923718" data-name="Path 923718" d="M42.528,31.88a.986.986,0,0,1,0-1.972,1.442,1.442,0,0,0,.986-.38,1.257,1.257,0,0,0,.379-.986A1.441,1.441,0,0,0,42.452,27.1H35.323a1.444,1.444,0,0,0-.986.379,1.258,1.258,0,0,0-.379.986A1.44,1.44,0,0,0,35.4,29.909a.986.986,0,0,1,0,1.972,3.368,3.368,0,0,1-3.338-3.338A3.368,3.368,0,0,1,35.4,25.206h7.13a3.367,3.367,0,0,1,3.337,3.336,3.368,3.368,0,0,1-3.337,3.338" transform="translate(-7.942 -6.244)" fill="#3a2292"/>
            <path id="Path_923719" data-name="Path 923719" d="M42.528,38.232H35.4A3.367,3.367,0,0,1,32.061,34.9,3.366,3.366,0,0,1,35.4,31.558h7.13A3.366,3.366,0,0,1,45.866,34.9a3.368,3.368,0,0,1-3.337,3.337m-7.054-4.779a1.441,1.441,0,0,0-.986.379,1.256,1.256,0,0,0-.378.986,1.44,1.44,0,0,0,1.441,1.441H42.68a1.447,1.447,0,0,0,.986-.378,1.258,1.258,0,0,0,.379-.986A1.44,1.44,0,0,0,42.6,33.454Z" transform="translate(-7.942 -7.817)" fill="#3a2292"/>
            <path id="Path_923720" data-name="Path 923720" d="M17.661,34.46H12.883a1,1,0,0,1-.986-.986v-.986a.986.986,0,1,1,1.972,0h2.883V18.3H13.869a.986.986,0,1,1-1.972,0v-.986a1,1,0,0,1,.986-.986h4.779a1,1,0,0,1,.987.986V33.474a1.061,1.061,0,0,1-.987.986" transform="translate(-2.947 -4.046)" fill="#3a2292"/>
            <path id="Path_923721" data-name="Path 923721" d="M9.936,33.8H.986A1,1,0,0,1,0,32.813V18.629a1,1,0,0,1,.986-.986h9.025a1,1,0,0,1,.986.986v14.26a1.136,1.136,0,0,1-1.062.91M1.9,31.9h7.13V19.616H1.9Z" transform="translate(0 -4.37)" fill="#3a2292"/>
            <path id="Path_923722" data-name="Path 923722" d="M24.9,21.282a.936.936,0,0,1-.759-.379.885.885,0,0,1,.228-1.289c2.959-2.124,3.11-6.523,3.034-8.344a7.7,7.7,0,0,0-.075-1.137.955.955,0,0,1,1.9-.228s.076.532.151,1.365c.077,2.655-.227,7.433-3.792,9.936-.3,0-.454.076-.682.076" transform="translate(-5.934 -2.245)" fill="#3a2292"/>
          </g>
        </g>
      </g>
    </g>
  </g>
</svg>
