<svg xmlns="http://www.w3.org/2000/svg" xmlns:xlink="http://www.w3.org/1999/xlink" width="104.668" height="150" viewBox="0 0 104.668 150">
  <defs>
    <clipPath id="clip-path">
      <rect id="Rectangle_406997" data-name="Rectangle 406997" width="73" height="73" transform="translate(275.328 9379.664)" fill="#fff" stroke="#707070" stroke-width="1"/>
    </clipPath>
    <clipPath id="clip-path-2">
      <rect id="Rectangle_406994" data-name="Rectangle 406994" width="63.475" height="70.682" fill="#fff" stroke="#3d034b" stroke-width="3"/>
    </clipPath>
    <clipPath id="clip-path-3">
      <rect id="Rectangle_406996" data-name="Rectangle 406996" width="42.467" height="44.002" transform="translate(-0.156 0.271)" fill="#3a2292" stroke="#707070" stroke-width="1"/>
    </clipPath>
    <clipPath id="clip-path-4">
      <rect id="Rectangle_408667" data-name="Rectangle 408667" width="39" height="36.706" fill="#3a2292"/>
    </clipPath>
  </defs>
  <g id="Group_1116079" data-name="Group 1116079" transform="translate(-809.834 -1642)">
    <rect id="Rectangle_406989" data-name="Rectangle 406989" width="104.668" height="150" transform="translate(809.834 1642)" fill="#3a2292"/>
    <g id="Mask_Group_1110916" data-name="Mask Group 1110916" transform="translate(550.506 -7698.664)" clip-path="url(#clip-path)">
      <g id="Group_1113960" data-name="Group 1113960" transform="translate(280.131 9380.624)" clip-path="url(#clip-path-2)">
        <path id="Path_918050" data-name="Path 918050" d="M27.452,63.948A42.13,42.13,0,0,1,6.56,49.078,35.558,35.558,0,0,1,.011,31.658C0,31.568,0,31.482,0,31.392V10.025a3.181,3.181,0,0,1,2.824-3.04C10.9,5.713,22.791,1.815,27.528.2a3.73,3.73,0,0,1,2.393,0C33.635,1.458,46.4,5.675,54.771,6.987a3.179,3.179,0,0,1,2.825,3.04V31.391c0,.09,0,.176-.013.264A35.552,35.552,0,0,1,51.037,49.08c-6.024,8.366-16.761,13.146-21.1,14.814a3.7,3.7,0,0,1-2.488.057" transform="translate(2.939 3.272)" fill="#fff" stroke="#ff85e7" stroke-width="3"/>
      </g>
      <g id="Mask_Group_1110915" data-name="Mask Group 1110915" transform="translate(291.362 9392.394)" clip-path="url(#clip-path-3)">
        <g id="Group_1116033" data-name="Group 1116033" transform="translate(1.844 3.27)">
          <rect id="Rectangle_408662" data-name="Rectangle 408662" width="1.593" height="1.593" transform="translate(23.769 23.897)" fill="#3a2292"/>
          <rect id="Rectangle_408663" data-name="Rectangle 408663" width="1.593" height="1.593" transform="translate(21.412 23.897)" fill="#3a2292"/>
          <rect id="Rectangle_408664" data-name="Rectangle 408664" width="1.593" height="1.593" transform="translate(18.99 23.897)" fill="#3a2292"/>
          <rect id="Rectangle_408665" data-name="Rectangle 408665" width="1.593" height="1.593" transform="translate(16.632 23.897)" fill="#3a2292"/>
          <rect id="Rectangle_408666" data-name="Rectangle 408666" width="1.593" height="1.593" transform="translate(14.211 23.897)" fill="#3a2292"/>
          <g id="Group_1116032" data-name="Group 1116032" transform="translate(0 0)">
            <g id="Group_1116031" data-name="Group 1116031" clip-path="url(#clip-path-4)">
              <path id="Path_923723" data-name="Path 923723" d="M46,2.9h2.357a.849.849,0,0,0,.893-.765.844.844,0,0,0-.829-.829H46a.791.791,0,0,0-.829.765A.844.844,0,0,0,46,2.9" transform="translate(-16.619 -0.482)" fill="#3a2292"/>
              <path id="Path_923724" data-name="Path 923724" d="M44.686,6.6h3.186a.8.8,0,0,0,.829-.828.843.843,0,0,0-.829-.829H44.686a.828.828,0,1,0,0,1.657" transform="translate(-16.137 -1.818)" fill="#3a2292"/>
              <path id="Path_923725" data-name="Path 923725" d="M43.375,10.429h4.015a.828.828,0,0,0,0-1.657H43.375a.828.828,0,1,0,0,1.657" transform="translate(-15.654 -3.228)" fill="#3a2292"/>
              <path id="Path_923726" data-name="Path 923726" d="M12.02,2.867h2.358a.843.843,0,0,0,.829-.828.843.843,0,0,0-.829-.829H12.02a.843.843,0,0,0-.829.829.843.843,0,0,0,.829.828" transform="translate(-4.118 -0.445)" fill="#3a2292"/>
              <path id="Path_923727" data-name="Path 923727" d="M11.919,6.6H15.1a.8.8,0,0,0,.829-.828A.844.844,0,0,0,15.1,4.94H11.919a.828.828,0,1,0,0,1.657" transform="translate(-4.08 -1.818)" fill="#3a2292"/>
              <path id="Path_923728" data-name="Path 923728" d="M12.02,8.771a.828.828,0,1,0,0,1.657h3.951A.89.89,0,0,0,16.8,9.6a.844.844,0,0,0-.829-.829Z" transform="translate(-4.118 -3.227)" fill="#3a2292"/>
              <path id="Path_923729" data-name="Path 923729" d="M18.742,14.02a.89.89,0,0,0,0,.7.728.728,0,0,0,.51.446L22.438,16h.191a.789.789,0,0,0,.161-.027,6.675,6.675,0,0,0,.714.878l-1.3,2.237a2.392,2.392,0,0,0-1.227.522,2.4,2.4,0,0,0-1.6-.616.828.828,0,1,0,0,1.657.84.84,0,0,1,.736.474,2.349,2.349,0,0,0-.036.355.844.844,0,0,0,.829.829.753.753,0,0,0,.085-.009c.015,0,.028.009.043.009a.746.746,0,0,0,.765-.892c0-.055-.013-.107-.016-.161a.833.833,0,0,1,.562-.557.685.685,0,0,0,.283.082.741.741,0,0,0,.267-.053.854.854,0,0,1,.457.518c-.006.08-.023.155-.023.236a.843.843,0,0,0,.828.829c.015,0,.028,0,.042,0s.014,0,.021,0a.67.67,0,0,0,.717-.572.782.782,0,0,0,.047-.257,1.593,1.593,0,1,1,3.186,0c0,.007,0,.013,0,.021s0,.028,0,.044a.828.828,0,0,0,1.657,0,.906.906,0,0,1,.444-.833.9.9,0,0,0,.32.068,1.009,1.009,0,0,0,.283-.041.84.84,0,0,1,.482.742.843.843,0,0,0,.828.829.9.9,0,0,0,.315-.056l.007,0a.772.772,0,0,0,.222-.133.806.806,0,0,0,.094-.1.611.611,0,0,0,.039-.052.7.7,0,0,0,.152-.422c0-.08-.016-.156-.023-.234a.844.844,0,0,1,.788-.594.829.829,0,0,0,0-1.657,2.407,2.407,0,0,0-1.632.642,2.4,2.4,0,0,0-1.124-.535l-1.257-2.167a6.4,6.4,0,0,0,.823-1h0c.064,0,.128-.064.192,0l3.186-.829a.852.852,0,0,0,.509-.446.687.687,0,0,0,0-.7l-2.17-3.942c0-.046,0-.09,0-.136a15.2,15.2,0,0,0-1.721-7.01.69.69,0,0,0-.217-.248C29.322.938,28.045,0,26.708,0c-1.4,0-2.677.956-3.76,2.8a14.632,14.632,0,0,0-1.841,6.92Zm2.635-1.453a10.52,10.52,0,0,0,.489,1.647l-1.213-.321Zm5.14,5.723a3.155,3.155,0,0,0-2.548,1.271c-.044-.034-.085-.073-.133-.1l1.121-1.932H28.23l1.128,1.943a2.345,2.345,0,0,0-.237.162,3.158,3.158,0,0,0-2.6-1.341m6.054-4.4-1.026.272a10.9,10.9,0,0,0,.429-1.367Zm-5.927-12.3A2.652,2.652,0,0,1,28.62,2.931a5.491,5.491,0,0,1-1.784.255,7.194,7.194,0,0,1-2.04-.318,2.734,2.734,0,0,1,1.848-1.275m-2.66,2.662a7.809,7.809,0,0,0,2.851.524A7.7,7.7,0,0,0,29.5,4.316,14.051,14.051,0,0,1,30.71,9.559a.85.85,0,0,0-.051.828l.049.091a9.148,9.148,0,0,1-1.133,4.242,4.481,4.481,0,0,1-.956,1.211h-3.7a4.842,4.842,0,0,1-1.083-1.4,9.572,9.572,0,0,1-1.083-4.588,13.65,13.65,0,0,1,1.227-5.686" transform="translate(-6.826 0)" fill="#3a2292"/>
              <path id="Path_923730" data-name="Path 923730" d="M29.945,16.135a2.462,2.462,0,0,0,2.421-2.421,2.421,2.421,0,1,0-2.421,2.421m0-3.186a.891.891,0,0,1,.829.829.829.829,0,1,1-.829-.829" transform="translate(-10.127 -4.155)" fill="#3a2292"/>
              <path id="Path_923731" data-name="Path 923731" d="M38.171,34.14H36.579V16.106a2.34,2.34,0,0,0-2.358-2.294H29.377a.835.835,0,0,0-.765.829.79.79,0,0,0,.765.828h4.78a.723.723,0,0,1,.764.7v18.1H25.26a.713.713,0,0,0-.814,0H14.575a.781.781,0,0,0-.856,0H3.887V16.233a.765.765,0,0,1,.765-.7H10.26a.829.829,0,1,0,0-1.657H4.653A2.3,2.3,0,0,0,2.294,16.17V34.14H.829A.844.844,0,0,0,0,34.969v3a.822.822,0,0,0,.573.764L4.96,40.067H4.653a.828.828,0,1,0,0,1.657h5.734a.482.482,0,0,0,.255.064.824.824,0,0,0,.308-.064H28a.785.785,0,0,0,.292.064,2.807,2.807,0,0,1,.319-.064h6.309a.8.8,0,0,0,.829-.828.844.844,0,0,0-.829-.829H34.04l4.386-1.339A.823.823,0,0,0,39,37.964v-3a.844.844,0,0,0-.829-.829M14.976,35.8h9.048v.765H14.976Zm22.3,1.593-8.821,2.677H10.474L1.593,37.39V35.8H3.249c.008,0,.013,0,.021,0s.028,0,.044,0h10V37.39a.844.844,0,0,0,.829.829H24.853a.886.886,0,0,0,.828-.829V35.8h11.6Z" transform="translate(0 -5.082)" fill="#3a2292"/>
              <path id="Path_923732" data-name="Path 923732" d="M13.524,20.511a.828.828,0,1,0,0-1.657H9.7a.843.843,0,0,0-.828.828V34.021a.843.843,0,0,0,.828.828H35.827a.892.892,0,0,0,.829-.828V19.682a.844.844,0,0,0-.829-.828H32.641a.828.828,0,0,0,0,1.657H35V33.256H10.465V20.511Z" transform="translate(-3.264 -6.937)" fill="#3a2292"/>
            </g>
          </g>
        </g>
      </g>
    </g>
  </g>
</svg>
