<svg xmlns="http://www.w3.org/2000/svg" xmlns:xlink="http://www.w3.org/1999/xlink" width="178" height="178" viewBox="0 0 178 178">
  <defs>
    <clipPath id="clip-path">
      <rect id="Rectangle_408520" data-name="Rectangle 408520" width="93.508" height="103.526" fill="none"/>
    </clipPath>
  </defs>
  <g id="Group_1114944" data-name="Group 1114944" transform="translate(3446.926 8146)">
    <g id="Group_1114090" data-name="Group 1114090" transform="translate(-3446.926 -8146)">
      <path id="Path_882862" data-name="Path 882862" d="M89,0A89,89,0,1,1,0,89,89,89,0,0,1,89,0Z" transform="translate(0 -0.001)" fill="#c0afff"/>
      <path id="Path_882863" data-name="Path 882863" d="M78.668,0A78.668,78.668,0,1,1,0,78.668,78.668,78.668,0,0,1,78.668,0Z" transform="translate(10.332 10.331)" fill="#f3f9ff"/>
    </g>
    <g id="Group_1114092" data-name="Group 1114092" transform="translate(-3407.926 -8107)">
      <rect id="Rectangle_401104" data-name="Rectangle 401104" width="99.117" height="100.574" transform="translate(-0.345 1.194)" fill="none"/>
      <g id="Group_1115855" data-name="Group 1115855" transform="translate(2.654 0.193)">
        <g id="Group_1115854" data-name="Group 1115854" transform="translate(0 0)" clip-path="url(#clip-path)">
          <path id="Path_922233" data-name="Path 922233" d="M57.221,33.347a7.041,7.041,0,0,1-6.154-3.656,5.466,5.466,0,0,1-1.467.357c-.2.02-.393.03-.587.03h0a5.859,5.859,0,0,1-5.846-5.3,5.767,5.767,0,0,1,.742-3.449A5.87,5.87,0,0,1,46.7,10.675a5.641,5.641,0,0,1,.769-.024,5.852,5.852,0,0,1,9.61-3.144A7.357,7.357,0,0,1,69.241,7.1a6.47,6.47,0,0,1,2.141-.594,6.55,6.55,0,0,1,6.18,10.023A4.735,4.735,0,0,1,75.329,25.7a7.622,7.622,0,0,1-12.463,4.8,6.966,6.966,0,0,1-4.944,2.811c-.235.022-.469.034-.7.034m-5.673-4.976.212.461a6.01,6.01,0,0,0,10.589.644l.33-.537.449.443a6.615,6.615,0,0,0,11.254-4.326l.037-.632.607.18a3.75,3.75,0,0,0,1.428.138,3.73,3.73,0,0,0,.189-7.4l-.87-.132.555-.682a5.541,5.541,0,0,0-7-8.338l-.413.23-.256-.4a6.354,6.354,0,0,0-11.014.532l-.333.648L56.82,8.66a4.851,4.851,0,0,0-8.435,2.594l-.065.485-.487-.054a4.763,4.763,0,0,0-1.031-.01,4.867,4.867,0,0,0-1.953,9.066l.469.27-.306.447a4.848,4.848,0,0,0,4,7.616h0a4.736,4.736,0,0,0,.487-.025,4.8,4.8,0,0,0,1.588-.46Z" transform="translate(12.68 1.249)" fill="#e3e3e3"/>
          <path id="Path_922234" data-name="Path 922234" d="M51.845,29.927A1.144,1.144,0,1,1,50.7,28.783a1.144,1.144,0,0,1,1.144,1.144" transform="translate(15.178 8.815)" fill="#e3e3e3"/>
          <path id="Path_922235" data-name="Path 922235" d="M58.569,31.277a.879.879,0,1,1-.879-.879.879.879,0,0,1,.879.879" transform="translate(17.4 9.31)" fill="#e3e3e3"/>
          <path id="Path_922236" data-name="Path 922236" d="M49.9,32.91a1.238,1.238,0,1,1,1.238,1.238A1.238,1.238,0,0,1,49.9,32.91" transform="translate(15.282 9.7)" fill="#e3e3e3"/>
          <path id="Path_922237" data-name="Path 922237" d="M46.592,34.874a.9.9,0,1,1,.9.9.9.9,0,0,1-.9-.9" transform="translate(14.27 10.406)" fill="#e3e3e3"/>
          <path id="Path_922238" data-name="Path 922238" d="M56.177,30.277a1.494,1.494,0,1,1-1.494-1.494,1.494,1.494,0,0,1,1.494,1.494" transform="translate(16.29 8.815)" fill="#e3e3e3"/>
          <path id="Path_922239" data-name="Path 922239" d="M60.875,28.44a1.73,1.73,0,1,1-1.729-1.73,1.73,1.73,0,0,1,1.729,1.73" transform="translate(17.585 8.18)" fill="#e3e3e3"/>
          <path id="Path_922240" data-name="Path 922240" d="M20.14,32.275A8.392,8.392,0,0,1,12.162,26.6a7.258,7.258,0,0,1-3.945,1.164A7.434,7.434,0,0,1,2.445,15.65,6.216,6.216,0,0,1,0,10.694,6.3,6.3,0,0,1,6.3,4.4a6.221,6.221,0,0,1,1.527.188,4.349,4.349,0,0,1,7.821-2.134A7.428,7.428,0,0,1,28.58,7.079c.2-.017.389-.026.575-.026a7.411,7.411,0,0,1,4.137,13.575,4.24,4.24,0,0,1,.213,1.321,4.353,4.353,0,0,1-4.35,4.349,4.226,4.226,0,0,1-.9-.1,8.479,8.479,0,0,1-8.112,6.077m-7.216-7.892.229,1.02a7.164,7.164,0,0,0,14.008-.142l.153-.751.713.282a3.045,3.045,0,0,0,3.887-4.15L31.66,20.1l.517-.294A6.12,6.12,0,0,0,28.026,8.452L27.22,8.6l.048-.818c0-.073.013-.146.024-.218a.726.726,0,0,0,.013-.131,6.144,6.144,0,0,0-11.213-3.48l-.661.961-.459-1.074a3.065,3.065,0,0,0-5.886,1.2,1.593,1.593,0,0,0,.024.238l.016.128.132,1.1L8.24,6.074A4.953,4.953,0,0,0,6.3,5.682a5.019,5.019,0,0,0-5.013,5.012,4.968,4.968,0,0,0,2.458,4.29l.708.422-.583.583a6.131,6.131,0,0,0,8.249,9.06Z" transform="translate(0 -0.001)" fill="#e3e3e3"/>
          <path id="Path_922241" data-name="Path 922241" d="M15.762,30.126a.85.85,0,1,0,.85-.85.85.85,0,0,0-.85.85" transform="translate(4.827 8.966)" fill="#e3e3e3"/>
          <path id="Path_922242" data-name="Path 922242" d="M10.771,26.232a.879.879,0,1,0,.879-.879.879.879,0,0,0-.879.879" transform="translate(3.299 7.764)" fill="#e3e3e3"/>
          <path id="Path_922243" data-name="Path 922243" d="M20.91,28.914a.879.879,0,1,0,.879-.879.879.879,0,0,0-.879.879" transform="translate(6.404 8.586)" fill="#e3e3e3"/>
          <path id="Path_922244" data-name="Path 922244" d="M23.122,31.924a.712.712,0,1,0-.712.712.712.712,0,0,0,.712-.712" transform="translate(6.645 9.559)" fill="#e3e3e3"/>
          <path id="Path_922245" data-name="Path 922245" d="M20.6,30.565a.9.9,0,1,0-.9.9.9.9,0,0,0,.9-.9" transform="translate(5.76 9.086)" fill="#e3e3e3"/>
          <path id="Path_922246" data-name="Path 922246" d="M13.572,27.52a1.494,1.494,0,1,0,1.494-1.494,1.494,1.494,0,0,0-1.494,1.494" transform="translate(4.157 7.971)" fill="#e3e3e3"/>
          <path id="Path_922247" data-name="Path 922247" d="M18.032,26.36a1.423,1.423,0,1,0,1.423-1.423,1.422,1.422,0,0,0-1.423,1.423" transform="translate(5.523 7.637)" fill="#e3e3e3"/>
          <path id="Path_922248" data-name="Path 922248" d="M45.382,14.893a28.2,28.2,0,0,0-7.407-1.424,28.217,28.217,0,0,0-7.407,1.424c-6.525,2.837-6.6,8.348-6.6,16.932H51.986c0-8.584-.08-14.095-6.6-16.932" transform="translate(7.339 4.125)" fill="#474656"/>
          <path id="Path_922249" data-name="Path 922249" d="M42.971,40.689H32.11a20.763,20.763,0,0,1-6.243,17.238L37.019,71.4h1.044L49.214,57.927a20.763,20.763,0,0,1-6.243-17.238" transform="translate(7.922 12.461)" fill="#fcc083"/>
          <path id="Path_922250" data-name="Path 922250" d="M30.649,40.689H41.511A20.057,20.057,0,0,0,42.9,50.716c-4.537-1.77-8.152-5.5-12.143-8.932-.043-.695-.112-1.095-.112-1.095" transform="translate(9.387 12.461)" fill="#e8aa63"/>
          <path id="Path_922251" data-name="Path 922251" d="M31.524,46.53a21.128,21.128,0,0,1-5.656,9.608l11.15,13.472h1.045l11.15-13.472a21.128,21.128,0,0,1-5.656-9.608L37.6,49.823Z" transform="translate(7.923 14.25)" fill="#e5e5e5"/>
          <path id="Path_922252" data-name="Path 922252" d="M52.509,29.959c-.419-1.082-1.151-.523-1.722.189.163-8.39-4.266-12.65-4.266-12.65H29.883s-4.46,4.251-4.317,12.589C25,29.406,24.3,28.91,23.9,29.959c-.756,1.95,1.02,4.623.681,7.332-.23,1.831,1.215,1.647,2.129,1.136a31.783,31.783,0,0,0,1.679,4.931c1.74,4.046,6.731,7.729,9.794,7.729s7.981-3.712,9.793-7.729A23.42,23.42,0,0,0,49.655,38.4c.912.529,2.407.747,2.174-1.113-.34-2.709,1.437-5.382.681-7.332" transform="translate(7.26 5.359)" fill="#fcc083"/>
          <path id="Path_922253" data-name="Path 922253" d="M34.846,50.257,38.109,54.7l5.219-7.734L40.4,45.115Z" transform="translate(10.672 13.817)" fill="#fff"/>
          <path id="Path_922254" data-name="Path 922254" d="M36.858,50.257,33.594,54.7l-5.318-7.541L31.2,45.115Z" transform="translate(8.66 13.817)" fill="#fff"/>
          <path id="Path_922255" data-name="Path 922255" d="M66.441,53.353c-2.115-3.851-18.267-7.738-18.267-7.738l0,.06-.2-.06A34.767,34.767,0,0,1,46.02,58.578c-.826,2.525-1.753,5.089-2.558,7.23-.317.843-1.618,4.351-1.618,4.351s-1.6-3.509-1.915-4.351c-.8-2.141-1.732-4.705-2.558-7.23a34.767,34.767,0,0,1-1.954-12.963l-.2.06,0-.06S19.066,49.5,16.951,53.353c-.767,1.4-3.119,15.121-4.7,22.527-1.083,5.066,1.417,8.974,6.03,11.332l3.088,1.578H61.637l3.3-1.628c4.7-2.319,7.279-6.283,6.179-11.408-1.583-7.371-3.914-21.013-4.676-22.4" transform="translate(3.674 13.97)" fill="#3d034b"/>
          <path id="Path_922256" data-name="Path 922256" d="M26.61,19.117s8.563,17.888,23.058.481c0,0-11.92-11.359-23.058-.481" transform="translate(8.15 4.411)" fill="#474656"/>
          <path id="Path_922257" data-name="Path 922257" d="M27.976,37.591c-.6-5.177-1.112-17.289,6.638-20.667l-2.372-1.147s-6.934,1.4-7.571,12.109l1.86,11.3h.017a1.433,1.433,0,0,0,1.428-1.6" transform="translate(7.556 4.832)" fill="#474656"/>
          <path id="Path_922258" data-name="Path 922258" d="M45.308,39.175h.077l1.847-11.231c-.637-10.708-7.571-12.11-7.571-12.11L37.289,16.98c7.745,3.377,7.242,15.47,6.641,20.655a1.381,1.381,0,0,0,1.378,1.54" transform="translate(11.421 4.849)" fill="#474656"/>
          <rect id="Rectangle_408518" data-name="Rectangle 408518" width="33.183" height="1.777" transform="translate(28.584 100.169)" fill="#1f2225"/>
          <path id="Path_922259" data-name="Path 922259" d="M57.841,54.191H20.767a1.6,1.6,0,0,0-1.6,1.6V82.482a1.6,1.6,0,0,0,1.6,1.6H57.841a1.6,1.6,0,0,0,1.6-1.6V55.79a1.6,1.6,0,0,0-1.6-1.6" transform="translate(5.871 16.597)" fill="#474656"/>
          <rect id="Rectangle_408519" data-name="Rectangle 408519" width="39.007" height="2.089" transform="translate(25.672 101.437)" fill="#474656"/>
          <path id="Path_922260" data-name="Path 922260" d="M36.469,65.99a1.528,1.528,0,1,1-1.528-1.528,1.529,1.529,0,0,1,1.528,1.528" transform="translate(10.234 19.742)" fill="#e3e3e3"/>
          <path id="Path_922261" data-name="Path 922261" d="M28.48,15.9H8.191a2.05,2.05,0,0,1-2.05-2.05V12.711a2.05,2.05,0,0,1,2.05-2.051H28.48a2.05,2.05,0,0,1,2.05,2.051V13.85a2.05,2.05,0,0,1-2.05,2.05" transform="translate(1.881 3.264)" fill="#6bfcf2"/>
          <path id="Path_922262" data-name="Path 922262" d="M13.455,13.764A4.833,4.833,0,1,1,8.622,8.931a4.833,4.833,0,0,1,4.833,4.833" transform="translate(1.161 2.735)" fill="#fff"/>
          <path id="Path_922263" data-name="Path 922263" d="M8.717,19.1a5.239,5.239,0,1,1,5.239-5.239A5.245,5.245,0,0,1,8.717,19.1m0-9.665a4.426,4.426,0,1,0,4.426,4.426A4.431,4.431,0,0,0,8.717,9.433" transform="translate(1.065 2.64)" fill="#6bfcf2"/>
          <path id="Path_922264" data-name="Path 922264" d="M10.542,11.263a.606.606,0,0,0-.846.125l-2,2.695-1.221-.877a.6.6,0,0,0-.7.981l1.591,1.143a.568.568,0,0,0,.1.09A.6.6,0,0,0,8.3,15.3l2.362-3.187a.605.605,0,0,0-.124-.845" transform="translate(1.691 3.413)" fill="#7d0ede"/>
          <path id="Path_922265" data-name="Path 922265" d="M47.435,18.952h19.4a2.654,2.654,0,1,0,0-5.307h-19.4a2.654,2.654,0,1,0,0,5.307" transform="translate(13.715 4.179)" fill="#9d0388"/>
          <path id="Path_922266" data-name="Path 922266" d="M58.582,16.789a4.9,4.9,0,1,0,4.9-4.9,4.9,4.9,0,0,0-4.9,4.9" transform="translate(17.942 3.642)" fill="#fff"/>
          <path id="Path_922267" data-name="Path 922267" d="M58.267,16.885a5.307,5.307,0,1,1,5.307,5.307,5.313,5.313,0,0,1-5.307-5.307m.823,0A4.484,4.484,0,1,0,63.574,12.4a4.489,4.489,0,0,0-4.484,4.484" transform="translate(17.846 3.545)" fill="#9d0388"/>
          <path id="Path_922268" data-name="Path 922268" d="M65.161,17.344l-1.136-.973,1.01-1.1a.665.665,0,0,0-.981-.9l-1.04,1.136-1.17-1a.665.665,0,0,0-.865,1.011l1.136.972-1.011,1.1a.665.665,0,0,0,.981.9l1.041-1.136,1.17,1a.665.665,0,0,0,.865-1.011" transform="translate(18.605 4.334)" fill="#ff85e7"/>
        </g>
      </g>
    </g>
  </g>
</svg>
