<svg xmlns="http://www.w3.org/2000/svg" xmlns:xlink="http://www.w3.org/1999/xlink" width="178" height="178" viewBox="0 0 178 178">
  <defs>
    <clipPath id="clip-path">
      <rect id="Rectangle_408484" data-name="Rectangle 408484" width="95.1" height="92.903" fill="none"/>
    </clipPath>
    <clipPath id="clip-path-2">
      <rect id="Rectangle_408483" data-name="Rectangle 408483" width="95.099" height="92.903" fill="none"/>
    </clipPath>
    <clipPath id="clip-path-3">
      <rect id="Rectangle_408478" data-name="Rectangle 408478" width="28.174" height="28.059" fill="none"/>
    </clipPath>
    <clipPath id="clip-path-4">
      <rect id="Rectangle_408479" data-name="Rectangle 408479" width="18.651" height="18.575" fill="none"/>
    </clipPath>
    <clipPath id="clip-path-6">
      <rect id="Rectangle_408481" data-name="Rectangle 408481" width="14.182" height="15.731" fill="none"/>
    </clipPath>
    <clipPath id="clip-path-7">
      <rect id="Rectangle_408482" data-name="Rectangle 408482" width="13.076" height="15.804" fill="none"/>
    </clipPath>
  </defs>
  <g id="Group_1114942" data-name="Group 1114942" transform="translate(-1060.785 -3553.999)">
    <g id="Group_1114083" data-name="Group 1114083" transform="translate(1060.785 3554)">
      <path id="Path_882862" data-name="Path 882862" d="M89,0A89,89,0,1,1,0,89,89,89,0,0,1,89,0Z" transform="translate(0 -0.001)" fill="#c0afff"/>
      <path id="Path_882863" data-name="Path 882863" d="M78.668,0A78.668,78.668,0,1,1,0,78.668,78.668,78.668,0,0,1,78.668,0Z" transform="translate(10.332 10.331)" fill="#f3f9ff"/>
    </g>
    <g id="Group_1114086" data-name="Group 1114086" transform="translate(1099.785 3593)">
      <rect id="Rectangle_401104" data-name="Rectangle 401104" width="99.117" height="100.574" transform="translate(-0.346 0.193)" fill="none"/>
      <g id="Group_1115842" data-name="Group 1115842" transform="translate(1.654 4.193)">
        <g id="Group_1115841" data-name="Group 1115841" clip-path="url(#clip-path)">
          <g id="Group_1115840" data-name="Group 1115840" transform="translate(0 0)">
            <g id="Group_1115839" data-name="Group 1115839" clip-path="url(#clip-path-2)">
              <path id="Path_922148" data-name="Path 922148" d="M84.363,25.488a10.7,10.7,0,0,0-4.266.885A10.231,10.231,0,0,0,66.912,14.215,12.929,12.929,0,0,0,41.956,12.48,16.894,16.894,0,1,0,10.621,24.606a11.185,11.185,0,0,0,.57,22.355H84.363a10.736,10.736,0,0,0,0-21.472" transform="translate(0 0)" fill="#3a2292"/>
              <g id="Group_1115826" data-name="Group 1115826" transform="translate(35.463 18.986)" opacity="0.5" style="mix-blend-mode: multiply;isolation: isolate">
                <g id="Group_1115825" data-name="Group 1115825">
                  <g id="Group_1115824" data-name="Group 1115824" clip-path="url(#clip-path-3)">
                    <path id="Path_922149" data-name="Path 922149" d="M35.464,42.686H47.353V29.1H55.5L41.408,14.627,27.321,29.1h8.142Z" transform="translate(-27.322 -14.627)" fill="#c1c1c1"/>
                  </g>
                </g>
              </g>
              <path id="Path_922150" data-name="Path 922150" d="M50.862,29.1,36.775,14.626,22.688,29.1H30.83V48.229H42.72V29.1Z" transform="translate(6.761 4.359)" fill="#f9f9f9"/>
              <g id="Group_1115829" data-name="Group 1115829" transform="translate(62.427 28.305)" opacity="0.5" style="mix-blend-mode: multiply;isolation: isolate">
                <g id="Group_1115828" data-name="Group 1115828">
                  <g id="Group_1115827" data-name="Group 1115827" clip-path="url(#clip-path-4)">
                    <path id="Path_922151" data-name="Path 922151" d="M53.486,40.382h7.871V31.39h5.391l-9.326-9.583L48.1,31.39h5.391Z" transform="translate(-48.096 -21.807)" fill="#c1c1c1"/>
                  </g>
                </g>
              </g>
              <path id="Path_922152" data-name="Path 922152" d="M63.68,31.389l-9.326-9.582-9.325,9.582h5.389V44.051h7.871V31.389Z" transform="translate(13.418 6.498)" fill="#f9f9f9"/>
              <g id="Group_1115832" data-name="Group 1115832" transform="translate(11.524 28.305)" opacity="0.5" style="mix-blend-mode: multiply;isolation: isolate">
                <g id="Group_1115831" data-name="Group 1115831">
                  <g id="Group_1115830" data-name="Group 1115830" clip-path="url(#clip-path-4)">
                    <path id="Path_922153" data-name="Path 922153" d="M14.268,40.382h7.871V31.39H27.53L18.2,21.807,8.878,31.39h5.391Z" transform="translate(-8.878 -21.807)" fill="#c1c1c1"/>
                  </g>
                </g>
              </g>
              <path id="Path_922154" data-name="Path 922154" d="M24.462,31.389l-9.326-9.582L5.811,31.389H11.2V44.051h7.871V31.389Z" transform="translate(1.732 6.498)" fill="#f9f9f9"/>
              <path id="Path_922155" data-name="Path 922155" d="M41.514,68.665c-.958-1.742-7.667-3.5-8.89-3.8l-.589-.371a10.816,10.816,0,0,1-.158-1.4V63.08a8.884,8.884,0,0,1,.014-1.006A7.507,7.507,0,0,0,34.1,59.4a11.7,11.7,0,0,0,.84-2.469c.453.263,1.2.373,1.083-.554-.17-1.35.715-2.68.339-3.653a.449.449,0,0,0-.222-.276c-.01-3.938-.192-6.5-3.289-7.844a14.066,14.066,0,0,0-3.69-.709,14.046,14.046,0,0,0-3.689.709c-3.132,1.362-3.283,3.964-3.29,7.975a.72.72,0,0,0-.074.145c-.376.972.509,2.3.339,3.653-.114.912.6.82,1.06.566a15.805,15.805,0,0,0,.837,2.457,7.191,7.191,0,0,0,2.238,2.713,10.018,10.018,0,0,1-.14,2.378l-.482.336V64.81s-8.045,1.937-9.1,3.855c-.38.692-1.541,7.454-2.33,11.157H43.843c-.789-3.672-1.95-10.466-2.329-11.157M29.2,76.9h.11l-.049.135L29.2,76.9" transform="translate(4.329 13.079)" fill="#91909a"/>
              <path id="Path_922156" data-name="Path 922156" d="M64.717,68.665c-.958-1.742-7.667-3.5-8.89-3.8l-.589-.371a10.816,10.816,0,0,1-.158-1.4V63.08a8.883,8.883,0,0,1,.014-1.006A7.507,7.507,0,0,0,57.3,59.4a11.7,11.7,0,0,0,.84-2.469c.453.263,1.2.373,1.083-.554-.17-1.35.715-2.68.339-3.653a.449.449,0,0,0-.222-.276c-.01-3.938-.192-6.5-3.289-7.844a14.066,14.066,0,0,0-3.69-.709,14.046,14.046,0,0,0-3.689.709c-3.132,1.362-3.283,3.964-3.29,7.975a.719.719,0,0,0-.074.145c-.376.972.509,2.3.339,3.653-.114.912.6.82,1.06.566a15.805,15.805,0,0,0,.837,2.457,7.191,7.191,0,0,0,2.238,2.713,10.018,10.018,0,0,1-.14,2.378l-.482.336V64.81s-8.045,1.937-9.1,3.855c-.38.692-1.541,7.454-2.33,11.157H67.046c-.789-3.672-1.95-10.466-2.329-11.157M52.4,76.9h.11l-.049.135L52.4,76.9" transform="translate(11.243 13.079)" fill="#91909a"/>
              <path id="Path_922157" data-name="Path 922157" d="M19.2,41.9a15.443,15.443,0,0,0-4.059-.78,15.463,15.463,0,0,0-4.059.78C7.5,43.459,7.462,46.479,7.462,51.182H22.817c0-4.7-.043-7.723-3.619-9.278" transform="translate(2.224 12.254)" fill="#aaa"/>
              <path id="Path_922158" data-name="Path 922158" d="M17.885,56.136H11.932a11.374,11.374,0,0,1-3.42,9.445l6.111,7.383h.571L21.3,65.581a11.379,11.379,0,0,1-3.42-9.445" transform="translate(2.536 16.728)" fill="#fcc083"/>
              <path id="Path_922159" data-name="Path 922159" d="M11.148,56.136H17.1a10.978,10.978,0,0,0,.763,5.494c-2.486-.97-4.468-3.015-6.655-4.895-.023-.38-.061-.6-.061-.6" transform="translate(3.322 16.728)" fill="#e8aa63"/>
              <path id="Path_922160" data-name="Path 922160" d="M11.612,59.357a11.574,11.574,0,0,1-3.1,5.265L14.623,72h.571L21.3,64.622a11.574,11.574,0,0,1-3.1-5.265l-3.267,1.8Z" transform="translate(2.536 17.687)" fill="#e5e5e5"/>
              <path id="Path_922161" data-name="Path 922161" d="M23.1,50.175c-.23-.592-.631-.287-.944.1a9.651,9.651,0,0,0-2.338-6.932H10.705a9.6,9.6,0,0,0-2.366,6.9c-.308-.373-.692-.645-.915-.07-.414,1.068.559,2.534.373,4.019-.126,1,.666.9,1.167.622a17.367,17.367,0,0,0,.92,2.7c.953,2.217,3.688,4.235,5.367,4.235s4.373-2.034,5.366-4.235a12.773,12.773,0,0,0,.923-2.715c.5.291,1.319.41,1.192-.609-.187-1.485.787-2.95.373-4.019" transform="translate(2.181 12.916)" fill="#fcc083"/>
              <path id="Path_922162" data-name="Path 922162" d="M13.463,61.394l1.789,2.434,2.859-4.238L16.5,58.576Z" transform="translate(4.012 17.455)" fill="#fff"/>
              <path id="Path_922163" data-name="Path 922163" d="M14.542,61.394l-1.789,2.434L9.841,59.695l1.6-1.119Z" transform="translate(2.932 17.455)" fill="#fff"/>
              <path id="Path_922164" data-name="Path 922164" d="M33.223,75.366c-.867-4.039-2.144-11.513-2.562-12.274-1.159-2.109-10.01-4.24-10.01-4.24l0,.034-.112-.034a19.084,19.084,0,0,1-1.071,7.1c-.452,1.384-.961,2.789-1.4,3.963-.174.462-.887,2.384-.887,2.384s-.876-1.922-1.05-2.384c-.441-1.173-.949-2.579-1.4-3.963a19.071,19.071,0,0,1-1.072-7.1l-.11.034v-.034S4.7,60.983,3.541,63.092c-.418.762-1.7,8.2-2.562,12.274Z" transform="translate(0.292 17.537)" fill="#9d0388"/>
              <path id="Path_922165" data-name="Path 922165" d="M8.921,44.222s4.692,9.8,12.636.263c0,0-6.531-6.225-12.636-.263" transform="translate(2.658 12.408)" fill="#aaa"/>
              <path id="Path_922166" data-name="Path 922166" d="M9.663,54.351c-.33-2.837-.609-9.474,3.638-11.325L12,42.4s-3.8.768-4.148,6.637l1.019,6.194H8.88a.785.785,0,0,0,.783-.876" transform="translate(2.34 12.634)" fill="#aaa"/>
              <path id="Path_922167" data-name="Path 922167" d="M19.2,55.218h.042l1.012-6.155c-.349-5.867-4.148-6.635-4.148-6.635l-1.3.628c4.243,1.85,3.968,8.477,3.638,11.318a.758.758,0,0,0,.755.844" transform="translate(4.413 12.643)" fill="#aaa"/>
              <g id="Group_1115835" data-name="Group 1115835" transform="translate(19.333 77.172)" opacity="0.5" style="mix-blend-mode: multiply;isolation: isolate">
                <g id="Group_1115834" data-name="Group 1115834">
                  <g id="Group_1115833" data-name="Group 1115833" clip-path="url(#clip-path-6)">
                    <path id="Path_922168" data-name="Path 922168" d="M19.36,59.455c-1.85,5.411-2.941,10.5-4.465,15.73H29.078c-.868-4.039-2.144-11.512-2.562-12.272-.727-1.323-4.465-2.65-7.156-3.458" transform="translate(-14.895 -59.455)" fill="#b3aab0"/>
                  </g>
                </g>
              </g>
              <path id="Path_922169" data-name="Path 922169" d="M64.754,41.9a15.443,15.443,0,0,0-4.059-.78,15.463,15.463,0,0,0-4.059.78c-3.575,1.555-3.619,4.575-3.619,9.278H68.373c0-4.7-.043-7.723-3.619-9.278" transform="translate(15.798 12.254)" fill="#ddab60"/>
              <path id="Path_922170" data-name="Path 922170" d="M63.441,56.136H57.488a11.374,11.374,0,0,1-3.42,9.445l6.111,7.383h.572l6.11-7.383a11.379,11.379,0,0,1-3.42-9.445" transform="translate(16.111 16.728)" fill="#fcc083"/>
              <path id="Path_922171" data-name="Path 922171" d="M56.7,56.136h5.953a10.978,10.978,0,0,0,.763,5.494c-2.486-.97-4.468-3.015-6.655-4.895-.023-.38-.061-.6-.061-.6" transform="translate(16.897 16.728)" fill="#e8aa63"/>
              <path id="Path_922172" data-name="Path 922172" d="M57.168,59.357a11.574,11.574,0,0,1-3.1,5.265L60.179,72h.571l6.111-7.383a11.574,11.574,0,0,1-3.1-5.265l-3.267,1.8Z" transform="translate(16.111 17.687)" fill="#e5e5e5"/>
              <path id="Path_922173" data-name="Path 922173" d="M68.659,50.175c-.23-.592-.631-.287-.944.1a9.651,9.651,0,0,0-2.338-6.932H56.261a9.6,9.6,0,0,0-2.366,6.9c-.309-.373-.692-.645-.915-.07-.415,1.068.559,2.534.373,4.019-.126,1,.666.9,1.167.622a17.231,17.231,0,0,0,.92,2.7c.953,2.217,3.688,4.235,5.366,4.235s4.374-2.034,5.367-4.235A12.772,12.772,0,0,0,67.1,54.8c.5.291,1.319.41,1.192-.609-.187-1.485.787-2.95.373-4.019" transform="translate(15.756 12.916)" fill="#fcc083"/>
              <path id="Path_922174" data-name="Path 922174" d="M59.019,61.394l1.789,2.434,2.859-4.238L62.06,58.576Z" transform="translate(17.586 17.455)" fill="#fff"/>
              <path id="Path_922175" data-name="Path 922175" d="M60.1,61.394l-1.787,2.434L55.4,59.695,57,58.576Z" transform="translate(16.507 17.455)" fill="#fff"/>
              <path id="Path_922176" data-name="Path 922176" d="M78.779,75.366c-.867-4.039-2.144-11.513-2.562-12.274-1.159-2.109-10.01-4.24-10.01-4.24v.034l-.11-.034a19.071,19.071,0,0,1-1.072,7.1c-.45,1.384-.959,2.789-1.4,3.963-.174.462-.887,2.384-.887,2.384s-.876-1.922-1.05-2.384c-.441-1.173-.949-2.579-1.4-3.963a19.071,19.071,0,0,1-1.072-7.1l-.11.034v-.034s-8.851,2.131-10.01,4.24c-.418.762-1.7,8.2-2.562,12.274Z" transform="translate(13.866 17.537)" fill="#7d0ede"/>
              <path id="Path_922177" data-name="Path 922177" d="M54.477,44.222s4.692,9.8,12.636.263c0,0-6.531-6.225-12.636-.263" transform="translate(16.233 12.408)" fill="#ddab60"/>
              <path id="Path_922178" data-name="Path 922178" d="M55.219,54.351c-.33-2.837-.61-9.474,3.638-11.325l-1.3-.63s-3.8.768-4.148,6.637l1.019,6.194h.009a.785.785,0,0,0,.783-.876" transform="translate(15.914 12.634)" fill="#ddab60"/>
              <path id="Path_922179" data-name="Path 922179" d="M64.761,55.218H64.8l1.012-6.155c-.349-5.867-4.148-6.635-4.148-6.635l-1.3.628c4.244,1.85,3.969,8.477,3.64,11.318a.758.758,0,0,0,.755.844" transform="translate(17.988 12.643)" fill="#ddab60"/>
              <g id="Group_1115838" data-name="Group 1115838" transform="translate(60.402 77.099)" opacity="0.5" style="mix-blend-mode: multiply;isolation: isolate">
                <g id="Group_1115837" data-name="Group 1115837">
                  <g id="Group_1115836" data-name="Group 1115836" clip-path="url(#clip-path-7)">
                    <path id="Path_922180" data-name="Path 922180" d="M56.5,59.4c-2.708.8-6.656,2.168-7.4,3.531-.418.762-1.7,8.2-2.562,12.274H59.611c-.375-5.34-3.109-15.8-3.109-15.8" transform="translate(-46.536 -59.399)" fill="#d1aa81"/>
                  </g>
                </g>
              </g>
              <path id="Path_922181" data-name="Path 922181" d="M43.4,34.492a19.3,19.3,0,0,0-5.072-.975,19.293,19.293,0,0,0-5.072.975c-4.469,1.943-4.523,5.718-4.523,11.6H47.919c0-5.879-.055-9.653-4.523-11.6" transform="translate(8.56 9.988)" fill="#474656"/>
              <path id="Path_922182" data-name="Path 922182" d="M41.753,52.278H34.315a14.22,14.22,0,0,1-4.276,11.805l7.637,9.227h.715l7.637-9.227a14.22,14.22,0,0,1-4.276-11.805" transform="translate(8.951 15.578)" fill="#fcc083"/>
              <path id="Path_922183" data-name="Path 922183" d="M33.334,52.278h7.439a13.732,13.732,0,0,0,.955,6.868c-3.107-1.212-5.584-3.771-8.317-6.119-.03-.475-.077-.749-.077-.749" transform="translate(9.933 15.578)" fill="#e8aa63"/>
              <path id="Path_922184" data-name="Path 922184" d="M33.912,56.3a14.479,14.479,0,0,1-3.874,6.581l7.637,9.226h.715l7.637-9.226A14.479,14.479,0,0,1,42.153,56.3L38.071,58.56Z" transform="translate(8.951 16.778)" fill="#e5e5e5"/>
              <path id="Path_922185" data-name="Path 922185" d="M48.276,44.827c-.287-.74-.788-.358-1.179.13.112-5.746-2.923-8.664-2.923-8.664H32.779s-3.054,2.911-2.957,8.622c-.386-.467-.866-.807-1.144-.088-.518,1.336.7,3.166.466,5.022-.158,1.254.832,1.128,1.459.777a21.685,21.685,0,0,0,1.149,3.379c1.192,2.77,4.61,5.293,6.708,5.293s5.466-2.543,6.708-5.293a16.069,16.069,0,0,0,1.153-3.394c.624.362,1.648.511,1.489-.762-.234-1.856.984-3.686.466-5.022" transform="translate(8.507 10.815)" fill="#fcc083"/>
              <path id="Path_922186" data-name="Path 922186" d="M36.227,58.85l2.235,3.042,3.573-5.3-2.007-1.266Z" transform="translate(10.795 16.487)" fill="#fff"/>
              <path id="Path_922187" data-name="Path 922187" d="M37.576,58.85l-2.235,3.042L31.7,56.727l2-1.4Z" transform="translate(9.446 16.487)" fill="#fff"/>
              <path id="Path_922188" data-name="Path 922188" d="M60.925,76.313c-1.084-5.049-2.679-14.388-3.2-15.34-1.449-2.637-12.51-5.3-12.51-5.3v.04l-.139-.04a23.84,23.84,0,0,1-1.34,8.878c-.565,1.729-1.2,3.485-1.751,4.952-.217.578-1.108,2.98-1.108,2.98s-1.094-2.4-1.311-2.98c-.552-1.467-1.186-3.223-1.752-4.952a23.819,23.819,0,0,1-1.338-8.878l-.139.04v-.04s-11.061,2.662-12.51,5.3c-.523.951-2.118,10.248-3.2,15.34Z" transform="translate(6.146 16.59)" fill="#170551"/>
              <path id="Path_922189" data-name="Path 922189" d="M30.55,37.388s5.864,12.252,15.792.328c0,0-8.163-7.779-15.792-.328" transform="translate(9.103 10.179)" fill="#474656"/>
              <path id="Path_922190" data-name="Path 922190" d="M31.478,50.048c-.413-3.546-.762-11.84,4.547-14.154L34.4,35.108s-4.748.959-5.185,8.294l1.275,7.741H30.5a.981.981,0,0,0,.977-1.1" transform="translate(8.705 10.462)" fill="#474656"/>
              <path id="Path_922191" data-name="Path 922191" d="M43.4,51.132h.052L44.72,43.44c-.436-7.334-5.184-8.294-5.184-8.294l-1.625.785c5.3,2.312,4.96,10.6,4.547,14.145a.947.947,0,0,0,.945,1.055" transform="translate(11.297 10.473)" fill="#474656"/>
            </g>
          </g>
        </g>
      </g>
    </g>
  </g>
</svg>
