<svg id="Group_1116004" data-name="Group 1116004" xmlns="http://www.w3.org/2000/svg" xmlns:xlink="http://www.w3.org/1999/xlink" width="119" height="119" viewBox="0 0 119 119">
  <defs>
    <clipPath id="clip-path">
      <rect id="Rectangle_406617" data-name="Rectangle 406617" width="119" height="119" fill="#170551" stroke="rgba(0,0,0,0)" stroke-miterlimit="10" stroke-width="1"/>
    </clipPath>
    <clipPath id="clip-path-2">
      <rect id="Rectangle_401492" data-name="Rectangle 401492" width="69.729" height="69.729" transform="translate(-0.313 0.275)" fill="#fff" stroke="#707070" stroke-width="1"/>
    </clipPath>
    <clipPath id="clip-path-3">
      <rect id="Rectangle_408669" data-name="Rectangle 408669" width="64.615" height="64" fill="#fff"/>
    </clipPath>
  </defs>
  <g id="Group_1113263" data-name="Group 1113263" transform="translate(0 0)">
    <g id="Group_1112834" data-name="Group 1112834" transform="translate(0 0)" clip-path="url(#clip-path)">
      <path id="Path_917479" data-name="Path 917479" d="M118.163,71l-5.841-4.807a52.529,52.529,0,0,0-.6-16.787l5.47-5.208a3.328,3.328,0,0,0,.732-3.8l-5.546-12.131a3.335,3.335,0,0,0-3.026-1.944c-.108,0-.217,0-.325.015l-7.532.731A53.325,53.325,0,0,0,89.209,15.619l.185-7.551a3.329,3.329,0,0,0-2.166-3.2L74.728.21A3.32,3.32,0,0,0,73.566,0h0a3.315,3.315,0,0,0-2.57,1.214L66.186,7.057a52.524,52.524,0,0,0-16.786.6l-5.208-5.47A3.344,3.344,0,0,0,41.78,1.15a3.3,3.3,0,0,0-1.385.3L28.264,7a3.33,3.33,0,0,0-1.929,3.35l.731,7.534a53.315,53.315,0,0,0-11.449,12.29l-7.55-.185-.083,0a3.342,3.342,0,0,0-3.119,2.169L.208,44.652a3.333,3.333,0,0,0,1,3.731l5.846,4.811a52.523,52.523,0,0,0,.6,16.786L2.181,75.188a3.329,3.329,0,0,0-.731,3.8L7,91.116a3.336,3.336,0,0,0,3.027,1.945c.107,0,.215,0,.323-.015l7.534-.732a53.328,53.328,0,0,0,12.289,11.449l-.185,7.55a3.329,3.329,0,0,0,2.167,3.2l12.5,4.657a3.334,3.334,0,0,0,3.733-1l4.809-5.843a52.521,52.521,0,0,0,16.786-.6l5.208,5.47a3.343,3.343,0,0,0,2.41,1.034,3.308,3.308,0,0,0,1.384-.3l12.134-5.547a3.332,3.332,0,0,0,1.929-3.35l-.731-7.533a53.311,53.311,0,0,0,11.449-12.29l7.551.185h.082a3.342,3.342,0,0,0,3.119-2.167l4.657-12.5A3.329,3.329,0,0,0,118.163,71" transform="translate(0 -0.38)" fill="#170551" stroke="rgba(0,0,0,0)" stroke-miterlimit="10" stroke-width="1"/>
    </g>
  </g>
  <g id="Group_1111310" data-name="Group 1111310" transform="translate(25.025 24.557)">
    <rect id="Rectangle_401104" data-name="Rectangle 401104" width="64.968" height="66.017" transform="translate(2.38 0)" fill="none"/>
    <g id="Mask_Group_1098697" data-name="Mask Group 1098697" transform="translate(0 0)" clip-path="url(#clip-path-2)">
      <g id="Group_1116037" data-name="Group 1116037" transform="translate(2.687 3.275)">
        <g id="Group_1116036" data-name="Group 1116036" clip-path="url(#clip-path-3)">
          <path id="Path_923736" data-name="Path 923736" d="M51.86,39.854l.734,2.14c1.031.419,4.208-.544,4.452.739a48.187,48.187,0,0,1-.085,6.208c-.421.714-3.672.206-4.526.388l-1.287,3.26c.474,1.2,3.145,2.408,2.715,3.82a34.128,34.128,0,0,1-4.535,4.357c-.94-.023-2.8-2.817-3.334-2.907-1.124.432-2.15,1.246-3.4,1.284-.2,1.042.446,4.043-.507,4.592-.624.36-6.052.367-6.548-.055s.051-3.557-.268-4.367l-3.379-1.446c-1.14.4-2.567,3.319-3.809,2.713A43.753,43.753,0,0,1,23.9,56.408c-.43-1.413,2.241-2.622,2.715-3.82l-1.293-3.255c-.854-.193-4.1.325-4.52-.392a50.344,50.344,0,0,1-.1-6.036c.212-1.6,3.268-.436,4.461-.915.185-.813,1.363-2.572,1.454-3.2.153-1.058-3.445-2.568-2.579-4.044.4-.684,3.227-2.881,3.319-3.354l-2.571-4.7c-.24-.165-.837.549-1.019.738a11.647,11.647,0,0,0-2.448,4.042c-.2.607-.306,2.3-.791,2.545-.651.33-2.479-.563-3.436-.648a12.626,12.626,0,0,0-12.1,6.244c-.5.856-.823,2.909-2.183,1.924a18.8,18.8,0,0,1-1.753-3.808C-2.657,26.07,3.9,14,13.4,7.405L13.4,7.049c-1.007-1.841-3.641-4.775-1.12-6.5,3.068-2.1,4.38,2.41,5.741,4.223A35.756,35.756,0,0,1,28.964,1.662C37.4.79,46.829,3.754,51.826,10.873c2.672,3.807.054,2.521-2.477,2.648-4.47.223-9.415,3.574-10.845,7.879-.251.754-.317,2.633-1.052,2.851-.528.157-1.894-.519-2.607-.662a9.359,9.359,0,0,0-5.786.6l4.815,8.172c2.776.382.67-4.26,1.855-4.836a47.112,47.112,0,0,1,5.85-.1c1.722.231.745,3.391,1.036,4.619l2.2.767,7.41-13.027.987-.294c.437.117.947,1.167,1.21,1.585,3.166,5.052,7.15,11.636,9.773,16.924.134.271.446.723.422.995a1.912,1.912,0,0,1-.61.863ZM14.362,2.08a.831.831,0,0,0-1.428.6c.024.6,1.892,2.99,2.122,3.8L16.24,5.5A35.858,35.858,0,0,0,14.362,2.08m35.829,9.59c-6.763-8.953-19.342-10-29.292-6.3l3.949,1.888c5.089,3.177,8.877,7.954,12.087,12.939a15.259,15.259,0,0,1,13.256-8.527M35.915,22.053c-2.825-4.687-6.672-9.864-11.325-12.868C15.158,3.1,12.907,10.653,14.5,18.91a41.965,41.965,0,0,0,5.013,12.6,13.989,13.989,0,0,1,16.407-9.456m-21.6,9.457c.84-.087,1.905,0,2.781,0,.015,0,.444.446.275-.089-.213-.677-.988-1.811-1.328-2.567-2.584-5.74-4.644-12.116-3.492-18.48C4.281,16.781-.984,28.564,3.377,38.74a15.6,15.6,0,0,1,10.94-7.23M43.888,38H62.057l-9.176-15.76ZM27.55,24.858c-.177-.1-.358.007-.525.076s-1,.489-.921.717L42.145,53.187l1.176-.658Zm13.186,8.228V29.378c-.882-.577-2.339-.181-3.4-.249l-.307.249v3.708a3.281,3.281,0,0,1-2.225.836l1.111,1.955c1.315.01,2.435-.39,3.8-.284a13.547,13.547,0,0,1,2.957.747L43.7,34.295c-.567-.34-2.81-.665-2.966-1.208m6.489,6.767a13.524,13.524,0,0,1,1.666,4.731c.961,10.985-13.576,15.295-18.754,5.962a10.257,10.257,0,0,1,1.453-11.9L28.221,33l-2.314,2.314c.513.723,2.8,2.384,2.8,3.151a18.852,18.852,0,0,1-1.221,2.507c-.194.467-.7,2.778-1.116,2.778H22.659c-.606.99-.131,2.539-.278,3.708h3.8c.666,0,.907,1.885,1.12,2.4a24.173,24.173,0,0,1,1.4,3.071c-.007.888-2.141,2.12-2.529,2.871-.138.268-.041.272.093.468.514.748,1.742,1.537,2.329,2.309l2.974-2.783c.428-.044,1.9.959,2.5,1.208.64.265,2.963.695,2.963,1.3v3.8h3.708V58.3c0-.529,2.417-1.071,2.963-1.3a13.543,13.543,0,0,1,2.5-1.208l2.973,2.783c.587-.771,1.815-1.561,2.329-2.309.134-.2.231-.2.093-.468-.423-.818-2.589-1.945-2.513-3.048a15.689,15.689,0,0,1,1.012-1.966c.243-.592,1.029-3.331,1.49-3.331h3.8V43.747H51.4c-.8-1.084-.892-2.655-1.576-3.893Zm-5.562-2.037a10.535,10.535,0,0,0-3.623-.382c-.26.022-1.107.033-.983.44l7.851,13.471A8.253,8.253,0,0,0,45.958,41.4C44.6,39.09,44.3,40.141,42.137,39.836c-1.6-.226-.363-1.864-.474-2.02m-8.9,2.594c-.248-.227-.828.764-.961.983-3.6,5.951,1.535,13.626,8.38,12.363Z" transform="translate(0 -0.001)" fill="#fff"/>
          <path id="Path_923737" data-name="Path 923737" d="M274.611,138.045c.638-.639,1.476-.034,1.614.8.12.728.1,4.85-.265,5.274a.97.97,0,0,1-1.573-.47,30.064,30.064,0,0,1-.013-4.638c.024-.289.031-.76.237-.966" transform="translate(-222.336 -111.681)" fill="#fff"/>
          <path id="Path_923738" data-name="Path 923738" d="M276.2,180.081c-.72.833-2.23-.286-1.451-1.357.852-1.17,2.239.445,1.451,1.357" transform="translate(-222.53 -144.539)" fill="#fff"/>
        </g>
      </g>
    </g>
  </g>
</svg>
