<svg xmlns="http://www.w3.org/2000/svg" xmlns:xlink="http://www.w3.org/1999/xlink" width="1030" height="505.91" viewBox="0 0 1030 505.91">
  <defs>
    <clipPath id="clip-path">
      <path id="Path_611005" data-name="Path 611005" d="M0,0H1030V504.91H0Z" transform="translate(0 0)" fill="#eae5ff"/>
    </clipPath>
    <radialGradient id="radial-gradient" cx="0.5" cy="0.5" r="0.5" gradientUnits="objectBoundingBox">
      <stop offset="0" stop-color="#9d0388"/>
      <stop offset="1" stop-color="#ff85e7"/>
    </radialGradient>
  </defs>
  <g id="Group_1116076" data-name="Group 1116076" transform="translate(-284.711 -8106)">
    <g id="Group_1115770" data-name="Group 1115770" transform="translate(0 24)">
      <g id="Group_1073695" data-name="Group 1073695" transform="translate(1599.711 9034.41) rotate(180)">
        <path id="Path_608309" data-name="Path 608309" d="M0,0H1030V504.91H0Z" transform="translate(285 446.5)" fill="#eae5ff"/>
      </g>
      <g id="Group_1115765" data-name="Group 1115765" transform="translate(-1.075 30.566)">
        <path id="Union_13" data-name="Union 13" d="M1292.455,12092.891l-14.155,19.652-36.644-81.39,88.8,8.958-17.679,24.554a168.612,168.612,0,0,0,129.716,27.71c91.64-17.812,151.7-106.858,133.889-198.5a17.393,17.393,0,0,1,34.146-6.638c21.475,110.468-50.927,217.811-161.395,239.282a205.462,205.462,0,0,1-39.223,3.789A203.033,203.033,0,0,1,1292.455,12092.891Zm-76.8-121.218c-21.472-110.468,50.933-217.811,161.4-239.282a203.219,203.219,0,0,1,156.682,33.635l14.155-19.653,36.647,81.388-88.807-8.956,17.679-24.554a168.622,168.622,0,0,0-129.719-27.713c-91.637,17.813-151.7,106.858-133.886,198.5a17.394,17.394,0,1,1-34.149,6.638Z" transform="translate(-612.095 -3587.448)" fill="#d4ccf8" stroke="rgba(0,0,0,0)" stroke-miterlimit="10" stroke-width="1"/>
        <path id="Path_918483" data-name="Path 918483" d="M949.089,565.453h-113.2a153.008,153.008,0,0,0,149.48,149.48v-115.8a40.3,40.3,0,0,1-36.282-33.678" transform="translate(-187.381 7778.572)" fill="#ab76d2"/>
        <path id="Path_918484" data-name="Path 918484" d="M1409.536,565.453a40.305,40.305,0,0,1-35.12,33.561V714.933a153.008,153.008,0,0,0,149.48-149.48Z" transform="translate(-569.371 7778.418)" fill="#7d0ede"/>
        <path id="Path_918485" data-name="Path 918485" d="M1408.543,176.372h113.462A153.007,153.007,0,0,0,1371.75,26.877V136.755a40.285,40.285,0,0,1,36.793,39.617" transform="translate(-567.705 8160.994)" fill="#6bfcf2"/>
        <path id="Path_918486" data-name="Path 918486" d="M984.6,136.872V26.994A153.008,153.008,0,0,0,835.892,176.455h112.3A40.287,40.287,0,0,1,984.6,136.872" transform="translate(-187.382 8160.599)" fill="#ffa8fb"/>
        <path id="Path_918487" data-name="Path 918487" d="M1263.33,469.848a25.344,25.344,0,0,1,43.611-17.565l-3.3,3.1,12.793,3.853-3.06-13.006-2.641,2.483a30.55,30.55,0,0,0-52.612,21.133,2.6,2.6,0,0,0,5.207,0" transform="translate(-486.946 7868.077)" fill="#9d0388"/>
        <path id="Path_918488" data-name="Path 918488" d="M1319.209,530.711a2.6,2.6,0,0,0-2.6,2.6,25.343,25.343,0,0,1-43.611,17.565l3.3-3.1-12.793-3.853,3.06,13.006,2.641-2.483a30.55,30.55,0,0,0,52.612-21.133,2.6,2.6,0,0,0-2.6-2.6" transform="translate(-490.761 7803.222)" fill="#9d0388"/>
        <g id="Group_1114317" data-name="Group 1114317" transform="translate(-9352.266 19797.986)">
          <path id="Path_918489" data-name="Path 918489" d="M130.064,62.361" transform="translate(10017.846 -11588.424)" fill="url(#radial-gradient)"/>
          <path id="Path_918493" data-name="Path 918493" d="M198.387,178.421H144.933l-8.211-37.349h53.454Z" transform="translate(9934.219 -11686.146)" fill="#3681b0"/>
          <path id="Path_918494" data-name="Path 918494" d="M104.934,178.421h53.454l8.211-37.349H113.146Z" transform="translate(9957.795 -11686.146)" fill="#5bb2e2"/>
          <path id="Path_918495" data-name="Path 918495" d="M139.211,167.411H146.5l1.119-5.091H140.33Z" transform="translate(9932.373 -11701.904)" fill="#d8e6e7"/>
          <path id="Path_918496" data-name="Path 918496" d="M126.982,223.035h7.285l1.119-5.091H128.1Z" transform="translate(9941.443 -11743.159)" fill="#d8e6e7"/>
          <path id="Path_918497" data-name="Path 918497" d="M133.1,195.225h7.286l1.119-5.09h-7.286Z" transform="translate(9936.907 -11722.533)" fill="#d8e6e7"/>
          <path id="Path_918498" data-name="Path 918498" d="M178.2,167.411h7.286l1.119-5.091h-7.286Z" transform="translate(9903.454 -11701.904)" fill="#d8e6e7"/>
          <path id="Path_918499" data-name="Path 918499" d="M165.972,223.035h7.286l1.119-5.091h-7.286Z" transform="translate(9912.524 -11743.159)" fill="#d8e6e7"/>
          <path id="Path_918500" data-name="Path 918500" d="M172.088,195.225h7.286l1.119-5.09h-7.286Z" transform="translate(9907.989 -11722.533)" fill="#d8e6e7"/>
          <path id="Path_918501" data-name="Path 918501" d="M159.859,250.848h7.286l1.119-5.09h-7.286Z" transform="translate(9917.06 -11763.788)" fill="#d8e6e7"/>
          <path id="Path_918502" data-name="Path 918502" d="M217.192,167.411h7.286l1.119-5.091h-7.286Z" transform="translate(9874.537 -11701.904)" fill="#d8e6e7"/>
          <path id="Path_918503" data-name="Path 918503" d="M204.963,223.035h7.286l1.119-5.091h-7.286Z" transform="translate(9883.606 -11743.159)" fill="#d8e6e7"/>
          <path id="Path_918504" data-name="Path 918504" d="M211.078,195.225h7.286l1.119-5.09H212.2Z" transform="translate(9879.071 -11722.533)" fill="#d8e6e7"/>
          <path id="Path_918505" data-name="Path 918505" d="M198.848,250.848h7.285l1.119-5.09h-7.286Z" transform="translate(9888.143 -11763.788)" fill="#d8e6e7"/>
          <path id="Path_918506" data-name="Path 918506" d="M256.182,167.411h7.286l1.119-5.091H257.3Z" transform="translate(9845.619 -11701.904)" fill="#d8e6e7"/>
          <path id="Path_918507" data-name="Path 918507" d="M243.952,223.035h7.285l1.12-5.091h-7.286Z" transform="translate(9854.689 -11743.159)" fill="#d8e6e7"/>
          <path id="Path_918508" data-name="Path 918508" d="M250.067,195.225h7.285l1.12-5.09h-7.285Z" transform="translate(9850.154 -11722.533)" fill="#d8e6e7"/>
          <path id="Path_918509" data-name="Path 918509" d="M237.838,250.848h7.285l1.119-5.09h-7.286Z" transform="translate(9859.225 -11763.788)" fill="#d8e6e7"/>
          <path id="Path_918510" data-name="Path 918510" d="M282.944,223.035h7.286l1.119-5.091h-7.286Z" transform="translate(9825.771 -11743.159)" fill="#d8e6e7"/>
          <path id="Path_918511" data-name="Path 918511" d="M289.061,195.225h7.286l1.119-5.09H290.18Z" transform="translate(9821.233 -11722.533)" fill="#d8e6e7"/>
          <path id="Path_918512" data-name="Path 918512" d="M276.829,250.848h7.285l1.119-5.09h-7.286Z" transform="translate(9830.307 -11763.788)" fill="#d8e6e7"/>
          <path id="Path_918513" data-name="Path 918513" d="M169.476,122.062a.776.776,0,0,1-.836.7h-2.173a.776.776,0,0,1-.835-.7v-9.388a.776.776,0,0,1,.835-.7h2.173a.776.776,0,0,1,.836.7Z" transform="translate(9912.777 -11664.565)" fill="#f08f35"/>
          <path id="Path_918514" data-name="Path 918514" d="M211.936,122.062a.775.775,0,0,1-.835.7h-2.172a.776.776,0,0,1-.836-.7v-9.388a.776.776,0,0,1,.836-.7H211.1a.776.776,0,0,1,.835.7Z" transform="translate(9881.285 -11664.565)" fill="#f08f35"/>
          <path id="Path_918515" data-name="Path 918515" d="M254.4,122.062a.775.775,0,0,1-.835.7H251.39a.776.776,0,0,1-.835-.7v-9.388a.776.776,0,0,1,.835-.7h2.173a.775.775,0,0,1,.835.7Z" transform="translate(9849.793 -11664.565)" fill="#f08f35"/>
          <path id="Path_918516" data-name="Path 918516" d="M296.859,122.062a.776.776,0,0,1-.835.7h-2.173a.775.775,0,0,1-.835-.7v-9.388a.775.775,0,0,1,.835-.7h2.173a.776.776,0,0,1,.835.7Z" transform="translate(9818.301 -11664.565)" fill="#f08f35"/>
          <path id="Path_918517" data-name="Path 918517" d="M191.676,183a33.935,33.935,0,0,0-2.875,3.956c-.243-.463-.484-.927-.707-1.4-.353-.745-1.455-.1-1.1.645.4.844.856,1.662,1.278,2.495.67,1.32,1.162-.693,4.511-5.051.5-.653-.609-1.289-1.1-.645" transform="translate(9896.987 -11717.04)" fill="#e53c31"/>
          <path id="Path_918518" data-name="Path 918518" d="M117.157,160.636l14.566,5.952c.547-.21,1.569-.859.965-2.588-.575-1.646-7.044-5.391-7.044-5.391Z" transform="translate(9948.729 -11699.152)" fill="#f3b167"/>
          <path id="Path_918519" data-name="Path 918519" d="M105.982,190.228s-4-.884-5.3-.652-3.851,2.994-3.851,2.994l-1.209-1.226,2.764-4.488,5.2-1.818,5.153,2.014Z" transform="translate(9964.701 -11718.753)" fill="#f3b167"/>
          <path id="Path_918520" data-name="Path 918520" d="M61.8,148.391l23.734,9.983,2.047-4.866-23.735-9.982a1.029,1.029,0,0,0-1.347.548l-1.248,2.971a1.027,1.027,0,0,0,.548,1.345" transform="translate(9990.253 -11687.905)" fill="#347a86"/>
          <rect id="Rectangle_407289" data-name="Rectangle 407289" width="6.121" height="3.628" transform="translate(10052.978 -11538.668) rotate(-67.177)" fill="#f08f35"/>
          <path id="Path_918521" data-name="Path 918521" d="M157.528,182.4l-2.047,4.866a5.218,5.218,0,0,0,3.4.322l1.255-2.984a5.211,5.211,0,0,0-2.607-2.2" transform="translate(9920.306 -11716.795)" fill="#347a86"/>
          <path id="Path_918522" data-name="Path 918522" d="M169.9,190.932l-1.254,2.982,4,.685.542-1.288Z" transform="translate(9910.544 -11723.124)" fill="#fff"/>
          <rect id="Rectangle_407290" data-name="Rectangle 407290" width="5.279" height="4.672" transform="matrix(0.388, -0.922, 0.922, 0.388, 10071.48, -11531.344)" fill="#f08f35"/>
          <path id="Path_918523" data-name="Path 918523" d="M184.927,201.414l1.577.665a.342.342,0,1,1-.265.631l-1.578-.664Z" transform="translate(9898.664 -11730.899)" fill="#1c1c1c"/>
          <path id="Path_918524" data-name="Path 918524" d="M49.83,198.608l1.008-10.725a11.922,11.922,0,0,1,2.2-5.855l3.678-5.11a3.062,3.062,0,0,1,2.906-1.255l7.376,3.1-4.37,1.138c-4.6,7.474,1.474,10.2,4.014,7.106,2.383-2.9,5.841-7.631,7.4-8.213a2.48,2.48,0,0,1,3.164,2.49c.126,1.969-3.751,7.375-7.01,13.948l-8.972,9.624L59.3,210.285,47.4,202.695Z" transform="translate(10000.462 -11711.8)" fill="#f5c382"/>
          <path id="Path_918525" data-name="Path 918525" d="M145.817,195.313l-2.68-1.708c.963-2.38,2.212-3.5,3.371-2.847,1.366.764,1.267,2.4-.69,4.555" transform="translate(9929.461 -11722.861)" fill="#f7d1a5"/>
          <rect id="Rectangle_407291" data-name="Rectangle 407291" width="14.629" height="23.24" transform="translate(10036.251 -11498.909) rotate(-59.807)" fill="#171d9d"/>
          <path id="Path_918526" data-name="Path 918526" d="M34.892,263.451l1.966-3.377,18.029,10.491-1.964,3.374Z" transform="translate(10009.743 -11774.405)" fill="#4eadd1"/>
          <rect id="Rectangle_407292" data-name="Rectangle 407292" width="3.298" height="20.858" transform="translate(10035.621 -11495.46) rotate(-59.809)" fill="#1727b3"/>
          <path id="Path_918527" data-name="Path 918527" d="M35.328,295.82a1.325,1.325,0,1,1,1.813-.478,1.324,1.324,0,0,1-1.813.478" transform="translate(10009.909 -11799.084)" fill="#dadbdc"/>
        </g>
        <g id="Group_1114315" data-name="Group 1114315" transform="translate(-9885.171 19740.527)">
          <path id="Path_918528" data-name="Path 918528" d="M2549.269,771.187v42.7h-38.437V799.7a16.775,16.775,0,0,0,0-28.246v-.265Z" transform="translate(8247.324 -12133.028)" fill="#afebf0"/>
          <rect id="Rectangle_407293" data-name="Rectangle 407293" width="38.436" height="3.336" transform="translate(10758.156 -11319.14)" fill="#84d8dd"/>
          <rect id="Rectangle_407294" data-name="Rectangle 407294" width="38.436" height="3.336" transform="translate(10758.156 -11315.805)" fill="#afebf0"/>
          <rect id="Rectangle_407295" data-name="Rectangle 407295" width="38.436" height="3.336" transform="translate(10758.156 -11312.47)" fill="#84d8dd"/>
          <rect id="Rectangle_407296" data-name="Rectangle 407296" width="38.436" height="3.335" transform="translate(10758.156 -11309.133)" fill="#afebf0"/>
          <rect id="Rectangle_407297" data-name="Rectangle 407297" width="38.436" height="3.336" transform="translate(10758.156 -11305.799)" fill="#84d8dd"/>
          <rect id="Rectangle_407298" data-name="Rectangle 407298" width="38.436" height="3.336" transform="translate(10758.156 -11302.464)" fill="#afebf0"/>
          <rect id="Rectangle_407299" data-name="Rectangle 407299" width="6.723" height="4.749" transform="translate(10737.109 -11325.216) rotate(-67.073)" fill="#2a2b2b"/>
          <path id="Path_918529" data-name="Path 918529" d="M2403.5,911.13l-7.43,16.9c-1.768,4.177,4.553,6.91,6.343,2.683l7.431-16.9Z" transform="translate(8332.62 -12236.764)" fill="#a5b73b"/>
          <path id="Path_918530" data-name="Path 918530" d="M2420.882,787.917a20.617,20.617,0,1,1,16.039-24.351,20.625,20.625,0,0,1-16.039,24.351" transform="translate(8332.372 -12115.175)" fill="#4b4c4c"/>
          <rect id="Rectangle_407300" data-name="Rectangle 407300" width="10.656" height="8.784" transform="matrix(0.441, -0.897, 0.897, 0.441, 10717.758, -11313.443)" fill="#f6c485"/>
          <path id="Path_918531" data-name="Path 918531" d="M2412.065,940.721c-1.9-1.072-.222-4.027,1.732-2.926l6.1,3.4a1.7,1.7,0,1,1-1.732,2.926Z" transform="translate(8321.154 -12256.351)" fill="#f6c485"/>
          <path id="Path_918532" data-name="Path 918532" d="M2409.482,954.314a1.7,1.7,0,0,1,1.671-2.961l6.084,3.355a1.7,1.7,0,0,1-1.669,2.96Z" transform="translate(8323.101 -12266.399)" fill="#f6c485"/>
          <path id="Path_918533" data-name="Path 918533" d="M2400.63,963.606a1.7,1.7,0,0,1,1.67-2.96l6,3.381a1.7,1.7,0,0,1-1.672,2.961Z" transform="translate(8329.663 -12273.288)" fill="#f6c485"/>
          <path id="Path_918534" data-name="Path 918534" d="M2400.814,977.534a1.4,1.4,0,1,1,1.368-2.428l3.363,1.9a1.4,1.4,0,1,1-1.368,2.427Z" transform="translate(8329.485 -12284.014)" fill="#f6c485"/>
          <path id="Path_918535" data-name="Path 918535" d="M2369.4,940.1s-.655,2.649,3.243,5.273a39.039,39.039,0,0,0,7.471,3.413l5.294-10.758-5.774-3.466Z" transform="translate(8352.192 -12254.132)" fill="#f6c485"/>
          <path id="Path_918536" data-name="Path 918536" d="M2392.01,918.2c-1.583,5.97-8.236,6.5-10.2,5.116-2.8-2-2.3-5.139-.788-8.254a16.944,16.944,0,0,1,6.371-2.279,2.435,2.435,0,0,0,1.633-.789c.712-.831.588-1.993,1.345-2.01,2.56-.05,2.408,2.837-.406,5.216-1.8,1.519,2.042,3,2.042,3" transform="translate(8344.451 -12235.915)" fill="#f6c485"/>
          <path id="Path_918537" data-name="Path 918537" d="M2417.512,910.061c-.026.079-.055.158-.087.24a2.247,2.247,0,0,1-1.962,1.7c.712-.831.588-1.994,1.345-2.01a2.634,2.634,0,0,1,.7.074" transform="translate(8318.018 -12235.915)" fill="#eb4a26"/>
          <rect id="Rectangle_407301" data-name="Rectangle 407301" width="14.112" height="8.883" transform="translate(10709.644 -11316.168) rotate(-65.209)" fill="#e53c31"/>
          <rect id="Rectangle_407302" data-name="Rectangle 407302" width="12.665" height="17.768" transform="matrix(0.419, -0.908, 0.908, 0.419, 10701.882, -11320.552)" fill="#e53c31"/>
          <rect id="Rectangle_407303" data-name="Rectangle 407303" width="12.665" height="2.372" transform="matrix(0.42, -0.908, 0.908, 0.42, 10718.011, -11313.103)" fill="#96d4dd"/>
          <rect id="Rectangle_407304" data-name="Rectangle 407304" width="12.666" height="2.003" transform="matrix(0.419, -0.908, 0.908, 0.419, 10708.129, -11317.665)" fill="#cf2e21"/>
          <path id="Path_918538" data-name="Path 918538" d="M2358.148,916.889a.805.805,0,1,1,.393,1.068.8.8,0,0,1-.393-1.068" transform="translate(8360.559 -12240.687)" fill="#dadbdc"/>
          <path id="Path_918539" data-name="Path 918539" d="M2510.832,800.458V772.212a16.775,16.775,0,0,1,0,28.247" transform="translate(8247.324 -12133.787)" fill="#75c8e5"/>
          <path id="Path_918540" data-name="Path 918540" d="M2436.795,764.589v28.247a16.78,16.78,0,1,1,0-28.247" transform="translate(8321.36 -12126.165)" fill="#96d4dd"/>
          <path id="Path_918541" data-name="Path 918541" d="M2458.2,797.7a2.307,2.307,0,1,1,1.12-3.064,2.307,2.307,0,0,1-1.12,3.064" transform="translate(8288.766 -12149.418)" fill="#afebf0"/>
          <path id="Path_918542" data-name="Path 918542" d="M2571.652,805.2h-14.435V790.762h14.435ZM2559,803.413h10.869V792.546H2559Z" transform="translate(8212.939 -12147.538)" fill="#2a2b2b"/>
          <path id="Path_918543" data-name="Path 918543" d="M2576.758,807.668l-3.958,3.957-2.346-2.346-.864.865,3.21,3.211,4.822-4.822Z" transform="translate(8203.769 -12160.071)" fill="#e53c31"/>
          <path id="Path_918544" data-name="Path 918544" d="M2571.652,874.8h-14.435V860.361h14.435ZM2559,873.012h10.869V862.144H2559Z" transform="translate(8212.939 -12199.13)" fill="#2a2b2b"/>
          <path id="Path_918545" data-name="Path 918545" d="M2576.758,877.267l-3.958,3.957-2.346-2.347-.864.865,3.21,3.211,4.822-4.822Z" transform="translate(8203.769 -12211.661)" fill="#e53c31"/>
        </g>
        <g id="Group_1114316" data-name="Group 1114316" transform="translate(-9877.063 19805.191)">
          <path id="Path_918546" data-name="Path 918546" d="M2406.7,100.721a5.232,5.232,0,0,0-5.241,5.213v45.772a5.232,5.232,0,0,0,5.241,5.21h19.457V100.721Z" transform="translate(8324.03 -11659.802)" fill="#424242"/>
          <path id="Path_918547" data-name="Path 918547" d="M2537.631,105.934v45.772a5.232,5.232,0,0,1-5.241,5.21h-19.457V100.721h19.457a5.232,5.232,0,0,1,5.241,5.213" transform="translate(8237.255 -11659.802)" fill="#2d2d2d"/>
          <path id="Path_918548" data-name="Path 918548" d="M2290.877,276.736l10.2,6.85,2.252-3.625c6.657,1.3,14.029-12.609,14.029-12.609l-19.9-2.444Z" transform="translate(8410.112 -11787.612)" fill="#f5c382"/>
          <path id="Path_918549" data-name="Path 918549" d="M2323.513,210.074a8.78,8.78,0,1,0,8.031-9.469,8.78,8.78,0,0,0-8.031,9.469" transform="translate(8384.731 -11737.533)" fill="#ddedeb"/>
          <rect id="Rectangle_407305" data-name="Rectangle 407305" width="0.914" height="1.643" transform="matrix(0.997, -0.081, 0.081, 0.997, 10715.872, -11536.643)" fill="#4d4f50"/>
          <rect id="Rectangle_407306" data-name="Rectangle 407306" width="1.643" height="0.914" transform="matrix(0.997, -0.081, 0.081, 0.997, 10723.852, -11529.199)" fill="#4d4f50"/>
          <rect id="Rectangle_407307" data-name="Rectangle 407307" width="0.914" height="1.643" transform="translate(10717.133 -11521.279) rotate(-4.674)" fill="#4d4f50"/>
          <rect id="Rectangle_407308" data-name="Rectangle 407308" width="1.641" height="0.914" transform="translate(10708.487 -11527.937) rotate(-4.703)" fill="#4d4f50"/>
          <path id="Path_918550" data-name="Path 918550" d="M2461.5,114.521h-38.535a.854.854,0,0,0-.854.855v48.406a.854.854,0,0,0,.854.854h39.389v-49.26a.855.855,0,0,0-.854-.855" transform="translate(8307.953 -11670.544)" fill="#ddedeb"/>
          <path id="Path_918551" data-name="Path 918551" d="M2476.59,56.024V54.018h-.5a3.777,3.777,0,0,0-3.777,3.778v2.61a6.622,6.622,0,0,0-6.062,7.017h10.342V58.812a1.394,1.394,0,0,1,0-2.788" transform="translate(8273.597 -11623.446)" fill="#544dd4"/>
          <path id="Path_918552" data-name="Path 918552" d="M2523.274,67.425H2512.93V58.816c.034,0,.068,0,.1,0a1.393,1.393,0,0,0,0-2.779c-.031,0-.065,0-.1,0V54.022h.5a3.776,3.776,0,0,1,3.779,3.777v2.61a6.529,6.529,0,0,1,3.779,1.583s0,0,0,0a6.978,6.978,0,0,1,2.279,5.431" transform="translate(8237.257 -11623.449)" fill="#171d9d"/>
          <path id="Path_918553" data-name="Path 918553" d="M2570.958,190.78l-10.667,4.359c-.4-.153-1.15-.629-.708-1.895.421-1.206,5.158-3.949,5.158-3.949Z" transform="translate(8201.046 -11728.751)" fill="#f3b167"/>
          <path id="Path_918554" data-name="Path 918554" d="M2589.088,216.408s2.282-1.394,3.233-1.223,2.821,2.193,2.821,2.193l.885-.9L2594,213.192l-3.811-1.331-3.773,1.476Z" transform="translate(8180.051 -11746.318)" fill="#f3b167"/>
          <path id="Path_918555" data-name="Path 918555" d="M2468.277,216.295h18.667V197.629h-18.667Zm15.8-2.871h-12.925V200.5h12.925Z" transform="translate(8272.017 -11735.238)" fill="#56bbe0"/>
          <path id="Path_918556" data-name="Path 918556" d="M2499.514,221.332l-6.828-7.424,2.442-2.248,4.173,4.536,6.273-8.07,2.62,2.036Z" transform="translate(8253.016 -11743.41)" fill="#ed6c4e"/>
          <path id="Path_918557" data-name="Path 918557" d="M2563.3,174l29.056-14.284,1,2.031-29.688,14.594.334-.917-1-.436Z" transform="translate(8198.278 -11705.725)" fill="#eb4626"/>
          <path id="Path_918558" data-name="Path 918558" d="M2549.287,225.826l3.338-1.642-.3.989,1,.434-.333.919-3.376-.033Z" transform="translate(8208.955 -11755.911)" fill="#f7cb6b"/>
          <path id="Path_918559" data-name="Path 918559" d="M2543.323,229.9l1.65.016-.656-1.333Z" transform="translate(8213.599 -11759.335)" fill="#eb4626"/>
          <path id="Path_918560" data-name="Path 918560" d="M2556.994,165.145l29.688-14.594,1,2.031-29.056,14.283-.965-.365.3-.988Z" transform="translate(8202.957 -11698.591)" fill="#cb3a20"/>
          <path id="Path_918561" data-name="Path 918561" d="M2549.843,216.423l.965.366-.3.988.965.365-3.338,1.642-.328-.668Z" transform="translate(8210.107 -11749.869)" fill="#e9b95c"/>
          <path id="Path_918562" data-name="Path 918562" d="M2391.972,276.087a4.42,4.42,0,0,1-5.193,1.283l2.171-1.283Z" transform="translate(8335.459 -11796.314)" fill="#dd8e56"/>
          <path id="Path_918563" data-name="Path 918563" d="M2385.641,187.348l7.716-3.383a2.275,2.275,0,0,1,2.148,4.011l-6.751,3.256Z" transform="translate(8336.345 -11724.369)" fill="#f5c382"/>
          <rect id="Rectangle_407309" data-name="Rectangle 407309" width="1.947" height="4.742" transform="translate(10705.691 -11536.486) rotate(-49.71)" fill="#4d4f50"/>
          <rect id="Rectangle_407310" data-name="Rectangle 407310" width="3.948" height="1.946" transform="matrix(0.647, -0.763, 0.763, 0.647, 10704.474, -11536.208)" fill="#2d2d2d"/>
          <rect id="Rectangle_407311" data-name="Rectangle 407311" width="4.742" height="1.947" transform="translate(10722.237 -11535.864) rotate(-49.673)" fill="#4d4f50"/>
          <rect id="Rectangle_407312" data-name="Rectangle 407312" width="1.947" height="3.948" transform="matrix(0.647, -0.763, 0.763, 0.647, 10723.767, -11539.213)" fill="#2d2d2d"/>
          <path id="Path_918564" data-name="Path 918564" d="M2313.99,202.826a10.891,10.891,0,1,0,9.963-11.747,10.891,10.891,0,0,0-9.963,11.747m2.612-.217a8.27,8.27,0,1,1,8.919,7.567,8.27,8.27,0,0,1-8.919-7.567" transform="translate(8392.149 -11730.111)" fill="#eb4626"/>
          <path id="Path_918565" data-name="Path 918565" d="M2361.347,222.452l.81.464,2.442-4.275-.008-.927-.8.464Z" transform="translate(8355.255 -11750.874)" fill="#2d2d2d"/>
          <path id="Path_918566" data-name="Path 918566" d="M2348.094,239.023l-.091-1.11-3.382.278-.9.633,1,.477Z" transform="translate(8368.98 -11766.598)" fill="#1b50af"/>
          <path id="Path_918567" data-name="Path 918567" d="M2359.021,236.933a.937.937,0,1,0,.9-.969.935.935,0,0,0-.9.969" transform="translate(8357.067 -11765.08)" fill="#2f2c2a"/>
          <path id="Path_918568" data-name="Path 918568" d="M2391.211,215.912h0a2.336,2.336,0,0,0,3.316,1.718l1.678-.807a2.336,2.336,0,0,0-2.025-4.211l-1.678.808a2.334,2.334,0,0,0-1.291,2.492" transform="translate(8332.033 -11746.7)" fill="#f5c382"/>
          <path id="Path_918569" data-name="Path 918569" d="M2389.341,220.9h0a1.731,1.731,0,0,0,2.458,1.273l1.244-.6a1.731,1.731,0,0,0-1.5-3.12l-1.244.6a1.733,1.733,0,0,0-.957,1.847" transform="translate(8333.483 -11751.301)" fill="#f5d2b1"/>
          <path id="Path_918570" data-name="Path 918570" d="M2390.149,239.611h0a2.336,2.336,0,0,0,3.317,1.717l1.678-.807a2.336,2.336,0,0,0-2.024-4.211l-1.678.807a2.338,2.338,0,0,0-1.292,2.493" transform="translate(8332.86 -11765.148)" fill="#f5c382"/>
          <path id="Path_918571" data-name="Path 918571" d="M2393.882,262.471h0a1.912,1.912,0,0,0,2.714,1.407l.736-.354a1.912,1.912,0,0,0-1.657-3.445l-.736.354a1.912,1.912,0,0,0-1.057,2.039" transform="translate(8329.95 -11783.686)" fill="#f5c382"/>
          <path id="Path_918572" data-name="Path 918572" d="M2288.3,214.106c-.251,18.813,7.583,15.186,9.053,12.83,2.023-3.255-.26-7.878-2.985-11.042,0,0,8.075-4.868,3.082-9.276Z" transform="translate(8412.122 -11742.236)" fill="#f5c382"/>
          <path id="Path_918573" data-name="Path 918573" d="M2313.842,209.476c.516.8,1.978.738,3.052-.269.91-.852,1.109-2.013.444-2.593Z" transform="translate(8392.236 -11742.234)" fill="#f5d2b1"/>
          <path id="Path_918574" data-name="Path 918574" d="M2389.341,244.457h0a1.731,1.731,0,0,0,2.458,1.273l1.244-.6a1.731,1.731,0,0,0-1.5-3.121l-1.244.6a1.732,1.732,0,0,0-.957,1.847" transform="translate(8333.483 -11769.639)" fill="#f5d2b1"/>
          <path id="Path_918575" data-name="Path 918575" d="M2391.995,265.372h0a1.3,1.3,0,0,0,1.844.954l.933-.448a1.3,1.3,0,0,0-1.126-2.34l-.933.448a1.3,1.3,0,0,0-.718,1.386" transform="translate(8331.413 -11786.433)" fill="#f5d2b1"/>
          <path id="Path_918576" data-name="Path 918576" d="M2592.5,220.049l-.739-7.854a8.732,8.732,0,0,0-1.608-4.288l-2.694-3.743a2.433,2.433,0,0,0-2.156-1.093l-5.294,2.6,3.121.677c3.371,5.474-1.08,7.467-2.939,5.2-1.745-2.123-4.278-5.589-5.419-6.014a1.816,1.816,0,0,0-2.318,1.823c-.093,1.442,2.747,5.4,5.133,10.214l6.571,7.048,1.408,3.974,8.711-5.558Z" transform="translate(8190.922 -11739.476)" fill="#f5c382"/>
          <path id="Path_918577" data-name="Path 918577" d="M2575.708,216.724c.849-.475,1.764.344,2.469,2.086l-1.963,1.251c-1.434-1.577-1.506-2.776-.506-3.336" transform="translate(8188.911 -11750)" fill="#f7d1a5"/>
          <rect id="Rectangle_407313" data-name="Rectangle 407313" width="17.019" height="10.713" transform="matrix(0.864, -0.503, 0.503, 0.864, 10773.608, -11509.667)" fill="#171d9d"/>
        </g>
        <g id="Group_1114318" data-name="Group 1114318" transform="translate(-9357.085 19741.191)">
          <rect id="Rectangle_407314" data-name="Rectangle 407314" width="56.006" height="66.119" transform="translate(10062.085 -11370.423)" fill="#96d4dd"/>
          <rect id="Rectangle_407315" data-name="Rectangle 407315" width="8.719" height="2.638" transform="translate(10085.563 -11362.275)" fill="#2f66ac"/>
          <rect id="Rectangle_407316" data-name="Rectangle 407316" width="4.359" height="2.638" transform="translate(10097.342 -11362.275)" fill="#2f66ac"/>
          <rect id="Rectangle_407317" data-name="Rectangle 407317" width="7.366" height="2.638" transform="translate(10105.022 -11362.275)" fill="#2f66ac"/>
          <rect id="Rectangle_407318" data-name="Rectangle 407318" width="8.719" height="2.638" transform="translate(10085.563 -11357.536)" fill="#2f66ac"/>
          <rect id="Rectangle_407319" data-name="Rectangle 407319" width="4.359" height="2.638" transform="translate(10097.342 -11357.536)" fill="#2f66ac"/>
          <rect id="Rectangle_407320" data-name="Rectangle 407320" width="7.366" height="2.638" transform="translate(10105.022 -11357.536)" fill="#2f66ac"/>
          <rect id="Rectangle_407321" data-name="Rectangle 407321" width="8.719" height="2.638" transform="translate(10085.563 -11339.86)" fill="#2f66ac"/>
          <rect id="Rectangle_407322" data-name="Rectangle 407322" width="4.359" height="2.638" transform="translate(10097.342 -11339.86)" fill="#2f66ac"/>
          <rect id="Rectangle_407323" data-name="Rectangle 407323" width="7.366" height="2.638" transform="translate(10105.022 -11339.86)" fill="#2f66ac"/>
          <rect id="Rectangle_407324" data-name="Rectangle 407324" width="8.719" height="2.638" transform="translate(10085.563 -11335.122)" fill="#2f66ac"/>
          <rect id="Rectangle_407325" data-name="Rectangle 407325" width="4.359" height="2.638" transform="translate(10097.342 -11335.122)" fill="#2f66ac"/>
          <rect id="Rectangle_407326" data-name="Rectangle 407326" width="7.366" height="2.638" transform="translate(10105.022 -11335.122)" fill="#2f66ac"/>
          <rect id="Rectangle_407327" data-name="Rectangle 407327" width="13.451" height="13.451" transform="translate(10067.624 -11364.748)" fill="#afebf0"/>
          <path id="Path_918578" data-name="Path 918578" d="M133.2,798.415a3.3,3.3,0,0,1-.662,2.08h-3.858a3.219,3.219,0,0,1-.624-2.08,4.289,4.289,0,0,0,.692-1.994h3.76a4.324,4.324,0,0,0,.692,1.994" transform="translate(9943.718 -12151.793)" fill="#e79f63"/>
          <path id="Path_918579" data-name="Path 918579" d="M128.485,769.506l3.335,2.058-.659,4.685a3.079,3.079,0,0,1-5.351,0l-.66-4.685Z" transform="translate(9945.864 -12131.935)" fill="#f2b982"/>
          <path id="Path_918580" data-name="Path 918580" d="M131.1,771.316l-.341,1.068h-.381l.3-2.679c-.515-.815-1.429-.791-2.75-.654-1.321-.138-2.235-.161-2.749.654l.3,2.679H125.1l-.341-1.068c-2.5-5.994,8.839-5.993,6.338,0" transform="translate(9946.417 -12129.954)" fill="#333c3b"/>
          <path id="Path_918581" data-name="Path 918581" d="M121.108,801.16l-2.164,1.259-2.164-1.259c-1.876.346-3.166.358-4.561,2.833H125.67c-1.4-2.475-2.686-2.488-4.562-2.833" transform="translate(9955.404 -12155.29)" fill="#92309a"/>
          <rect id="Rectangle_407328" data-name="Rectangle 407328" width="13.45" height="13.451" transform="translate(10067.624 -11343.23)" fill="#afebf0"/>
          <path id="Path_918582" data-name="Path 918582" d="M133.2,880.488a3.3,3.3,0,0,1-.662,2.08h-3.858a3.219,3.219,0,0,1-.624-2.08,4.29,4.29,0,0,0,.692-1.995h3.76a4.324,4.324,0,0,0,.692,1.995" transform="translate(9943.718 -12212.35)" fill="#e79f63"/>
          <path id="Path_918583" data-name="Path 918583" d="M128.485,851.58l3.335,2.058-.659,4.686a3.08,3.08,0,0,1-5.351,0l-.66-4.686Z" transform="translate(9945.864 -12192.492)" fill="#f2b982"/>
          <path id="Path_918584" data-name="Path 918584" d="M131.1,853.39l-.341,1.068h-.381l.3-2.68c-.515-.815-1.429-.791-2.75-.653-1.321-.138-2.235-.162-2.749.653l.3,2.68H125.1l-.341-1.068c-2.5-5.994,8.839-5.994,6.338,0" transform="translate(9946.417 -12190.511)" fill="#333c3b"/>
          <path id="Path_918585" data-name="Path 918585" d="M121.108,883.234l-2.164,1.259-2.164-1.259c-1.876.346-3.166.358-4.561,2.833H125.67c-1.4-2.475-2.686-2.488-4.562-2.833" transform="translate(9955.404 -12215.848)" fill="#3a3f93"/>
          <rect id="Rectangle_407329" data-name="Rectangle 407329" width="13.45" height="13.451" transform="translate(10067.624 -11322.854)" fill="#afebf0"/>
          <path id="Path_918586" data-name="Path 918586" d="M133.206,958.215a3.3,3.3,0,0,1-.662,2.079h-3.858a3.222,3.222,0,0,1-.623-2.079,4.3,4.3,0,0,0,.692-2h3.759a4.346,4.346,0,0,0,.692,2" transform="translate(9943.716 -12269.699)" fill="#e79f63"/>
          <path id="Path_918587" data-name="Path 918587" d="M128.487,929.306l3.335,2.058-.659,4.686a3.08,3.08,0,0,1-5.352,0l-.659-4.686Z" transform="translate(9945.862 -12249.841)" fill="#d38140"/>
          <path id="Path_918588" data-name="Path 918588" d="M131.105,931.116l-.34,1.068h-.381l.3-2.68c-.515-.814-1.428-.79-2.75-.653-1.322-.137-2.235-.161-2.749.653l.3,2.68h-.381l-.34-1.068c-2.5-5.994,8.838-5.993,6.336,0" transform="translate(9946.413 -12247.859)" fill="#333c3b"/>
          <path id="Path_918589" data-name="Path 918589" d="M121.111,960.96l-2.164,1.259-2.164-1.259c-1.876.346-3.167.358-4.561,2.833h13.45c-1.394-2.475-2.686-2.488-4.561-2.833" transform="translate(9955.402 -12273.196)" fill="#ca43c6"/>
          <path id="Path_918590" data-name="Path 918590" d="M148.693,871.789a8.175,8.175,0,1,1-8.174-8.175,8.174,8.174,0,0,1,8.174,8.175" transform="translate(9940.556 -12201.371)" fill="#e1fdfd"/>
          <path id="Path_918591" data-name="Path 918591" d="M151.487,879.227l-5.125,5.125-3.435-3.434-1.519,1.519,4.954,4.954,6.644-6.644Z" transform="translate(9933.868 -12212.891)" fill="#d04425"/>
          <path id="Path_918592" data-name="Path 918592" d="M192.078,907.932l-4.231-8.648a.263.263,0,0,1-.045.062c-1.637-3.212-3.5-2.288-4.234-1.232l-.217-.425a2.239,2.239,0,0,0-4.175.587,2.226,2.226,0,0,0-4.183,1.244l-.148-.291a2.223,2.223,0,0,0-4.168,1.361l-5.053-9.417a2.1,2.1,0,1,0-3.65,2.092l6.056,11.437,3.483,7.221-3.677-1.624c-6.981-3.432-7.689-.9-7.76-.861a1.189,1.189,0,0,0,.06,2.089l10.538,5.27c5.027,3.915,3.645,3.095,8.693,5.135l2.757,5.517L195.092,922l-2.493-4.714c.927-3.08,1.376-5.937-.52-9.356" transform="translate(9920.53 -12220.925)" fill="#f5c382"/>
          <path id="Path_918593" data-name="Path 918593" d="M171.447,892.639c.952-.513,1.932.514,2.583,2.5l-2.275,1.242c-1.471-1.86-1.573-3.058-.308-3.742" transform="translate(9912.353 -12222.69)" fill="#e68443"/>
          <rect id="Rectangle_407330" data-name="Rectangle 407330" width="19.28" height="12.136" transform="translate(10100.818 -11292.759) rotate(-23.459)" fill="#ca43c6"/>
          <rect id="Rectangle_407331" data-name="Rectangle 407331" width="17.305" height="20.073" transform="matrix(0.917, -0.398, 0.398, 0.917, 10101.726, -11293.152)" fill="#ca43c6"/>
          <rect id="Rectangle_407332" data-name="Rectangle 407332" width="17.305" height="3.241" transform="translate(10100.436 -11296.125) rotate(-23.459)" fill="#96d4dd"/>
          <rect id="Rectangle_407333" data-name="Rectangle 407333" width="17.305" height="2.736" transform="translate(10106.558 -11282.019) rotate(-23.46)" fill="#92309a"/>
          <path id="Path_918594" data-name="Path 918594" d="M293.784,1025.494a1.1,1.1,0,1,0-1.447-.57,1.1,1.1,0,0,0,1.447.57" transform="translate(9822.575 -12319.256)" fill="#dadbdc"/>
        </g>
      </g>
      <path id="Path_918407" data-name="Path 918407" d="M9,0H244a9,9,0,0,1,9,9V28a9,9,0,0,1-9,9H9a9,9,0,0,1-9-9V9A9,9,0,0,1,9,0Z" transform="translate(370 8276.771)" fill="#3a2292"/>
      <path id="Path_922050" data-name="Path 922050" d="M244,0H9A9,9,0,0,0,0,9V28a9,9,0,0,0,9,9H244a9,9,0,0,0,9-9V9A9,9,0,0,0,244,0Z" transform="translate(977 8276.773)" fill="#3a2292"/>
      <path id="Path_922047" data-name="Path 922047" d="M9,37H244a9,9,0,0,0,9-9V9a9,9,0,0,0-9-9H9A9,9,0,0,0,0,9V28A9,9,0,0,0,9,37Z" transform="translate(370 8435.121)" fill="#3a2292"/>
      <path id="Path_922049" data-name="Path 922049" d="M244,37H9a9,9,0,0,1-9-9V9A9,9,0,0,1,9,0H244a9,9,0,0,1,9,9V28A9,9,0,0,1,244,37Z" transform="translate(977 8435.123)" fill="#3a2292"/>
      <path id="Path_924008" data-name="Path 924008" d="M0,0H55V4H0Z" transform="translate(469.289 8313.771)" fill="#3a2292"/>
      <path id="Path_924009" data-name="Path 924009" d="M0,0H55V4H0Z" transform="translate(1075.711 8313.773)" fill="#3a2292"/>
      <path id="Path_924010" data-name="Path 924010" d="M0,0H55V4H0Z" transform="translate(469.289 8431.121)" fill="#3a2292"/>
      <path id="Path_924011" data-name="Path 924011" d="M0,0H55V4H0Z" transform="translate(1075.711 8431.123)" fill="#3a2292"/>
      <path id="Path_918408" data-name="Path 918408" d="M28.16-16.422V155H0" transform="translate(652.289 8315.773) rotate(90)" fill="none" stroke="#3a2292" stroke-width="3"/>
      <path id="Path_922051" data-name="Path 922051" d="M28.16,171.422V0H0" transform="translate(1102.711 8315.773) rotate(90)" fill="none" stroke="#3a2292" stroke-width="3"/>
      <path id="Path_922046" data-name="Path 922046" d="M28.16,171.422V0H0" transform="translate(497.289 8433.119) rotate(-90)" fill="none" stroke="#3a2292" stroke-width="3"/>
      <path id="Path_922048" data-name="Path 922048" d="M28.16,0V171.422H0" transform="translate(931.289 8433.119) rotate(-90)" fill="none" stroke="#3a2292" stroke-width="3"/>
      <path id="Path_924012" data-name="Path 924012" d="M51.751,13.518V18h-2.1V5.914h4.624a4.675,4.675,0,0,1,3.217,1.055,3.549,3.549,0,0,1,1.191,2.792,3.431,3.431,0,0,1-1.166,2.767,4.9,4.9,0,0,1-3.266.989Zm0-1.693h2.523a2.485,2.485,0,0,0,1.71-.527,1.937,1.937,0,0,0,.589-1.523,2.09,2.09,0,0,0-.6-1.565,2.3,2.3,0,0,0-1.644-.6H51.751ZM62.467,18H60.45V5.25h2.017Zm7.562,0a3.113,3.113,0,0,1-.232-.838,3.393,3.393,0,0,1-4.565.232,2.47,2.47,0,0,1-.855-1.909,2.55,2.55,0,0,1,1.067-2.2,5.169,5.169,0,0,1,3.051-.768H69.73v-.589a1.573,1.573,0,0,0-.39-1.116,1.547,1.547,0,0,0-1.187-.419,1.777,1.777,0,0,0-1.129.344,1.066,1.066,0,0,0-.44.876H64.567a2.239,2.239,0,0,1,.49-1.382,3.263,3.263,0,0,1,1.332-1.009,4.68,4.68,0,0,1,1.88-.365,3.769,3.769,0,0,1,2.515.793,2.827,2.827,0,0,1,.963,2.229v4.051a4.591,4.591,0,0,0,.34,1.934V18Zm-2.216-1.453a2.294,2.294,0,0,0,1.125-.291,1.941,1.941,0,0,0,.793-.78V13.783H68.643a2.973,2.973,0,0,0-1.685.39,1.264,1.264,0,0,0-.564,1.1,1.179,1.179,0,0,0,.386.926A1.5,1.5,0,0,0,67.813,16.547Zm7.919-7.529.058,1.038a3.229,3.229,0,0,1,2.615-1.2q2.806,0,2.855,3.212V18H79.243V12.181a1.85,1.85,0,0,0-.369-1.266,1.554,1.554,0,0,0-1.208-.411,1.944,1.944,0,0,0-1.818,1.1V18H73.831V9.019ZM87.27,18.166a4.173,4.173,0,0,1-3.109-1.208,4.381,4.381,0,0,1-1.191-3.217v-.249a5.389,5.389,0,0,1,.519-2.4,3.949,3.949,0,0,1,1.457-1.648,3.851,3.851,0,0,1,2.092-.589,3.525,3.525,0,0,1,2.835,1.17,4.949,4.949,0,0,1,1,3.312v.813H85a2.7,2.7,0,0,0,.743,1.76,2.23,2.23,0,0,0,1.639.647,2.731,2.731,0,0,0,2.258-1.121l1.087,1.038a3.631,3.631,0,0,1-1.44,1.249A4.509,4.509,0,0,1,87.27,18.166Zm-.241-7.695a1.7,1.7,0,0,0-1.341.581,3.012,3.012,0,0,0-.652,1.619H88.88v-.149a2.452,2.452,0,0,0-.54-1.531A1.686,1.686,0,0,0,87.029,10.471ZM97.8,18a3.113,3.113,0,0,1-.232-.838,3.393,3.393,0,0,1-4.565.232,2.47,2.47,0,0,1-.855-1.909,2.55,2.55,0,0,1,1.067-2.2,5.169,5.169,0,0,1,3.051-.768H97.5v-.589a1.573,1.573,0,0,0-.39-1.116,1.547,1.547,0,0,0-1.187-.419,1.777,1.777,0,0,0-1.129.344,1.066,1.066,0,0,0-.44.876H92.342a2.239,2.239,0,0,1,.49-1.382,3.263,3.263,0,0,1,1.332-1.009,4.68,4.68,0,0,1,1.88-.365,3.769,3.769,0,0,1,2.515.793,2.827,2.827,0,0,1,.963,2.229v4.051a4.591,4.591,0,0,0,.34,1.934V18Zm-2.216-1.453a2.294,2.294,0,0,0,1.125-.291,1.941,1.941,0,0,0,.793-.78V13.783H96.417a2.973,2.973,0,0,0-1.685.39,1.264,1.264,0,0,0-.564,1.1,1.179,1.179,0,0,0,.386.926A1.5,1.5,0,0,0,95.587,16.547Zm10.75-5.686a4.991,4.991,0,0,0-.822-.066,1.85,1.85,0,0,0-1.868,1.063V18H101.63V9.019h1.926l.05,1a2.273,2.273,0,0,1,2.025-1.17,1.888,1.888,0,0,1,.714.116Z" transform="translate(419.789 8285.771)" fill="#fff"/>
      <path id="Path_924013" data-name="Path 924013" d="M65.688,18H63.6V12.638h-5.4V18h-2.1V5.914h2.1v5.03h5.4V5.914h2.092Zm7.653,0a3.113,3.113,0,0,1-.232-.838,3.393,3.393,0,0,1-4.565.232,2.47,2.47,0,0,1-.855-1.909,2.55,2.55,0,0,1,1.067-2.2,5.169,5.169,0,0,1,3.051-.768h1.237v-.589a1.573,1.573,0,0,0-.39-1.116,1.547,1.547,0,0,0-1.187-.419,1.777,1.777,0,0,0-1.129.344,1.066,1.066,0,0,0-.44.876H67.879a2.239,2.239,0,0,1,.49-1.382A3.263,3.263,0,0,1,69.7,9.218a4.68,4.68,0,0,1,1.88-.365,3.769,3.769,0,0,1,2.515.793,2.827,2.827,0,0,1,.963,2.229v4.051a4.591,4.591,0,0,0,.34,1.934V18Zm-2.216-1.453a2.294,2.294,0,0,0,1.125-.291,1.941,1.941,0,0,0,.793-.78V13.783H71.955a2.973,2.973,0,0,0-1.685.39,1.264,1.264,0,0,0-.564,1.1,1.179,1.179,0,0,0,.386.926A1.5,1.5,0,0,0,71.125,16.547Zm9.737.008a1.824,1.824,0,0,0,1.253-.44,1.5,1.5,0,0,0,.531-1.087h1.9a2.963,2.963,0,0,1-.523,1.565,3.43,3.43,0,0,1-1.328,1.15,3.958,3.958,0,0,1-1.81.423,3.829,3.829,0,0,1-2.988-1.22,4.84,4.84,0,0,1-1.1-3.37v-.208a4.759,4.759,0,0,1,1.1-3.283,3.8,3.8,0,0,1,2.988-1.233,3.69,3.69,0,0,1,2.611.934,3.345,3.345,0,0,1,1.058,2.453h-1.9a1.847,1.847,0,0,0-.527-1.27,1.7,1.7,0,0,0-1.258-.5,1.775,1.775,0,0,0-1.511.71,3.621,3.621,0,0,0-.54,2.154v.324a3.681,3.681,0,0,0,.527,2.179A1.774,1.774,0,0,0,80.862,16.556Zm9.164,1.61a4.173,4.173,0,0,1-3.109-1.208,4.381,4.381,0,0,1-1.191-3.217v-.249a5.389,5.389,0,0,1,.519-2.4A3.949,3.949,0,0,1,87.7,9.442a3.851,3.851,0,0,1,2.092-.589,3.525,3.525,0,0,1,2.835,1.17,4.949,4.949,0,0,1,1,3.312v.813H87.76a2.7,2.7,0,0,0,.743,1.76,2.23,2.23,0,0,0,1.639.647A2.731,2.731,0,0,0,92.4,15.435l1.087,1.038a3.631,3.631,0,0,1-1.44,1.249A4.509,4.509,0,0,1,90.026,18.166Zm-.241-7.695a1.7,1.7,0,0,0-1.341.581,3.012,3.012,0,0,0-.652,1.619h3.843v-.149a2.452,2.452,0,0,0-.54-1.531A1.686,1.686,0,0,0,89.785,10.471Zm10.11.39a4.991,4.991,0,0,0-.822-.066,1.85,1.85,0,0,0-1.868,1.063V18H95.189V9.019h1.926l.05,1a2.273,2.273,0,0,1,2.025-1.17,1.888,1.888,0,0,1,.714.116Z" transform="translate(1036.789 8285.771)" fill="#fff"/>
      <path id="Path_924014" data-name="Path 924014" d="M60.251,15.186H55.569L54.59,18H52.407L56.972,5.914h1.884L63.43,18H61.239Zm-4.092-1.693h3.5L57.91,8.479Zm12.136,3.063a1.824,1.824,0,0,0,1.253-.44,1.5,1.5,0,0,0,.531-1.087h1.9a2.963,2.963,0,0,1-.523,1.565,3.43,3.43,0,0,1-1.328,1.15,3.958,3.958,0,0,1-1.81.423,3.829,3.829,0,0,1-2.988-1.22,4.84,4.84,0,0,1-1.1-3.37v-.208a4.759,4.759,0,0,1,1.1-3.283,3.8,3.8,0,0,1,2.988-1.233,3.69,3.69,0,0,1,2.611.934,3.345,3.345,0,0,1,1.058,2.453h-1.9a1.847,1.847,0,0,0-.527-1.27,1.7,1.7,0,0,0-1.258-.5,1.775,1.775,0,0,0-1.511.71,3.621,3.621,0,0,0-.54,2.154v.324a3.681,3.681,0,0,0,.527,2.179A1.774,1.774,0,0,0,68.294,16.556Zm7.736-9.72V9.019h1.585v1.494H76.031v5.014a1.1,1.1,0,0,0,.2.743.943.943,0,0,0,.726.228,3.107,3.107,0,0,0,.706-.083v1.561a4.968,4.968,0,0,1-1.328.191q-2.324,0-2.324-2.565V10.513H72.536V9.019h1.478V6.835ZM84.6,17.12a3.128,3.128,0,0,1-2.523,1.046,2.788,2.788,0,0,1-2.212-.855,3.637,3.637,0,0,1-.751-2.474V9.019h2.017v5.794q0,1.71,1.419,1.71a1.993,1.993,0,0,0,1.984-1.054V9.019h2.017V18h-1.9Zm9.372.88a3.113,3.113,0,0,1-.232-.838,3.393,3.393,0,0,1-4.565.232,2.47,2.47,0,0,1-.855-1.909,2.55,2.55,0,0,1,1.067-2.2,5.169,5.169,0,0,1,3.051-.768H93.67v-.589a1.573,1.573,0,0,0-.39-1.116,1.547,1.547,0,0,0-1.187-.419,1.777,1.777,0,0,0-1.129.344,1.066,1.066,0,0,0-.44.876H88.507A2.239,2.239,0,0,1,89,10.226a3.263,3.263,0,0,1,1.332-1.009,4.68,4.68,0,0,1,1.88-.365,3.769,3.769,0,0,1,2.515.793,2.827,2.827,0,0,1,.963,2.229v4.051a4.591,4.591,0,0,0,.34,1.934V18Zm-2.216-1.453a2.294,2.294,0,0,0,1.125-.291,1.941,1.941,0,0,0,.793-.78V13.783H92.583a2.973,2.973,0,0,0-1.685.39,1.264,1.264,0,0,0-.564,1.1,1.179,1.179,0,0,0,.386.926A1.5,1.5,0,0,0,91.752,16.547Zm10.75-5.686a4.991,4.991,0,0,0-.822-.066,1.85,1.85,0,0,0-1.868,1.063V18H97.8V9.019h1.926l.05,1a2.273,2.273,0,0,1,2.025-1.17,1.888,1.888,0,0,1,.714.116Z" transform="translate(419.789 8443.438)" fill="#fff"/>
      <path id="Path_924015" data-name="Path 924015" d="M50.784,15.369l3.071-9.455h2.308L51.813,18H49.78L45.447,5.914h2.3Zm10.5,2.8a4.173,4.173,0,0,1-3.109-1.208,4.381,4.381,0,0,1-1.191-3.217v-.249a5.389,5.389,0,0,1,.519-2.4A3.949,3.949,0,0,1,58.96,9.442a3.851,3.851,0,0,1,2.092-.589,3.525,3.525,0,0,1,2.835,1.17,4.949,4.949,0,0,1,1,3.312v.813H59.018a2.7,2.7,0,0,0,.743,1.76,2.23,2.23,0,0,0,1.639.647,2.731,2.731,0,0,0,2.258-1.121l1.087,1.038a3.631,3.631,0,0,1-1.44,1.249A4.509,4.509,0,0,1,61.284,18.166Zm-.241-7.695a1.7,1.7,0,0,0-1.341.581,3.012,3.012,0,0,0-.652,1.619h3.843v-.149a2.452,2.452,0,0,0-.54-1.531A1.686,1.686,0,0,0,61.044,10.471Zm10.11.39a4.991,4.991,0,0,0-.822-.066,1.85,1.85,0,0,0-1.868,1.063V18H66.448V9.019h1.926l.05,1a2.273,2.273,0,0,1,2.025-1.17,1.888,1.888,0,0,1,.714.116ZM74.574,18H72.557V9.019h2.017ZM72.432,6.686a1.071,1.071,0,0,1,.295-.772,1.113,1.113,0,0,1,.843-.307,1.127,1.127,0,0,1,.847.307,1.062,1.062,0,0,1,.3.772,1.038,1.038,0,0,1-.3.76,1.136,1.136,0,0,1-.847.3,1.122,1.122,0,0,1-.843-.3A1.046,1.046,0,0,1,72.432,6.686ZM77.3,18V10.513h-1.37V9.019H77.3V8.4a3.593,3.593,0,0,1,.448-1.81A2.788,2.788,0,0,1,79,5.458a4.482,4.482,0,0,1,1.934-.382,5.638,5.638,0,0,1,1.274.141q.61.141,1.266.357l-.307,1.668a6.421,6.421,0,0,0-2.092-.4,1.869,1.869,0,0,0-1.336.4,1.61,1.61,0,0,0-.415,1.208v.564H81.09v1.494H79.322V18Zm7.122,0H82.41V9.019h2.017Zm5.927-1.444a1.824,1.824,0,0,0,1.253-.44,1.5,1.5,0,0,0,.531-1.087h1.9a2.963,2.963,0,0,1-.523,1.565,3.43,3.43,0,0,1-1.328,1.15,3.958,3.958,0,0,1-1.81.423,3.829,3.829,0,0,1-2.988-1.22,4.84,4.84,0,0,1-1.1-3.37v-.208a4.759,4.759,0,0,1,1.1-3.283A3.8,3.8,0,0,1,90.37,8.853a3.69,3.69,0,0,1,2.611.934,3.345,3.345,0,0,1,1.058,2.453h-1.9a1.847,1.847,0,0,0-.527-1.27,1.7,1.7,0,0,0-1.258-.5,1.775,1.775,0,0,0-1.511.71,3.621,3.621,0,0,0-.54,2.154v.324a3.681,3.681,0,0,0,.527,2.179A1.774,1.774,0,0,0,90.354,16.556ZM100.929,18a3.113,3.113,0,0,1-.232-.838,3.393,3.393,0,0,1-4.565.232,2.47,2.47,0,0,1-.855-1.909,2.55,2.55,0,0,1,1.067-2.2,5.169,5.169,0,0,1,3.051-.768h1.237v-.589a1.573,1.573,0,0,0-.39-1.116,1.547,1.547,0,0,0-1.187-.419,1.777,1.777,0,0,0-1.129.344,1.066,1.066,0,0,0-.44.876H95.467a2.239,2.239,0,0,1,.49-1.382,3.263,3.263,0,0,1,1.332-1.009,4.68,4.68,0,0,1,1.88-.365,3.769,3.769,0,0,1,2.515.793,2.827,2.827,0,0,1,.963,2.229v4.051a4.591,4.591,0,0,0,.34,1.934V18Zm-2.216-1.453a2.294,2.294,0,0,0,1.125-.291,1.941,1.941,0,0,0,.793-.78V13.783H99.543a2.973,2.973,0,0,0-1.685.39,1.264,1.264,0,0,0-.564,1.1,1.179,1.179,0,0,0,.386.926A1.5,1.5,0,0,0,98.713,16.547Zm10.75-5.686a4.991,4.991,0,0,0-.822-.066,1.85,1.85,0,0,0-1.868,1.063V18h-2.017V9.019h1.926l.05,1a2.273,2.273,0,0,1,2.025-1.17,1.888,1.888,0,0,1,.714.116Z" transform="translate(1025.211 8443.439)" fill="#fff"/>
      <path id="Path_924016" data-name="Path 924016" d="M8,0A8,8,0,1,1,0,8,8,8,0,0,1,8,0Z" transform="translate(661 8336.016)" fill="#3a2292"/>
      <path id="Path_924017" data-name="Path 924017" d="M8,0A8,8,0,1,1,0,8,8,8,0,0,1,8,0Z" transform="translate(923 8336.018)" fill="#3a2292"/>
      <path id="Path_924018" data-name="Path 924018" d="M8,0A8,8,0,1,1,0,8,8,8,0,0,1,8,0Z" transform="translate(661 8396.877)" fill="#3a2292"/>
      <path id="Path_924019" data-name="Path 924019" d="M8,0A8,8,0,1,1,0,8,8,8,0,0,1,8,0Z" transform="translate(923 8396.879)" fill="#3a2292"/>
      <g id="Group_1115768" data-name="Group 1115768" transform="translate(2206.711 11654)">
        <rect id="Rectangle_408426" data-name="Rectangle 408426" width="280" height="55" rx="19" transform="translate(-1547 -3547)" fill="#3d034b"/>
      </g>
      <path id="Path_924020" data-name="Path 924020" d="M-88.545-4.333a4.673,4.673,0,0,1-.721,2.36,4.35,4.35,0,0,1-1.85,1.586,6.3,6.3,0,0,1-2.72.563,5.025,5.025,0,0,1-3.973-1.644,6.786,6.786,0,0,1-1.45-4.641v-.633a7.746,7.746,0,0,1,.655-3.292,4.961,4.961,0,0,1,1.885-2.18,5.26,5.26,0,0,1,2.848-.769,5.516,5.516,0,0,1,3.744,1.226,4.844,4.844,0,0,1,1.608,3.379H-91.6a2.292,2.292,0,0,0-.589-1.679,2.422,2.422,0,0,0-1.687-.51,1.843,1.843,0,0,0-1.687.861,5.536,5.536,0,0,0-.562,2.751v.905a6.126,6.126,0,0,0,.514,2.927,1.882,1.882,0,0,0,1.771.879,2.369,2.369,0,0,0,1.626-.5,2.126,2.126,0,0,0,.6-1.591ZM-84.1,0h-2.971V-9.51H-84.1Zm-3.146-11.962A1.322,1.322,0,0,1-86.788-13a1.724,1.724,0,0,1,1.187-.4,1.724,1.724,0,0,1,1.187.4,1.322,1.322,0,0,1,.457,1.037,1.322,1.322,0,0,1-.457,1.037,1.724,1.724,0,0,1-1.187.4,1.724,1.724,0,0,1-1.187-.4A1.322,1.322,0,0,1-87.245-11.962Zm8.991,9.853a1.317,1.317,0,0,0,.967-.338,1.241,1.241,0,0,0,.334-.945h2.777A3.288,3.288,0,0,1-75.3-.826a4.168,4.168,0,0,1-2.887,1,4.22,4.22,0,0,1-3.27-1.3,5.125,5.125,0,0,1-1.2-3.6v-.123A5.792,5.792,0,0,1-82.116-7.4a3.872,3.872,0,0,1,1.534-1.7,4.573,4.573,0,0,1,2.373-.593,4.116,4.116,0,0,1,2.944,1.028,3.647,3.647,0,0,1,1.09,2.786h-2.777A1.626,1.626,0,0,0-77.313-7a1.244,1.244,0,0,0-.967-.4q-1.151,0-1.345,1.468a10.357,10.357,0,0,0-.062,1.283,4.068,4.068,0,0,0,.343,1.986A1.187,1.187,0,0,0-78.253-2.109ZM-69.8,0h-2.971V-13.5H-69.8Zm1.45-4.843a5.613,5.613,0,0,1,.554-2.536A3.96,3.96,0,0,1-66.2-9.088a4.791,4.791,0,0,1,2.435-.6A4.373,4.373,0,0,1-60.4-8.363a5.076,5.076,0,0,1,1.23,3.6v.105a4.925,4.925,0,0,1-1.235,3.529A4.384,4.384,0,0,1-63.751.176a4.434,4.434,0,0,1-3.261-1.217,4.761,4.761,0,0,1-1.327-3.3Zm2.962.185a3.538,3.538,0,0,0,.413,1.934,1.376,1.376,0,0,0,1.222.615q1.582,0,1.617-2.435v-.3q0-2.558-1.635-2.558-1.485,0-1.608,2.206Zm15.223.316V0h-3.085V-12.8h5.106a5.948,5.948,0,0,1,2.6.541A4.074,4.074,0,0,1-43.8-10.718a4.2,4.2,0,0,1,.62,2.263,3.7,3.7,0,0,1-1.34,2.993,5.561,5.561,0,0,1-3.678,1.121Zm0-2.382h2.021a1.906,1.906,0,0,0,1.367-.448,1.665,1.665,0,0,0,.47-1.266,2.059,2.059,0,0,0-.483-1.433,1.712,1.712,0,0,0-1.318-.545h-2.057ZM-30.836,0H-33.9V-5.344h-4.544V0h-3.085V-12.8h3.085v5.08H-33.9V-12.8h3.067Zm6.917-3.48,2.549-9.316h3.445L-22.232,0h-3.375l-4.271-12.8h3.419Zm13.535,1.09h-4.228L-15.35,0h-3.3l4.693-12.8h2.9L-6.324,0H-9.637Zm-3.489-2.382h2.751L-12.5-9.211ZM4.311,0A3.344,3.344,0,0,1,4.03-.853,2.754,2.754,0,0,1,1.745.176,3.374,3.374,0,0,1-.541-.637a2.588,2.588,0,0,1-.94-2.043A2.66,2.66,0,0,1-.338-5.019,5.821,5.821,0,0,1,2.984-5.81H3.9v-.5q0-1.316-1.134-1.316A.927.927,0,0,0,1.709-6.587H-1.252A2.655,2.655,0,0,1-.079-8.825a4.931,4.931,0,0,1,2.993-.86A4.323,4.323,0,0,1,5.788-8.8,3.086,3.086,0,0,1,6.869-6.363v4.21a4.311,4.311,0,0,0,.4,2V0ZM2.457-1.934a1.652,1.652,0,0,0,.918-.237A1.487,1.487,0,0,0,3.9-2.707V-4.228H3.037q-1.547,0-1.547,1.389a.848.848,0,0,0,.272.655A.986.986,0,0,0,2.457-1.934Zm14.88-2.751a5.735,5.735,0,0,1-1,3.538A3.2,3.2,0,0,1,13.645.176a2.742,2.742,0,0,1-2.153-.958V3.656H8.53V-9.51H11.3l.088.879a2.742,2.742,0,0,1,2.241-1.055,3.224,3.224,0,0,1,2.733,1.3,5.805,5.805,0,0,1,.976,3.564Zm-2.962-.185Q14.375-7.4,12.9-7.4a1.394,1.394,0,0,0-1.406.756V-2.9a1.439,1.439,0,0,0,1.424.791q1.415,0,1.459-2.443ZM21.766,0H18.8V-13.5h2.971Zm4.948,0H23.744V-9.51h2.971ZM23.568-11.962A1.322,1.322,0,0,1,24.025-13a1.724,1.724,0,0,1,1.187-.4A1.724,1.724,0,0,1,26.4-13a1.322,1.322,0,0,1,.457,1.037,1.322,1.322,0,0,1-.457,1.037,1.724,1.724,0,0,1-1.187.4,1.724,1.724,0,0,1-1.187-.4A1.322,1.322,0,0,1,23.568-11.962Zm8.991,9.853a1.317,1.317,0,0,0,.967-.338,1.241,1.241,0,0,0,.334-.945h2.777A3.288,3.288,0,0,1,35.517-.826a4.168,4.168,0,0,1-2.887,1,4.22,4.22,0,0,1-3.27-1.3,5.125,5.125,0,0,1-1.2-3.6v-.123A5.792,5.792,0,0,1,28.7-7.4a3.872,3.872,0,0,1,1.534-1.7A4.573,4.573,0,0,1,32.6-9.686a4.116,4.116,0,0,1,2.944,1.028,3.647,3.647,0,0,1,1.09,2.786H33.86A1.626,1.626,0,0,0,33.5-7a1.244,1.244,0,0,0-.967-.4q-1.151,0-1.345,1.468a10.357,10.357,0,0,0-.062,1.283,4.068,4.068,0,0,0,.343,1.986A1.187,1.187,0,0,0,32.559-2.109ZM43.247,0a3.344,3.344,0,0,1-.281-.853A2.754,2.754,0,0,1,40.68.176,3.374,3.374,0,0,1,38.4-.637a2.588,2.588,0,0,1-.94-2.043A2.66,2.66,0,0,1,38.6-5.019a5.821,5.821,0,0,1,3.322-.791h.914v-.5q0-1.316-1.134-1.316a.927.927,0,0,0-1.055,1.042H37.683a2.655,2.655,0,0,1,1.173-2.239,4.931,4.931,0,0,1,2.993-.86,4.323,4.323,0,0,1,2.874.888A3.086,3.086,0,0,1,45.8-6.363v4.21a4.311,4.311,0,0,0,.4,2V0ZM41.392-1.934a1.652,1.652,0,0,0,.918-.237,1.487,1.487,0,0,0,.523-.536V-4.228h-.861q-1.547,0-1.547,1.389a.848.848,0,0,0,.272.655A.986.986,0,0,0,41.392-1.934ZM47.07-4.825a5.809,5.809,0,0,1,.976-3.56,3.211,3.211,0,0,1,2.725-1.3,2.731,2.731,0,0,1,2.145,1V-13.5h2.971V0H53.222l-.149-1.02a2.8,2.8,0,0,1-2.32,1.2,3.205,3.205,0,0,1-2.689-1.3A5.993,5.993,0,0,1,47.07-4.825Zm2.962.185q0,2.531,1.477,2.531a1.458,1.458,0,0,0,1.406-.826V-6.557A1.419,1.419,0,0,0,51.526-7.4q-1.371,0-1.485,2.215Zm7.163-.2a5.613,5.613,0,0,1,.554-2.536,3.96,3.96,0,0,1,1.591-1.709,4.791,4.791,0,0,1,2.435-.6A4.373,4.373,0,0,1,65.14-8.363a5.076,5.076,0,0,1,1.23,3.6v.105a4.925,4.925,0,0,1-1.235,3.529A4.384,4.384,0,0,1,61.792.176a4.434,4.434,0,0,1-3.261-1.217,4.761,4.761,0,0,1-1.327-3.3Zm2.962.185a3.538,3.538,0,0,0,.413,1.934,1.376,1.376,0,0,0,1.222.615q1.582,0,1.617-2.435v-.3q0-2.558-1.635-2.558-1.485,0-1.608,2.206ZM77.515,0a3.344,3.344,0,0,1-.281-.853A2.754,2.754,0,0,1,74.949.176a3.374,3.374,0,0,1-2.285-.813,2.588,2.588,0,0,1-.94-2.043,2.66,2.66,0,0,1,1.143-2.338,5.821,5.821,0,0,1,3.322-.791H77.1v-.5q0-1.316-1.134-1.316a.927.927,0,0,0-1.055,1.042H71.952a2.655,2.655,0,0,1,1.173-2.239,4.931,4.931,0,0,1,2.993-.86,4.323,4.323,0,0,1,2.874.888,3.086,3.086,0,0,1,1.081,2.435v4.21a4.311,4.311,0,0,0,.4,2V0ZM75.661-1.934a1.652,1.652,0,0,0,.918-.237,1.487,1.487,0,0,0,.523-.536V-4.228h-.861q-1.547,0-1.547,1.389a.848.848,0,0,0,.272.655A.986.986,0,0,0,75.661-1.934ZM89.319,0H86.348V-13.5h2.971ZM96.5,0a3.344,3.344,0,0,1-.281-.853A2.754,2.754,0,0,1,93.933.176a3.374,3.374,0,0,1-2.285-.813,2.588,2.588,0,0,1-.94-2.043A2.66,2.66,0,0,1,91.85-5.019a5.821,5.821,0,0,1,3.322-.791h.914v-.5q0-1.316-1.134-1.316A.927.927,0,0,0,93.9-6.587H90.936a2.655,2.655,0,0,1,1.173-2.239,4.931,4.931,0,0,1,2.993-.86,4.323,4.323,0,0,1,2.874.888,3.086,3.086,0,0,1,1.081,2.435v4.21a4.311,4.311,0,0,0,.4,2V0ZM94.645-1.934a1.652,1.652,0,0,0,.918-.237,1.487,1.487,0,0,0,.523-.536V-4.228h-.861q-1.547,0-1.547,1.389a.848.848,0,0,0,.272.655A.986.986,0,0,0,94.645-1.934ZM-103.012,12.49l.1,1.116a3.27,3.27,0,0,1,2.716-1.292,2.407,2.407,0,0,1,2.435,1.433,3.165,3.165,0,0,1,2.795-1.433q2.892,0,2.971,3.5V22H-94.97V16a1.813,1.813,0,0,0-.246-1.063,1.048,1.048,0,0,0-.9-.334,1.4,1.4,0,0,0-1.31.782l.009.123V22h-2.971V16.015a1.906,1.906,0,0,0-.237-1.081,1.045,1.045,0,0,0-.905-.334,1.42,1.42,0,0,0-1.3.782V22h-2.962V12.49Zm17.306,9.686a4.889,4.889,0,0,1-3.542-1.305,4.507,4.507,0,0,1-1.354-3.4v-.246a5.84,5.84,0,0,1,.541-2.575,3.955,3.955,0,0,1,1.578-1.727,4.763,4.763,0,0,1,2.461-.611,4.117,4.117,0,0,1,3.164,1.244,4.887,4.887,0,0,1,1.16,3.467v1.151h-5.889a2.135,2.135,0,0,0,.694,1.257,2.066,2.066,0,0,0,1.389.457,2.662,2.662,0,0,0,2.2-.984l1.354,1.6a3.784,3.784,0,0,1-1.569,1.217A5.3,5.3,0,0,1-85.707,22.176Zm-.334-7.576q-1.3,0-1.547,1.723H-84.6v-.229a1.467,1.467,0,0,0-.36-1.1A1.434,1.434,0,0,0-86.041,14.6Zm8.719-2.109v9.835a3.452,3.452,0,0,1-.967,2.6,3.714,3.714,0,0,1-2.672.914,6.308,6.308,0,0,1-1.4-.149V23.45a5.667,5.667,0,0,0,.835.079,1.084,1.084,0,0,0,1.23-1.222V12.49Zm-3.19-2.452A1.322,1.322,0,0,1-80.055,9a1.724,1.724,0,0,1,1.187-.4,1.724,1.724,0,0,1,1.187.4,1.322,1.322,0,0,1,.457,1.037,1.322,1.322,0,0,1-.457,1.037,1.724,1.724,0,0,1-1.187.4,1.724,1.724,0,0,1-1.187-.4A1.322,1.322,0,0,1-80.512,10.038Zm4.491,7.119a5.613,5.613,0,0,1,.554-2.536,3.96,3.96,0,0,1,1.591-1.709,4.791,4.791,0,0,1,2.435-.6,4.373,4.373,0,0,1,3.366,1.323,5.076,5.076,0,0,1,1.23,3.6v.105a4.925,4.925,0,0,1-1.235,3.529,4.384,4.384,0,0,1-3.344,1.305,4.434,4.434,0,0,1-3.261-1.217,4.761,4.761,0,0,1-1.327-3.3Zm2.962.185a3.538,3.538,0,0,0,.413,1.934,1.376,1.376,0,0,0,1.222.615q1.582,0,1.617-2.435v-.3q0-2.558-1.635-2.558-1.485,0-1.608,2.206Zm13.271-2.171-.976-.07a1.752,1.752,0,0,0-1.793.879V22h-2.962V12.49h2.777l.1,1.222a2.294,2.294,0,0,1,2.083-1.4,2.888,2.888,0,0,1,.826.105ZM-53.626,22a3.344,3.344,0,0,1-.281-.853,2.754,2.754,0,0,1-2.285,1.028,3.374,3.374,0,0,1-2.285-.813,2.588,2.588,0,0,1-.94-2.043,2.66,2.66,0,0,1,1.143-2.338,5.821,5.821,0,0,1,3.322-.791h.914v-.5q0-1.316-1.134-1.316a.927.927,0,0,0-1.055,1.042H-59.19a2.655,2.655,0,0,1,1.173-2.239,4.931,4.931,0,0,1,2.993-.86,4.323,4.323,0,0,1,2.874.888,3.086,3.086,0,0,1,1.081,2.435v4.21a4.311,4.311,0,0,0,.4,2V22Zm-1.854-1.934a1.652,1.652,0,0,0,.918-.237,1.487,1.487,0,0,0,.523-.536V17.772H-54.9q-1.547,0-1.547,1.389a.848.848,0,0,0,.272.655A.986.986,0,0,0-55.481,20.066Zm14.555-.176a1.317,1.317,0,0,0,.967-.338,1.241,1.241,0,0,0,.334-.945h2.777a3.288,3.288,0,0,1-1.121,2.566,4.168,4.168,0,0,1-2.887,1,4.22,4.22,0,0,1-3.27-1.3,5.125,5.125,0,0,1-1.2-3.6v-.123a5.792,5.792,0,0,1,.532-2.544,3.872,3.872,0,0,1,1.534-1.7,4.573,4.573,0,0,1,2.373-.593,4.116,4.116,0,0,1,2.944,1.028,3.647,3.647,0,0,1,1.09,2.786h-2.777A1.626,1.626,0,0,0-39.986,15a1.244,1.244,0,0,0-.967-.4q-1.151,0-1.345,1.468a10.357,10.357,0,0,0-.062,1.283,4.068,4.068,0,0,0,.343,1.986A1.187,1.187,0,0,0-40.926,19.891Zm4.957-2.733a5.613,5.613,0,0,1,.554-2.536,3.96,3.96,0,0,1,1.591-1.709,4.791,4.791,0,0,1,2.435-.6,4.373,4.373,0,0,1,3.366,1.323,5.076,5.076,0,0,1,1.23,3.6v.105a4.925,4.925,0,0,1-1.235,3.529,4.384,4.384,0,0,1-3.344,1.305,4.434,4.434,0,0,1-3.261-1.217,4.761,4.761,0,0,1-1.327-3.3Zm2.962.185a3.538,3.538,0,0,0,.413,1.934,1.376,1.376,0,0,0,1.222.615q1.582,0,1.617-2.435v-.3q0-2.558-1.635-2.558-1.485,0-1.608,2.206Zm10.239-4.852.1,1.116a3.225,3.225,0,0,1,2.716-1.292,2.713,2.713,0,0,1,2.219.888,4.226,4.226,0,0,1,.76,2.672V22h-2.971V16a1.6,1.6,0,0,0-.29-1.059,1.342,1.342,0,0,0-1.055-.338,1.413,1.413,0,0,0-1.292.686V22h-2.962V12.49Zm10.881-2.364V12.49h1.564v2.057h-1.564V18.9a1.111,1.111,0,0,0,.193.747,1.037,1.037,0,0,0,.765.211,4.345,4.345,0,0,0,.738-.053v2.118a5.466,5.466,0,0,1-1.67.255,3.1,3.1,0,0,1-2.259-.721,2.954,2.954,0,0,1-.729-2.188v-4.72h-1.213V12.49h1.213V10.126ZM-6.034,22H-9V12.49h2.971ZM-9.18,10.038A1.322,1.322,0,0,1-8.723,9a1.724,1.724,0,0,1,1.187-.4A1.724,1.724,0,0,1-6.35,9a1.322,1.322,0,0,1,.457,1.037,1.322,1.322,0,0,1-.457,1.037,1.724,1.724,0,0,1-1.187.4,1.724,1.724,0,0,1-1.187-.4A1.322,1.322,0,0,1-9.18,10.038Zm7.69,2.452.1,1.116a3.225,3.225,0,0,1,2.716-1.292,2.713,2.713,0,0,1,2.219.888,4.226,4.226,0,0,1,.76,2.672V22H1.332V16a1.6,1.6,0,0,0-.29-1.059A1.342,1.342,0,0,0-.013,14.6a1.413,1.413,0,0,0-1.292.686V22H-4.267V12.49Zm13.1,8.481a3.054,3.054,0,0,1-2.54,1.2,3,3,0,0,1-2.369-.91,3.826,3.826,0,0,1-.8-2.615V12.49H8.855v6.179a1.065,1.065,0,0,0,1.187,1.222,1.548,1.548,0,0,0,1.45-.729V12.49h2.979V22H11.694ZM21.45,22a3.344,3.344,0,0,1-.281-.853,2.754,2.754,0,0,1-2.285,1.028,3.374,3.374,0,0,1-2.285-.813,2.588,2.588,0,0,1-.94-2.043A2.66,2.66,0,0,1,16.8,16.981a5.821,5.821,0,0,1,3.322-.791h.914v-.5q0-1.316-1.134-1.316a.927.927,0,0,0-1.055,1.042H15.886a2.655,2.655,0,0,1,1.173-2.239,4.931,4.931,0,0,1,2.993-.86,4.323,4.323,0,0,1,2.874.888,3.086,3.086,0,0,1,1.081,2.435v4.21a4.311,4.311,0,0,0,.4,2V22ZM19.6,20.066a1.652,1.652,0,0,0,.918-.237,1.487,1.487,0,0,0,.523-.536V17.772h-.861q-1.547,0-1.547,1.389a.848.848,0,0,0,.272.655A.986.986,0,0,0,19.6,20.066Zm10.16-2.892a5.809,5.809,0,0,1,.976-3.56,3.211,3.211,0,0,1,2.725-1.3,2.731,2.731,0,0,1,2.145,1V8.5h2.971V22H35.908l-.149-1.02a2.8,2.8,0,0,1-2.32,1.2,3.205,3.205,0,0,1-2.689-1.3A5.993,5.993,0,0,1,29.755,17.175Zm2.962.185q0,2.531,1.477,2.531a1.458,1.458,0,0,0,1.406-.826V15.443a1.419,1.419,0,0,0-1.389-.844q-1.371,0-1.485,2.215Zm12.138,4.816a4.889,4.889,0,0,1-3.542-1.305,4.507,4.507,0,0,1-1.354-3.4v-.246a5.84,5.84,0,0,1,.541-2.575,3.955,3.955,0,0,1,1.578-1.727,4.763,4.763,0,0,1,2.461-.611A4.117,4.117,0,0,1,47.7,13.558a4.887,4.887,0,0,1,1.16,3.467v1.151H42.974a2.135,2.135,0,0,0,.694,1.257,2.066,2.066,0,0,0,1.389.457,2.662,2.662,0,0,0,2.2-.984l1.354,1.6a3.784,3.784,0,0,1-1.569,1.217A5.3,5.3,0,0,1,44.855,22.176ZM44.521,14.6q-1.3,0-1.547,1.723h2.988v-.229a1.467,1.467,0,0,0-.36-1.1A1.434,1.434,0,0,0,44.521,14.6ZM53.178,22H50.208V8.5h2.971Zm13.043-3.4a1.268,1.268,0,0,0-.479-1.055,5.954,5.954,0,0,0-1.683-.782,16.147,16.147,0,0,1-1.969-.782Q59.6,14.758,59.6,12.622a3.011,3.011,0,0,1,.62-1.876A4.008,4.008,0,0,1,61.976,9.48a6.823,6.823,0,0,1,2.549-.453A5.969,5.969,0,0,1,67,9.52a3.917,3.917,0,0,1,1.7,1.4A3.661,3.661,0,0,1,69.306,13H66.23a1.547,1.547,0,0,0-.479-1.213,1.867,1.867,0,0,0-1.3-.431,2.106,2.106,0,0,0-1.305.365,1.074,1.074,0,0,0,.048,1.819,6.65,6.65,0,0,0,1.854.826,11.36,11.36,0,0,1,2.18.918,3.663,3.663,0,0,1,2.074,3.3,3.125,3.125,0,0,1-1.266,2.637,5.629,5.629,0,0,1-3.472.958,6.888,6.888,0,0,1-2.817-.558,4.247,4.247,0,0,1-1.9-1.529,3.985,3.985,0,0,1-.637-2.237H62.31a1.963,1.963,0,0,0,.532,1.516,2.513,2.513,0,0,0,1.727.488,1.985,1.985,0,0,0,1.208-.33A1.088,1.088,0,0,0,66.221,18.6Zm15.144,1.819a4.96,4.96,0,0,1-2.083,1.274,8.984,8.984,0,0,1-3.006.483,5.36,5.36,0,0,1-4.017-1.538,6.226,6.226,0,0,1-1.608-4.28l-.009-1.107a7.637,7.637,0,0,1,.668-3.3,4.96,4.96,0,0,1,1.912-2.171,5.407,5.407,0,0,1,2.878-.76,5.669,5.669,0,0,1,3.713,1.094,4.637,4.637,0,0,1,1.542,3.265H78.385a2.426,2.426,0,0,0-.686-1.529,2.212,2.212,0,0,0-1.494-.457,2.013,2.013,0,0,0-1.793.984,5.256,5.256,0,0,0-.642,2.813v.773a5.145,5.145,0,0,0,.655,2.878,2.316,2.316,0,0,0,2.061.962,2.592,2.592,0,0,0,1.793-.536V17.28H76.135V15.162h5.229Zm12.146-2.751a4.673,4.673,0,0,1-.721,2.36,4.35,4.35,0,0,1-1.85,1.586,6.3,6.3,0,0,1-2.72.563,5.025,5.025,0,0,1-3.973-1.644,6.786,6.786,0,0,1-1.45-4.641v-.633a7.746,7.746,0,0,1,.655-3.292,4.961,4.961,0,0,1,1.885-2.18,5.26,5.26,0,0,1,2.848-.769,5.516,5.516,0,0,1,3.744,1.226,4.844,4.844,0,0,1,1.608,3.379H90.461a2.292,2.292,0,0,0-.589-1.679,2.422,2.422,0,0,0-1.687-.51A1.843,1.843,0,0,0,86.5,12.3a5.536,5.536,0,0,0-.562,2.751v.905a6.126,6.126,0,0,0,.514,2.927,1.882,1.882,0,0,0,1.771.879,2.369,2.369,0,0,0,1.626-.5,2.126,2.126,0,0,0,.6-1.591ZM105.658,22H102.59l-4.535-7.963V22H94.97V9.2h3.085l4.526,7.963V9.2h3.076Z" transform="translate(799.711 8130)" fill="#fff"/>
    </g>
  </g>
</svg>
