<svg xmlns="http://www.w3.org/2000/svg" xmlns:xlink="http://www.w3.org/1999/xlink" width="119" height="119" viewBox="0 0 119 119">
  <defs>
    <clipPath id="clip-path">
      <rect id="Rectangle_406617" data-name="Rectangle 406617" width="119" height="119" fill="#170551" stroke="rgba(0,0,0,0)" stroke-miterlimit="10" stroke-width="1"/>
    </clipPath>
    <clipPath id="clip-path-2">
      <rect id="Rectangle_408608" data-name="Rectangle 408608" width="61.806" height="55.699" fill="#fff"/>
    </clipPath>
  </defs>
  <g id="Group_1115754" data-name="Group 1115754" transform="translate(-313.712 -7638.943)">
    <g id="Group_1113263" data-name="Group 1113263" transform="translate(313.712 7638.943)">
      <g id="Group_1112834" data-name="Group 1112834" transform="translate(0 0)" clip-path="url(#clip-path)">
        <path id="Path_917479" data-name="Path 917479" d="M118.163,71l-5.841-4.807a52.529,52.529,0,0,0-.6-16.787l5.47-5.208a3.328,3.328,0,0,0,.732-3.8l-5.546-12.131a3.335,3.335,0,0,0-3.026-1.944c-.108,0-.217,0-.325.015l-7.532.731A53.325,53.325,0,0,0,89.209,15.619l.185-7.551a3.329,3.329,0,0,0-2.166-3.2L74.728.21A3.32,3.32,0,0,0,73.566,0h0a3.315,3.315,0,0,0-2.57,1.214L66.186,7.057a52.524,52.524,0,0,0-16.786.6l-5.208-5.47A3.344,3.344,0,0,0,41.78,1.15a3.3,3.3,0,0,0-1.385.3L28.264,7a3.33,3.33,0,0,0-1.929,3.35l.731,7.534a53.315,53.315,0,0,0-11.449,12.29l-7.55-.185-.083,0a3.342,3.342,0,0,0-3.119,2.169L.208,44.652a3.333,3.333,0,0,0,1,3.731l5.846,4.811a52.523,52.523,0,0,0,.6,16.786L2.181,75.188a3.329,3.329,0,0,0-.731,3.8L7,91.116a3.336,3.336,0,0,0,3.027,1.945c.107,0,.215,0,.323-.015l7.534-.732a53.328,53.328,0,0,0,12.289,11.449l-.185,7.55a3.329,3.329,0,0,0,2.167,3.2l12.5,4.657a3.334,3.334,0,0,0,3.733-1l4.809-5.843a52.521,52.521,0,0,0,16.786-.6l5.208,5.47a3.343,3.343,0,0,0,2.41,1.034,3.308,3.308,0,0,0,1.384-.3l12.134-5.547a3.332,3.332,0,0,0,1.929-3.35l-.731-7.533a53.311,53.311,0,0,0,11.449-12.29l7.551.185h.082a3.342,3.342,0,0,0,3.119-2.167l4.657-12.5A3.329,3.329,0,0,0,118.163,71" transform="translate(0 -0.38)" fill="#170551" stroke="rgba(0,0,0,0)" stroke-miterlimit="10" stroke-width="1"/>
      </g>
    </g>
    <g id="Group_1111310" data-name="Group 1111310" transform="translate(338.026 7665.892)">
      <rect id="Rectangle_401104" data-name="Rectangle 401104" width="64.968" height="66.017" transform="translate(2.686 0.051)" fill="none"/>
      <g id="Group_1116001" data-name="Group 1116001" transform="translate(3.686 5.051)">
        <g id="Group_1116000" data-name="Group 1116000" clip-path="url(#clip-path-2)">
          <path id="Path_923640" data-name="Path 923640" d="M14.822,22.916c.068-.4.627-.621.937-.818,4.442-2.818,9.476-5.008,13.913-7.88l.087-12.741c.525-2.722,2.742-1.255,2.283.967l7.782.037c1.022.228.821,1.61.828,2.423,1.184.169,3.424-.35,4.386.271,1.373.887-.386,2.554-.334,3.667.042.905,1.726,3.321.217,3.755H35.507c-1.192-.512-.243-1.841-.916-2.6H32.043v4.13l14.118,8.024a5.459,5.459,0,0,1,.819.762v2.9H60.6c.454,0,1.153.766.974,1.31-.576,8.811.742,18.552,0,27.253-.091,1.071-.426,1.192-1.492,1.32H1.722C.666,55.572.32,55.456.23,54.379-.5,45.665.8,35.946.229,27.126a1.185,1.185,0,0,1,.974-1.31H14.822ZM38.545,4.553h-6.5V7.892h6.5ZM39.863,10h-2.9v.527h5.975a3.893,3.893,0,0,1,0-3.338l-2.295.076c-.541.378.528,2.454-.78,2.735m5.008,43.581V23.971L30.9,16.133l-13.97,7.837v29.61H22.2V39.962c0-.108.7-.735.957-.624,4.9.386,10.5-.48,15.308,0,.326.032,1.132.289,1.132.626V53.581ZM14.822,27.925H2.345V53.581H14.558l.264-.264Zm44.635,0H46.98V53.317l.264.264H59.457Zm-29.7,13.531H24.311V53.581h5.448Zm7.732,0H32.043V53.581h5.448Z" transform="translate(0 0)" fill="#fff"/>
          <path id="Path_923641" data-name="Path 923641" d="M154.385,109.9a4.411,4.411,0,1,1-3.3,2.847,4.239,4.239,0,0,1,3.3-2.847m.166,2.1c-2.719.62-1.748,5.417,1.43,4.414a2.322,2.322,0,0,0-1.43-4.414" transform="translate(-124.317 -90.539)" fill="#fff"/>
          <path id="Path_923642" data-name="Path 923642" d="M167.741,172.906l-.164,2.032h-4.064l-.164-2.032Z" transform="translate(-134.643 -142.521)" fill="#fff"/>
          <path id="Path_923643" data-name="Path 923643" d="M167.741,200.906l-.164,2.032h-4.064l-.164-2.032Z" transform="translate(-134.643 -165.601)" fill="#fff"/>
          <rect id="Rectangle_408598" data-name="Rectangle 408598" width="4.217" height="2.109" transform="translate(20.094 30.384)" fill="#fff"/>
          <rect id="Rectangle_408599" data-name="Rectangle 408599" width="4.217" height="2.109" transform="translate(37.491 30.384)" fill="#fff"/>
          <rect id="Rectangle_408600" data-name="Rectangle 408600" width="4.217" height="2.109" transform="translate(20.094 35.305)" fill="#fff"/>
          <rect id="Rectangle_408601" data-name="Rectangle 408601" width="4.217" height="2.109" transform="translate(37.491 35.305)" fill="#fff"/>
          <rect id="Rectangle_408602" data-name="Rectangle 408602" width="2.109" height="4.217" transform="translate(10.077 30.384)" fill="#fff"/>
          <rect id="Rectangle_408603" data-name="Rectangle 408603" width="2.109" height="4.217" transform="translate(4.981 38.644)" fill="#fff"/>
          <rect id="Rectangle_408604" data-name="Rectangle 408604" width="2.109" height="4.217" transform="translate(10.077 38.644)" fill="#fff"/>
          <path id="Path_923644" data-name="Path 923644" d="M30.456,172.906v3.954c-.51.515-1.431.173-2.109.264v-4.217Z" transform="translate(-23.366 -142.522)" fill="#fff"/>
          <path id="Path_923645" data-name="Path 923645" d="M30.456,270.99H28.347v-4.218c.678.091,1.6-.252,2.109.264Z" transform="translate(-23.366 -219.869)" fill="#fff"/>
          <path id="Path_923646" data-name="Path 923646" d="M59.456,266.772v4.218H57.347v-3.954c.51-.515,1.431-.173,2.109-.264" transform="translate(-47.27 -219.869)" fill="#fff"/>
          <rect id="Rectangle_408605" data-name="Rectangle 408605" width="2.109" height="4.217" transform="translate(49.616 30.384)" fill="#fff"/>
          <rect id="Rectangle_408606" data-name="Rectangle 408606" width="2.109" height="4.217" transform="translate(49.616 38.644)" fill="#fff"/>
          <rect id="Rectangle_408607" data-name="Rectangle 408607" width="2.109" height="4.217" transform="translate(54.712 38.644)" fill="#fff"/>
          <path id="Path_923647" data-name="Path 923647" d="M313.456,172.906v4.217c-.678-.091-1.6.252-2.109-.264v-3.954Z" transform="translate(-256.635 -142.522)" fill="#fff"/>
          <path id="Path_923648" data-name="Path 923648" d="M284.456,270.99h-2.109v-4.218c.678.091,1.6-.252,2.109.264Z" transform="translate(-232.731 -219.869)" fill="#fff"/>
          <path id="Path_923649" data-name="Path 923649" d="M313.456,266.772v4.218h-2.109v-3.954c.51-.515,1.431-.173,2.109-.264" transform="translate(-256.635 -219.869)" fill="#fff"/>
        </g>
      </g>
    </g>
  </g>
</svg>
