<svg xmlns="http://www.w3.org/2000/svg" xmlns:xlink="http://www.w3.org/1999/xlink" width="99" height="99" viewBox="0 0 99 99">
  <defs>
    <clipPath id="clip-path">
      <rect id="Rectangle_401223" data-name="Rectangle 401223" width="99" height="99" transform="translate(0)" fill="#ffa8fb"/>
    </clipPath>
    <clipPath id="clip-path-2">
      <rect id="Rectangle_401223-2" data-name="Rectangle 401223" width="88.539" height="88.539" fill="#f3f9ff"/>
    </clipPath>
    <clipPath id="clip-path-3">
      <rect id="Rectangle_408540" data-name="Rectangle 408540" width="64.211" height="61.192" fill="none"/>
    </clipPath>
    <clipPath id="clip-path-5">
      <rect id="Rectangle_408535" data-name="Rectangle 408535" width="17.2" height="8.133" fill="none"/>
    </clipPath>
    <clipPath id="clip-path-6">
      <rect id="Rectangle_408538" data-name="Rectangle 408538" width="26.328" height="28.392" fill="#9d0388"/>
    </clipPath>
  </defs>
  <g id="Group_1116060" data-name="Group 1116060" transform="translate(-1189.711 -1620)">
    <g id="Group_1115803" data-name="Group 1115803" transform="translate(569.79 -4135.871)">
      <g id="Group_1100724" data-name="Group 1100724" transform="translate(619.921 5755.871)">
        <g id="Group_1099654" data-name="Group 1099654" transform="translate(0 0)">
          <g id="Group_1099652" data-name="Group 1099652" clip-path="url(#clip-path)">
            <path id="Path_873521" data-name="Path 873521" d="M99,77.066A22,22,0,0,1,77.066,99H21.934A22,22,0,0,1,0,77.066V21.933A22,22,0,0,1,21.934,0H77.066A22,22,0,0,1,99,21.934Z" transform="translate(0)" fill="#170551"/>
          </g>
        </g>
        <g id="Group_1099659" data-name="Group 1099659" transform="translate(4.77 5.723)">
          <g id="Group_1099652-2" data-name="Group 1099652" transform="translate(0 0)" clip-path="url(#clip-path-2)">
            <path id="Path_873521-2" data-name="Path 873521" d="M88.539,68.922A19.674,19.674,0,0,1,68.923,88.539H19.616A19.674,19.674,0,0,1,0,68.922V19.616A19.674,19.674,0,0,1,19.616,0H68.923A19.674,19.674,0,0,1,88.539,19.616Z" fill="#f3f9ff"/>
          </g>
        </g>
      </g>
      <g id="Group_1100725" data-name="Group 1100725" transform="translate(636.343 5771.293)">
        <rect id="Rectangle_401104" data-name="Rectangle 401104" width="68" height="69" transform="translate(-0.421 0.138)" fill="none"/>
      </g>
    </g>
    <g id="Group_1115865" data-name="Group 1115865" transform="translate(1206.711 1639)">
      <g id="Group_1115873" data-name="Group 1115873" clip-path="url(#clip-path-3)">
        <path id="Path_922294" data-name="Path 922294" d="M45.884,67.277H27.119l1.83-12.615H44.055Z" transform="translate(-4.396 -8.86)" fill="#bbb"/>
        <g id="Group_1115872" data-name="Group 1115872" transform="translate(0 0)">
          <g id="Group_1115871" data-name="Group 1115871" clip-path="url(#clip-path-3)">
            <g id="Group_1115867" data-name="Group 1115867" transform="translate(23.373 45.8)" opacity="0.5" style="mix-blend-mode: multiply;isolation: isolate">
              <g id="Group_1115866" data-name="Group 1115866">
                <g id="Group_1115865-2" data-name="Group 1115865" clip-path="url(#clip-path-5)">
                  <path id="Path_922295" data-name="Path 922295" d="M45.095,60.969,27.9,62.794l1.179-8.133H44.18Z" transform="translate(-27.895 -54.661)" fill="#bbb"/>
                </g>
              </g>
            </g>
            <path id="Path_922296" data-name="Path 922296" d="M62.708,48.045H1.5a1.5,1.5,0,0,1-1.5-1.5V1.5A1.5,1.5,0,0,1,1.5,0h61.2a1.5,1.5,0,0,1,1.5,1.5v45.04a1.5,1.5,0,0,1-1.5,1.5" transform="translate(0 0)" fill="#e5e5e5"/>
            <path id="Path_922297" data-name="Path 922297" d="M49.615,72.387l-28.376-.029c-.658,0-.912-.362-.582-.789l1.479-1.915a2.025,2.025,0,0,1,1.449-.591l23.7.024a2.019,2.019,0,0,1,1.45.6L50.2,71.6c.325.426.069.786-.587.785" transform="translate(-3.325 -11.195)" fill="#474656"/>
            <rect id="Rectangle_408536" data-name="Rectangle 408536" width="56.405" height="35.168" transform="translate(3.699 3.316)" fill="#170551"/>
            <rect id="Rectangle_408537" data-name="Rectangle 408537" width="53.911" height="32.283" transform="translate(4.945 4.758)" fill="#ededed"/>
            <path id="Path_922298" data-name="Path 922298" d="M39.259,52.089a1.17,1.17,0,1,1-1.17-1.17,1.17,1.17,0,0,1,1.17,1.17" transform="translate(-5.985 -8.254)" fill="#bbb"/>
            <path id="Path_922299" data-name="Path 922299" d="M13.513,39.256H25.464c.142-.6.2-1.51-.344-1.936-.482-.38-1.328-.533-1.628-1.109-.183-.351.116-.635.282-.918A1.519,1.519,0,0,0,23.85,33.8c-.349-.714-1.243-1.219-1.419-2.011-.2-.892.9-1.69,1.439-2.215.407-.4.809-.8,1.19-1.219a3.719,3.719,0,0,0,.737-.99c.1-.234-.055-.3-.273-.266a3.869,3.869,0,0,1-1.46.175,2.008,2.008,0,0,1-1.124-.6,9.632,9.632,0,0,0-.214-1.357.8.8,0,0,0-.245-.474c-.276-.189-.474-.192-.664-.527a3.788,3.788,0,0,0-.5-.833,3.026,3.026,0,0,0-.713-.514c-.455-.26-.824-.534-.742-1.114.141-1,.866-1.837,1.093-2.825.065-.285.1-1.1-.37-.624a2.947,2.947,0,0,0-.545.876c-.081.177-.2.473-.391.561-.318.144-.085-.841-.062-.917.547-1.793,2.1-2.775,3.446-3.936.116-.1.946-.716.821-.919a1.518,1.518,0,0,1-.926-.3A21.641,21.641,0,0,0,12.814,36.739a20.553,20.553,0,0,0,.7,2.517" transform="translate(-2.005 -2.233)" fill="#8cd8e5"/>
            <path id="Path_922300" data-name="Path 922300" d="M25.234,21.586a1.146,1.146,0,0,1,.706.158c-.357.332-.745.625-1.107.95-.168.15-.278.3,0,.379s.712.031.916.265c.175.2-.02.566-.092.771-.167.479-.485,1.583,0,1.993.355.3,1.231-.09,1.607-.172,1.856-.408,3.894-.334,5,1.441a3.177,3.177,0,0,0,.531.82,3.4,3.4,0,0,0,.942.505,1.314,1.314,0,0,1,.657.433c.206.347-.151.785-.3,1.074-.251.473-.782,1.267-.68,1.848a.171.171,0,0,0,.244.14,7.937,7.937,0,0,1,4.19,1.294,1.678,1.678,0,0,1,.849,1.34c-.04.8-.879,1.3-1.414,1.774a5.657,5.657,0,0,0-1.62,2.122h15.19c.158-.229.413-.391.571-.631a1.829,1.829,0,0,0,.136-2.15c-.189-.215-.609-.335-.692-.631-.061-.218.183-.4.328-.515.463-.37,1.031-.762.836-1.441-.163-.567-.679.1-1,.074-.442-.037-.311-.949-.38-1.248-.077-.333-1.2.141-1.367.186-.678.187-1.684.514-2.274-.058-.5-.484-.57-1.288-.826-1.9a12.267,12.267,0,0,0-1.424-2.037c-.373-.55.485-.38.81-.506.638-.249.743-1.006.749-1.607.006-.547-.088-1.087-.119-1.632a2.02,2.02,0,0,1,.1-1c.222-.434.849-.277,1.224-.441.3-.129.295-.436.333-.711.06-.426.336-.5.711-.592a9.86,9.86,0,0,1,2.2-.666.564.564,0,0,1,.6.436c.052.205-.032.673.127.836.062.065.266.052.352.1A3.713,3.713,0,0,1,52.9,23.656c.1.126.294.48.484.494.167.012.4-.256.53-.337.346-.217.856-.321,1.1-.673.224-.328-.22-.55-.473-.635-.5-.171-1.033-.1-1.533-.246-.3-.085-.286-.266-.285-.528,0-.348-.28-.531-.576-.649a2.1,2.1,0,0,1-1.057-.892c-.175-.292-.83-1.263-1.145-.6-.3.642-.587,1.207-1.423,1.176a1.36,1.36,0,0,1-1.227-1.344c-.013-.807,1.081-.762.993-1.619-.1-.943-1.183-1.476-1.913-1.881-.033-.018-.522-.288-.453-.333.239-.155.867.1,1.081.215.446.233,1.084,1.19,1.68.821S48,15.24,47.727,15.1c-.3-.148-.742-.116-.963-.385-.189-.231-.18-.586-.295-.853a2.831,2.831,0,0,0-2.02-1.35c-.555-.1-1.3-.43-1.359-1.059-.183-.069-.369-.132-.554-.193-.664.31-1.284.706-1.953,1.006-.3.135-.875.431-1.206.214-.53-.349.1-1.4-.322-1.853-.31-.334-1.011-.051-1.4-.053-.1,0-.464-.121-.518.013s.071.31.116.416c.179.42.147.8-.434.716a1.72,1.72,0,0,1-1.057-.756l-.955.414c.531,1.278-2.784-.081-2.957.569-.055.21.34.463.514.458.117,0,.344-.237.44-.152.211.189.223.726.245.99,0,.042-.02.388.059.315.535-.5,1.211-.772,1.753-1.259a1.612,1.612,0,0,1,.587-.436c.3-.077.59.209.783.4a3.706,3.706,0,0,1,1.386,2.746c-.016.158-.088.483-.313.444-.307-.053-.48-.6-.677-.8-.421-.426-1.54-.912-1.874-.118-.225.534.545.8.9.973.126.059.393.151.432.308.054.216-.461.342-.587.359-.683.095-1.192-.472-1.663-.868-.437-.368-.21.375-.047.563.045.053.22.191.165.277-.111.174-.628.155-.793.171a5.409,5.409,0,0,0-2.768.974,8.077,8.077,0,0,0-1.474,1.35c-.028.034-.057.068-.085.1a12.811,12.811,0,0,1-.72,2.292c-.186.39-.277.163-.289-.162-.028-.738.187-1.636-.284-2.282-.848-1.163-2.759.5-3.393,1.118-.511.5-1.36,1.523-.753,2.261.6.722,1.225-.323,1.832-.385" transform="translate(-3.759 -1.697)" fill="#8cd8e5"/>
            <path id="Path_922301" data-name="Path 922301" d="M21.411,18.689c.83-1.812,1.577-1.149.25,1.424s.7,1.741,1.383,3.316.938-.331,1.269,2.654a2.137,2.137,0,0,0,2.323.5c1.493-.5-.249,1.325-1.824,2.819s-1.079,1.988-.249,2.9,1.161,1.658.415,2.654,1.161,1.326,1.658,1.905a2.255,2.255,0,0,1,.2,1.8h8.393a6.36,6.36,0,0,1,2.272-2.63c2.653-2.158-1.824-3.816-4.227-3.9,0,0-.881.36.664-2.4.673-1.207-1.328-.912-1.825-1.989a3.63,3.63,0,0,0-3.98-2.074c-2.323.25-2.988,1.08-3.068-.331s.994-2.072-.168-2.239-.58-.25.666-1.41a1.177,1.177,0,0,0-1.494.25c-.747.747-2.074-.414-.5-2.072s4.064-2.905,3.9.248,1-1.424,1-1.424,1.742-2.226,3.9-2.391.828-.25.828-1,.995,1.244,2.2.747-1.287-.664-1.038-1.491,1.661-.582,2.239.5,1.244-.58-.247-2.324-1.244-.662-2.655.083-.828,1.161-1.078-.083-.33.083-.995-.578,1.183-.358,2.156-.25.664-.581.664-.581l.954-.414s.623.911,1.367.745-.5-1.328.247-1.161,1.741-.5,1.825.5-.581,2.322,2.158.828c.551-.3.92-.5,1.172-.613A21.6,21.6,0,0,0,24.3,13.184a1.515,1.515,0,0,0,.921.293s.416,0-2.237,2.072-2.406,4.949-1.577,3.14" transform="translate(-3.379 -1.641)" fill="#9d0388"/>
            <path id="Path_922302" data-name="Path 922302" d="M47.368,12.317c1.077.662.747.081,2.154.912s.5,1.741,1.576,1.908,2.073,1.658,1.245,1.741-.913-.911-2.155-1.08.5.414,1.326,1.163.83,1.629,0,1.977-.216,2.253,1.136,2,.852-1.658,1.6-1.326.5,1.159,1.742,1.658-.168,1.159,1.326,1.243,2.238.663.911,1.243-.66,1.078-1.824-.333-1.046-.059-1.161-1.409-1.988-.083-2.982.083-.168,1.161-1.081,1.326S49.853,23.345,50.1,25.5s-.331,2.653-1.326,2.653.832,1.161,1.326,2.654.583,2.406,2.738,1.825,1.492-.581,1.742.581,1.16-.664,1.325.5-2.073,1.411-.83,2.155.334,2.489-.249,2.9a.613.613,0,0,0-.121.144h5.416A21.633,21.633,0,0,0,46.939,11.65a.811.811,0,0,0,.429.667" transform="translate(-7.609 -1.889)" fill="#75bd38"/>
            <path id="Path_922303" data-name="Path 922303" d="M46.505,11.493c.122.042.242.088.364.132v0c-.121-.045-.243-.086-.364-.128" transform="translate(-7.538 -1.863)" fill="#fff"/>
            <g id="Group_1115870" data-name="Group 1115870" transform="translate(27.319 8.631)" style="mix-blend-mode: multiply;isolation: isolate">
              <g id="Group_1115869" data-name="Group 1115869">
                <g id="Group_1115868" data-name="Group 1115868" clip-path="url(#clip-path-6)">
                  <path id="Path_922304" data-name="Path 922304" d="M46.94,11.65c8.346,3,0,0,0,0" transform="translate(-34.927 -10.519)" fill="#9d0388"/>
                  <path id="Path_922305" data-name="Path 922305" d="M44.061,38.693H57.8a21.762,21.762,0,0,0,1-9.321c-.008-.075-.015-.138-.023-.205.008.069.015.14.023.205a21.848,21.848,0,0,0-14.183-17.94v0c-.093-.035-.2-.062-.293-.1a20.989,20.989,0,0,0-4.635-1.021,22.147,22.147,0,0,0-3.2.154c-2.722,1.774-3.023,4.867-3.816,8.446-.442,2,1.341,8.863,1.341,8.863Z" transform="translate(-32.604 -10.301)" fill="#9d0388"/>
                  <path id="Path_922306" data-name="Path 922306" d="M63.83,32.723c-.018-.158-.036-.321-.054-.483.016.143.034.306.054.483" transform="translate(-37.657 -13.857)" fill="#9d0388"/>
                </g>
              </g>
            </g>
            <path id="Path_922307" data-name="Path 922307" d="M59.927,18.019A13.947,13.947,0,1,1,45.98,4.071,13.947,13.947,0,0,1,59.927,18.019" transform="translate(-5.192 -0.66)" fill="#fff"/>
            <path id="Path_922308" data-name="Path 922308" d="M47.608,9.439a.856.856,0,1,0-.856-.856.856.856,0,0,0,.856.856" transform="translate(-7.578 -1.253)" fill="#8e8d97"/>
            <path id="Path_922309" data-name="Path 922309" d="M49.206,10.462c0-.275-.3-.5-.678-.5h-2.2c-.375,0-.678.223-.678.5v1.91c0,.292.132.41.292.41h.006c.162,0,.292-.118.292-.41V10.9a.09.09,0,0,1,.091-.09h0a.091.091,0,0,1,.088.09v4.534c0,.411.187.746.418.746h.008c.231,0,.419-.334.419-.746v-1.86a.089.089,0,0,1,.09-.09H47.5a.089.089,0,0,1,.09.09v1.86c0,.411.188.746.419.746h.008c.231,0,.419-.334.419-.746V10.9a.09.09,0,0,1,.088-.09h0a.09.09,0,0,1,.091.09v1.471c0,.292.132.41.292.41h.006c.162,0,.292-.118.292-.41v-1.91Z" transform="translate(-7.4 -1.615)" fill="#8e8d97"/>
            <path id="Path_922310" data-name="Path 922310" d="M52.742,9.439a.856.856,0,1,0-.856-.856.856.856,0,0,0,.856.856" transform="translate(-8.411 -1.253)" fill="#8e8d97"/>
            <path id="Path_922311" data-name="Path 922311" d="M54.339,10.462c0-.275-.3-.5-.678-.5h-2.2c-.375,0-.678.223-.678.5v1.91c0,.292.132.41.292.41h.006c.162,0,.292-.118.292-.41V10.9a.09.09,0,0,1,.091-.09h0a.09.09,0,0,1,.087.09v4.534c0,.411.188.746.419.746h.008c.232,0,.419-.334.419-.746v-1.86a.089.089,0,0,1,.09-.09h.134a.089.089,0,0,1,.09.09v1.86c0,.411.188.746.419.746h.008c.231,0,.419-.334.419-.746V10.9a.09.09,0,0,1,.087-.09h0a.09.09,0,0,1,.091.09v1.471c0,.292.131.41.292.41h.006c.162,0,.292-.118.292-.41v-1.91Z" transform="translate(-8.233 -1.615)" fill="#8e8d97"/>
            <path id="Path_922312" data-name="Path 922312" d="M57.875,9.439a.856.856,0,1,0-.856-.856.856.856,0,0,0,.856.856" transform="translate(-9.243 -1.253)" fill="#8e8d97"/>
            <path id="Path_922313" data-name="Path 922313" d="M59.473,10.462c0-.275-.3-.5-.679-.5H56.6c-.375,0-.678.223-.678.5v1.91c0,.292.132.41.293.41h.006c.161,0,.292-.118.292-.41V10.9a.09.09,0,0,1,.091-.09h0a.091.091,0,0,1,.088.09v4.534c0,.411.187.746.418.746h.008c.231,0,.419-.334.419-.746v-1.86a.089.089,0,0,1,.09-.09h.134a.088.088,0,0,1,.09.09v1.86c0,.411.188.746.419.746h.008c.231,0,.419-.334.419-.746V10.9a.091.091,0,0,1,.088-.09h0a.09.09,0,0,1,.092.09v1.471c0,.292.131.41.292.41h.006c.162,0,.293-.118.293-.41v-1.91Z" transform="translate(-9.065 -1.615)" fill="#8e8d97"/>
            <path id="Path_922314" data-name="Path 922314" d="M62.395,16.582H62.4c.231,0,.419-.334.419-.747v-1.86a.089.089,0,0,1,.09-.089h.044c-.04-.06-.078-.122-.122-.18a15.234,15.234,0,0,1-.859-1.267v3.4c0,.412.188.747.419.747" transform="translate(-10.046 -2.017)" fill="#8e8d97"/>
            <path id="Path_922315" data-name="Path 922315" d="M61.347,12.941h.006c.162,0,.292-.118.292-.411V11.9c-.194-.315-.39-.638-.591-.959V12.53c0,.292.131.411.292.411" transform="translate(-9.897 -1.775)" fill="#8e8d97"/>
            <path id="Path_922316" data-name="Path 922316" d="M63.781,16.918h.008A.3.3,0,0,0,64,16.811a6.046,6.046,0,0,0-.641-2.3v1.657c0,.412.188.747.419.747" transform="translate(-10.271 -2.353)" fill="#8e8d97"/>
            <path id="Path_922317" data-name="Path 922317" d="M32.982,16.719h.008c.231,0,.419-.334.419-.747V13.286a10.008,10.008,0,0,0-.846,2.02v.666c0,.412.188.747.419.747" transform="translate(-5.278 -2.154)" fill="#8e8d97"/>
            <path id="Path_922318" data-name="Path 922318" d="M37.379,9.463a.854.854,0,0,0,.445-1.584c-.353.434-.73.852-1.109,1.262a.85.85,0,0,0,.664.323" transform="translate(-5.951 -1.277)" fill="#8e8d97"/>
            <path id="Path_922319" data-name="Path 922319" d="M35.389,12.371c0,.292.131.411.292.411h.006c.161,0,.292-.119.292-.411V10.9a.089.089,0,0,1,.091-.089h0a.089.089,0,0,1,.088.089v4.534c0,.412.188.747.419.747h.008c.231,0,.419-.334.419-.747v-1.86a.089.089,0,0,1,.09-.09h.134a.09.09,0,0,1,.09.09v1.86c0,.412.187.747.419.747h.008c.231,0,.418-.334.418-.747V10.9a.089.089,0,0,1,.088-.089h0a.088.088,0,0,1,.091.089v1.471c0,.292.131.411.292.411h.006c.161,0,.292-.119.292-.411v-1.91c0-.275-.3-.5-.678-.5h-2.2l-.021,0c-.224.24-.444.478-.657.715Z" transform="translate(-5.736 -1.615)" fill="#8e8d97"/>
            <path id="Path_922320" data-name="Path 922320" d="M42.475,9.439a.856.856,0,1,0-.856-.856.856.856,0,0,0,.856.856" transform="translate(-6.746 -1.253)" fill="#8e8d97"/>
            <path id="Path_922321" data-name="Path 922321" d="M44.073,10.462c0-.275-.3-.5-.678-.5H41.2c-.374,0-.678.223-.678.5v1.91c0,.292.132.41.292.41h.006c.162,0,.292-.118.292-.41V10.9a.09.09,0,0,1,.091-.09h0a.091.091,0,0,1,.088.09v4.534c0,.411.187.746.418.746h.009c.231,0,.418-.334.418-.746v-1.86a.089.089,0,0,1,.09-.09h.134a.089.089,0,0,1,.09.09v1.86c0,.411.188.746.419.746h.008c.231,0,.419-.334.419-.746V10.9a.09.09,0,0,1,.088-.09h0a.09.09,0,0,1,.091.09v1.471c0,.292.131.41.292.41h.006c.162,0,.292-.118.292-.41v-1.91Z" transform="translate(-6.568 -1.615)" fill="#8e8d97"/>
            <path id="Path_922322" data-name="Path 922322" d="M39.966,19.429a.856.856,0,1,0-.857-.856.856.856,0,0,0,.857.856" transform="translate(-6.339 -2.872)" fill="#8e8d97"/>
            <path id="Path_922323" data-name="Path 922323" d="M41.563,20.452c0-.275-.3-.5-.678-.5h-2.2c-.375,0-.678.223-.678.5v1.91c0,.292.132.41.292.41h.006c.162,0,.292-.118.292-.41V20.89a.09.09,0,0,1,.091-.09h0a.091.091,0,0,1,.088.09v4.533c0,.412.187.747.418.747h.008c.231,0,.419-.334.419-.747V23.564a.089.089,0,0,1,.09-.09h.134a.089.089,0,0,1,.09.09v1.859c0,.412.188.747.419.747h.008c.231,0,.419-.334.419-.747V20.89a.09.09,0,0,1,.088-.09h0a.09.09,0,0,1,.091.09v1.471c0,.292.131.41.292.41h.006c.162,0,.292-.118.292-.41v-1.91Z" transform="translate(-6.162 -3.235)" fill="#8e8d97"/>
            <path id="Path_922324" data-name="Path 922324" d="M45.1,19.429a.856.856,0,1,0-.856-.856.856.856,0,0,0,.856.856" transform="translate(-7.172 -2.872)" fill="#8e8d97"/>
            <path id="Path_922325" data-name="Path 922325" d="M46.7,20.452c0-.275-.3-.5-.678-.5h-2.2c-.375,0-.678.223-.678.5v1.91c0,.292.132.41.292.41h.006c.162,0,.292-.118.292-.41V20.89a.09.09,0,0,1,.091-.09h0a.091.091,0,0,1,.088.09v4.533c0,.412.187.747.418.747h.008c.231,0,.419-.334.419-.747V23.564a.089.089,0,0,1,.09-.09h.134a.089.089,0,0,1,.09.09v1.859c0,.412.188.747.419.747h.008c.231,0,.419-.334.419-.747V20.89a.09.09,0,0,1,.088-.09h0a.089.089,0,0,1,.09.09v1.471c0,.292.132.41.292.41H46.4c.162,0,.292-.118.292-.41v-1.91Z" transform="translate(-6.994 -3.235)" fill="#8e8d97"/>
            <path id="Path_922326" data-name="Path 922326" d="M50.232,19.429a.856.856,0,1,0-.856-.856.856.856,0,0,0,.856.856" transform="translate(-8.004 -2.872)" fill="#8e8d97"/>
            <path id="Path_922327" data-name="Path 922327" d="M51.83,20.452c0-.275-.3-.5-.678-.5h-2.2c-.375,0-.678.223-.678.5v1.91c0,.292.132.41.292.41h.006c.162,0,.292-.118.292-.41V20.89a.09.09,0,0,1,.091-.09h0a.09.09,0,0,1,.087.09v4.533c0,.412.188.747.419.747h.008c.232,0,.419-.334.419-.747V23.564a.089.089,0,0,1,.09-.09h.134a.089.089,0,0,1,.09.09v1.859c0,.412.188.747.419.747h.008c.231,0,.419-.334.419-.747V20.89a.09.09,0,0,1,.087-.09h0a.089.089,0,0,1,.09.09v1.471c0,.292.132.41.292.41h.006c.162,0,.292-.118.292-.41v-1.91Z" transform="translate(-7.826 -3.235)" fill="#8e8d97"/>
            <path id="Path_922328" data-name="Path 922328" d="M55.365,19.429a.856.856,0,1,0-.856-.856.856.856,0,0,0,.856.856" transform="translate(-8.836 -2.872)" fill="#8e8d97"/>
            <path id="Path_922329" data-name="Path 922329" d="M56.963,20.452c0-.275-.3-.5-.678-.5h-2.2c-.374,0-.678.223-.678.5v1.91c0,.292.132.41.292.41h.006c.162,0,.292-.118.292-.41V20.89a.09.09,0,0,1,.091-.09h0a.091.091,0,0,1,.088.09v4.533c0,.412.187.747.418.747h.009c.23,0,.418-.334.418-.747V23.564a.089.089,0,0,1,.09-.09h.134a.089.089,0,0,1,.09.09v1.859c0,.412.188.747.419.747h.008c.231,0,.419-.334.419-.747V20.89a.09.09,0,0,1,.088-.09h0a.09.09,0,0,1,.091.09v1.471c0,.292.131.41.292.41h.006c.162,0,.292-.118.292-.41v-1.91Z" transform="translate(-8.658 -3.235)" fill="#8e8d97"/>
            <path id="Path_922330" data-name="Path 922330" d="M60.5,19.429a.856.856,0,1,0-.856-.856.856.856,0,0,0,.856.856" transform="translate(-9.668 -2.872)" fill="#8e8d97"/>
            <path id="Path_922331" data-name="Path 922331" d="M62.1,20.452c0-.275-.3-.5-.678-.5h-2.2c-.375,0-.678.223-.678.5v1.91c0,.292.132.41.292.41h.006c.162,0,.292-.118.292-.41V20.89a.09.09,0,0,1,.091-.09h0a.091.091,0,0,1,.088.09v4.533c0,.412.187.747.418.747h.008c.231,0,.419-.334.419-.747V23.564a.089.089,0,0,1,.09-.09h.134a.089.089,0,0,1,.09.09v1.859c0,.412.188.747.419.747h.008c.231,0,.419-.334.419-.747V20.89a.09.09,0,0,1,.088-.09h0a.09.09,0,0,1,.091.09v1.471c0,.292.132.41.292.41H61.8c.162,0,.292-.118.292-.41v-1.91Z" transform="translate(-9.49 -3.235)" fill="#8e8d97"/>
            <path id="Path_922332" data-name="Path 922332" d="M64.111,20a.529.529,0,0,0-.432.463v1.909c0,.292.131.411.292.411h.006c.011,0,.019-.005.03-.006.008-.169.024-.335.026-.508.005-.68.054-1.46.078-2.269" transform="translate(-10.322 -3.242)" fill="#8e8d97"/>
            <path id="Path_922333" data-name="Path 922333" d="M31.585,22.788h.006c.162,0,.292-.118.292-.411V20.469a.482.482,0,0,0-.3-.414,14.658,14.658,0,0,0-.217,2.613.254.254,0,0,0,.219.121" transform="translate(-5.084 -3.251)" fill="#8e8d97"/>
            <path id="Path_922334" data-name="Path 922334" d="M34.832,19.429a.856.856,0,1,0-.856-.856.856.856,0,0,0,.856.856" transform="translate(-5.507 -2.872)" fill="#8e8d97"/>
            <path id="Path_922335" data-name="Path 922335" d="M36.43,20.452c0-.275-.3-.5-.678-.5h-2.2c-.375,0-.678.223-.678.5v1.91c0,.292.131.41.292.41h.006c.162,0,.292-.118.292-.41V20.89a.09.09,0,0,1,.091-.09h0a.09.09,0,0,1,.087.09v4.533c0,.412.188.747.419.747h.008c.231,0,.419-.334.419-.747V23.564a.089.089,0,0,1,.09-.09h.134a.089.089,0,0,1,.09.09v1.859c0,.412.188.747.419.747h.008c.231,0,.419-.334.419-.747V20.89a.09.09,0,0,1,.087-.09h0a.09.09,0,0,1,.091.09v1.471c0,.292.131.41.292.41h.006c.162,0,.292-.118.292-.41v-1.91Z" transform="translate(-5.33 -3.235)" fill="#8e8d97"/>
            <path id="Path_922336" data-name="Path 922336" d="M37.456,29.419a.856.856,0,1,0-.856-.856.856.856,0,0,0,.856.856" transform="translate(-5.933 -4.491)" fill="#8e8d97"/>
            <path id="Path_922337" data-name="Path 922337" d="M38.369,30.79h0a.09.09,0,0,1,.091.09V32.35c0,.292.131.411.292.411h.006c.161,0,.292-.118.292-.411V30.442c0-.276-.3-.5-.677-.5h-2.2c-.375,0-.678.223-.678.5V31.66c.184.227.38.448.59.661V30.88a.09.09,0,0,1,.091-.09h0a.089.089,0,0,1,.088.09V32.5a12.106,12.106,0,0,0,2.007,1.538V30.88a.09.09,0,0,1,.088-.09" transform="translate(-5.755 -4.854)" fill="#8e8d97"/>
            <path id="Path_922338" data-name="Path 922338" d="M42.589,29.419a.856.856,0,1,0-.856-.856.856.856,0,0,0,.856.856" transform="translate(-6.765 -4.491)" fill="#8e8d97"/>
            <path id="Path_922339" data-name="Path 922339" d="M40.928,32.762h.006c.162,0,.292-.118.292-.411V30.881a.09.09,0,0,1,.091-.09h0a.089.089,0,0,1,.087.09v4.334c.277.117.555.231.839.338,0-.045.008-.091.008-.139v-1.86a.089.089,0,0,1,.09-.089h.134a.089.089,0,0,1,.09.089v1.86a1.27,1.27,0,0,0,.028.265c.234.083.47.162.707.237a1.121,1.121,0,0,0,.111-.5V30.881a.089.089,0,0,1,.087-.09h0a.09.09,0,0,1,.091.09v1.471c0,.292.131.411.292.411h.006c.162,0,.292-.118.292-.411V30.443c0-.276-.3-.5-.678-.5h-2.2c-.375,0-.678.223-.678.5v1.909c0,.292.131.411.292.411" transform="translate(-6.587 -4.854)" fill="#8e8d97"/>
            <path id="Path_922340" data-name="Path 922340" d="M47.722,29.419a.856.856,0,1,0-.856-.856.856.856,0,0,0,.856.856" transform="translate(-7.597 -4.491)" fill="#8e8d97"/>
            <path id="Path_922341" data-name="Path 922341" d="M49.32,30.442c0-.275-.3-.5-.678-.5h-2.2c-.375,0-.678.223-.678.5v1.91c0,.292.132.41.292.41h.006c.162,0,.292-.118.292-.41V30.88a.09.09,0,0,1,.091-.09h0a.089.089,0,0,1,.087.09v4.533c0,.413.188.747.419.747h.008c.231,0,.419-.333.419-.747V33.554a.089.089,0,0,1,.09-.09h.134a.089.089,0,0,1,.09.09v1.859c0,.413.188.747.419.747h.008c.231,0,.419-.333.419-.747V30.88a.089.089,0,0,1,.088-.09h0a.09.09,0,0,1,.091.09v1.471c0,.292.132.41.292.41h.006c.162,0,.292-.118.292-.41v-1.91Z" transform="translate(-7.419 -4.854)" fill="#8e8d97"/>
            <path id="Path_922342" data-name="Path 922342" d="M52.855,29.419A.856.856,0,1,0,52,28.563a.856.856,0,0,0,.856.856" transform="translate(-8.429 -4.491)" fill="#8e8d97"/>
            <path id="Path_922343" data-name="Path 922343" d="M51.587,30.79a.089.089,0,0,1,.087.09v4.533c0,.412.188.747.419.747H52.1c.231,0,.418-.334.418-.747v-1.86a.089.089,0,0,1,.09-.089h.134a.089.089,0,0,1,.09.089v1.86a1.154,1.154,0,0,0,.093.464,5.7,5.7,0,0,1,.753-.658V30.88a.089.089,0,0,1,.087-.09h0a.09.09,0,0,1,.091.09V32.35c0,.292.131.411.292.411h.006c.162,0,.292-.118.292-.411V30.442c0-.276-.3-.5-.678-.5h-2.2c-.374,0-.678.223-.678.5V32.35c0,.292.132.411.292.411H51.2c.162,0,.292-.118.292-.411V30.88a.09.09,0,0,1,.091-.09Z" transform="translate(-8.251 -4.854)" fill="#8e8d97"/>
            <path id="Path_922344" data-name="Path 922344" d="M57.988,29.419a.856.856,0,1,0-.856-.856.856.856,0,0,0,.856.856" transform="translate(-9.261 -4.491)" fill="#8e8d97"/>
            <path id="Path_922345" data-name="Path 922345" d="M58.814,32.7V30.881a.089.089,0,0,1,.088-.09h0a.09.09,0,0,1,.091.09v1.471a.677.677,0,0,0,.027.2,6.634,6.634,0,0,0,.564-.481V30.443c0-.276-.3-.5-.678-.5h-2.2c-.374,0-.678.223-.678.5v1.909c0,.292.132.411.292.411h.006c.162,0,.292-.118.292-.411V30.881a.09.09,0,0,1,.091-.09h0a.09.09,0,0,1,.088.09v3A17.125,17.125,0,0,0,58.814,32.7" transform="translate(-9.083 -4.854)" fill="#8e8d97"/>
            <path id="Path_922346" data-name="Path 922346" d="M71.038,46.835,71,46.872c-1.08.975-2.821.539-4.011-1L58.04,34.823,60.4,32.69l10.243,9.871c1.414,1.341,1.471,3.3.39,4.273" transform="translate(-9.408 -5.299)" fill="#3a2292"/>
            <path id="Path_922347" data-name="Path 922347" d="M37.942,6.486a14.411,14.411,0,1,0,16.613.85,14.421,14.421,0,0,0-16.613-.85M54.885,25.929a11.752,11.752,0,1,1,.694-13.549,11.76,11.76,0,0,1-.694,13.549" transform="translate(-5.065 -0.689)" fill="#3a2292"/>
          </g>
        </g>
      </g>
    </g>
  </g>
</svg>
