<svg id="Group_1115093" data-name="Group 1115093" xmlns="http://www.w3.org/2000/svg" xmlns:xlink="http://www.w3.org/1999/xlink" width="400" height="194.97" viewBox="0 0 400 194.97">
  <defs>
    <clipPath id="clip-path">
      <rect id="Rectangle_408103" data-name="Rectangle 408103" width="400" height="194.97" fill="none"/>
    </clipPath>
    <clipPath id="clip-path-3">
      <rect id="Rectangle_408087" data-name="Rectangle 408087" width="27.511" height="20.222" fill="none"/>
    </clipPath>
    <clipPath id="clip-path-4">
      <rect id="Rectangle_408088" data-name="Rectangle 408088" width="22.87" height="22.552" fill="none"/>
    </clipPath>
  </defs>
  <g id="Group_1115092" data-name="Group 1115092" clip-path="url(#clip-path)">
    <g id="Group_1115091" data-name="Group 1115091">
      <g id="Group_1115090" data-name="Group 1115090" clip-path="url(#clip-path)">
        <path id="Path_921406" data-name="Path 921406" d="M51,174.318H20.373a1.273,1.273,0,0,1-1.273-1.273V151.309a2.083,2.083,0,0,1,2.083-2.083H51A1.273,1.273,0,0,1,52.27,150.5v22.545A1.273,1.273,0,0,1,51,174.318" transform="translate(-7.978 -62.329)" fill="#dadef1"/>
        <path id="Path_921407" data-name="Path 921407" d="M57.06,149.242v24.966a.364.364,0,0,0,.728,0V149.242a.364.364,0,0,0-.728,0" transform="translate(-23.833 -62.189)" fill="#b8c1ea"/>
        <rect id="Rectangle_408067" data-name="Rectangle 408067" width="4.618" height="4.618" transform="translate(19.9 86.897)" fill="#fff"/>
        <rect id="Rectangle_408068" data-name="Rectangle 408068" width="4.618" height="4.618" transform="translate(37.351 107.37)" fill="#fff"/>
        <path id="Path_921408" data-name="Path 921408" d="M19.128,173.875,19.1,150.14a1.037,1.037,0,0,1,1.037-1.037l32.134.072" transform="translate(-7.978 -62.278)" fill="none" stroke="#b8c1ea" stroke-miterlimit="10" stroke-width="1"/>
        <path id="Path_921409" data-name="Path 921409" d="M66.871,234.163H15.31a1.273,1.273,0,0,1-1.273-1.273V195.318a2.083,2.083,0,0,1,2.083-2.084H66.871a1.273,1.273,0,0,1,1.273,1.274V232.89a1.273,1.273,0,0,1-1.273,1.273" transform="translate(-5.863 -80.71)" fill="#dadef1"/>
        <path id="Path_921410" data-name="Path 921410" d="M76.351,193.42v40.725a.364.364,0,0,0,.728,0V193.42a.364.364,0,0,0-.728,0" transform="translate(-31.89 -80.641)" fill="#b8c1ea"/>
        <rect id="Rectangle_408069" data-name="Rectangle 408069" width="7.533" height="7.533" transform="translate(22.493 112.524)" fill="#fff"/>
        <rect id="Rectangle_408070" data-name="Rectangle 408070" width="7.533" height="7.533" transform="translate(50.958 145.92)" fill="#fff"/>
        <path id="Path_921411" data-name="Path 921411" d="M14.082,233.44l-.046-38.716a1.691,1.691,0,0,1,1.691-1.691l52.416.117" transform="translate(-5.863 -80.626)" fill="none" stroke="#b8c1ea" stroke-miterlimit="10" stroke-width="1"/>
        <path id="Path_921412" data-name="Path 921412" d="M53.334,304.4H1.773A1.273,1.273,0,0,1,.5,303.131V265.559a2.083,2.083,0,0,1,2.083-2.084H53.334a1.273,1.273,0,0,1,1.273,1.274v38.382a1.273,1.273,0,0,1-1.273,1.273" transform="translate(-0.209 -110.049)" fill="#dadef1"/>
        <path id="Path_921413" data-name="Path 921413" d="M62.814,263.661v40.725a.364.364,0,0,0,.728,0V263.661a.364.364,0,0,0-.728,0" transform="translate(-26.236 -109.979)" fill="#b8c1ea"/>
        <rect id="Rectangle_408071" data-name="Rectangle 408071" width="7.533" height="7.533" transform="translate(14.61 153.426)" fill="#fff"/>
        <rect id="Rectangle_408072" data-name="Rectangle 408072" width="7.533" height="7.533" transform="translate(43.075 186.822)" fill="#fff"/>
        <path id="Path_921414" data-name="Path 921414" d="M.545,303.681.5,264.965a1.691,1.691,0,0,1,1.691-1.691l52.416.117" transform="translate(-0.208 -109.965)" fill="none" stroke="#b8c1ea" stroke-miterlimit="10" stroke-width="1"/>
        <path id="Path_921415" data-name="Path 921415" d="M169.483,37.417H112.628c-.763,0-1.562-.066-2.324,0-.034,0-.07,0-.105,0a.364.364,0,0,0,0,.728h56.855c.764,0,1.562.066,2.324,0,.034,0,.07,0,.105,0a.364.364,0,0,0,0-.728" transform="translate(-45.881 -15.616)" fill="#dadef1"/>
        <path id="Path_921416" data-name="Path 921416" d="M210.908,36.237a2.468,2.468,0,1,0,2.468-2.468,2.469,2.469,0,0,0-2.468,2.468" transform="translate(-88.092 -14.105)" fill="#dadef1"/>
        <path id="Path_921417" data-name="Path 921417" d="M106.9,116.352v33.759a.364.364,0,0,0,.728,0V116.352a.364.364,0,0,0-.728,0" transform="translate(-44.65 -48.451)" fill="#dadef1"/>
        <path id="Path_921418" data-name="Path 921418" d="M102.715,174.009a2.468,2.468,0,1,0,2.468-2.468,2.468,2.468,0,0,0-2.468,2.468" transform="translate(-42.902 -71.649)" fill="#dadef1"/>
        <path id="Path_921419" data-name="Path 921419" d="M482.835,40.622h73.381a4.482,4.482,0,0,0,1,0,.583.583,0,0,1,.127,0l-.364-.364V106.2c0,.879-.073,1.794,0,2.672,0,.038,0,.078,0,.116a.364.364,0,0,0,.728,0V43.046c0-.879.073-1.794,0-2.672,0-.038,0-.078,0-.116a.369.369,0,0,0-.364-.364H485.879c-.963,0-1.956-.072-2.917,0-.042,0-.085,0-.128,0a.364.364,0,0,0,0,.728" transform="translate(-201.524 -16.65)" fill="#dadef1"/>
        <path id="Path_921420" data-name="Path 921420" d="M370.239,27.922c.564-.787,1.13-1.578,1.7-2.364" transform="translate(-154.642 -10.675)" fill="none" stroke="#b8c1ea" stroke-linecap="round" stroke-linejoin="round" stroke-width="3"/>
        <path id="Path_921421" data-name="Path 921421" d="M385.917,6.847a20.157,20.157,0,0,1,8.946-4.8A23.307,23.307,0,0,1,415.4,7.462a23.181,23.181,0,0,1,6.74,11.392" transform="translate(-161.19 -0.627)" fill="none" stroke="#b8c1ea" stroke-linecap="round" stroke-linejoin="round" stroke-width="3" stroke-dasharray="9.817 19.633"/>
        <path id="Path_921422" data-name="Path 921422" d="M449.2,41.019a21.929,21.929,0,0,1-.192,2.9" transform="translate(-187.542 -17.133)" fill="none" stroke="#b8c1ea" stroke-linecap="round" stroke-linejoin="round" stroke-width="3"/>
        <path id="Path_921423" data-name="Path 921423" d="M325.546,28.269c-12.321-3.385-26.561,2.335-33.118,13.3s-4.855,26.218,3.959,35.47" transform="translate(-120.48 -11.402)" fill="none" stroke="#b8c1ea" stroke-linecap="round" stroke-linejoin="round" stroke-width="3" stroke-dasharray="10 20"/>
        <path id="Path_921424" data-name="Path 921424" d="M393.931,47.236A40.644,40.644,0,1,1,353.287,6.592a40.644,40.644,0,0,1,40.644,40.644" transform="translate(-130.585 -2.753)" fill="#b8c1ea"/>
        <path id="Path_921425" data-name="Path 921425" d="M357.9,6.371a33.061,33.061,0,0,0-18.833,7.922,38.587,38.587,0,0,0-9.876,14.054c-3.353,8-3.893,16.945-2.571,25.452,1.26,8.1,4.242,16.106,9.5,22.481a31.129,31.129,0,0,0,19.747,11.326,25.945,25.945,0,0,0,3,.2.364.364,0,0,0,0-.728c-7.783-.069-15.159-3.805-20.5-9.357-5.59-5.814-8.918-13.485-10.536-21.31a48.883,48.883,0,0,1,.914-24.758,38.848,38.848,0,0,1,9.082-15.176A32.208,32.208,0,0,1,357.9,7.1c.462-.045.467-.773,0-.728" transform="translate(-136.146 -2.66)" fill="#f5f5f5"/>
        <path id="Path_921426" data-name="Path 921426" d="M367.12,6.42c-5.015,2.9-9.01,7.6-12.076,12.439a38.665,38.665,0,0,0-3.806,7.642,46.294,46.294,0,0,0-2.188,9.858,100.456,100.456,0,0,0-.01,21.566A67.324,67.324,0,0,0,350.7,68.083a31.975,31.975,0,0,0,3.465,8.992c3.282,5.34,8.705,8.825,14.44,11.062.437.171.626-.533.194-.7-5.085-1.984-9.969-4.986-13.186-9.492A26.936,26.936,0,0,1,351.9,69.7a59.968,59.968,0,0,1-1.948-10.032A106.958,106.958,0,0,1,349.49,39.2a43.119,43.119,0,0,1,5.058-18.1c3.1-5.47,7.427-10.867,12.94-14.053a.364.364,0,0,0-.367-.628" transform="translate(-145.546 -2.66)" fill="#f5f5f5"/>
        <path id="Path_921427" data-name="Path 921427" d="M381.756,87.448c-1.03-10.39-1.634-20.818-1.943-31.254-.316-10.628-.325-21.266-.085-31.9q.2-8.78.625-17.553c.023-.468-.705-.467-.728,0q-.757,15.649-.791,31.322c-.013,10.63.237,21.263.841,31.877q.5,8.764,1.353,17.5c.046.462.774.466.728,0" transform="translate(-158.231 -2.671)" fill="#f5f5f5"/>
        <path id="Path_921428" data-name="Path 921428" d="M382.481,88.034C392.988,79.774,401.126,68,403.046,54.58a58.712,58.712,0,0,0-.882-19.864,45.991,45.991,0,0,0-6.622-16.484A32.3,32.3,0,0,0,381.258,6.373c-.431-.181-.62.524-.193.7a31.142,31.142,0,0,1,12.98,10.289,43.44,43.44,0,0,1,7.006,15.695,60.2,60.2,0,0,1,1.539,19.2,45.927,45.927,0,0,1-6.048,18.679,58.17,58.17,0,0,1-14.576,16.582c-.368.289.15.8.515.515" transform="translate(-159.063 -2.65)" fill="#f5f5f5"/>
        <path id="Path_921429" data-name="Path 921429" d="M381.151,7.1a25.4,25.4,0,0,1,9.175,1.992,44.087,44.087,0,0,1,9.181,5,37.241,37.241,0,0,1,7.455,6.768,29.361,29.361,0,0,1,4.99,9.672c2.506,7.794,2.57,16.276,1.182,24.291-1.333,7.69-4.187,15.673-9.484,21.556a34.455,34.455,0,0,1-9.7,7.348,32.677,32.677,0,0,1-11.737,3.7c-.462.047-.466.775,0,.728A35.691,35.691,0,0,0,402.1,78.96c5.952-5.419,9.388-13.263,11.143-20.994a54.714,54.714,0,0,0,.183-24.882A34.1,34.1,0,0,0,408.9,22.258a32.35,32.35,0,0,0-6.886-7.195c-5.306-4.2-11.868-7.762-18.68-8.562a18.949,18.949,0,0,0-2.188-.129.364.364,0,0,0,0,.728" transform="translate(-159.053 -2.661)" fill="#f5f5f5"/>
        <path id="Path_921430" data-name="Path 921430" d="M312.488,79.325H393.72a.364.364,0,0,0,0-.728H312.488a.364.364,0,0,0,0,.728" transform="translate(-130.373 -32.828)" fill="#f5f5f5"/>
        <path id="Path_921431" data-name="Path 921431" d="M322.718,39.919H388.28c.885,0,1.8.069,2.687,0,.038,0,.077,0,.117,0a.364.364,0,0,0,0-.728H325.521c-.886,0-1.8-.069-2.686,0-.04,0-.079,0-.118,0a.364.364,0,0,0,0,.728" transform="translate(-134.646 -16.356)" fill="#f5f5f5"/>
        <path id="Path_921432" data-name="Path 921432" d="M328.553,118.709h62.465a.364.364,0,0,0,0-.728H328.553a.364.364,0,0,0,0,.728" transform="translate(-137.084 -49.278)" fill="#f5f5f5"/>
        <path id="Path_921433" data-name="Path 921433" d="M82.51,233.35H42.634a1.273,1.273,0,0,1-1.274-1.273V203.343a2.083,2.083,0,0,1,2.084-2.083H82.51a1.273,1.273,0,0,1,1.273,1.273v29.545a1.273,1.273,0,0,1-1.273,1.273" transform="translate(-17.275 -84.063)" fill="#c0afff"/>
        <path id="Path_921434" data-name="Path 921434" d="M90.084,201.351v31.93a.364.364,0,0,0,.728,0v-31.93a.364.364,0,0,0-.728,0" transform="translate(-37.626 -83.954)" fill="#26244a"/>
        <rect id="Rectangle_408073" data-name="Rectangle 408073" width="5.906" height="5.906" transform="translate(35.312 117.197)" fill="#dadef1"/>
        <rect id="Rectangle_408074" data-name="Rectangle 408074" width="5.906" height="5.906" transform="translate(57.63 143.381)" fill="#dadef1"/>
        <path id="Path_921435" data-name="Path 921435" d="M149.9,232.72H110.026a1.273,1.273,0,0,1-1.274-1.273V202.713a2.083,2.083,0,0,1,2.084-2.083H149.9a1.273,1.273,0,0,1,1.273,1.273v29.545a1.273,1.273,0,0,1-1.273,1.273" transform="translate(-45.424 -83.799)" fill="#f2a441"/>
        <path id="Path_921436" data-name="Path 921436" d="M157.476,200.721v31.93a.364.364,0,0,0,.728,0v-31.93a.364.364,0,0,0-.728,0" transform="translate(-65.775 -83.69)" fill="#26244a"/>
        <rect id="Rectangle_408075" data-name="Rectangle 408075" width="5.906" height="5.906" transform="translate(74.555 116.83)" fill="#dadef1"/>
        <rect id="Rectangle_408076" data-name="Rectangle 408076" width="5.906" height="5.906" transform="translate(96.873 143.014)" fill="#dadef1"/>
        <path id="Path_921437" data-name="Path 921437" d="M81.454,288.718H41.578a1.273,1.273,0,0,1-1.274-1.273V258.711a2.083,2.083,0,0,1,2.084-2.083H81.454a1.273,1.273,0,0,1,1.273,1.273v29.545a1.273,1.273,0,0,1-1.273,1.273" transform="translate(-16.834 -107.189)" fill="#f2a441"/>
        <path id="Path_921438" data-name="Path 921438" d="M89.027,256.719V288.65a.364.364,0,0,0,.728,0V256.719a.364.364,0,0,0-.728,0" transform="translate(-37.185 -107.08)" fill="#26244a"/>
        <rect id="Rectangle_408077" data-name="Rectangle 408077" width="5.906" height="5.906" transform="translate(34.696 149.439)" fill="#dadef1"/>
        <rect id="Rectangle_408078" data-name="Rectangle 408078" width="5.906" height="5.906" transform="translate(57.015 175.623)" fill="#dadef1"/>
        <path id="Path_921439" data-name="Path 921439" d="M40.34,288.152,40.3,257.8a1.326,1.326,0,0,1,1.326-1.326l41.1.091" transform="translate(-16.834 -107.123)" fill="none" stroke="#26244a" stroke-miterlimit="10" stroke-width="1"/>
        <path id="Path_921440" data-name="Path 921440" d="M149.914,288.718H110.038a1.273,1.273,0,0,1-1.274-1.273V258.711a2.083,2.083,0,0,1,2.084-2.083h39.067a1.273,1.273,0,0,1,1.273,1.273v29.545a1.273,1.273,0,0,1-1.273,1.273" transform="translate(-45.429 -107.189)" fill="#f2a441"/>
        <path id="Path_921441" data-name="Path 921441" d="M157.488,256.719V288.65a.364.364,0,0,0,.728,0V256.719a.364.364,0,0,0-.728,0" transform="translate(-65.78 -107.08)" fill="#26244a"/>
        <rect id="Rectangle_408079" data-name="Rectangle 408079" width="5.906" height="5.906" transform="translate(74.562 149.439)" fill="#dadef1"/>
        <rect id="Rectangle_408080" data-name="Rectangle 408080" width="5.906" height="5.906" transform="translate(96.88 175.623)" fill="#dadef1"/>
        <path id="Path_921442" data-name="Path 921442" d="M108.8,288.152l-.036-30.356a1.326,1.326,0,0,1,1.326-1.326l41.1.091" transform="translate(-45.429 -107.123)" fill="none" stroke="#26244a" stroke-miterlimit="10" stroke-width="1"/>
        <path id="Path_921443" data-name="Path 921443" d="M121.33,313.919H34.436a1.057,1.057,0,1,1,0-2.114H121.33a1.057,1.057,0,1,1,0,2.114" transform="translate(-13.942 -130.235)" fill="#545dbf"/>
        <path id="Path_921444" data-name="Path 921444" d="M121.33,332.055H34.436a1.057,1.057,0,1,1,0-2.114H121.33a1.057,1.057,0,1,1,0,2.114" transform="translate(-13.942 -137.81)" fill="#545dbf"/>
        <rect id="Rectangle_408081" data-name="Rectangle 408081" width="10.828" height="9.053" transform="translate(20.891 183.078)" fill="#545dbf"/>
        <rect id="Rectangle_408082" data-name="Rectangle 408082" width="10.828" height="9.053" transform="translate(58.701 183.078)" fill="#545dbf"/>
        <rect id="Rectangle_408083" data-name="Rectangle 408083" width="10.828" height="9.053" transform="translate(96.511 183.078)" fill="#545dbf"/>
        <path id="Path_921445" data-name="Path 921445" d="M35.211,315.826h86.737a.364.364,0,0,0,0-.728H35.211a.364.364,0,0,0,0,.728" transform="translate(-14.56 -131.611)" fill="#26244a"/>
        <path id="Path_921446" data-name="Path 921446" d="M35.211,330.044h86.737a.364.364,0,0,0,0-.728H35.211a.364.364,0,0,0,0,.728" transform="translate(-14.56 -137.549)" fill="#26244a"/>
        <path id="Path_921447" data-name="Path 921447" d="M42.615,200.726h80.57a.364.364,0,0,0,0-.728H42.615a.364.364,0,0,0,0,.728" transform="translate(-17.653 -83.535)" fill="#26244a"/>
        <path id="Path_921448" data-name="Path 921448" d="M108.927,232.293V200.371a.364.364,0,0,0-.728,0v31.922a.364.364,0,0,0,.728,0" transform="translate(-45.193 -83.544)" fill="#26244a"/>
        <path id="Path_921449" data-name="Path 921449" d="M281.494,286.077c0,6.237-2.522,14.171-6.269,18.076-1.747,1.82-7.053,1.608-11.155,1.608-9.623,0-17.425-8.813-17.425-19.684s7.8-19.684,17.425-19.684c.732,0,6.909-.1,7.617,0,8.6,1.2,9.807,9.636,9.807,19.68" transform="translate(-103.019 -111.25)" fill="#26244a"/>
        <path id="Path_921450" data-name="Path 921450" d="M294.575,286.112c0,10.871-7.8,19.684-17.424,19.684s-17.425-8.813-17.425-19.684,7.8-19.684,17.425-19.684,17.424,8.813,17.424,19.684" transform="translate(-108.483 -111.282)" fill="#545dbf"/>
        <path id="Path_921451" data-name="Path 921451" d="M291.8,293.9c0,4.876-3.411,8.83-7.617,8.83s-7.618-3.953-7.618-8.83,3.411-8.83,7.618-8.83,7.617,3.953,7.617,8.83" transform="translate(-115.517 -119.068)" fill="#b8c1ea"/>
        <rect id="Rectangle_408084" data-name="Rectangle 408084" width="75.571" height="5.873" transform="translate(120.561 175.036)" fill="#26244a"/>
        <rect id="Rectangle_408085" data-name="Rectangle 408085" width="276.962" height="34.775" transform="translate(106.144 141.522)" fill="#26244a"/>
        <path id="Path_921452" data-name="Path 921452" d="M612.985,286.559c0,6.237-2.522,14.171-6.269,18.076-1.747,1.82-7.053,1.608-11.155,1.608-9.623,0-17.425-8.813-17.425-19.684s7.8-19.684,17.425-19.684c.732,0,6.909-.1,7.617,0,8.6,1.2,9.807,9.636,9.807,19.68" transform="translate(-241.477 -111.451)" fill="#26244a"/>
        <path id="Path_921453" data-name="Path 921453" d="M626.066,286.6c0,10.871-7.8,19.684-17.424,19.684s-17.425-8.813-17.425-19.684,7.8-19.684,17.425-19.684,17.424,8.813,17.424,19.684" transform="translate(-246.94 -111.484)" fill="#545dbf"/>
        <path id="Path_921454" data-name="Path 921454" d="M623.294,294.381c0,4.876-3.411,8.83-7.617,8.83s-7.617-3.953-7.617-8.83,3.41-8.83,7.617-8.83,7.617,3.953,7.617,8.83" transform="translate(-253.975 -119.269)" fill="#b8c1ea"/>
        <path id="Path_921455" data-name="Path 921455" d="M617.388,182.6a10.571,10.571,0,0,0-8.977-7.18l-24.531-2.767-13.562-27.406a8.429,8.429,0,0,0-1.872-2.49c-2.424-2.21-7.5-1.854-9.363-1.861-6.234-.023-15.187-.042-15.187,0v89.816h20.275c2.716,0,4.316-6.906,4.781-9.256.022-.11.034-.172.04-.208s.016-.067.026-.111c1.848-8.088,4.339-9.244,5.735-10.773,2.91-3.186,8.291-4.155,12.211-4.155,16.952-.97,20.259,13.54,20.259,13.54l1.47,8.176h9.193v-42.07a10.876,10.876,0,0,0-.5-3.257" transform="translate(-227.175 -58.84)" fill="#d49cfe"/>
        <rect id="Rectangle_408086" data-name="Rectangle 408086" width="73.99" height="8.594" transform="translate(316.721 131.617)" fill="#9d0388"/>
        <path id="Path_921456" data-name="Path 921456" d="M543.644,225.317h19.3a.368.368,0,0,0,.364-.364,23.831,23.831,0,0,1,.939-6.815,18.532,18.532,0,0,1,7.8-11.177,20.192,20.192,0,0,1,10.306-2.705.369.369,0,0,0,.364-.364l-.014-15.731q0-4.046-.008-8.091a3.354,3.354,0,0,0-.068-1.105,13.94,13.94,0,0,0-.73-1.453l-8.55-17.053-3.506-6.99c-.215-.43-.419-.871-.66-1.288a9.887,9.887,0,0,0-5.832-4.3c-2.677-.8-5.644-.537-8.409-.537h-9.982a.364.364,0,0,0,0,.728c4.849,0,9.7-.009,14.549,0,3.835.008,7.636,1.633,9.411,5.175l2.951,5.884q4.386,8.745,8.77,17.492l1.143,2.28c.074.148.15.295.222.444-.088-.182-.023-.178-.039.052-.055.776,0,1.577,0,2.354q0,2.147,0,4.293.008,8.747.016,17.494c0,.118,0,.235,0,.352l.364-.364c-6.034.106-11.8,2.271-15.451,7.242a23.835,23.835,0,0,0-4.169,11.5,19.585,19.585,0,0,0-.15,2.682l.364-.364h-19.3a.364.364,0,0,0,0,.728" transform="translate(-226.923 -61.526)" fill="#26244a"/>
        <path id="Path_921457" data-name="Path 921457" d="M547.06,176.781q.384-10.239.769-20.477a3.933,3.933,0,0,1,.805-2.734,3.477,3.477,0,0,1,2.5-.664l7.854,0c2.217,0,4.539.025,6.491,1.13a12.5,12.5,0,0,1,4.426,5.016c4.023,7.262,6.376,12.3,9.422,18.56a3.455,3.455,0,0,1-2.879,5.036c-8,.093-17.868.722-24.639.253a5.584,5.584,0,0,1-3.481-1.055c-1.3-1.18-1.341-3.254-1.272-5.062" transform="translate(-228.488 -63.865)" fill="#dadef1"/>
        <g id="Group_1115086" data-name="Group 1115086" transform="translate(320.168 98.951)" opacity="0.5">
          <g id="Group_1115085" data-name="Group 1115085">
            <g id="Group_1115084" data-name="Group 1115084" clip-path="url(#clip-path-3)">
              <path id="Path_921458" data-name="Path 921458" d="M577.327,178.167l-13.771,11.8c-3.874.069-12.118.663-13.74-.759l23.292-19.282Z" transform="translate(-549.816 -169.925)" fill="#fff"/>
            </g>
          </g>
        </g>
        <g id="Group_1115089" data-name="Group 1115089" transform="translate(318.552 92)" opacity="0.5">
          <g id="Group_1115088" data-name="Group 1115088">
            <g id="Group_1115087" data-name="Group 1115087" clip-path="url(#clip-path-4)">
              <path id="Path_921459" data-name="Path 921459" d="M569.91,161.173l-22.87,19.367.164-5.458,20.508-17.094Z" transform="translate(-547.04 -157.989)" fill="#fff"/>
            </g>
          </g>
        </g>
        <path id="Path_921460" data-name="Path 921460" d="M598.652,197.031v-9.785l2.509,5.173a.954.954,0,0,1,.095.415v3.248a.949.949,0,0,1-.949.949Z" transform="translate(-250.046 -78.209)" fill="#26244a"/>
        <path id="Path_921461" data-name="Path 921461" d="M588.045,186.574c.922.952,1.727,2.052,2.575,3.069q1.951,2.342,3.9,4.688l.889,1.07c.3.36.812-.157.515-.515q-3.18-3.83-6.371-7.652c-.326-.39-.638-.808-.992-1.174-.327-.337-.841.178-.515.515" transform="translate(-245.572 -77.668)" fill="#26244a"/>
        <path id="Path_921462" data-name="Path 921462" d="M582.271,182.682V190.7a1.69,1.69,0,0,0,1.58,1.782h2.74a1.691,1.691,0,0,0,1.581-1.782v-7.886a1.7,1.7,0,0,0-1.513-1.781l-2.74-.132a1.68,1.68,0,0,0-1.647,1.781" transform="translate(-243.204 -75.558)" fill="#c0afff"/>
        <path id="Path_921463" data-name="Path 921463" d="M656.111,200.465s-1.3,6.392,1.272,7.572,7,.5,7,.5-.958-7.374-8.276-8.069" transform="translate(-273.908 -83.73)" fill="#9d0388"/>
        <path id="Path_921464" data-name="Path 921464" d="M662.214,287.048h-9.84l-4.752-21.1h14.592a3.481,3.481,0,0,1,3.481,3.481v14.136a3.481,3.481,0,0,1-3.481,3.481" transform="translate(-270.5 -111.083)" fill="#26244a"/>
        <path id="Path_921465" data-name="Path 921465" d="M666.011,255.311h-4.332a2.564,2.564,0,0,1,0-5.127h4.332Z" transform="translate(-275.3 -104.497)" fill="#dadef1"/>
        <rect id="Rectangle_408089" data-name="Rectangle 408089" width="58.394" height="114.063" transform="translate(92.723 59.568)" fill="#b8c1ea"/>
        <path id="Path_921466" data-name="Path 921466" d="M259.51,213.568V102.344H418.664a7.271,7.271,0,0,1,7.271,7.271V213.568H348.764v-2.537a20.257,20.257,0,0,0-20.257-20.257h-12.2c-8.12,0-12.866,5.438-13.837,13.5l-3.139,9.294Z" transform="translate(-108.392 -42.747)" fill="#dadef1"/>
        <rect id="Rectangle_408090" data-name="Rectangle 408090" width="49.018" height="35.823" transform="translate(97.786 68.118)" fill="#545dbf"/>
        <rect id="Rectangle_408091" data-name="Rectangle 408091" width="49.018" height="62.689" transform="translate(97.786 103.941)" fill="#545dbf"/>
        <path id="Path_921467" data-name="Path 921467" d="M216.944,195.266,167.925,178.5h49.018Z" transform="translate(-70.139 -74.554)" fill="#26244a"/>
        <path id="Path_921468" data-name="Path 921468" d="M256.477,276.588a1.042,1.042,0,1,1-1.042-1.042,1.042,1.042,0,0,1,1.042,1.042" transform="translate(-106.255 -115.09)" fill="#f2a441"/>
        <path id="Path_921469" data-name="Path 921469" d="M256.477,281.889a1.042,1.042,0,1,1-1.042-1.042,1.042,1.042,0,0,1,1.042,1.042" transform="translate(-106.255 -117.305)" fill="#f2a441"/>
        <path id="Path_921470" data-name="Path 921470" d="M256.477,287.191a1.042,1.042,0,1,1-1.042-1.042,1.042,1.042,0,0,1,1.042,1.042" transform="translate(-106.255 -119.519)" fill="#f2a441"/>
        <path id="Path_921471" data-name="Path 921471" d="M163.669,276.588a1.042,1.042,0,1,1-1.042-1.042,1.042,1.042,0,0,1,1.042,1.042" transform="translate(-67.491 -115.09)" fill="#f2a441"/>
        <path id="Path_921472" data-name="Path 921472" d="M163.669,281.889a1.042,1.042,0,1,1-1.042-1.042,1.042,1.042,0,0,1,1.042,1.042" transform="translate(-67.491 -117.305)" fill="#f2a441"/>
        <path id="Path_921473" data-name="Path 921473" d="M163.669,287.191a1.042,1.042,0,1,1-1.042-1.042,1.042,1.042,0,0,1,1.042,1.042" transform="translate(-67.491 -119.519)" fill="#f2a441"/>
        <path id="Path_921474" data-name="Path 921474" d="M168.428,165.191h48.359a.364.364,0,0,0,0-.728H168.428a.364.364,0,0,0,0,.728" transform="translate(-70.202 -68.693)" fill="#26244a"/>
        <path id="Path_921475" data-name="Path 921475" d="M168.428,150.951h48.359a.364.364,0,0,0,0-.728H168.428a.364.364,0,0,0,0,.728" transform="translate(-70.202 -62.745)" fill="#26244a"/>
        <path id="Path_921476" data-name="Path 921476" d="M168.428,136.71h48.359a.364.364,0,0,0,0-.728H168.428a.364.364,0,0,0,0,.728" transform="translate(-70.202 -56.797)" fill="#26244a"/>
        <path id="Path_921477" data-name="Path 921477" d="M168.051,123.43H216.41a.364.364,0,0,0,0-.728H168.051a.364.364,0,0,0,0,.728" transform="translate(-70.045 -51.25)" fill="#26244a"/>
        <rect id="Rectangle_408092" data-name="Rectangle 408092" width="50.685" height="3.483" transform="translate(96.119 166.63)" fill="#dadef1"/>
        <path id="Path_921478" data-name="Path 921478" d="M368.731,285.5c0,6.237-2.522,14.171-6.269,18.076-1.747,1.82-7.053,1.608-11.155,1.608-9.623,0-17.425-8.813-17.425-19.684s7.8-19.684,17.425-19.684c.732,0,6.909-.1,7.617,0,8.6,1.2,9.807,9.636,9.807,19.68" transform="translate(-139.456 -111.01)" fill="#26244a"/>
        <path id="Path_921479" data-name="Path 921479" d="M381.812,285.537c0,10.871-7.8,19.684-17.424,19.684s-17.425-8.813-17.425-19.684,7.8-19.684,17.425-19.684,17.424,8.813,17.424,19.684" transform="translate(-144.92 -111.042)" fill="#545dbf"/>
        <path id="Path_921480" data-name="Path 921480" d="M379.04,293.323c0,4.876-3.411,8.83-7.617,8.83s-7.617-3.953-7.617-8.83,3.41-8.83,7.617-8.83,7.617,3.953,7.617,8.83" transform="translate(-151.955 -118.827)" fill="#b8c1ea"/>
        <path id="Path_921481" data-name="Path 921481" d="M214.094,263.062H174.218a1.273,1.273,0,0,1-1.274-1.273V233.055a2.083,2.083,0,0,1,2.084-2.083h39.067a1.273,1.273,0,0,1,1.273,1.273v29.545a1.273,1.273,0,0,1-1.273,1.273" transform="translate(-72.235 -96.473)" fill="#f2a441"/>
        <path id="Path_921482" data-name="Path 921482" d="M221.667,231.063v31.931a.364.364,0,0,0,.728,0V231.063a.364.364,0,0,0-.728,0" transform="translate(-92.586 -96.364)" fill="#26244a"/>
        <rect id="Rectangle_408093" data-name="Rectangle 408093" width="5.906" height="5.906" transform="translate(111.935 134.499)" fill="#dadef1"/>
        <rect id="Rectangle_408094" data-name="Rectangle 408094" width="5.906" height="5.906" transform="translate(134.254 160.683)" fill="#dadef1"/>
        <path id="Path_921483" data-name="Path 921483" d="M210.67,172.061h-8.125a.95.95,0,1,1,0-1.9h8.125a.95.95,0,0,1,0,1.9" transform="translate(-84.202 -71.073)" fill="#26244a"/>
        <path id="Path_921484" data-name="Path 921484" d="M260.129,143.809c8.7.153,16.007-5.682,21.753-11.638,6.448-6.684,11.355-14.678,17.878-21.3a34.21,34.21,0,0,1,12.223-8.491c.436-.161.247-.865-.193-.7-8.136,3-14.106,9.912-19.368,16.51-5.793,7.263-11.209,14.888-18.91,20.3-3.964,2.788-8.472,4.68-13.383,4.593a.364.364,0,0,0,0,.728" transform="translate(-108.504 -42.457)" fill="#fff"/>
        <path id="Path_921485" data-name="Path 921485" d="M337.487,103.343c-7.294,6.261-14.37,12.78-21.092,19.653a238.937,238.937,0,0,0-18.8,21.566q-4.379,5.707-8.339,11.72a55.678,55.678,0,0,0-6.587,12.448,21.471,21.471,0,0,0-.795,12.133,15.181,15.181,0,0,0,5.771,8.867c3.564,2.476,8.159,2.615,12.2,1.34,4.386-1.385,8.026-4.344,11.267-7.514,7.006-6.853,13.361-14.332,20.632-20.924,7.069-6.409,15.008-12.07,24.06-15.294a43.7,43.7,0,0,1,13.636-2.641c3.685-.082,8.039.553,10.576,3.518,3.136,3.667,1.547,8.843-.507,12.611a61.636,61.636,0,0,1-8.222,11.178c-6.17,6.943-13.37,12.877-20.7,18.546q-2.769,2.142-5.562,4.252c-.368.28-.006.912.367.629,7.354-5.587,14.728-11.2,21.361-17.651a90.9,90.9,0,0,0,9.176-10.288c2.649-3.5,5.4-7.354,6.316-11.73.811-3.868-.383-7.755-3.87-9.857-3.326-2.006-7.484-2.124-11.244-1.812-9.185.764-17.857,4.587-25.432,9.7-8.09,5.46-15,12.437-21.708,19.474-3.345,3.51-6.6,7.134-10.12,10.472-3.441,3.264-7.4,6.187-12.144,7.12a12.311,12.311,0,0,1-11.823-3.649,16.542,16.542,0,0,1-3.867-10.671c-.069-4.693,1.682-9.251,3.865-13.33a115.609,115.609,0,0,1,7.747-12.08,221.005,221.005,0,0,1,18.378-22.495c6.537-7.049,13.466-13.728,20.643-20.12q2.643-2.354,5.329-4.657c.356-.306-.161-.819-.515-.515" transform="translate(-117.507 -43.126)" fill="#fff"/>
        <path id="Path_921486" data-name="Path 921486" d="M424.061,247.245A58.656,58.656,0,0,1,458.6,220.77c3.16-.916,6.362-1.693,9.472-2.775a31.505,31.505,0,0,0,8.384-4.226,31.826,31.826,0,0,0,6.258-6.2,69.794,69.794,0,0,0,5.764-9.35c1.9-3.472,3.763-6.968,5.72-10.41a.364.364,0,0,0-.629-.367c-1.728,3.04-3.379,6.122-5.053,9.191a96.727,96.727,0,0,1-5.081,8.724,33.789,33.789,0,0,1-6.216,6.9,29.073,29.073,0,0,1-8.628,4.781c-5.855,2.141-12.018,3.222-17.754,5.722a59.284,59.284,0,0,0-14.552,9.1,62.332,62.332,0,0,0-12.85,15.011c-.246.4.384.767.628.367" transform="translate(-176.837 -78.216)" fill="#fff"/>
        <path id="Path_921487" data-name="Path 921487" d="M417.292,103.526c-4.791,4.5-10.606,10.585-8.446,17.82.945,3.167,3.557,5.369,6.388,6.864a31.937,31.937,0,0,0,10.028,3.216c7.444,1.152,14.994.136,22.294-1.442,7.906-1.71,15.752-4.194,23.838-4.928,3.8-.345,8.515-.257,11.56,2.394,2.576,2.241,3.391,5.913,4.313,9.048a.364.364,0,0,0,.7-.194c-.806-2.738-1.525-5.7-3.268-8.027-1.815-2.418-4.709-3.5-7.627-3.9a35.774,35.774,0,0,0-10.922.68c-3.94.691-7.83,1.633-11.717,2.573-7.48,1.807-15.039,3.61-22.784,3.561a38.7,38.7,0,0,1-10.843-1.511c-3.278-.979-6.758-2.452-9.156-4.974-2.881-3.029-3.02-7.351-1.518-11.083,1.554-3.86,4.7-6.8,7.673-9.586.342-.321-.174-.836-.515-.515" transform="translate(-170.574 -43.199)" fill="#fff"/>
        <path id="Path_921488" data-name="Path 921488" d="M259.571,264.99a63.07,63.07,0,0,1,9.905-2.148,26.271,26.271,0,0,1,9.159.175,14.467,14.467,0,0,1,7.289,3.88,35.924,35.924,0,0,1,4.4,5.92,50.176,50.176,0,0,1,3.685,6.835c.184.43.811.059.628-.367a49.366,49.366,0,0,0-3.409-6.392,40.815,40.815,0,0,0-4.45-6.148c-4.047-4.444-10.3-5.341-16.007-4.778a61.674,61.674,0,0,0-11.394,2.321.364.364,0,0,0,.193.7" transform="translate(-108.231 -109.356)" fill="#fff"/>
        <path id="Path_921489" data-name="Path 921489" d="M463.444,282.684a52.227,52.227,0,0,1,26.833-13.678c3.349-.6,6.755-.83,10.127-1.276a38.972,38.972,0,0,0,10.633-2.612c.428-.188.058-.815-.367-.629-6.325,2.775-13.417,2.589-20.112,3.732a52.9,52.9,0,0,0-27.627,13.948c-.339.325.176.839.515.515" transform="translate(-193.311 -110.458)" fill="#fff"/>
        <path id="Path_921490" data-name="Path 921490" d="M154.878,279.1c4.37-.138,8.76-.011,13.13.01q12.984.063,25.969.159,13.888.094,27.777.2,9.462.067,18.924.124a41.6,41.6,0,0,0,8.507-.585,13.874,13.874,0,0,0,9.336-6.1c1.748-2.818,2.336-6.392,3.615-9.233,1.319-2.931,3.216-5.491,6.279-6.759,3.494-1.447,7.528-1.364,11.239-1.412s7.694-.027,11.086,1.7a13.534,13.534,0,0,1,3.867,2.881,14.8,14.8,0,0,1,2.46,4.149c.017.037.217.5.07.151.048.114.095.229.141.345q.148.37.288.744c.225.6.428,1.216.637,1.826.288.84.572,1.675.917,2.492a18.23,18.23,0,0,0,3.514,5.54,9.49,9.49,0,0,0,6.88,3.1c.742,0,1.484-.01,2.226-.015l21.1-.147,27.89-.2,17.708-.124.893-.006c3.412-.024,3.421-5.33,0-5.306l-12.762.09-26.993.189-24.216.168c-1.957.014-3.916.051-5.873.04h-.165c-.127,0-.253-.009-.38-.012-.424-.011.377.094-.027,0-.275-.065-.541-.136-.809-.227.459.155-.388-.213-.534-.3-.128-.078-.7-.511-.328-.2a9.025,9.025,0,0,1-.7-.637c-.194-.194-.373-.4-.557-.6-.078-.086-.15-.178-.224-.268.359.437-.1-.137-.135-.19a17.228,17.228,0,0,1-1.472-2.531c-.081-.169-.151-.344-.235-.511-.194-.392.231.657.084.2-.053-.166-.126-.333-.186-.5-1.041-2.874-1.9-5.923-3.547-8.529a18.237,18.237,0,0,0-8.8-7.061c-3.844-1.534-8.138-1.615-12.222-1.552-4,.062-8.226.113-12.019,1.515a16.583,16.583,0,0,0-8.564,7.139c-1.819,3.019-2.512,6.408-3.83,9.629a8.742,8.742,0,0,1-2.462,3.533,10.319,10.319,0,0,1-4.251,1.8,25.108,25.108,0,0,1-5.449.477c-5.013,0-10.026-.054-15.038-.089q-13.354-.093-26.707-.189-13.714-.1-27.428-.178c-5.728-.033-11.457-.084-17.185-.056-.479,0-.959,0-1.438.017-3.406.107-3.421,5.413,0,5.306" transform="translate(-63.62 -104.497)" fill="#b8c1ea"/>
        <path id="Path_921491" data-name="Path 921491" d="M611.633,156.794a2.468,2.468,0,1,1-2.469-2.468,2.469,2.469,0,0,1,2.469,2.468" transform="translate(-253.406 -64.459)" fill="#dadef1"/>
        <path id="Path_921492" data-name="Path 921492" d="M482.006,38.771a2.468,2.468,0,1,1-2.468-2.468,2.468,2.468,0,0,1,2.468,2.468" transform="translate(-199.263 -15.163)" fill="#dadef1"/>
        <path id="Path_921493" data-name="Path 921493" d="M113.841,81.563,83.906,81.5a4.682,4.682,0,0,1-4.673-4.692l.117-60.081a4.683,4.683,0,0,1,4.692-4.674l29.935.058a4.682,4.682,0,0,1,4.673,4.692l-.117,60.081a4.683,4.683,0,0,1-4.692,4.674" transform="translate(-33.094 -5.036)" fill="#26244a"/>
        <rect id="Rectangle_408095" data-name="Rectangle 408095" width="52.384" height="35.79" transform="translate(47.83 65.685) rotate(-89.888)" fill="#fff"/>
        <path id="Path_921494" data-name="Path 921494" d="M114.155,17.983l-8.912-.1a.4.4,0,0,1,.009-.794l8.912.1a.4.4,0,1,1-.009.793" transform="translate(-43.794 -7.137)" fill="#545dbf"/>
        <path id="Path_921495" data-name="Path 921495" d="M114.514,119.074a3.383,3.383,0,1,1-3.344-3.422,3.383,3.383,0,0,1,3.344,3.422" transform="translate(-45.005 -48.305)" fill="#545dbf"/>
        <path id="Path_921496" data-name="Path 921496" d="M116.26,72.448l-23.3-.045a1.273,1.273,0,0,1-1.271-1.276l.031-16.193a2.083,2.083,0,0,1,2.087-2.079L116.3,52.9a1.273,1.273,0,0,1,1.271,1.276l-.033,17a1.274,1.274,0,0,1-1.276,1.271" transform="translate(-38.298 -22.077)" fill="#f2a441"/>
        <path id="Path_921497" data-name="Path 921497" d="M121.163,52.864q-.019,9.726-.038,19.452a.364.364,0,0,0,.728,0q.019-9.726.038-19.452a.364.364,0,0,0-.728,0" transform="translate(-50.592 -21.933)" fill="#26244a"/>
        <rect id="Rectangle_408096" data-name="Rectangle 408096" width="3.598" height="3.598" transform="matrix(0.002, -1, 1, 0.002, 60.262, 34.386)" fill="#dadef1"/>
        <rect id="Rectangle_408097" data-name="Rectangle 408097" width="3.598" height="3.598" transform="matrix(0.002, -1, 1, 0.002, 73.827, 50.363)" fill="#dadef1"/>
        <path id="Path_921498" data-name="Path 921498" d="M117.917,74.9A9.01,9.01,0,1,1,107.1,68.165,9.01,9.01,0,0,1,117.917,74.9" transform="translate(-41.822 -28.372)" fill="#9d0388"/>
        <path id="Path_921499" data-name="Path 921499" d="M107.355,81.236l2.635,2.933a1.467,1.467,0,0,0,2.059,0l4.035-4.377.57-.618a1.456,1.456,0,0,0-2.059-2.059l-4.036,4.378-.57.618h2.059l-2.635-2.934a1.467,1.467,0,0,0-2.059,0,1.489,1.489,0,0,0,0,2.059" transform="translate(-44.667 -32.034)" fill="#fff"/>
        <path id="Path_921500" data-name="Path 921500" d="M94.57,41.835H117.4a.364.364,0,0,0,0-.728H94.57a.364.364,0,0,0,0,.728" transform="translate(-39.353 -17.17)" fill="#26244a"/>
        <path id="Path_921501" data-name="Path 921501" d="M108.025,37.333h7.156a.364.364,0,0,0,0-.728h-7.156a.364.364,0,0,0,0,.728" transform="translate(-44.973 -15.289)" fill="#26244a"/>
        <path id="Path_921502" data-name="Path 921502" d="M642.683,140.766a8.2,8.2,0,0,0-7.041,7.29,8.6,8.6,0,0,0,.987,5.084,6.921,6.921,0,0,0,.7,1l4.865,6.041a1.887,1.887,0,0,0,2.962-.03l3.383-4.378c.32-.413.914-1.222,1.432-1.954a8.364,8.364,0,0,0,1.6-4.736c0-.013,0-.026,0-.039a8.117,8.117,0,0,0-8.884-8.281m1.664,11.546a3.531,3.531,0,1,1,2.535-2.628,3.471,3.471,0,0,1-2.535,2.628" transform="translate(-265.474 -58.774)" fill="#dadef1"/>
        <path id="Path_921503" data-name="Path 921503" d="M341.024,9.84a12.439,12.439,0,0,0-7.5,13.429,13.052,13.052,0,0,0,3.421,7.076,10.466,10.466,0,0,0,1.412,1.2l9.482,6.976a2.863,2.863,0,0,0,4.335-1.193l3.266-7.737c.309-.73.867-2.147,1.342-3.423a12.7,12.7,0,0,0,.507-7.569l-.015-.057c-1.89-7.2-9.387-11.376-16.249-8.7m6.922,16.3a5.268,5.268,0,0,1-7.629-4.666,5.169,5.169,0,1,1,10.328-.174,5.216,5.216,0,0,1-2.7,4.84" transform="translate(-139.247 -3.77)" fill="#9d0388"/>
        <path id="Path_921504" data-name="Path 921504" d="M479.834,250.655H453.815a1.273,1.273,0,0,1-1.273-1.273V231.13a2.083,2.083,0,0,1,2.083-2.083h25.209a1.273,1.273,0,0,1,1.273,1.273v19.062a1.273,1.273,0,0,1-1.273,1.273" transform="translate(-189.018 -95.669)" fill="#f2a441"/>
        <path id="Path_921505" data-name="Path 921505" d="M485.146,229.026v21.5a.364.364,0,0,0,.728,0v-21.5a.364.364,0,0,0-.728,0" transform="translate(-202.636 -95.513)" fill="#26244a"/>
        <rect id="Rectangle_408098" data-name="Rectangle 408098" width="3.977" height="3.977" transform="translate(271.083 133.378)" fill="#dadef1"/>
        <rect id="Rectangle_408099" data-name="Rectangle 408099" width="3.977" height="3.977" transform="translate(286.111 151.009)" fill="#dadef1"/>
        <path id="Path_921506" data-name="Path 921506" d="M452.566,250.275l-.024-20.44a.892.892,0,0,1,.892-.893l27.673.062" transform="translate(-189.018 -95.625)" fill="none" stroke="#26244a" stroke-miterlimit="10" stroke-width="1"/>
        <path id="Path_921507" data-name="Path 921507" d="M485.387,305.779H436.222a1.273,1.273,0,0,1-1.273-1.273v-35.76a2.083,2.083,0,0,1,2.083-2.083h48.355a1.273,1.273,0,0,1,1.273,1.273v36.57a1.273,1.273,0,0,1-1.273,1.273" transform="translate(-181.67 -111.38)" fill="#f2a441"/>
        <path id="Path_921508" data-name="Path 921508" d="M494.476,266.829V305.75a.364.364,0,0,0,.728,0V266.829a.364.364,0,0,0-.728,0" transform="translate(-206.533 -111.303)" fill="#26244a"/>
        <rect id="Rectangle_408100" data-name="Rectangle 408100" width="7.199" height="7.199" transform="translate(266.963 155.283)" fill="#dadef1"/>
        <rect id="Rectangle_408101" data-name="Rectangle 408101" width="7.199" height="7.199" transform="translate(294.168 187.2)" fill="#dadef1"/>
        <path id="Path_921509" data-name="Path 921509" d="M434.993,305.09l-.044-37a1.616,1.616,0,0,1,1.616-1.616l50.1.112" transform="translate(-181.67 -111.3)" fill="none" stroke="#26244a" stroke-miterlimit="10" stroke-width="1"/>
        <path id="Path_921510" data-name="Path 921510" d="M9.367,334.294H403.414a.364.364,0,0,0,0-.728H9.367a.364.364,0,0,0,0,.728" transform="translate(-3.766 -139.324)" fill="#26244a"/>
      </g>
    </g>
  </g>
</svg>
