<svg xmlns="http://www.w3.org/2000/svg" xmlns:xlink="http://www.w3.org/1999/xlink" width="150" height="150" viewBox="0 0 150 150">
  <defs>
    <clipPath id="clip-path">
      <rect id="Rectangle_406617" data-name="Rectangle 406617" width="150" height="150" fill="#170551" stroke="rgba(0,0,0,0)" stroke-miterlimit="10" stroke-width="1"/>
    </clipPath>
    <clipPath id="clip-path-2">
      <rect id="Rectangle_401492" data-name="Rectangle 401492" width="85.933" height="85.933" transform="translate(0.019 0.249)" fill="#fff" stroke="#707070" stroke-width="1"/>
    </clipPath>
    <clipPath id="clip-path-3">
      <rect id="Rectangle_408106" data-name="Rectangle 408106" width="76.481" height="76.055" fill="#fff"/>
    </clipPath>
  </defs>
  <g id="Group_1115064" data-name="Group 1115064" transform="translate(-314.001 -7639.334)">
    <g id="Group_1113263" data-name="Group 1113263" transform="translate(314.001 7639.334)">
      <g id="Group_1112834" data-name="Group 1112834" transform="translate(0 0)" clip-path="url(#clip-path)">
        <path id="Path_917479" data-name="Path 917479" d="M148.595,89.278l-7.345-6.045a66.057,66.057,0,0,0-.749-21.11l6.879-6.55a4.185,4.185,0,0,0,.92-4.774l-6.975-15.255a4.194,4.194,0,0,0-3.805-2.445c-.136,0-.272.006-.409.019l-9.472.919a67.058,67.058,0,0,0-15.454-14.4l.233-9.5a4.187,4.187,0,0,0-2.724-4.025L93.973.264A4.175,4.175,0,0,0,92.512,0h0a4.168,4.168,0,0,0-3.232,1.527L83.231,8.875a66.05,66.05,0,0,0-21.11.749l-6.55-6.879a4.206,4.206,0,0,0-3.032-1.3,4.153,4.153,0,0,0-1.741.38L35.543,8.8a4.188,4.188,0,0,0-2.425,4.212l.919,9.474a67.046,67.046,0,0,0-14.4,15.455l-9.494-.233-.1,0a4.2,4.2,0,0,0-3.922,2.727L.262,56.151a4.191,4.191,0,0,0,1.26,4.692l7.351,6.049A66.049,66.049,0,0,0,9.623,88l-6.88,6.55a4.187,4.187,0,0,0-.919,4.774L8.8,114.581a4.2,4.2,0,0,0,3.806,2.446c.135,0,.27-.006.406-.019l9.474-.92a67.062,67.062,0,0,0,15.454,14.4l-.233,9.494a4.187,4.187,0,0,0,2.725,4.026l15.719,5.856a4.192,4.192,0,0,0,4.694-1.263l6.047-7.347A66.046,66.046,0,0,0,88,140.5l6.55,6.879a4.2,4.2,0,0,0,3.031,1.3,4.16,4.16,0,0,0,1.74-.379l15.258-6.976a4.19,4.19,0,0,0,2.425-4.213l-.919-9.473a67.041,67.041,0,0,0,14.4-15.455l9.5.233h.1A4.2,4.2,0,0,0,144,109.694l5.856-15.72a4.187,4.187,0,0,0-1.265-4.7" transform="translate(0 -0.477)" fill="#170551" stroke="#7d0ede" stroke-miterlimit="10" stroke-width="3"/>
      </g>
    </g>
    <g id="Group_1111310" data-name="Group 1111310" transform="translate(346.356 7671.085)">
      <rect id="Rectangle_401104" data-name="Rectangle 401104" width="80.066" height="81.358" transform="translate(2.933 0)" fill="none"/>
      <g id="Group_1098697" data-name="Group 1098697" transform="translate(0 0)" clip-path="url(#clip-path-2)">
        <g id="Group_1115097" data-name="Group 1115097" transform="translate(5.019 5.248)">
          <g id="Group_1115096" data-name="Group 1115096" clip-path="url(#clip-path-3)">
            <path id="Path_921515" data-name="Path 921515" d="M71.828,29.508a4.747,4.747,0,0,1,4.3,3.022,20.277,20.277,0,0,1-.005,7.525c-.676,1.906-2.362,2.637-4.213,3a4.318,4.318,0,0,1-4.461,4.615c-1.468,11.062-9.984,20.507-20.569,23.716-.31,2.29-1.641,4.152-4.06,4.469a62.575,62.575,0,0,1-9.6.019,4.38,4.38,0,0,1,.025-8.724c1.8-.218,9.552-.235,10.951.372.672.292,1.743,1.54,2.135,1.561.646.035,4.414-1.778,5.215-2.22A27.825,27.825,0,0,0,65.2,47.764c-1.661-.734-2.974-1.329-3.426-3.281.32-5.146-.471-10.886-.022-15.96.184-2.083,1.543-3.188,3.51-3.6a27.442,27.442,0,0,0-54.021,0,3.973,3.973,0,0,1,3.5,3.392c.534,4.991-.4,10.881,0,15.971-.622,5.093-10.778,4.478-10.159-1.224C2.8,42.689,1.148,42.037.442,40.206c-.513-1.331-.5-4.921-.351-6.423a4.652,4.652,0,0,1,4.582-4.275c-.306-2.831,1.7-4.366,4.278-4.8C11.993,7.083,28.657-3.35,46.015.975,57.439,3.821,65.523,13.224,67.55,24.71c2.626.413,4.56,1.954,4.278,4.8M8.784,27.169c-1.273.185-1.724.765-1.9,2.038a94.333,94.333,0,0,0,0,14.177c.076.566.37,1.467.908,1.717.972.451,4.732.469,4.746-1.273V28.763c-.251-1.6-2.445-1.785-3.757-1.594m57.3,0c-.972.131-1.958.5-2.121,1.595.359,4.637-.527,10.1-.013,14.639.247,2.179,1.969,2.054,3.826,1.859,1.17-.123,1.574-.5,1.846-1.654-.342-4.5.508-9.8.015-14.2-.244-2.183-1.546-2.508-3.553-2.237m-61.4,4.753a2.044,2.044,0,0,0-2.021,1.15c-.073,2.432-1.523,7.234,2.021,7.6Zm67.139,8.748a2.471,2.471,0,0,0,2.022-1.149c.078-2.368,1.527-7.4-2.022-7.6ZM33.048,69.583c-1.892.571-1.763,3.573.185,3.877a62.961,62.961,0,0,0,9.378,0c2.04-.318,2.045-3.59,0-3.911-2.791-.437-6.654.259-9.563.034" transform="translate(0 0.001)" fill="#fff"/>
            <path id="Path_921516" data-name="Path 921516" d="M98.072,112.544H92.058a1.785,1.785,0,0,1-1.426-1.635c.511-5.874-.665-12.86,0-18.6a1.825,1.825,0,0,1,.536-1.214l27.582-.213a1.208,1.208,0,0,1,.973.558v12.028l.328.328h6.342c.443,0,.739,1.226.776,1.63.531,5.762-.426,12.323,0,18.172a1.688,1.688,0,0,1-1.646,1.853c-4.322.5-9.567-.393-13.991.006-1.33.245-5.382,4.43-7.066,5.186-.706.317-1.8.061-1.8-.713v-4.374c0-.68-4.593.462-4.593-.875ZM117.536,93.08H93.042v17.058h14.106l5.577,4.155v-3.171a2.136,2.136,0,0,1,.984-.984h3.827Zm7.217,13.122h-5.03v5.577c0,.173-1.028.765-1.2.765h-3.39v4.483a1.628,1.628,0,0,1-.585.737,1.561,1.561,0,0,1-1.1-.143c-1.394-.545-6.518-5.077-6.949-5.077h-6.233v10.5h3.827a3.7,3.7,0,0,1,.984.765v3.39l5.577-4.155h14.106Z" transform="translate(-70.647 -70.999)" fill="#fff"/>
          </g>
        </g>
      </g>
    </g>
  </g>
</svg>
