<svg id="Group_1116043" data-name="Group 1116043" xmlns="http://www.w3.org/2000/svg" xmlns:xlink="http://www.w3.org/1999/xlink" width="274.107" height="259.697" viewBox="0 0 274.107 259.697">
  <defs>
    <clipPath id="clip-path">
      <rect id="Rectangle_408685" data-name="Rectangle 408685" width="274.107" height="259.697" fill="none"/>
    </clipPath>
  </defs>
  <g id="Group_1116042" data-name="Group 1116042" clip-path="url(#clip-path)">
    <path id="Path_923748" data-name="Path 923748" d="M450.435,246.434a36.7,36.7,0,0,0,3.15-7.741,37.261,37.261,0,0,0,1.329-8.291l-7.278-1.048a29.178,29.178,0,0,0-.8-7.491l6.891-2.677A36.512,36.512,0,0,0,446,204.555l-5.866,4.618a27.212,27.212,0,0,0-5.65-4.717l3.049-6.954a33.86,33.86,0,0,0-7.44-3.276,33.329,33.329,0,0,0-7.97-1.382l-1.008,7.571a26,26,0,0,0-7.2.832l-2.574-7.169a34.3,34.3,0,0,0-14.064,8.042l4.439,6.1a27.922,27.922,0,0,0-4.535,5.878l-6.684-3.172a36.7,36.7,0,0,0-3.15,7.74,37.275,37.275,0,0,0-1.328,8.291l7.277,1.048a29.2,29.2,0,0,0,.8,7.491l-6.891,2.677a36.5,36.5,0,0,0,7.731,14.631l5.866-4.618a27.226,27.226,0,0,0,5.65,4.717l-3.049,6.954a33.877,33.877,0,0,0,7.44,3.277,33.351,33.351,0,0,0,7.97,1.382l1.007-7.571a25.982,25.982,0,0,0,7.2-.833l2.573,7.169a34.294,34.294,0,0,0,14.064-8.043l-4.439-6.1a27.922,27.922,0,0,0,4.535-5.878Zm-34.829-.365c-9.231-2.79-14.54-12.837-11.857-22.441s12.34-15.126,21.572-12.335,14.54,12.837,11.858,22.441-12.34,15.126-21.572,12.335m1.275-4.565a13.439,13.439,0,0,1-8.744-16.548,12.77,12.77,0,0,1,15.907-9.1,13.439,13.439,0,0,1,8.744,16.548,12.77,12.77,0,0,1-15.907,9.1" transform="translate(-180.806 -90.326)" fill="#e9d6fa"/>
    <path id="Path_923749" data-name="Path 923749" d="M77.4,17.663a14.574,14.574,0,0,1,0,20.012,13.248,13.248,0,0,1-19.237,0,14.574,14.574,0,0,1,0-20.012,13.248,13.248,0,0,1,19.237,0m.163-.17a13.457,13.457,0,0,0-19.563,0,14.8,14.8,0,0,0,0,20.351,13.457,13.457,0,0,0,19.563,0,14.8,14.8,0,0,0,0-20.351" transform="translate(-25.27 -6.22)" fill="#a8aeba"/>
    <path id="Path_923750" data-name="Path 923750" d="M78.017,23.653a10.667,10.667,0,0,1,0,14.664,9.7,9.7,0,0,1-14.1,0,10.667,10.667,0,0,1,0-14.664,9.7,9.7,0,0,1,14.1,0m.179-.186a9.953,9.953,0,0,0-14.453,0,10.95,10.95,0,0,0,0,15.036,9.953,9.953,0,0,0,14.453,0,10.95,10.95,0,0,0,0-15.036" transform="translate(-28.457 -9.535)" fill="#a8aeba"/>
    <path id="Path_923751" data-name="Path 923751" d="M77.676,20.181a10.12,10.12,0,0,1,0,13.911l3.505,3.647a15.425,15.425,0,0,0,0-21.206,14.022,14.022,0,0,0-20.384,0L64.3,20.181a9.2,9.2,0,0,1,13.373,0" transform="translate(-28.477 -5.687)" fill="#d49cfe"/>
    <path id="Path_923752" data-name="Path 923752" d="M76.523,40.765V38.943a4.913,4.913,0,0,1-2.654-.794l.416-1.209a4.5,4.5,0,0,0,2.5.776,1.847,1.847,0,0,0,2.064-1.768c0-.993-.677-1.606-1.96-2.147-1.769-.722-2.862-1.552-2.862-3.122a2.915,2.915,0,0,1,2.619-2.9V25.952h1.075V27.7a4.494,4.494,0,0,1,2.255.632l-.434,1.191a4.076,4.076,0,0,0-2.185-.613c-1.335,0-1.838.83-1.838,1.552,0,.938.642,1.407,2.15,2.057,1.787.758,2.688,1.7,2.688,3.3a3.1,3.1,0,0,1-2.74,3.067v1.877Z" transform="translate(-34.6 -12.156)" fill="#d49cfe"/>
    <path id="Path_923753" data-name="Path 923753" d="M406.551,90.4H392.438a.666.666,0,0,1-.666-.666V75a.666.666,0,0,1,.666-.666h14.114a.666.666,0,0,1,.666.666V89.732a.666.666,0,0,1-.666.666" transform="translate(-183.503 -34.816)" fill="#c0afff"/>
    <path id="Path_923754" data-name="Path 923754" d="M443.73,90.4H429.617a.666.666,0,0,1-.666-.666V75a.666.666,0,0,1,.666-.666H443.73A.666.666,0,0,1,444.4,75V89.732a.666.666,0,0,1-.666.666" transform="translate(-200.918 -34.816)" fill="#c0afff"/>
    <path id="Path_923755" data-name="Path 923755" d="M480.908,90.4H466.795a.666.666,0,0,1-.666-.666V75a.666.666,0,0,1,.666-.666h14.114a.666.666,0,0,1,.666.666V89.732a.666.666,0,0,1-.666.666" transform="translate(-218.332 -34.816)" fill="#c0afff"/>
    <path id="Path_923756" data-name="Path 923756" d="M406.551,129.736H392.438a.666.666,0,0,1-.666-.666V114.335a.666.666,0,0,1,.666-.666h14.114a.666.666,0,0,1,.666.666v14.736a.666.666,0,0,1-.666.666" transform="translate(-183.503 -53.242)" fill="#c0afff"/>
    <path id="Path_923757" data-name="Path 923757" d="M443.73,129.736H429.617a.666.666,0,0,1-.666-.666V114.335a.666.666,0,0,1,.666-.666H443.73a.666.666,0,0,1,.666.666v14.736a.666.666,0,0,1-.666.666" transform="translate(-200.918 -53.242)" fill="#c0afff"/>
    <path id="Path_923758" data-name="Path 923758" d="M480.908,129.736H466.795a.666.666,0,0,1-.666-.666V114.335a.666.666,0,0,1,.666-.666h14.114a.666.666,0,0,1,.666.666v14.736a.666.666,0,0,1-.666.666" transform="translate(-218.332 -53.242)" fill="#c0afff"/>
    <path id="Path_923759" data-name="Path 923759" d="M398.971,90.151a.781.781,0,0,1-.551-.23l-3.531-3.516a.854.854,0,0,1-.025-1.173.775.775,0,0,1,1.128-.026l2.941,2.929,7.006-7.984a.777.777,0,0,1,1.127-.054.854.854,0,0,1,.051,1.172L399.56,89.88a.781.781,0,0,1-.561.27h-.027" transform="translate(-184.848 -37.416)" fill="#dfe3e8"/>
    <path id="Path_923760" data-name="Path 923760" d="M435.877,129.723a.781.781,0,0,1-.551-.23l-3.531-3.516a.854.854,0,0,1-.025-1.173.775.775,0,0,1,1.128-.026l2.941,2.929,7.006-7.984a.777.777,0,0,1,1.127-.054.854.854,0,0,1,.05,1.172l-7.557,8.611a.783.783,0,0,1-.561.27h-.027" transform="translate(-202.134 -55.951)" fill="#dfe3e8"/>
    <path id="Path_923761" data-name="Path 923761" d="M472.783,90.151a.781.781,0,0,1-.551-.23L468.7,86.405a.854.854,0,0,1-.025-1.173.775.775,0,0,1,1.128-.026l2.941,2.929,7.006-7.984a.777.777,0,0,1,1.127-.054.854.854,0,0,1,.051,1.172l-7.557,8.611a.781.781,0,0,1-.561.27h-.027" transform="translate(-219.421 -37.416)" fill="#dfe3e8"/>
    <path id="Path_923762" data-name="Path 923762" d="M400.695,129.9a6.622,6.622,0,1,1,6.36-6.617,6.5,6.5,0,0,1-6.36,6.617m0-11.575a4.962,4.962,0,1,0,4.765,4.958,4.87,4.87,0,0,0-4.765-4.958" transform="translate(-184.703 -54.646)" fill="#dfe3e8"/>
    <path id="Path_923763" data-name="Path 923763" d="M437.874,90.229a6.622,6.622,0,1,1,6.36-6.616,6.5,6.5,0,0,1-6.36,6.616m0-11.574a4.961,4.961,0,1,0,4.765,4.958,4.87,4.87,0,0,0-4.765-4.958" transform="translate(-202.118 -36.064)" fill="#dfe3e8"/>
    <path id="Path_923764" data-name="Path 923764" d="M475.052,129.567a6.622,6.622,0,1,1,6.36-6.616,6.5,6.5,0,0,1-6.36,6.616m0-11.574a4.961,4.961,0,1,0,4.765,4.958,4.87,4.87,0,0,0-4.765-4.958" transform="translate(-219.532 -54.49)" fill="#dfe3e8"/>
    <rect id="Rectangle_408675" data-name="Rectangle 408675" width="38.535" height="2.201" transform="translate(224.707 84.242)" fill="#c0afff"/>
    <rect id="Rectangle_408676" data-name="Rectangle 408676" width="38.535" height="2.201" transform="translate(224.707 88.066)" fill="#c0afff"/>
    <rect id="Rectangle_408677" data-name="Rectangle 408677" width="38.535" height="2.201" transform="translate(224.707 91.891)" fill="#c0afff"/>
    <path id="Path_923765" data-name="Path 923765" d="M427.383,340.38a2.345,2.345,0,1,1-2.343-2.438A2.392,2.392,0,0,1,427.383,340.38Z" transform="translate(-197.988 -158.29)" fill="none" stroke="#a8aeba" stroke-miterlimit="10" stroke-width="1"/>
    <ellipse id="Ellipse_11913" data-name="Ellipse 11913" cx="2.358" cy="2.453" rx="2.358" ry="2.453" transform="translate(162.684 215.408)" fill="none" stroke="#a8aeba" stroke-miterlimit="10" stroke-width="1"/>
    <path id="Path_923766" data-name="Path 923766" d="M134.292,431.7l-2.506,4.164h5.392Z" transform="translate(-61.728 -202.205)" fill="#dfe3e8"/>
    <path id="Path_923767" data-name="Path 923767" d="M398.868,163.154l-2.506,4.164h5.392Z" transform="translate(-185.654 -76.42)" fill="#dfe3e8"/>
    <path id="Path_923768" data-name="Path 923768" d="M291.174,438.163l-2.506,4.164h5.392Z" transform="translate(-135.21 -205.233)" fill="#dfe3e8"/>
    <path id="Path_923769" data-name="Path 923769" d="M6.174,229.732,3.668,233.9H9.06Z" transform="translate(-1.718 -107.605)" fill="#dfe3e8"/>
    <path id="Path_923770" data-name="Path 923770" d="M39.186,82.333H36.5v-2.8a.523.523,0,1,0-1.045,0v2.8H32.77a.544.544,0,0,0,0,1.087h2.686v2.794a.523.523,0,1,0,1.045,0V83.42h2.686a.544.544,0,0,0,0-1.087" transform="translate(-15.105 -37.001)" fill="#dfe3e8"/>
    <path id="Path_923771" data-name="Path 923771" d="M463.894,388.8c.8-11.012-.091-21.813,3.941-32.249,1.145-2.962,3.753-7.634,7.36-7.793,5.571-.247,2.16,11.4,1.15,15.754a66.619,66.619,0,0,1-2.622,8.268c-1.783,4.751-4.463,11.393-6.489,16.022" transform="translate(-217.285 -163.352)" fill="#548282"/>
    <path id="Path_923772" data-name="Path 923772" d="M448.342,388.736c-1.754-4.669-3.47-9.353-5.2-14.029-1.539-4.148-3.329-8.2-4.573-12.464-.946-3.243-3.392-10.675.189-12.96,6.376-4.068,11.471,11.674,12.144,17.264.886,7.369.695,14.78.8,22.188" transform="translate(-204.626 -163.292)" fill="#4a7373"/>
    <path id="Path_923773" data-name="Path 923773" d="M437.322,399.313s-3.726-4.951-5.406-7.273c-3.754-5.187-8.382-10.82-7.691-16.651a4.7,4.7,0,0,1,1.928-3.629,4.357,4.357,0,0,1,2.676-.531c3.051.3,5.783,4.911,7.155,7.273,2.688,4.626,6.849,20.811,6.849,20.811" transform="translate(-198.672 -173.869)" fill="#548282"/>
    <path id="Path_923774" data-name="Path 923774" d="M443.561,356.008c4.548,9.568,8.987,27.287,9.1,36.188" transform="translate(-207.761 -166.752)" fill="none" stroke="#dee0e0" stroke-miterlimit="10" stroke-width="1"/>
    <path id="Path_923775" data-name="Path 923775" d="M430.262,376.679c4,8,12.14,25.2,12.14,25.2" transform="translate(-201.532 -176.434)" fill="none" stroke="#fff" stroke-miterlimit="10" stroke-width="1"/>
    <path id="Path_923776" data-name="Path 923776" d="M476.308,353.521c-3.266,7.575-7.741,24-9.543,37.532" transform="translate(-218.63 -165.587)" fill="none" stroke="#fff" stroke-miterlimit="10" stroke-width="1"/>
    <path id="Path_923777" data-name="Path 923777" d="M470.473,397.706s1.862-8.63,3.151-13.529c1.4-5.327,5.987-13.482,10.806-15.8a3.874,3.874,0,0,1,3.52-.291,3.163,3.163,0,0,1,1.345,1.8c.82,2.492-3.193,10.362-4.573,12.571-2.7,4.325-6.573,11.2-9.642,15.25" transform="translate(-220.367 -172.262)" fill="#4a7373"/>
    <path id="Path_923778" data-name="Path 923778" d="M488.052,372.177c-5.7,5.146-13.321,21.557-15.452,27.592" transform="translate(-221.363 -174.325)" fill="none" stroke="#dfe3e8" stroke-miterlimit="10" stroke-width="1"/>
    <path id="Path_923779" data-name="Path 923779" d="M441.722,421.668h22.855l-4.771,30.2H446.557Z" transform="translate(-206.9 -197.507)" fill="#d49cfe"/>
    <path id="Path_923780" data-name="Path 923780" d="M239.395,483.64H17.035a2.772,2.772,0,1,1,0-5.53h222.36a2.772,2.772,0,1,1,0,5.53" transform="translate(-6.591 -223.944)" fill="#dfe3e8"/>
    <rect id="Rectangle_408678" data-name="Rectangle 408678" width="171.048" height="168.326" transform="translate(32.023 39.514)" fill="#d49cfe"/>
    <path id="Path_923781" data-name="Path 923781" d="M113.635,340.181H77.43V302.516h36.205Zm-34.473-1.8H111.9V304.318H79.162Z" transform="translate(-36.268 -141.697)" fill="#fff"/>
    <path id="Path_923782" data-name="Path 923782" d="M178.482,272.721H142.277V235.058h36.205Zm-34.473-1.8H176.75V236.86H144.009Z" transform="translate(-66.642 -110.1)" fill="#fff"/>
    <path id="Path_923783" data-name="Path 923783" d="M243.328,272.721h-36.2V235.058h36.2Zm-34.472-1.8H241.6V236.86h-32.74Z" transform="translate(-97.016 -110.1)" fill="#fff"/>
    <path id="Path_923784" data-name="Path 923784" d="M178.482,205.262H142.277V167.6h36.205Zm-34.473-1.8H176.75V169.4H144.009Z" transform="translate(-66.642 -78.502)" fill="#fff"/>
    <path id="Path_923785" data-name="Path 923785" d="M178.482,340.181H142.277V302.516h36.205Zm-34.473-1.8H176.75V304.318H144.009Z" transform="translate(-66.642 -141.697)" fill="#fff"/>
    <path id="Path_923786" data-name="Path 923786" d="M243.328,340.181h-36.2V302.516h36.2Zm-34.472-1.8H241.6V304.318h-32.74Z" transform="translate(-97.016 -141.697)" fill="#fff"/>
    <path id="Path_923787" data-name="Path 923787" d="M308.175,340.181H271.969V302.516h36.206Zm-34.474-1.8h32.742V304.318H273.7Z" transform="translate(-127.389 -141.697)" fill="#fff"/>
    <path id="Path_923788" data-name="Path 923788" d="M113.635,272.721H77.43V235.058h36.205Zm-34.473-1.8H111.9V236.86H79.162Z" transform="translate(-36.268 -110.1)" fill="#fff"/>
    <path id="Path_923789" data-name="Path 923789" d="M113.635,205.262H77.43V167.6h36.205Zm-34.473-1.8H111.9V169.4H79.162Z" transform="translate(-36.268 -78.502)" fill="#fff"/>
    <path id="Path_923790" data-name="Path 923790" d="M113.635,137.8H77.43V100.137h36.205ZM79.162,136H111.9V101.939H79.162Z" transform="translate(-36.268 -46.904)" fill="#fff"/>
    <path id="Path_923791" data-name="Path 923791" d="M205.387,137.691l-27-28.792L147.3,75.762,132.827,60.328" transform="translate(-62.215 -28.257)" fill="none" stroke="#548282" stroke-miterlimit="10" stroke-width="4"/>
    <path id="Path_923792" data-name="Path 923792" d="M136.745,59.389l-5.1-.165-.162,5.1-2.094-2.233.163-5.1,5.1.163Z" transform="translate(-60.606 -26.695)" fill="#548282"/>
    <path id="Path_923793" data-name="Path 923793" d="M261.95,112.4a22.081,22.081,0,0,0,1.9-4.658,22.434,22.434,0,0,0,.8-4.99l-4.38-.631a17.564,17.564,0,0,0-.482-4.508L263.931,96a21.972,21.972,0,0,0-4.653-8.806l-3.53,2.779a16.389,16.389,0,0,0-3.4-2.839l1.836-4.185A20.381,20.381,0,0,0,249.7,80.98a20.1,20.1,0,0,0-4.8-.832L244.3,84.7a15.664,15.664,0,0,0-4.334.5l-1.549-4.315a20.645,20.645,0,0,0-8.465,4.841l2.671,3.672a16.81,16.81,0,0,0-2.729,3.538l-4.023-1.91a22.1,22.1,0,0,0-1.9,4.659,22.4,22.4,0,0,0-.8,4.99l4.38.632a17.563,17.563,0,0,0,.482,4.508l-4.147,1.611a21.962,21.962,0,0,0,4.653,8.806l3.53-2.779a16.37,16.37,0,0,0,3.4,2.839l-1.835,4.185a20.39,20.39,0,0,0,4.478,1.972,20.072,20.072,0,0,0,4.8.831l.606-4.556a15.645,15.645,0,0,0,4.334-.5l1.549,4.315a20.642,20.642,0,0,0,8.465-4.84l-2.671-3.672a16.811,16.811,0,0,0,2.729-3.538Zm-20.962-.22a10.968,10.968,0,0,1-7.136-13.506,10.422,10.422,0,0,1,12.983-7.424,10.968,10.968,0,0,1,7.136,13.506,10.422,10.422,0,0,1-12.983,7.424m.768-2.748a8.089,8.089,0,0,1-5.263-9.96A7.685,7.685,0,0,1,246.067,94a8.088,8.088,0,0,1,5.262,9.96,7.685,7.685,0,0,1-9.574,5.474" transform="translate(-110.208 -38.213)" fill="#e9d6fa"/>
    <path id="Path_923794" data-name="Path 923794" d="M83.9,326.455,78.559,399.6l6.318,4.184s-17.362.939-17.927.348.712-4.643.712-4.643l-2.9-73.21Z" transform="translate(-30.335 -152.828)" fill="#fc7f4f"/>
    <path id="Path_923795" data-name="Path 923795" d="M71.362,469.079l-2.585-2.645.366-1.389,3.973,4.041,1.913.007,6.739-3.461,7.316,4.764a1.038,1.038,0,0,1-.529,1.9l-9.833-.037-3.139-2.271-.891,0-.007,2.259-6.4-.024.011-3.157Z" transform="translate(-31.981 -217.824)" fill="#30394d"/>
    <path id="Path_923796" data-name="Path 923796" d="M50.149,325.874,34.4,399.411l6.318,4.184s-17.362.939-17.927.348.712-4.643.712-4.643l4.6-73.426Z" transform="translate(-10.608 -152.637)" fill="#fc7f4f"/>
    <path id="Path_923797" data-name="Path 923797" d="M25.4,469.079l-2.585-2.645.366-1.389,3.973,4.041,1.913.007,6.739-3.461,7.315,4.764a1.038,1.038,0,0,1-.529,1.9l-9.833-.037-3.138-2.271-.892,0-.007,2.259-6.4-.024.011-3.157Z" transform="translate(-10.455 -217.824)" fill="#30394d"/>
    <path id="Path_923798" data-name="Path 923798" d="M24.158,274.1c-12.412,11.283-8.894,53.057-8.894,53.057s14.713,3.038,26.537,2.288a147.035,147.035,0,0,0,21.15-2.888c-2.828-35.937-6.653-53-10.469-58.935" transform="translate(-6.934 -125.351)" fill="#9d0388"/>
    <path id="Path_923799" data-name="Path 923799" d="M61.84,160.994s-1.487,9.3-.689,11.272,7.113.284,8.733-.088a53.111,53.111,0,0,0-3.03-10.535" transform="translate(-28.533 -75.409)" fill="#262739"/>
    <path id="Path_923800" data-name="Path 923800" d="M55.682,176.459l.1,5.019s-3.056,2.893-6.128,2.183c-3.237-.749-3.352-2.5-3.352-2.5l2.191-9.616" transform="translate(-21.689 -80.351)" fill="#fc7f4f"/>
    <path id="Path_923801" data-name="Path 923801" d="M61.006,161.458c1.069,6.306.781,11.441-3.276,11.818-4.275.4-7.993-2.667-7.273-7.855.756-5.452,9.611-7.547,10.549-3.963" transform="translate(-23.592 -74.793)" fill="#fc7f4f"/>
    <path id="Path_923802" data-name="Path 923802" d="M58.457,182.972a6.951,6.951,0,0,1-6.349-3.413" transform="translate(-24.407 -84.104)" fill="none" stroke="#af3586" stroke-linejoin="round" stroke-width="0.75"/>
    <path id="Path_923803" data-name="Path 923803" d="M51.672,169.763a0,0,0,0,0,0,0,0,0,0,1,0,0,0" transform="translate(-24.202 -79.515)" fill="#e3835d"/>
    <path id="Path_923804" data-name="Path 923804" d="M51.636,169.751c0,.019.009.037.013.056a.02.02,0,0,0,.039-.011l-.014-.056a.02.02,0,0,0-.024-.014.02.02,0,0,0-.014.024" transform="translate(-24.186 -79.498)" fill="#e3835d"/>
    <path id="Path_923805" data-name="Path 923805" d="M49.435,158.14c3.585.347,5.993-.207,8.114-1.473-.708-2.071-2.453-4.9-6.293-4.323a6.486,6.486,0,0,0-6.831-.2,8.92,8.92,0,0,0-4.216,5.124c-1.392,3.735-.97,8.957-.474,11.8a36.152,36.152,0,0,0,7.64.117c-.084.018-.2-8.747,2.059-11.052" transform="translate(-18.391 -70.847)" fill="#262739"/>
    <path id="Path_923806" data-name="Path 923806" d="M53.951,171.939a1.118,1.118,0,0,0-.7-.9c-.931-.383-1.567.8-1.5,1.767a2.716,2.716,0,0,0,.607,1.576c.5.642,1.189.813,1.6.072" transform="translate(-24.236 -80.078)" fill="#fc7f4f"/>
    <path id="Path_923807" data-name="Path 923807" d="M64.894,170.383s1.092,2.289.9,2.865-1.553.483-1.553.483" transform="translate(-30.09 -79.806)" fill="none" stroke="#af3586" stroke-linejoin="round" stroke-width="0.5"/>
    <path id="Path_923808" data-name="Path 923808" d="M63.57,178.39l-3.755.091a2.414,2.414,0,0,0,2.542,1.872c1.468-.14,1.213-1.963,1.213-1.963" transform="translate(-28.017 -83.557)" fill="#fff"/>
    <path id="Path_923809" data-name="Path 923809" d="M67.684,169.384c0,.088.011.175.02.263.01.1.019.206.038.308a.209.209,0,0,0,.1.125.217.217,0,0,0,.133.025.2.2,0,0,0,.121-.058.2.2,0,0,0,.062-.148,4.159,4.159,0,0,0-.112-.564.183.183,0,0,0-.359.048" transform="translate(-31.703 -79.254)" fill="#182b6d"/>
    <path id="Path_923810" data-name="Path 923810" d="M66.4,167.209a.944.944,0,0,1,1.406,0" transform="translate(-31.1 -78.168)" fill="none" stroke="#182b6d" stroke-linecap="round" stroke-linejoin="round" stroke-width="0.5"/>
    <path id="Path_923811" data-name="Path 923811" d="M59.557,170.352c0,.087,0,.173.005.259s.006.173.017.259a.232.232,0,0,0,.062.148.209.209,0,0,0,.3,0,.207.207,0,0,0,.061-.148c-.006-.1-.024-.206-.039-.308-.012-.087-.027-.173-.044-.259a.181.181,0,0,0-.084-.11.193.193,0,0,0-.116-.022.184.184,0,0,0-.158.18" transform="translate(-27.896 -79.707)" fill="#182b6d"/>
    <path id="Path_923812" data-name="Path 923812" d="M59.262,167.6a1.761,1.761,0,0,0-1.93.567" transform="translate(-26.854 -78.458)" fill="none" stroke="#182b6d" stroke-linecap="round" stroke-linejoin="round" stroke-width="0.5"/>
    <path id="Path_923813" data-name="Path 923813" d="M89.235,202.787c20.2.594,46.556-10.032,46.556-10.032l-1.987-8.09s-23,5.376-43.409,3.374" transform="translate(-41.797 -86.495)" fill="#fc7f4f"/>
    <path id="Path_923814" data-name="Path 923814" d="M168.149,182.967c2.875-.611,11-3.862,11.363-3.364s-2.488,1.681-2.119,2.025,4.848-1.158,5.081-.551c.315.825-4.336,2.1-4.336,2.1s5.146-1.123,5.227-.312c.056.575-3.844,1.627-5.3,2.231,1.642-.44,4.364-.812,4.412-.214s-2.6,1.371-4.6,2.083c1.282-.319,3.637-.763,3.7-.214s-6.263,2.922-12.292,4.905" transform="translate(-78.76 -84.101)" fill="#fc7f4f"/>
    <path id="Path_923815" data-name="Path 923815" d="M181.807,184.862a12.535,12.535,0,0,1-2.9,3.04" transform="translate(-83.799 -86.588)" fill="none" stroke="#af3586" stroke-linejoin="round" stroke-width="0.75"/>
    <path id="Path_923816" data-name="Path 923816" d="M55.222,192.693c2.393-4.849,8.117-6.326,11.884-5.966a93.51,93.51,0,0,1,12.975,2.108l-1.735,16.335-15.1,1.511" transform="translate(-25.866 -87.438)" fill="#ff85e7"/>
    <path id="Path_923817" data-name="Path 923817" d="M47.332,189.8c-2.3.866-2.73,1.848-4.5,1.587a23.035,23.035,0,0,1-5.746-1.669c2-.205-6.193,2.865-11.511,11.086-.922,8.152,1.25,17.056,3.928,37.695A43.834,43.834,0,0,0,58.547,233s.385-9.271,1.413-16.268c1.928-6.615-.438-13.241-4.591-18.268-.652-3.382-8.037-8.663-8.037-8.663" transform="translate(-11.878 -88.859)" fill="#ff85e7"/>
    <path id="Path_923818" data-name="Path 923818" d="M46.166,185.677l6.268,3.882-2.884,4.5-4.565-5.114Z" transform="translate(-21.07 -86.97)" fill="#fff"/>
    <path id="Path_923819" data-name="Path 923819" d="M59,190.267l2.7-3.078,1.39,1.432-.736,4.94Z" transform="translate(-27.634 -87.678)" fill="#fff"/>
    <path id="Path_923820" data-name="Path 923820" d="M88.164,218.354c-.444-4-3.687-9.754-3.687-9.754" transform="translate(-39.568 -97.707)" fill="none" stroke="#345b5a" stroke-miterlimit="10" stroke-width="1"/>
    <path id="Path_923821" data-name="Path 923821" d="M150.131,252.9l-12.7,7.132-17.386.247-4.515,26.158,22.751-.242,7.542-7.633Z" transform="translate(-54.116 -118.455)" fill="#3d034b"/>
    <path id="Path_923822" data-name="Path 923822" d="M36.3,241.737c14.355,14.8,40.572,25.785,40.572,25.785l3.866-7.319s-20.321-12.433-33.9-28.406" transform="translate(-17.002 -108.572)" fill="#fc7f4f"/>
    <path id="Path_923823" data-name="Path 923823" d="M111.139,282.687c2.5,1.6,10.568,5.006,10.5,5.625s-2.921-.542-2.878-.029,4.3,2.6,4.07,3.211c-.312.826-4.545-1.551-4.545-1.551s4.495,2.84,4.02,3.489c-.337.46-3.875-1.545-5.333-2.139,1.487.847,3.719,2.511,3.361,2.982s-2.8-.846-4.725-1.75c1.145.679,3.156,2.029,2.845,2.478s-6.491-2.322-12.195-5.161" transform="translate(-49.773 -132.409)" fill="#fc7f4f"/>
    <path id="Path_923824" data-name="Path 923824" d="M26.086,209.651c4.933-1.837,9.564,1.719,12.077,4.661a100.512,100.512,0,0,1,8.085,10.766L34.886,235.2l-5.715-3.386" transform="translate(-12.219 -97.963)" fill="#ff85e7"/>
    <path id="Path_923825" data-name="Path 923825" d="M53.971,227.385s-6.281-11.744-11.4-13.309" transform="translate(-19.941 -100.272)" fill="none" stroke="#345b5a" stroke-miterlimit="10" stroke-width="1"/>
    <path id="Path_923826" data-name="Path 923826" d="M401.917,285.39c-.305,2.806-2.473,10.786-2.018,11.121s1.252-2.463,1.576-2.116-.624,4.736-.085,4.943c.73.281,1.47-4.268,1.47-4.268s-.571,5.025.131,5.078c.5.038,1.1-3.776,1.509-5.2-.251,1.6-.363,4.257.154,4.285s.978-2.56,1.435-4.522c-.175,1.252-.377,3.55.1,3.6s2.028-6.161,3.268-12.068" transform="translate(-187.281 -133.675)" fill="#fc7f4f"/>
    <path id="Path_923827" data-name="Path 923827" d="M409.355,212.963s4.366,8.068,5,13.02c1.553,12.2-8.176,32.862-8.176,32.862s-7.07-2.006-7.07-2.929,4.927-22.635,4.927-22.635l-7.067-16.971" transform="translate(-185.936 -99.75)" fill="#fc7f4f"/>
    <path id="Path_923828" data-name="Path 923828" d="M413.573,301.789H387.707V279.653l25.866.663Z" transform="translate(-181.6 -130.988)" fill="#bacecd"/>
    <path id="Path_923829" data-name="Path 923829" d="M372.466,163.129l.948,9.1s-5.243,4.624-9.882-.556l.567-5.987Z" transform="translate(-170.276 -76.409)" fill="#fc7f4f"/>
    <path id="Path_923830" data-name="Path 923830" d="M363.13,145.983s-5.676,8.131-3.357,11.179c1.71,2.248,6.2,2.5,7.584,1.62.3-1.666,3.977-7.169,3.387-8.394-2.254-4.68-7.614-4.405-7.614-4.405" transform="translate(-168.254 -68.376)" fill="#fc7f4f"/>
    <path id="Path_923831" data-name="Path 923831" d="M373.107,145.3c-.183-3.074-3.1-3.974-8.69-3.627-.749.046-2.081-.482-2.427.209-.455.91-.535,2.751.343,3.579a3.167,3.167,0,0,0,1.75.86c1.013.247,2.046,1.25,1.507,2.354-.141.289-.476.779-.264,1.018a3.015,3.015,0,0,0,.607.332c.4.224.377.86.126,1.257s-.138.837-.391,1.232c-.6.937.111,2.664,1.041,3.237.823.507,3.522,1.354,5.5.288,1.714-.924,2.743-3.439,2.756-7.961.005-1.734-1.234-2.9-1.856-2.78" transform="translate(-169.398 -66.291)" fill="#262739"/>
    <path id="Path_923832" data-name="Path 923832" d="M366.932,156.587c.922-1.215,1.668-1.022,2.075-.355.543.89-.546,2.74-1.054,3.056-1.028.64-1.86.573-1.939-.3" transform="translate(-171.439 -72.93)" fill="#fc7f4f"/>
    <path id="Path_923833" data-name="Path 923833" d="M363.1,153.782c-.264.229-.511.643-.365.947a.2.2,0,0,0,.212.118c.592-.06.7-1.542.154-1.065" transform="translate(-169.884 -71.986)" fill="#30394d"/>
    <path id="Path_923834" data-name="Path 923834" d="M363.6,151.745a2.205,2.205,0,0,1,1.186.97" transform="translate(-170.309 -71.076)" fill="none" stroke="#30394d" stroke-miterlimit="10" stroke-width="0.75"/>
    <path id="Path_923835" data-name="Path 923835" d="M362.031,161.386l-1.3-.721s-.851,1.656-.248,2.006c.667.386,1.544-1.285,1.544-1.285" transform="translate(-168.749 -75.254)" fill="#fff"/>
    <rect id="Rectangle_408679" data-name="Rectangle 408679" width="20.475" height="0.954" transform="translate(173.732 253.269)" fill="#273dac"/>
    <path id="Path_923836" data-name="Path 923836" d="M344.367,461.614l1.772.435s.678,2.407.938,4.083a20.4,20.4,0,0,1,.2,3.345l-20.475.016s.535-1.846,5.421-4.823a10.806,10.806,0,0,0,2.905-2.515Z" transform="translate(-153.073 -216.217)" fill="#282a30"/>
    <path id="Path_923837" data-name="Path 923837" d="M353.205,444.8l-.337,8.1s-.859,1.081-4.336,1.084a25.659,25.659,0,0,1-6.671-.977l-.686-10.926" transform="translate(-159.804 -207.067)" fill="#fc7f4f"/>
    <rect id="Rectangle_408680" data-name="Rectangle 408680" width="20.476" height="0.954" transform="translate(202.895 253.269)" fill="#273dac"/>
    <path id="Path_923838" data-name="Path 923838" d="M399.226,461.614l1.772.435s.678,2.407.938,4.083a20.4,20.4,0,0,1,.2,3.345l-20.475.016s.535-1.846,5.421-4.823a10.806,10.806,0,0,0,2.905-2.515Z" transform="translate(-178.769 -216.217)" fill="#282a30"/>
    <path id="Path_923839" data-name="Path 923839" d="M406.253,444.47l.691,8.429s-.86,1.081-4.336,1.084a25.647,25.647,0,0,1-6.671-.978l-1.578-10.926" transform="translate(-184.715 -207.067)" fill="#fc7f4f"/>
    <path id="Path_923840" data-name="Path 923840" d="M388.669,264.82s3.194,6.918.627,20.156c1.306,29.555,4.7,69.289,4.7,69.289l-19.508-.072s-3.978-42.71-6.342-63.994c-2.634-23.709-4.282-52.744-4.282-52.744" transform="translate(-170.433 -111.222)" fill="#3a2292"/>
    <path id="Path_923841" data-name="Path 923841" d="M384.189,400.665s-3.977-42.71-6.343-63.994" transform="translate(-176.981 -157.695)" fill="none" stroke="#203269" stroke-miterlimit="10" stroke-width="0.75"/>
    <path id="Path_923842" data-name="Path 923842" d="M337.809,275.371s-2.073,31.159-2.073,46.112-.923,42.009-.923,42.009h19.718l7.337-70.724c6.009-7.487,5.57-23.734,4.122-30.06l-19.552-5.554Z" transform="translate(-156.824 -120.449)" fill="#3a2292"/>
    <path id="Path_923843" data-name="Path 923843" d="M378.127,351.33l4.028-38.836a22.3,22.3,0,0,0,5.04-13.223" transform="translate(-177.112 -140.177)" fill="#1a405c"/>
    <line id="Line_3359" data-name="Line 3359" x1="4.666" y2="91.25" transform="translate(180.434 151.792)" fill="none" stroke="#203269" stroke-miterlimit="10" stroke-width="0.75"/>
    <line id="Line_3360" data-name="Line 3360" x2="9.578" y2="0.199" transform="translate(198.051 160.015)" fill="none" stroke="#203269" stroke-miterlimit="10" stroke-width="0.75"/>
    <line id="Line_3361" data-name="Line 3361" y1="0.079" x2="3.641" transform="translate(214.455 159.622)" fill="none" stroke="#203269" stroke-miterlimit="10" stroke-width="0.75"/>
    <path id="Path_923844" data-name="Path 923844" d="M294.716,188c-2.673-3.147-9.848-15.111-10.654-14.922s1.366,3.891.676,3.917-4.4-5.435-5.16-5.023c-1.026.559,3.065,5.94,3.065,5.94s-1.6-2.286-2.357-1.534c-.535.533-.253,1.652.856,3.542-.744-.968-1.446-1.138-1.991-.573s-.005,1.592.66,2.634c-.525-.683-1.291-1.026-1.488-.314-.257.93,1.913,5.76,7.048,13.636" transform="translate(-130.355 -80.541)" fill="#fc7f4f"/>
    <path id="Path_923845" data-name="Path 923845" d="M360.717,178.295s11.3.493,14.687,13.87c1.527,6.031,2.511,47.389,2.511,47.389l-41.284-.288s.55-37.389,1.473-45.485c1.687-14.795,12.885-15.717,12.885-15.717s.51,1.308,4.887,1.308,4.842-1.078,4.842-1.078" transform="translate(-157.675 -83.404)" fill="#7d0ede"/>
    <path id="Path_923846" data-name="Path 923846" d="M381.939,178.5c13.41,0,21.667,19.162,21.667,19.162l-8.432,4.4" transform="translate(-178.898 -83.607)" fill="#7d0ede"/>
    <path id="Path_923847" data-name="Path 923847" d="M318.206,211.188s-7.156,10.712-12.933,11.294c-7.766.781-21.582-26.115-21.582-26.115l8.715-6.124,11.937,15.618,4.071-6.33" transform="translate(-132.879 -89.109)" fill="#fc7f4f"/>
    <path id="Path_923848" data-name="Path 923848" d="M346.02,178.064c-11.545.66-20,18.553-20,18.553l13.519,10.095,7.673-10.412" transform="translate(-152.708 -83.404)" fill="#7d0ede"/>
    <line id="Line_3362" data-name="Line 3362" y1="8.849" x2="6.539" transform="translate(186.36 114.103)" fill="none" stroke="#345b5a" stroke-miterlimit="10" stroke-width="1"/>
    <path id="Path_923849" data-name="Path 923849" d="M409.422,211.1a52,52,0,0,0-2.587-10.432" transform="translate(-190.559 -93.99)" fill="none" stroke="#345b5a" stroke-miterlimit="10" stroke-width="1"/>
    <path id="Path_923850" data-name="Path 923850" d="M360.986,155.151s-1.86.929-1.767,1.284a7.108,7.108,0,0,0,.651,1.213" transform="translate(-168.254 -72.672)" fill="#fc7f4f"/>
    <line id="Line_3363" data-name="Line 3363" x2="20.062" transform="translate(177.988 238.595)" fill="none" stroke="#203269" stroke-miterlimit="10" stroke-width="0.75"/>
    <line id="Line_3364" data-name="Line 3364" x2="19.513" transform="translate(203.648 238.772)" fill="none" stroke="#203269" stroke-miterlimit="10" stroke-width="0.75"/>
    <path id="Path_923851" data-name="Path 923851" d="M225.191,434.632l-8.363-39.746h7.06v-9.6H191.194v9.6h6.718l-8.363,39.746h4.386l13.435-38.309L220.8,434.632Z" transform="translate(-88.784 -180.466)" fill="#3d034b"/>
    <path id="Path_923852" data-name="Path 923852" d="M111.274,125.109h-7.086v-7.374a1.379,1.379,0,1,0-2.756,0v7.374H94.346a1.435,1.435,0,0,0,0,2.867h7.086v7.372a1.379,1.379,0,1,0,2.756,0v-7.372h7.086a1.435,1.435,0,0,0,0-2.867" transform="translate(-43.546 -54.475)" fill="#fff"/>
    <rect id="Rectangle_408681" data-name="Rectangle 408681" width="9.508" height="68.504" transform="translate(160.138)" fill="#ff85e7"/>
    <rect id="Rectangle_408682" data-name="Rectangle 408682" width="9.508" height="55.632" transform="translate(173.89 12.872)" fill="#ff85e7"/>
    <rect id="Rectangle_408683" data-name="Rectangle 408683" width="9.508" height="37.922" transform="translate(186.379 30.583)" fill="#ff85e7"/>
    <rect id="Rectangle_408684" data-name="Rectangle 408684" width="35.748" height="1.663" transform="translate(160.138 70.555)" fill="#bacecd"/>
  </g>
</svg>
