<svg xmlns="http://www.w3.org/2000/svg" xmlns:xlink="http://www.w3.org/1999/xlink" width="99" height="99" viewBox="0 0 99 99">
  <defs>
    <clipPath id="clip-path">
      <rect id="Rectangle_401223" data-name="Rectangle 401223" width="99" height="99" transform="translate(0)" fill="#ff85e7"/>
    </clipPath>
    <clipPath id="clip-path-2">
      <rect id="Rectangle_401223-2" data-name="Rectangle 401223" width="88.539" height="88.539" fill="#f3f9ff"/>
    </clipPath>
    <clipPath id="clip-path-3">
      <rect id="Rectangle_408545" data-name="Rectangle 408545" width="66.654" height="47.442" fill="none"/>
    </clipPath>
  </defs>
  <g id="Group_1115786" data-name="Group 1115786" transform="translate(-619.921 -5755.871)">
    <g id="Group_1100724" data-name="Group 1100724" transform="translate(619.921 5755.871)">
      <g id="Group_1099654" data-name="Group 1099654" transform="translate(0 0)">
        <g id="Mask_Group_1099652" data-name="Mask Group 1099652" clip-path="url(#clip-path)">
          <path id="Path_873521" data-name="Path 873521" d="M99,77.066A22,22,0,0,1,77.066,99H21.934A22,22,0,0,1,0,77.066V21.933A22,22,0,0,1,21.934,0H77.066A22,22,0,0,1,99,21.934Z" transform="translate(0)" fill="#170551"/>
        </g>
      </g>
      <g id="Group_1099659" data-name="Group 1099659" transform="translate(4.77 5.723)">
        <g id="Group_1099652" data-name="Group 1099652" transform="translate(0 0)" clip-path="url(#clip-path-2)">
          <path id="Path_873521-2" data-name="Path 873521" d="M88.539,68.922A19.674,19.674,0,0,1,68.923,88.539H19.616A19.674,19.674,0,0,1,0,68.922V19.616A19.674,19.674,0,0,1,19.616,0H68.923A19.674,19.674,0,0,1,88.539,19.616Z" fill="#f3f9ff"/>
        </g>
      </g>
    </g>
    <g id="Group_1100725" data-name="Group 1100725" transform="translate(636.343 5771.293)">
      <rect id="Rectangle_401104" data-name="Rectangle 401104" width="68" height="69" transform="translate(-0.767 0.08)" fill="none"/>
      <g id="Group_1115875" data-name="Group 1115875" transform="translate(0.233 11.08)">
        <g id="Group_1115874" data-name="Group 1115874" transform="translate(0 0)" clip-path="url(#clip-path-3)">
          <path id="Path_922348" data-name="Path 922348" d="M28.89,40.07l2.732-2.724a2.291,2.291,0,0,1,.716-.481c-1.6-.361-1.443-1.52-1.443-1.52s5.632-4.1,8.007-7.2,6.591-2.72,6.591-2.72,8.427,6.964,10.413,9.542-3.059,5.321-3.059,5.321l-.368-.284-8.8,8.079a2.061,2.061,0,0,1-.013,2.677l-2.291,2.284a2.162,2.162,0,0,1-3.014-.265l-.033-.033a2.251,2.251,0,0,1-.522-2.666,2.3,2.3,0,0,1-2.628-.475l-.034-.033a2.268,2.268,0,0,1-.311-2.9A2.386,2.386,0,0,1,32,46.437l-.033-.033a2.321,2.321,0,0,1-.344-2.624,2.317,2.317,0,0,1-2.7-.409l-.033-.034a2.306,2.306,0,0,1,0-3.268" transform="translate(-7.19 -6.478)" fill="#f9bb87"/>
          <rect id="Rectangle_408541" data-name="Rectangle 408541" width="18.039" height="23.411" transform="translate(34.526 15.839) rotate(-45)" fill="#e9d6fa"/>
          <rect id="Rectangle_408542" data-name="Rectangle 408542" width="18.039" height="23.411" transform="translate(37.344 13.021) rotate(-45)" fill="#3a2292"/>
          <path id="Path_922349" data-name="Path 922349" d="M36.563,23.462s4.476-.4,7,2.9,8.505,7.666,8.505,7.666.361,2.62-5.226,1.417-7.717-3.838-7.852-4.418-6.446,5.335-6.446,5.335L28.752,39.3s-5.358-2.923-3.249-5.669,11.06-10.166,11.06-10.166" transform="translate(-6.374 -5.976)" fill="#ffdebb"/>
          <path id="Path_922350" data-name="Path 922350" d="M55.318,43.776l2.9,2.9a2.462,2.462,0,0,0,3.481,0l.036-.036a2.463,2.463,0,0,0,0-3.482l-2.9-2.9a2.463,2.463,0,0,0-3.482,0l-.035.035a2.463,2.463,0,0,0,0,3.482" transform="translate(-13.914 -10.076)" fill="#ffdebb"/>
          <path id="Path_922351" data-name="Path 922351" d="M49.645,46.868l3.463,3.463a2.733,2.733,0,0,0,3.819.338l.036-.036a2.733,2.733,0,0,0-.337-3.819l-3.463-3.463a2.732,2.732,0,0,0-3.819-.337l-.035.034a2.733,2.733,0,0,0,.337,3.82" transform="translate(-12.405 -10.801)" fill="#ffdebb"/>
          <path id="Path_922352" data-name="Path 922352" d="M46.75,53.049,49.5,55.8a2.4,2.4,0,0,0,3.39-.092l.036-.035a2.4,2.4,0,0,0,.092-3.39l-2.748-2.748a2.4,2.4,0,0,0-3.39.092l-.035.036a2.4,2.4,0,0,0-.092,3.39" transform="translate(-11.747 -12.456)" fill="#ffdebb"/>
          <path id="Path_922353" data-name="Path 922353" d="M42.931,58.305l2.433,2.433a2.29,2.29,0,0,0,3.2-.281l.035-.035a2.29,2.29,0,0,0,.281-3.2l-2.433-2.433a2.289,2.289,0,0,0-3.2.281l-.036.035a2.29,2.29,0,0,0-.281,3.2" transform="translate(-10.806 -13.828)" fill="#ffdebb"/>
          <rect id="Rectangle_408543" data-name="Rectangle 408543" width="23.411" height="18.039" transform="translate(2.817 19.371) rotate(-45)" fill="#c0afff"/>
          <rect id="Rectangle_408544" data-name="Rectangle 408544" width="23.411" height="17.309" transform="translate(0 16.554) rotate(-45)" fill="#9d0388"/>
        </g>
      </g>
    </g>
  </g>
</svg>
